<svg width="78" height="90" viewBox="0 0 78 90" fill="none" xmlns="http://www.w3.org/2000/svg">
<path d="M77.2 0H12.9V5.5H0V89.9H64.3V84.4H77.2V0ZM62.6 88.1H1.8V7.3H12.9V84.4H62.6V88.1ZM75.4 82.6H14.7V1.8H75.5V82.6H75.4Z" fill="white"/>
<path d="M41.1 7.2002H20.6V9.00019H41.1V7.2002Z" fill="white"/>
<path d="M68.2 26.5H20.6V28.3H68.2V26.5Z" fill="white"/>
<path d="M68.2 15.6001H20.6V17.4001H68.2V15.6001Z" fill="white"/>
<path d="M68.2 33.2002H20.6V35.0002H68.2V33.2002Z" fill="white"/>
<path d="M68.2 40H20.6V41.8H68.2V40Z" fill="white"/>
<path d="M68.2 53.6001H20.6V55.4001H68.2V53.6001Z" fill="white"/>
<path d="M68.2 60.2998H20.6V62.0998H68.2V60.2998Z" fill="white"/>
<path d="M68.2 67.1001H20.6V68.9001H68.2V67.1001Z" fill="white"/>
</svg>
