<svg width="125" height="205" viewBox="0 0 125 205" fill="none" xmlns="http://www.w3.org/2000/svg">
<path d="M56.1 176.9C56.1 176.9 56.5 183.1 56.4 186.4C56.2 189.6 55.4 196.2 52.9 198.8C50.5 201.4 45.8 201.8 43.3 200.9C40.8 200.1 39.2 197.3 39.1 195.7C39 194.1 39.6 191.8 39.6 191.8C39.6 191.8 42.1 192.9 42.2 193C42.3 193.2 42.9 197.7 44.1 199C45.3 200.3 45.7 200.4 47 200.2C48.2 200 51.9 196.9 53.2 194.1C54.4 191.3 54.8 190.4 55.2 187.2C55.7 183.3 54.9 178.5 54.9 178.5L56.1 176.9Z" fill="#F7F8F8"/>
<path d="M98.3 38.7C98.3 38.7 98.1 38 97.3 37.6C96.5 37.2 95.8 37 95.8 37L95.9 36.5C95.9 36.5 97.4 36.6 98.2 35.2C99 33.9 99.2 33.4 100.1 32.4C101 31.5 102.6 29.1 102.7 27.1C102.8 25.1 102.3 24.3 102.5 23.6C102.7 22.9 103.2 22.1 103.1 21.7C103 21.3 103.1 21.1 103.4 20.5C103.8 19.7 104.1 19 103.7 17.6C103.3 16.2 103.4 14.5 103.5 13.4C103.6 12.3 103 11.3 103 11.3C103 11.3 103.8 9.69999 100.9 6.79999C98 3.99999 92.3 -0.100013 84.2 0.999987C76.1 2.09999 73.2 9.49998 73.2 14.1C73.2 18.7 74.1 22 75.8 24.9C77.5 27.8 78.8 29.2 79.3 29.5C79.8 29.8 80 31.5 79.8 32.6C79.6 33.7 79.4 34.2 79.4 34.2C79.4 34.2 75.8 33.8 74.6 34.3C73.4 34.8 73 35.5 73 36.6C73 37.7 71 38.4 71 38.9C71 39.4 71.3 39.7 71.3 39.7C71.3 39.7 64.5 41.5 62.1 46.7C59.8 52 59 54 59 54C59 54 57.2 57.6 56 61.6C54.8 65.5 52.4 70.9 52.5 73.1C52.6 75.3 53.2 76.4 53.2 76.4C53.2 76.4 52.6 78.2 52.8 78.6C53 79 53.3 79.6 53.3 79.6C53.3 79.6 51 87.8 50.5 90.3C50 92.8 47.4 102.1 47.3 103.7C47.1 105.3 47.1 106.2 47.1 106.5C47.1 106.8 49 106.9 51.1 107.1C53.2 107.3 57.2 108.2 57.6 107.7C58 107.2 57.5 105.4 58.2 102.7C58.8 99.9 59 97.9 59.6 95.5C60.2 93 61.1 90.4 61.1 90.4C61.1 90.4 60.4 99.3 62 106.4C63.6 113.4 63.8 117.8 64 119.5C64.2 121.2 63.6 122.8 64.1 123.3C64.6 123.8 70 123.6 70 123.6C70 123.6 70.6 128.2 70.5 130.9C70.4 133.7 72.3 135.3 71.6 135.9C71 136.5 68.8 137.6 68 139.9C67.2 142.2 67.9 146.5 67.2 147.5C66.5 148.5 63.7 153.2 64.1 155.8C64.5 158.4 64.9 159.4 64.7 160.8C64.5 162.3 64.3 163.4 64.3 163.4C64.3 163.4 62.7 165.6 61.1 168.4C59.5 171.2 60.6 174.2 60.6 174.2C60.6 174.2 60.8 177 58.5 180.6C56.2 184.2 57.6 189.1 59.4 190.8C61.2 192.6 65 193.6 67.4 192.8C69.7 192 71.2 189.6 71 186.8C70.9 184 70.8 181.7 71.8 179.4C72.8 177.1 73.3 175.3 73.3 175.3C73.3 175.3 77.7 172.1 77.9 170.5C78.1 168.9 77.2 165.4 76.8 164.4C76.4 163.4 76.2 163.3 76.9 162C77.7 160.7 78.1 159 78.8 156.5C79.5 154 81.6 152.7 82.2 150C82.8 147.3 83 145.9 84.5 144.3C86 142.7 86.4 142.2 86.4 142.2C86.4 142.2 85.9 148 85.3 149.4C84.7 150.8 85.2 151.8 84.7 154.2C84.2 156.5 83.3 157 83.1 160.2C82.9 163.4 84.2 164.7 83.6 166.4C83 168.1 81.3 172.7 81.1 174.7C81 176.7 80.5 178.9 79.5 180.7C78.6 182.6 78.4 186.7 78.7 187.6C79 188.5 79.4 188.9 79.4 188.9C79.4 188.9 79.2 190.8 79.2 191.5C79.2 192.2 79.9 192.4 79.9 192.4C79.9 192.4 79.3 193 79.2 193.9C79.1 194.7 79.2 196.3 79.8 196.9C80.4 197.5 83 197.6 86 197.7C89 197.8 90 197.8 91.6 196.9C93.1 196 94.5 195.7 96.1 195.9C97.7 196.1 100.5 195.7 101.4 194.2C102.3 192.7 102 190.4 101.7 189C101.4 187.6 99.5 186.4 98.4 186.1C97.3 185.8 95.7 186.4 95.7 186.4C95.7 186.4 96.8 183.8 97.1 182.5C97.4 181.2 97.3 179.9 96.8 179.4C96.3 179 96.3 179 96.3 179C96.3 179 97.6 179.1 98.6 175.2C99.6 171.3 100.5 166.6 101.7 163.6C102.8 160.6 104.9 156.4 105.1 153.4C105.3 150.3 104.6 148.9 105 147.7C105.5 146.5 106.3 142.4 106.4 139.6C106.5 136.8 106.2 134.5 107 129.9C107.9 125.3 107.5 122.1 107.5 122.1C107.5 122.1 109.3 121.2 109.1 120.3C108.9 119.4 108.2 119.8 108.5 117.2C108.9 114.6 108.1 112.8 108.1 109.5C108.1 106.2 109.3 101.8 108.4 96.7C107.5 91.6 108 89.8 107.8 85.7C107.5 81.7 105.6 76.1 105.6 76.1C105.6 76.1 109.8 77.7 111.8 77.3C113.8 76.9 114.5 76.9 114.5 76.9C114.5 76.9 115.5 78 116.4 78.2C117.3 78.4 119.3 78.4 120.6 76.9C121.9 75.3 124.7 71.1 124 68.7C123.3 66.4 122.9 66.3 122.9 65.9C122.8 65.5 124.3 64.3 122.6 63C120.9 61.8 119.3 60 117.7 57.8C116.1 55.6 115.4 51.3 114.1 49.5C112.9 47.6 111.1 47 109.2 45C107.3 43 106.4 42.2 103.9 41.2C101.8 40.3 98.3 38.7 98.3 38.7Z" fill="white"/>
<path d="M57.5 131.3C57.4 131 56.4 129.3 55.9 128C55.4 126.6 54.1 125.5 54.1 124.4C54.1 123.3 53.9 122.7 53.8 121.7C53.6 120.7 52.6 119.3 52.1 118C51.6 116.6 51.6 116.1 51 115.7C50.4 115.3 50 115.3 50 115.3C50 115.3 49.7 115.6 49.4 115.7C49.1 115.8 49.1 115.8 49.1 115.8C49.1 115.8 50.1 115.7 50.1 116.5C50.1 116.8 49.9 117.1 49.9 117.3C49.8 117.5 50.3 116.9 50.7 117C51.4 117.3 51.3 118.5 51.7 119.2C52.1 119.9 53 121.6 53.1 122.9C53.3 124.2 52.6 125.8 53.1 127.1C53.6 128.4 54.4 130.8 54.8 131.4C55.3 131.8 57.5 131.3 57.5 131.3Z" fill="#F7F8F8"/>
<path d="M48.6 115.9C48.6 115.9 48.1 116.7 48.5 117.1C48.8 117.5 48.8 117.5 48.8 117.5L48.2 117.8C48.2 117.8 47.3 117.2 47 117.9C46.8 118.6 46.8 118.6 46.8 118.6C46.8 118.6 45.5 119.1 44.9 119.7C44.4 120.3 43.4 121.1 42.7 122.6C42 124.1 41.6 126 41.2 126.4C40.8 126.9 38.6 126.8 37.9 126.8C37.2 126.9 37 126.4 37 126.4C37 126.4 38.4 126.4 40 125.1C41.6 123.7 42.1 122.5 42.4 121.6C42.7 120.7 42.6 119.5 43.2 118.6C43.8 117.7 44.6 116.9 45.3 116.6C46.1 116.4 48.6 115.9 48.6 115.9Z" fill="#F7F8F8"/>
<path d="M1.00002 181.6C1.30002 180.9 1.80002 179.4 2.40002 177.4C3.90002 177.5 6.20002 177.7 8.20002 177.9C11.7 178.2 20.2 179.3 24.3 180.3C28.4 181.3 39.7 183 39.7 183C39.7 183 39.7 183 41.7 183.4C43.7 183.8 47.6 185.1 49.5 186.4C50.7 187.2 52 188 52.8 188.5C52.4 189.4 52.1 190.3 51.9 191.1C51.5 193.6 50.3 197.9 46.8 198.4C43.3 198.9 34.9 196.3 30.8 195.5C26.7 194.7 17.6 194.8 15.6 194.1C13.6 193.4 12.9 191.7 10.7 190.7C8.50002 189.6 2.50002 188.7 0.90002 186.9C-0.59998 185 1.9908e-05 183.6 1.00002 181.6Z" fill="#F1F2F2"/>
<path d="M41.6 183.5C39.6 183.1 39.6 183.1 39.6 183.1C39.6 183.1 28.3001 181.4 24.2001 180.4C20.1 179.4 11.6 178.3 8.10005 178C6.10005 177.8 3.80005 177.7 2.30005 177.5C3.50005 173.4 5.10005 167.5 6.80005 163.8C9.20005 158.3 11.3 154.2 12.3 152.3C13.3 150.4 14.5 145.1 15.6 141.9C16.7 138.7 17.6 135.6 19 133.5C20.3 131.3 22 129.4 24.4 129C26.8 128.6 28.7001 128.2 30 127.9C31.3 127.5 35.4001 126.5 35.4001 126.5C36.5 126.3 38 125.5 39.7001 125.5C41.4001 125.5 42.2001 126.7 45.8 127.2C49.4 127.7 52 128.3 53.5 128.2C55 128.1 56 128.6 57.1 129.7C58.1 130.8 57.9 131.7 59.1 131.9C60.3 132.1 63.5 132.7 64.1 133.7C64.6 134.4 64.9001 136 64 138.8C63.1 141.6 61.6 149.4 60.8 154.1C60 158.8 58.9001 167.8 58 170.5C57.1 173.2 56.5 175 56.4001 176.3C56.3001 177.5 56.6 180.2 55.6 182.8C54.9 184.6 53.6 186.6 52.8 188.6C52 188.1 50.7001 187.3 49.5 186.6C47.5 185.2 43.6 183.8 41.6 183.5Z" fill="#E6E7E8"/>
<path d="M40.3 184.7C40.4 184.5 43.1 179.3 43.7 175.8C44.1 173.7 45 170.2 45.8 167C46.3 165 46.8 163 47.1 161.7C47.4 160.3 50.3 147.5 51.5 144C52.7 140.4 53.5 137.7 52.6 135.5L52.4 135.1C51.7 133.3 51.3 132.4 49.6 132.4C48 132.5 46.9 133.2 45.9 135C45.6 135.5 45.4 135.9 45.2 136.3C44.8 137 44.7 137.7 44.2 138C43.7 138.2 41.4 138.7 38.8 136.7C37.4 135.7 36.2 134.8 35 134C33.6 133.1 32.4 132.2 31.1 131.2C28.1 129 25.9 128.1 24.2 128.6C22.2 129.2 20.8 130.2 19.8 131.7L18.9 133.6C18.9 133.6 19.4 132.9 20.3 131.8C21.2 130.7 22.6 129.9 24.5 129.3C25.9 128.9 28 129.7 30.8 131.8C32.1 132.8 33.4 133.6 34.7 134.6C35.9 135.4 37.2 136.3 38.5 137.3C41.5 139.5 44.1 139 44.8 138.6C45 138.5 45.5 137.9 46 136.7C46.2 136.3 46.5 135.9 46.7 135.4C47.6 133.9 48.4 133.2 49.8 133.2C51 133.2 51.1 133.5 51.9 135.4L52.1 135.8C52.9 137.8 52.1 140.4 51 143.8C49.8 147.4 46.9 160.1 46.6 161.6C46.3 163 45.8 164.9 45.3 166.9C44.5 170 43.6 173.6 43.2 175.7C42.6 179.1 39.9 184.3 39.8 184.4L40.3 184.7Z" fill="#F7F8F8"/>
<path d="M50.7 164.6C50.7 164.6 53.5 155.8 54.1 149.2C54.7 142.6 54.9 135.6 54 133.5C53.2 131.3 52.8 130.4 52 130.1C51.2 129.7 50.3 130.1 50.3 130.1L49.5 130.8C49.5 130.8 51.3 130.1 52.1 131.2C52.9 132.3 53.9 133.5 53.9 138.7C53.9 143.9 53.1 149.5 52.4 153.8C51.7 158.1 49.8 164.3 49.8 164.3L50.7 164.6Z" fill="#F7F8F8"/>
<path d="M47.8 132.6C47.8 132.6 45.3 133.6 43.3 132.7C41.3 131.8 39 129.6 37.8 128.7C36.6 127.8 34.8 127.1 34.3 127C33.8 126.9 34 127 34 127L32.1 127.4C32.1 127.4 33.8 127.4 36 129C38.6 130.9 41.5 132.7 44.1 133.4C45.7 133.8 47.8 132.6 47.8 132.6Z" fill="#F7F8F8"/>
<path d="M45.9 197.1L44.3 200.9C44.3 200.9 44.1 204.1 41.7 204.5C39.2 204.9 38.1 202 38.1 202C38.1 202 36.4 199.2 36.4 198.5C36.4 197.8 37.1 195.5 37.1 195.5L45.9 197.1Z" fill="#F7F8F8"/>
<path d="M33.5 195C33.5 195 31 198.9 30.8 199.1C30.6 199.3 27.9 198.4 27.9 198.1C27.9 197.8 28.6 194 28.6 194L33.5 195Z" fill="#F7F8F8"/>
<path d="M13.7 191.4C13.7 191.4 10.9 191.5 10.6 191.5C10.3 191.5 8.90005 194.4 8.60005 194.5C8.30005 194.5 5.40005 194 5.40005 193.6C5.40005 193.2 5.30005 188.1 5.30005 188.1C5.30005 188.1 12.3 189.5 12.5 189.6C12.8 189.8 13.7 191.4 13.7 191.4Z" fill="#F7F8F8"/>
<path d="M46.3 163.6C46.3 163.6 49.1 163.5 52.5 165.2C55.9 166.8 58.7001 168 58.7001 168L58.3 169.9C58.3 169.9 56.1 169.3 54.5 168.3C52.9 167.2 50.0001 166.1 48.4001 165.8C46.8001 165.6 45.8 165.6 45.8 165.6L46.3 163.6Z" fill="#F7F8F8"/>
<path d="M24.9 193.2L23.3 197C23.3 197 23.1 200.2 20.7 200.6C18.2 201 17.1 198.1 17.1 198.1C17.1 198.1 15.4 195.3 15.4 194.6C15.4 193.9 16.1 191.6 16.1 191.6L24.9 193.2Z" fill="#F7F8F8"/>
<path d="M56.5 107.6C56.5 107.6 56.2 109.9 55.8 110.4C55.4 110.9 55.4 110.9 55.4 110.9C55.4 110.9 56 113.9 56.2 114.8C56.4 115.5 56.5 117.3 56 118.2C55.5 119.1 55.4 120 54.8 119.8C54.2 119.7 54.3 118.9 54.4 118.2C54.6 117.3 54 115.6 53.5 115.8C52.9 116 52.8 117.1 52.5 117.9C52.2 118.7 52.4 120 52.6 120.2C52.8 120.4 53.4 121 53.1 121.6C52.7 122.2 51.8 121.7 51 121.3C50.3 120.9 50.2 119.6 50.2 119.6C50.2 119.6 49.8 120.4 49.1 119.9C48.3 119.4 48.1 118.6 48.1 118.6C48.1 118.6 46.9 118.7 46.4 117.5C46 116.5 45.5 114.8 45.8 113.3C46 111.8 47 110.3 47.5 109.8C48 109.3 48.7 104.5 49.2 103.5C49.7 102.5 56.5 107.6 56.5 107.6Z" fill="white"/>
</svg>
