<svg width="75" height="238" viewBox="0 0 75 238" fill="none" xmlns="http://www.w3.org/2000/svg">
<path d="M22.8 117.7C22.7 121.6 24.2 125.1 25.7 128.7C26.6 130.8 27.6 132.6 29.6 133.8C29.9 134 30.1 134.5 30.1 134.9C29.4 142.8 29.8 150.7 30.2 158.7C30.5 164.9 29.1 170.9 27 176.7C23.9 185.1 22.5 193.7 24.3 202.6C25 206 25.4 209.5 25.9 213C26 213.9 25.9 214.9 25.9 215.9C25.9 217.4 25.6 218.7 24.5 219.9C23.7 220.8 23.4 222.2 23 223.4C22.7 224.4 22.6 225.5 22.4 226.5C22.3 227 22.1 227.5 21.7 227.9C19.6 230.3 20.2 233 23.1 234.1C25.6 235.1 28.3 235.1 30.9 234.9C34.1 234.6 37.1 234.9 40 236.2C45.7 238.6 51.2 237.3 56.4 234.7C57.3 234.2 58.2 233.2 58.7 232.3C59.7 230.3 58.6 228.3 56.4 227.7C55.7 227.5 54.9 227.4 54.2 227.3C51.1 227.1 48.8 225.5 46.5 223.7C44.8 222.4 43.1 221.2 41.2 220.3C38.3 218.9 36.7 216.6 36.8 213.6C36.9 207 37.9 200.5 40 194.2C40 194.1 40.1 194.1 40.3 193.9C41.4 197.6 42.7 201.3 42.6 205.2C42.6 205.5 42.5 205.8 42.3 206C40.6 207.6 40.3 209.7 40 211.9C39.9 212.6 39.7 213.4 39.5 214C38.7 216.4 39.3 218.2 41.7 218.9C43.9 219.6 46.3 219.8 48.6 220.1C50.6 220.4 52.5 220.4 54.4 219.8C55.4 219.5 56.7 219.9 57.7 220.2C60.8 221.2 63.8 221.1 66.9 220.3C67.2 220.2 67.6 220.1 67.9 220C69.7 219.3 70.2 218.7 70.1 217.4C70 215.7 68.9 214.2 67.3 214C65.2 213.7 63.7 212.5 62.2 211.3C60.5 209.9 58.6 208.6 56.9 207.3C56.2 206.8 55.6 206.1 55.1 205.4C52.8 202.2 51.3 198.5 51.2 194.5C51 189 51 183.6 51 178.1C51 175.8 51.2 173.5 51.3 171.1C51.4 168.8 51.9 166.7 53.1 164.7C54.3 162.8 54.6 160.8 54.4 158.7C54.2 156.1 54.1 153.5 53.9 150.8C53.5 145.3 55 140.1 55.8 134.8C55.8 134.5 56.3 134.3 56.5 134C56.8 133.7 57.1 133.3 57.1 132.9C57.2 131.3 57.1 129.6 57.1 127.9C57.1 124.6 57.1 121.3 57.2 118.1C57.2 117 57 115.9 57.3 114.8C57.7 113.1 58 111.4 57.4 109.7C56.6 108.9 55.9 108.1 55 107.4C51.3 104.6 47.6 101.9 44.5 98.4002C44.4 99.0002 44.2 99.5002 44.3 100.1C44.4 104.3 44.7 108.6 44.8 112.8C45 120.6 44.8 128.4 44.3 136.2C44.3 136.5 44.2 136.9 44.1 137C43.6 137.2 43.1 137.4 42.6 137.4C42.5 137.4 42.2 136.7 42.2 136.4C42.5 132.1 42.9 127.9 43 123.6C43.2 118.4 43.3 113.2 43.3 108C43.3 104.1 43.1 100.2 43.1 96.3002C42.5 95.4002 41.9 94.5002 41.3 93.7002C41 93.9002 40.5 94.1002 40.4 94.4002C39.9 96.0002 39.6 97.7002 39.2 99.4002C38.7 101.8 38.8 104.3 37.4 106.4C36.3 108 35.2 109.5 34 111C31.5 114 28.5 116.3 24.3 116.6C23.1 116.3 22.8 116.8 22.8 117.7Z" fill="white"/>
<path d="M22.8 117.7C22.8 116.8 23.1 116.3 24.2 116.2C28.3 116 31.4 113.7 33.9 110.6C35.1 109.1 36.3 107.6 37.3 106C38.7 103.9 38.6 101.3 39.1 99.0001C39.5 97.3001 39.8 95.7001 40.3 94.0001C40.4 93.7001 40.9 93.6001 41.2 93.3001C41 92.9001 40.8 92.5001 40.5 92.0001C39.4 90.2001 38.3 88.5001 37.2 86.7001C36.9 87.1001 36.5 87.6001 36.1 88.1001C35.8 86.9001 35.5 85.8001 35.3 84.7001C34.5 79.6001 33.7 74.4001 33.1 69.3001C32.5 64.6001 32.2 59.8001 31.9 55.1001C31.8 53.1001 32.3 51.0001 32.3 49.0001C32.3 47.9001 32.8 47.2001 33.7 46.7001C35.8 45.6001 37.9 44.3001 40.1 43.3001C43.7 41.6001 47 42.2001 50.2 44.5001C49.8 44.7001 49.5 44.8001 49.2 44.9001C51.4 44.8001 53.6 44.8001 55.5 46.2001C55.2 45.7001 55 45.1001 54.5 44.7001C52.7 43.4001 50.9 42.2001 49.1 41.0001C45.2 38.5001 41.2 38.7001 37.1 40.3001C35.3 41.0001 33.5 41.5001 31.7 42.1001C31.4 42.2001 31.1 42.1001 30.7 42.1001C30.9 41.5001 30.9 40.9001 31.2 40.5001C32.1 38.9001 33 37.4001 34 35.8001C32.9 35.3001 31.7 34.6001 30.4 35.3001C28.8 36.9001 27.2 38.6001 26.3 40.8001C26.2 41.0001 25.6 41.2001 25.2 41.2001C23.5 41.3001 21.8 40.8001 20.2 41.7001C19.3 42.5001 18.3 43.1001 17.7 44.0001C16.9 45.1001 16.3 46.5001 15.6 47.7001C17.5 49.3001 19.1 51.1001 20.3 53.3001C22.2 56.9001 22.1 60.8001 21.8 64.6001C21.4 68.6001 20.7 72.6001 20 76.5001C19.9 77.1001 19.5 77.7001 19.3 78.4001C19.1 78.4001 18.9 78.4001 18.8 78.4001C18.7 78.0001 18.5 77.5001 18.6 77.1001C19.1 74.1001 19.7 71.2001 20.1 68.2001C20.7 64.3001 21 60.4001 20.2 56.6001C19.5 53.2001 17.9 50.3001 14.2 49.1001C12 49.3001 10.4 50.2001 9.5 52.4001C7.9 56.1001 6 59.7001 4.2 63.4001C4.2 63.4001 4.20001 63.5001 4.10001 63.5001C3.70001 65.8001 2.3 67.7001 1.3 69.8001C0.700004 71.1001 0.700001 72.4001 1.5 73.7001C1.8 74.2001 2.1 74.9001 2.3 75.5001C2.4 75.4001 2.4 75.2001 2.5 75.2001C4.8 74.2001 8.4 75.9001 9 78.2001C9 78.4001 8.9 78.8001 8.8 78.9001C7.4 79.8001 6.1 80.7001 4.7 81.6001C4.3 81.9001 3.79999 82.0001 3.39999 82.2001C4.29999 83.8001 5 85.2001 5.8 86.6001C6.3 87.4001 6.89999 88.2001 7.39999 89.0001C7.49999 89.2001 7.4 89.9001 7.2 90.0001C6 90.8001 4.90001 91.6001 3.60001 92.1001C1.80001 92.9001 1.70001 92.8001 2.60001 94.6001C2.70001 94.9001 2.90001 95.1001 3.10001 95.4001C4.70001 97.3001 6.2 99.1001 7.7 100.8C6.9 101.9 6.2 102.9 5.5 104C4.4 105.5 3.40001 107.1 4.10001 109.1C4.90001 110.2 6 110.7 7.3 110.9C9.7 111.2 11.8 112.1 13.7 113.7C15.5 115.2 17.7 115.7 20 116C20.7 116.1 21.4 116.2 22.1 116.3C22.7 116.8 22.7 117.2 22.8 117.7Z" fill="#E6E7E8"/>
<path d="M20.1 41C19 38.8 18.7 36.6 19.2 34.1C19.9 30.4 20.4 26.6 21.1 22.8C21.8 19.6 22.6 16.3 23.6 13.2C24.4 10.7 26.4 9.40004 29.1 9.30004C30.3 9.20004 31.4 8.90004 31.9 7.50004C32.8 5.00004 34.6 3.10004 37.2 2.20004C38.9 1.60004 40.6 0.900041 42.3 0.600041C46.1 -0.0999586 49.9 0.300044 53.3 2.20004C55 3.10004 56.5 4.30004 58.3 5.20004C58.8 5.50004 59.2 6.40004 59.4 7.10004C59.7 8.40004 59.9 9.70004 60 10.9C60.2 12.2 60.4 13.5 60.4 14.8C60.3 16.8 60.8 18.3 62.3 19.7C64 21.3 63.7 22.1 61.4 22.9C61.3 22.9 61.3 23 61.3 23.1C61.7 25.6 61.7 25.6 61.1 26.4C61.1 27 61.1 27.6 61 28.2C60.9 28.7 60.7 29.1 60.7 29.6C60.7 31.6 59.7 32.7 57.7 32.6C56.6 32.5 55.5 32.4 54.4 32.3C52.6 32.1 51.2 32.9 50.4 34.5C49.8 35.6 49.5 36.8 49 38C49.2 38.2 49.3 38.3 49.4 38.4C53.4 41 55.9 44.9 58.4 48.7C59 49.6 59.2 50.6 59.5 51.6C60.3 54.2 60.1 56.7 59.6 59.4C58.9 62.6 58.6 65.8 58.2 69C58.1 68.3 58 67.6 58 67C57.8 64.9 56.6 63.5 54.6 63.3C55.6 61.6 56.7 60 57.6 58.2C59.3 55.1 59.6 51.9 57.9 48.7C57.4 47.8 56.6 47.2 56 46.4C55.7 45.9 55.5 45.3 55 44.9C53.2 43.6 51.4 42.4 49.6 41.2C45.7 38.7 41.7 38.9 37.6 40.5C35.8 41.2 34 41.7 32.2 42.3C31.9 42.4 31.6 42.3 31.2 42.3C31.4 41.7 31.4 41.1 31.7 40.7C32.6 39.1 33.5 37.6 34.5 36C35.9 33.9 36 31.6 35.5 29.2C35.4 28.8 35.2 28.4 34.9 28.1C33.1 26.4 31.6 24.4 30.5 22.1C30.5 23.9 30.4 25.7 30.5 27.4C30.6 28.7 31 29.9 31.1 31.1C31.2 32.5 31 34 31 35.5C29.4 37.1 27.8 38.8 26.9 41C26.8 41.2 26.2 41.4 25.8 41.4C24.1 41.5 22.4 41 20.8 41.9C20.3 41.6 20.2 41.3 20.1 41ZM29.6 13.1C28.9 14.7 29.2 16.2 29.8 17.9C30.2 16.1 30.6 14.6 31 12.9C30.4 12.3 29.9 12.3 29.6 13.1Z" fill="white"/>
<path d="M54.4 63.2001C55.4 61.5001 56.5 59.9001 57.4 58.1001C59.1 55.0001 59.4 51.8001 57.7 48.6001C57.2 47.7001 56.4 47.1001 55.8 46.3001C53.9 44.9001 51.7 44.9001 49.5 45.0001C48.8 45.2001 48.1 45.4001 47.5 45.7001C45.1 47.0001 43.6 49.1001 42.7 51.6001C41 56.3001 39.3 61.0001 37.9 65.8001C36.6 70.1001 36.3 74.6001 36.7 79.2001C37 81.8001 37.1 84.3001 37.3 86.9001C38.4 88.7001 39.5 90.4001 40.6 92.2001C40.8 92.6001 41.1 93.0001 41.3 93.5001C41.9 94.4001 42.5 95.3001 43.1 96.1001C43.6 96.8001 44.1 97.5001 44.7 98.2001C47.8 101.7 51.5 104.5 55.2 107.2C56.1 107.9 56.8 108.7 57.6 109.5C57.9 109.7 58.5 109.8 58.6 110C59 110.9 59.5 111.8 59.6 112.8C60 115.1 60.9 117.2 62 119.3C62.2 119.7 62.6 119.9 62.9 120.2C63.6 120.7 64.3 121.2 65 121.7L65.1 121.8C66.5 121.9 67.6 123.1 69.1 122.7C69.3 122.7 69.4 122.6 69.6 122.7C71.1 122.9 71.6 122.7 72 121.2C72.2 120.5 72.2 119.7 72.4 118.9C72.6 118.9 72.8 119 73.1 118.9C74.1 118.9 74.5 118.2 73.9 117.5C72.6 116 72.3 114.1 71.5 112.5C70.8 111 69.8 109.6 68.6 108.5C66.5 106.6 64.1 105 62 103.1C60.7 102 59.8 100.6 58.7 99.3001C57.3 97.6001 55.7 95.9001 54.4 94.0001C52.8 91.6001 51.6 89.1001 50.2 86.6001C49.3 85.1001 49.1 83.5001 49.3 81.8001C49.4 81.2001 49.4 80.7001 49.5 80.1001C49.5 79.8001 49.5 79.4001 49.6 79.1001C50.6 74.9001 51.5 70.8001 52.6 66.6001C52.8 65.3001 53.7 64.3001 54.4 63.2001Z" fill="#F1F2F2"/>
<path d="M49.4 80.0002C49.3 80.6002 49.3 81.1002 49.2 81.7002C49 83.4002 49.2 85.0002 50.1 86.5002C51.5 89.0002 52.7 91.5002 54.3 93.9002C55.5 95.8002 57.1 97.4002 58.6 99.2002C58.9 95.4002 58.5 91.7002 58 88.0002C57.8 86.2002 57.9 84.4002 57.7 82.7002C57.6 81.9002 57.3 81.2002 57.2 80.4002C57.1 79.6002 56.8 78.8002 56.9 78.0002C57.1 75.4002 57.5 72.8002 57.8 70.2002C57.5 70.4002 57.2 70.5002 57 70.8002C55.2 74.3002 52.8 77.6002 49.4 80.0002Z" fill="white"/>
<path d="M49.4 80.0002C52.8 77.6002 55.1 74.3002 57.1 70.7002C57.2 70.4002 57.6 70.3002 57.9 70.1002C58 69.7002 58 69.3002 58.1 68.9002C58 68.2002 57.9 67.5002 57.9 66.9002C57.7 64.8002 56.5 63.4002 54.5 63.2002C53.8 64.3002 52.9 65.3002 52.6 66.5002C51.5 70.6002 50.6 74.8002 49.6 79.0002C49.4 79.3002 49.5 79.7002 49.4 80.0002Z" fill="#E6E7E8"/>
<path d="M4.5 109.2C3.8 107.2 4.79999 105.6 5.89999 104.1C6.59999 103 7.40001 102 8.10001 100.9C6.60001 99.2001 5.1 97.3001 3.5 95.5001C3.3 95.3001 3.1 95.0001 3 94.7001C2.1 92.9001 2.2 93.0001 4 92.2001C5.3 91.7001 6.40001 90.8001 7.60001 90.1001C7.80001 90.0001 7.9 89.4001 7.8 89.1001C7.3 88.3001 6.7 87.5001 6.2 86.7001C5.4 85.3001 4.6 83.9001 3.8 82.3001C4.2 82.1001 4.70001 82.0001 5.10001 81.7001C6.50001 80.8001 7.9 79.9001 9.2 79.0001C9.4 78.9001 9.49999 78.5001 9.39999 78.3001C8.79999 75.9001 5.19999 74.2001 2.89999 75.3001C2.79999 75.3001 2.8 75.5001 2.7 75.6001C2.7 75.8001 2.7 75.9001 2.7 76.1001C3.4 76.0001 4.19999 76.0001 4.89999 75.9001C6.99999 75.7001 8.3 77.2001 7.5 79.0001C7.2 79.6001 6.59999 80.2001 5.89999 80.5001C4.59999 81.2001 3.2 81.7001 1.8 82.2001C1.8 82.6001 1.8 82.9001 1.8 83.3001C2.8 82.9001 3.49999 83.5001 3.89999 84.3001C4.49999 85.4001 5.1 86.6001 5.7 87.8001C6.4 89.3001 5.8 91.0001 4.2 91.5001C3.4 91.8001 2.4 91.8001 1.5 91.9001C1.5 92.4001 1.5 93.0001 1.5 93.5001C1.8 94.2001 1.89999 94.9001 2.39999 95.5001C3.09999 96.5001 3.9 97.5001 4.8 98.2001C6.4 99.5001 6.4 102.1 5.3 103.6C4.4 104.8 3.8 106.1 3 107.4C3.6 107.9 4 108.6 4.5 109.2Z" fill="#F1F2F2"/>
<path d="M3.19998 107.3C3.99998 106 4.59998 104.7 5.49998 103.5C6.59998 102 6.59998 99.3999 4.99998 98.0999C4.09998 97.3999 3.29999 96.3999 2.59999 95.3999C2.19999 94.7999 1.99998 94.0999 1.69998 93.3999C1.59998 95.6999 1.49999 97.8999 1.29999 100.2C0.999987 102.8 1.49998 105.2 3.19998 107.3Z" fill="#F1F2F2"/>
<path d="M14.5 49.2999C18.1 50.4999 19.8 53.3999 20.5 56.7999C21.3 60.5999 21 64.5999 20.4 68.3999C19.9 71.3999 19.3 74.2999 18.9 77.2999C18.8 77.6999 19 78.1999 19.1 78.5999C19.3 78.5999 19.5 78.5999 19.6 78.5999C19.8 77.9999 20.2 77.3999 20.3 76.6999C20.9 72.6999 21.7 68.7999 22.1 64.7999C22.4 60.9999 22.6 57.0999 20.6 53.4999C19.4 51.2999 17.8 49.4999 15.9 47.8999C15.4 48.3999 14.9 48.7999 14.5 49.2999Z" fill="#F1F2F2"/>
<path d="M1.60001 91.8001C2.50001 91.7001 3.4 91.7001 4.3 91.4001C5.9 90.9001 6.5 89.2001 5.8 87.7001C5.2 86.5001 4.7 85.4001 4 84.2001C3.5 83.4001 2.89999 82.8001 1.89999 83.2001C1.79999 86.0001 1.70001 88.9001 1.60001 91.8001Z" fill="#E6E7E8"/>
<path d="M1.89999 82.1C3.29999 81.5 4.7 81 6 80.4C6.6 80.1 7.30001 79.5 7.60001 78.9C8.40001 77.1 7.1 75.7 5 75.8C4.3 75.9 3.5 75.9 2.8 76C2.4 78.1 2.09999 80.1 1.89999 82.1Z" fill="#F1F2F2"/>
<path d="M44.7 98.1C44.2 97.4 43.7 96.7 43.1 96C43.2 99.9 43.4 103.8 43.3 107.7C43.3 112.9 43.2 118.1 43 123.3C42.8 127.6 42.4 131.8 42.2 136.1C42.2 136.5 42.5 137.1 42.6 137.1C43.1 137.1 43.7 136.9 44.1 136.7C44.3 136.6 44.3 136.1 44.3 135.9C44.9 128.1 45 120.3 44.8 112.5C44.7 108.3 44.5 104 44.3 99.8C44.4 99.3 44.6 98.7 44.7 98.1Z" fill="#F1F2F2"/>
<path d="M37.3 86.7998C37.1 84.1998 37 81.6998 36.7 79.0998C36.2 74.5998 36.6 70.0998 37.9 65.6998C39.3 60.8998 41 56.1998 42.7 51.4998C43.6 48.9998 45.1 46.8998 47.5 45.5998C48.1 45.2998 48.8 45.0998 49.5 44.8998C49.8 44.7998 50.1 44.5998 50.5 44.4998C47.3 42.1998 43.9 41.5998 40.4 43.2998C38.2 44.2998 36.2 45.5998 34 46.6998C33.1 47.1998 32.6 47.8998 32.6 48.9998C32.5 50.9998 32.1 53.0998 32.2 55.0998C32.4 59.8998 32.8 64.5998 33.4 69.2998C34 74.4998 34.9 79.5998 35.6 84.6998C35.8 85.7998 36.1 86.8998 36.4 88.0998C36.7 87.6998 37 87.2998 37.3 86.7998Z" fill="white"/>
<path d="M30.9 12.8999C30.3 12.2999 29.9 12.2999 29.5 13.0999C28.8 14.6999 29.1 16.1999 29.7 17.8999C30.2 16.0999 30.5 14.5999 30.9 12.8999Z" fill="#F1F1F1"/>
</svg>
