<svg width="136" height="229" viewBox="0 0 136 229" fill="none" xmlns="http://www.w3.org/2000/svg">
<path d="M0.100014 176.6C0.800014 205.4 8.80001 228.6 18.1 228.4C27.4 228.2 34.4 204.7 33.7 175.8C33.1 147 25 123.8 15.7 124C6.49999 124.2 -0.499986 147.7 0.100014 176.6ZM15 137.5C19.4 137.1 23.3 156 23.7 179C24.1 202 19.2 220 16.1 220C14.1 220 7.90001 202.2 7.60001 179.2C7.30001 156.2 11.7 137.8 15 137.5Z" fill="#F2F2F3"/>
<path d="M104.6 120.8C104.6 120.8 107.1 119 110.2 120.7C113.3 122.4 114.7 125.9 114.7 125.9C114.7 125.9 117.6 126.3 119.5 130.2C121.3 134.1 128.6 149.5 128.7 177.8C128.8 206.1 121.7 221.7 115.8 224.2C109.9 226.7 105.3 221.1 102.3 214.7C99.4001 208.3 95.6001 193.5 95.0001 184.6C94.4001 175.6 93.7001 163.7 94.3001 156.7C94.9001 149.7 94.9001 149.7 94.9001 149.7L100.6 152.1C100.6 152.1 101.6 186.8 106.8 202.4C112 218 114.8 216.7 114.8 216.7C114.8 216.7 123.9 202.4 121.1 167.9C118.3 133.4 110 127.7 110 127.7C110 127.7 107.2 131.1 106.1 134.7C105 138.3 105 138.3 105 138.3L104.6 120.8Z" fill="#F2F2F3"/>
<path d="M99 48.5001C97.2 46.8001 94.3 47.8001 92.1 46.3001C89.9 44.8001 87.4 43.3001 82.4 41.6001C77.4 39.9001 72.3001 39.6001 72.3001 39.6001C72.3001 39.6001 72.1001 35.9001 70.8001 35.7001C69.5001 35.5001 68 35.5001 68 35.5001C68 35.5001 67.3001 34.5001 67.3001 32.8001C67.3001 31.1001 67.1 30.0001 67.1 30.0001C67.1 30.0001 67.4 32.3001 68.7 31.5001C69.5 31.0001 70.9 27.2001 70.5 23.8001C70.3 21.5001 69.7 20.2001 69.1 20.1001C68.5 20.1001 68.5 20.3001 68.5 20.3001C68.5 20.3001 68.6 12.5001 65.7 6.6001C62.9 0.700103 56.2 -0.399895 50.1 0.200105C44.1 0.900105 40.9 5.2001 39.4 9.3001C37.9 13.5001 39.5 21.6001 39.5 21.6001C39.5 21.6001 37.9 21.2001 38.1 24.8001C38.3 28.5001 39.4 30.3001 40.7 32.0001C42 33.7001 42.8001 31.6001 42.8001 31.6001C42.8001 31.6001 43.3 32.2001 44.1 34.7001C44.9 37.2001 45.1 38.9001 45.1 38.9001C45.1 38.9001 42.6 39.9001 40.7 41.6001C38.9 43.3001 33.8 46.6001 30 48.6001C26.1 50.6001 23.6 50.9001 22.1 53.5001C20.6 56.0001 18.2 63.7001 16.1 67.2001C13.9 70.7001 11.4 77.4001 9.59999 80.1001C7.79999 82.8001 6.90006 83.5001 7.30006 85.6001C7.60006 87.8001 8.09999 88.3001 8.09999 88.3001C8.09999 88.3001 7.09999 94.3001 8.09999 100C9.09999 105.7 13 112.1 13.6 118.4C14.3 124.8 14.4 128 13.9 129.5C13.4 131 10.9 135.9 10.2 137.2C9.49996 138.5 8.00001 140.6 8.00001 143.9C8.00001 147.3 10.2 147.3 10.2 147.3C10.2 147.3 9.99996 149.1 11.2 149.1C12.4 149.1 12.4 149.1 12.4 149.1C12.4 149.1 13.2 150.6 14.6 150.6C15.9 150.6 15.9 150.6 15.9 150.6C15.9 150.6 16.4 151.1 17.6 151.1C18.8 151.1 19.6 148.9 19.6 148.9C19.6 148.9 21.6 150.2 21.9 148.7C22.2 147.2 21.6 145.5 21.7 143C21.9 140.5 24.5 137.1 25.1 134.8C25.6 132.5 23.4 127.6 22.9 121.7C22.4 115.8 22.9 107.6 23.4 103.4C23.9 99.2001 23.9 93.3001 23.9 93.3001C23.9 93.3001 24.1 94.3001 26.9 92.6001C29.7 90.9001 32.3001 87.6001 32.3001 87.6001C31.5001 93.2001 31.3001 93.0001 31.8001 98.7001C31.9001 99.6001 32.1001 93.7001 26.8001 94.2001C18.1001 95.0001 20.5001 107.1 21.3001 112.1C21.8001 115.4 22.3001 116.7 23.3001 123.4C24.3001 130.1 27.8001 141.3 27.8001 141.3L105.5 139.6L104.5 87.3001C104.5 87.3001 106.2 87.6001 108.5 88.0001C110.8 88.3001 111.9 90.2001 113.2 91.1001C114.5 91.9001 116.7 88.4001 116.7 88.4001C116.7 88.4001 119.7 89.7001 119.7 93.3001C119.7 96.8001 121 106.7 122.5 112.4C124 118.1 122.3 120.1 122.3 120.1C122.3 120.1 120.5 121.1 118.9 124.1C117.4 127.1 118.1 129.3 117.6 131C117.1 132.7 114.2 136.1 115.6 137.7C116.7 138.9 117.7 137.6 118.7 136.5C120.1 135.1 121 133.3 122.1 133.7C123.1 134 122.8 137.7 121.6 139.1C120.4 140.4 115.6 140.3 115.6 142.1C115.6 143.9 117.1 143.6 117.1 143.6C117.1 143.6 116.3 145.4 117.1 146.3C117.9 147.1 119.6 147.1 119.6 147.1C119.6 147.1 121.1 147.8 122.8 147.8C124.5 147.8 129 147.1 129.8 146.3C130.6 145.5 131.6 143.5 131.5 140.1C131.3 136.7 131.2 134.7 131 131.2C130.8 127.7 132 126 131.8 123C131.6 120 133.5 115.5 133.6 108.9C133.8 102.4 136.3 100.7 134.6 91.6001C132.9 82.6001 132.9 81.7001 130.9 79.5001C128.9 77.3001 126.2 75.5001 126.2 75.5001C126.2 75.5001 126.2 74.3001 125 73.3001C123.8 72.3001 116.6 66.4001 110.8 60.2001C104.9 54.0001 102.4 53.2001 101.4 51.2001C101.3 50.9001 99 48.5001 99 48.5001Z" fill="white"/>
<path d="M113 172.6C113 175.2 113.7 177.3 114.6 177.3C115.5 177.3 116.2 175.2 116.2 172.6C116.2 170 115.5 167.9 114.6 167.9C113.7 167.9 113 170 113 172.6Z" fill="white"/>
<path d="M115.9 170.3C115.9 170.3 117.2 170.5 117.2 172C117.2 173.5 116.1 173.7 115.6 173.7C115.2 173.7 115.9 170.3 115.9 170.3Z" fill="white"/>
<path d="M113.6 169L96.7 170.5C96.7 170.5 93.9 169.3 89.9 169.2C85.9 169.2 86.1 170.4 86.1 170.4L40.1 172.9L21.5 172L14.6 173.1C14.6 173.1 11.8 173.2 11.1 173.8C10.4 174.3 9.90001 177.1 11 177.6C12.1 178.1 17.7 178.9 24.7 178.9C31.7 178.9 33.5 179.5 43.2 179.4C52.9 179.3 88.6 178.4 88.6 178.4C88.6 178.4 89 179.6 91.4 179.6C93.8 179.6 94.4 178.1 94.4 178.1L104.8 177.2C104.8 177.2 105.8 177.5 106.1 176.8C106.5 176.1 106.5 175.8 106.5 175.8L113.6 175.3V169Z" fill="#F2F2F3"/>
<path d="M12.6 180.6C13.4285 180.6 14.1 178.451 14.1 175.8C14.1 173.149 13.4285 171 12.6 171C11.7716 171 11.1 173.149 11.1 175.8C11.1 178.451 11.7716 180.6 12.6 180.6Z" fill="white"/>
<path d="M88.3001 176.6L83.8001 184.7V190H82.8001L83.0001 192.2C83.0001 192.2 85.8 192 86.6 194.7C87.4 197.5 87.7 201.8 87.7 201.8L85.0001 199.3C85.0001 199.3 84.2 194.5 83.7 194.2C83.2 194 82.2 194.3 82.2 194.3C82.2 194.3 82.6 195.4 82.2 195.9C81.8 196.4 80.1001 196.5 79.9001 196.1C79.7001 195.7 79.7 194.5 79.7 194.5C79.7 194.5 79 194 79.1 196C79.2 197.9 80.1 201.1 80.1 201.1L78.2 206.3C78.2 206.3 76.5001 197.2 76.4001 195.9C76.3001 194.6 76.2 192.9 77.2 192.5C78.3 192.1 79.1 192.1 79.1 192.1L79.2 190.3C79.2 190.3 78.2 190.7 78.1 189.9C78 189.2 77.7 185.3 77.7 185.3L66.2 179.6L66.0001 176.6L77.1 181C77.1 181 77.2 179.1 77.7 178.8C78.2 178.6 81.3 178.6 81.7 178.6C82.1 178.6 83.0001 175.8 83.0001 175.8L88.3001 176.6Z" fill="white"/>
<path d="M77.9001 208.3C78.6001 214.2 81.9001 218.7 85.1001 218.3C88.4001 217.9 90.4001 212.8 89.7001 206.9C89.0001 201 85.7001 196.5 82.5001 196.9C79.2001 197.3 77.2001 202.4 77.9001 208.3ZM83.0001 210.9L83.6001 209.9H85.3002C85.3002 209.9 85.4001 209.9 84.7001 211.7C84.0001 213.5 83.4001 213.2 83.4001 213.2L83.0001 210.9Z" fill="white"/>
<path d="M105.1 140C105.1 140 105.9 139.2 107.6 139.2C109.3 139.2 110 140.2 110 140.2L107.6 171.2L103.1 172.9L103.2 160.4C103.2 160.4 101.4 160.7 100.4 159.6C99.4001 158.5 99.4001 158.5 99.4001 158.5L72.9001 166.1L91.0001 165.5C91.0001 165.5 95.3001 164.7 97.0001 164.7C98.7001 164.7 99.7 166.1 99.7 166.1L99.1 172.5L36.5001 174C36.5001 174 37.2001 168.3 38.0001 168C38.8001 167.7 57.5001 167 57.5001 167L38.6 161.3L37.5001 161.9L36.9001 175.5L33.0001 173.7L32.9001 140.1L38.5001 140.8C38.5001 140.8 49.1 140.9 52.7 140.7C56.3 140.6 88.1001 138.7 90.5001 137.7C92.9001 136.7 100.5 139.6 100.5 139.6L105.1 140Z" fill="white"/>
<path d="M22.6 208.9C23.6 209 28.5 208.6 28.5 208.6L41.4 208.5V207.2H43.1V208.2L60.5 206.9L60.6 205.1C60.6 205.1 61.9001 205.1 63.3001 204.7C64.7001 204.3 65.1 202.7 66.2 202.5C67.3 202.2 69.6 201.2 69.7 198.3C69.8 195.4 68.6 194.1 68.6 194.1C68.6 194.1 69.3 192 69.4 189.5C69.5 187 68.3001 183.3 68.3001 183.3C68.3001 183.3 68.3 183.3 68.9 182C69.5 180.7 68.6 179.1 68.6 179.1V174.3L32.2 175.8C32.2 175.8 31.8 179 30.9 181.5C30.1 184 27.7 184.4 27.5 185.4C27.4 186.4 27.5 189.7 26.1 192.7C24.7 195.6 24.6001 195.4 23.3001 197.5C22.0001 199.6 24 202.8 24 202.8C24 202.8 20.4 203.6 20.1 204.2C19.8 204.9 21.6 208.8 22.6 208.9ZM45.6 201.8L50.6 202.8H45.6V201.8Z" fill="white"/>
<path d="M120.705 157.801L115.24 170.69L115.516 170.808L120.981 157.918L120.705 157.801Z" fill="white"/>
<path d="M122.9 172.8V173.1L114.1 171.8V171.5L122.9 172.8Z" fill="white"/>
<path d="M121.7 164.1L111.4 170.1L111.2 169.8L121.6 163.8L121.7 164.1Z" fill="white"/>
<path d="M118.262 142.732L115.601 171.309L115.899 171.336L118.561 142.76L118.262 142.732Z" fill="white"/>
<path d="M114.5 132H114.2V169.4H114.5V132Z" fill="white"/>
<path d="M109.323 174.398L109.205 174.674L123.553 180.798L123.67 180.522L109.323 174.398Z" fill="white"/>
<path d="M122.8 188.4L122.5 188.5C122.5 188.5 116.4 175.3 115.4 173.1C115.9 175.6 121.1 200.4 121.1 200.4L120.8 200.5L114.8 171.8L115.1 171.7L122.8 188.4Z" fill="white"/>
<path d="M113.7 170.7L113.4 170.9L107 158.4L107.2 158.3L113.7 170.7Z" fill="white"/>
<path d="M107.968 152.148L107.685 152.247L113.984 170.172L114.267 170.072L107.968 152.148Z" fill="white"/>
<path d="M114.4 170.5L114.1 170.6L104.6 124.8L104.9 124.7L114.4 170.5Z" fill="white"/>
<path d="M117.1 135.6L107.1 167.4L106.8 167.3L116.8 135.5L117.1 135.6Z" fill="white"/>
<path d="M120.476 147.526L106.02 169.138L106.269 169.304L120.725 147.693L120.476 147.526Z" fill="white"/>
<path d="M115.103 174.577L114.804 174.606L118.544 213.124L118.842 213.095L115.103 174.577Z" fill="white"/>
<path d="M123.6 195.8L123.4 196L105.8 174L106.1 173.8L123.6 195.8Z" fill="white"/>
<path d="M114.8 175L109.9 214H109.6L114.5 175H114.8Z" fill="white"/>
<path d="M114.4 174.09L105.859 205.034L106.148 205.114L114.69 174.17L114.4 174.09Z" fill="white"/>
<path d="M114.5 173.7L103.2 194.4L102.9 194.3L114.2 173.5L114.5 173.7Z" fill="white"/>
<path d="M115 171.2L101.9 184.4L101.7 184.2C101.7 184.2 114.6 171.3 114.7 171.2C114.7 171 108.5 124.6 108.5 124.6H108.8L115 171.2Z" fill="white"/>
<path d="M105.685 174.436L105.411 174.558L119.847 207.1L120.121 206.978L105.685 174.436Z" fill="white"/>
<path d="M104.687 174.945L104.399 175.029L116.864 217.749L117.152 217.665L104.687 174.945Z" fill="white"/>
<path d="M112.2 216.6L111.8 216.7L104.1 173.6H104.4L112.2 216.6Z" fill="white"/>
<path d="M106 202.1H105.7L105.4 174H105.7L106 202.1Z" fill="white"/>
<path d="M104.792 174.133L102.404 188.739L102.701 188.787L105.088 174.181L104.792 174.133Z" fill="white"/>
<path d="M104.7 175.1L101.6 181L101.3 180.8L104.4 174.9L104.7 175.1Z" fill="white"/>
<path d="M7.22132 168.06L7.13287 168.346L21.6565 172.829L21.7449 172.542L7.22132 168.06Z" fill="white"/>
<path d="M12.6724 175.705L12.4721 175.928L28.1768 190.019L28.3771 189.796L12.6724 175.705Z" fill="white"/>
<path d="M6.5352 157.899L6.24847 157.987L11.5884 175.386L11.8751 175.298L6.5352 157.899Z" fill="white"/>
<path d="M13.0351 146.806L10.6506 174.304L10.9495 174.33L13.334 146.832L13.0351 146.806Z" fill="white"/>
<path d="M24.7 199.7L24.4001 199.9L12.8001 177.3L13.1 177.2L24.7 199.7Z" fill="white"/>
<path d="M13.3111 179.515L13.028 179.614L22.5795 206.89L22.8625 206.79L13.3111 179.515Z" fill="white"/>
<path d="M20.5001 217L20.2 217.1C20.2 217.1 13.6 184.8 12.6 180.1C13 184.9 16.2 221.7 16.2 221.7H15.9001L12.1 177.4H12.4001L20.5001 217Z" fill="white"/>
<path d="M12.5001 178.1L12.0001 216.9H11.7L12.2 178.1H12.5001Z" fill="white"/>
<path d="M13.4001 176.5L8.00006 199.9L7.70001 199.8L13.1 176.4L13.4001 176.5Z" fill="white"/>
<path d="M14.1749 174.413L6.2088 191.883L6.48176 192.008L14.4479 174.538L14.1749 174.413Z" fill="white"/>
<path d="M12.7546 175.229L5.19757 183.765L5.42218 183.964L12.9793 175.428L12.7546 175.229Z" fill="white"/>
<path d="M6.68137 174.168L6.59772 174.456L11.8799 175.989L11.9636 175.701L6.68137 174.168Z" fill="white"/>
<path d="M12.5001 174.9L12.6 175.5L5.50006 166.9L5.70001 166.7C5.70001 166.7 11.4 173.6 12.1 174.4C11.9 173.3 8.30011 148.2 8.30011 148.2H8.60004L12.5001 174.9Z" fill="white"/>
<path d="M25.1 163.5L13.0001 174.6L12.8001 174.3L24.9001 163.3L25.1 163.5Z" fill="white"/>
<path d="M24.6945 150.797L12.9236 173.079L13.1889 173.219L24.9598 150.937L24.6945 150.797Z" fill="white"/>
<path d="M20.0001 145.9L12.4001 174.4L12.1 174.3L19.6 145.8L20.0001 145.9Z" fill="white"/>
<path d="M23.4421 152.306L21.9006 173.75L22.1998 173.772L23.7413 152.328L23.4421 152.306Z" fill="white"/>
<path d="M21.4001 170.9L21.0001 171L16.8001 147.7H17.2L21.4001 170.9Z" fill="white"/>
<path d="M21.5001 172.9H21.2L20.9001 145.5H21.3001L21.5001 172.9Z" fill="white"/>
<path d="M22.3001 173L22.0001 173.1L12.8001 147.9L13.1 147.8L22.3001 173Z" fill="white"/>
<path d="M10.0198 156.78L9.7807 156.961L21.6854 172.658L21.9245 172.477L10.0198 156.78Z" fill="white"/>
<path d="M21.8001 177.2L7.70001 197.9L7.50006 197.8L21.5001 177L21.8001 177.2Z" fill="white"/>
<path d="M22.2 176.9L9.60004 210L9.30011 209.9L21.9001 176.8L22.2 176.9Z" fill="white"/>
<path d="M21.9001 177.6L13.7 219.6L13.3001 219.5L21.6 177.5L21.9001 177.6Z" fill="white"/>
<path d="M20.5872 176.689L17.7841 220.701L18.0835 220.72L20.8866 176.708L20.5872 176.689Z" fill="white"/>
<path d="M22.1932 176L21.8965 176.045L24.4049 192.557L24.7015 192.512L22.1932 176Z" fill="white"/>
<path d="M25.8001 183L25.5001 183.1C25.4001 182.8 22.4001 178.7 20.5001 176L20.8001 175.8C21.3001 176.5 25.7001 182.5 25.8001 183Z" fill="white"/>
<path d="M21.9001 178.7L23.0001 200.6H22.7C22.7 200.6 21.9 185.9 21.7 181.6C21.4 186.5 19.5001 218.3 19.5001 218.3H19.2L21.6 178.8L21.9001 178.7Z" fill="white"/>
<path d="M71.2 155.4L63.3001 174.8L32.2 175.9C32.2 175.9 28.5001 149 30.5001 141.5C32.5001 134 44.9001 135.5 44.9001 135.5L71.2 155.4Z" fill="white"/>
</svg>
