<svg width="93" height="271" viewBox="0 0 93 271" fill="none" xmlns="http://www.w3.org/2000/svg">
<path d="M30.4001 7.70006C30.4001 7.70006 29.2001 9.40006 28.8001 11.0001C28.3001 12.7001 27.3001 14.0001 27.5001 15.0001C27.6001 16.0001 28.0001 16.6001 27.1001 17.8001C26.2001 18.9001 25 20.1001 24.2 20.9001C23.4 21.7001 23.3001 22.6001 23.8001 23.2001C24.3001 23.8001 25.6001 23.8001 25.8001 24.1001C26.0001 24.5001 26 25.1001 25.7 25.6001C25.3 26.0001 25.0001 26.6001 25.3001 26.9001C25.5001 27.1001 25.8001 27.6001 25.8001 27.6001C25.8001 27.6001 24.8001 28.2001 25.1001 28.9001C25.4001 29.6001 26.2001 30.0001 26.0001 30.6001C25.8001 31.3001 25.2001 33.4001 26.5001 34.4001C27.8001 35.4001 30.6 34.8001 31.7 34.6001C32.8 34.4001 34.5001 34.4001 34.5001 34.4001C34.5001 34.4001 33.3001 36.4001 32.0001 37.2001C30.7001 37.9001 30.1 38.3001 29.7 39.3001C29.3 40.3001 29.8001 41.8001 29.8001 41.8001C29.8001 41.8001 27.2001 43.4001 23.8001 43.9001C20.5001 44.4001 17.6 46.8001 16.2 49.5001C14.8 52.3001 13.1001 57.5001 11.9001 60.0001C10.7001 62.5001 9.80014 65.4001 9.30014 67.9001C8.80014 70.4001 8.60007 76.4001 8.10007 80.0001C7.60007 83.6001 6.10014 88.3001 6.30014 90.1001C6.50014 92.0001 6.80014 93.1001 6.80014 93.1001C6.80014 93.1001 3.00009 93.3001 1.50009 95.4001C0.100091 97.6001 -0.0999087 102.2 1.00009 106.2C2.10009 110.2 5.60004 113.1 8.70004 113.4C11.7 113.7 16.4001 111.3 19.0001 109.7C21.6001 108.1 24.3001 107.7 24.3001 107.7C24.3001 107.7 22.6001 112.5 21.8001 117.1C21.1001 121.7 20.8001 126.4 21.5001 128.4C22.2001 130.4 22.8001 131.4 22.8001 131.4C22.8001 131.4 22.3001 142.9 22.0001 148.5C21.8001 154.1 22.4001 162.3 23.4001 168.7C24.4001 175.1 25.8 178.6 25.2 179.5C24.6 180.4 24.8001 181.6 25.5001 182.5C26.1001 183.4 25.8001 184 25.8001 185.3C25.8001 186.6 25.9001 187.6 26.4001 187.9C26.9001 188.3 26.9001 188.3 26.9001 188.3C26.9001 188.3 25.4001 194.5 28.3001 201.9C31.2001 209.3 37.4001 222 38.6001 226C39.9001 230 40.6001 230.9 40.6001 232.8C40.6001 234.7 41.1001 237.5 41.1001 237.5C41.1001 237.5 40.3001 239.1 39.6001 239.9C38.8001 240.7 39.1001 241.5 39.1001 243.7C39.1001 245.9 38.7001 250.4 38.1001 253.1C37.5001 255.9 36.7001 258.3 36.8001 260.6C36.9001 263 37.3001 265 40.9001 266.1C44.5001 267.2 48.7001 266.5 50.6001 264C52.5001 261.5 52.0001 259.6 51.6001 257.3C51.2001 255 51.1 252.1 52.2 249.9C53.3 247.6 55.3 244.7 55.2 242.7C55.1 240.7 53.2 238.9 53.2 238.9C53.2 238.9 53.2 235.9 52.2 234.5C51.2 233.1 51.2001 232.4 50.3001 231.7C49.4001 231.1 48.7001 230.8 48.5001 230.4C48.3001 230 46.7001 218.8 46.4001 214.4C46.0001 210 46.9001 205 45.6001 200.9C44.3001 196.9 43.3 193.9 42.7 190.7C42.1 187.6 41.8001 186.6 41.8001 186.6C41.8001 186.6 42.3 185.5 42.2 183.1C42.1 180.7 41.3001 181.6 41.9001 178.7C42.5001 175.8 42.8001 175.1 42.5001 171.8C42.2001 168.5 42.8001 162.9 44.6001 156.8C46.5001 150.8 47.2001 145.1 48.4001 142.7C49.5001 140.3 49.5001 139.8 49.5001 139.8C49.5001 139.8 50.9001 146.3 51.3001 152C51.7001 157.7 52.6001 163.9 51.8001 167.8C51.0001 171.7 52.4001 178.4 52.6001 181.8C52.7001 185.2 53 189.3 53.2 191.5C53.5 193.6 53.5001 193.9 54.0001 194.1C54.5001 194.4 55.0001 194.7 55.0001 194.7C55.0001 194.7 56.1001 200.5 56.1001 204.1C56.1001 207.7 55.5001 212.1 56.4001 217.3C57.3001 222.5 58.7 233.4 58.7 237.3C58.7 241.2 60.2001 245.2 59.1001 249.1C58.0001 253 57.5001 254.1 57.5001 254.1C57.5001 254.1 56.1001 255.2 57.0001 257C57.9001 258.8 58.4001 260.4 57.8001 262.3C57.2001 264.2 56.9001 265.8 57.5001 266.4C58.1001 267 60.3001 267.5 60.3001 267.5C60.3001 267.5 60.6 269.6 62.2 269.9C63.8 270.2 70.8001 270.3 72.0001 269.4C73.3001 268.5 73.0001 267.3 73.4001 266.8C73.8001 266.3 74.0001 264.3 73.3001 262.3C72.5001 260.3 71.5001 259.3 71.3001 257.4C71.0001 255.5 69.9001 254 69.4001 253.5C68.9001 253 68.3001 252.7 68.3001 252.7C68.3001 252.7 66.9001 250.2 67.9001 244.9C68.9001 239.6 70.9001 226 71.5001 222C72.1001 218 72.9001 211.7 72.1001 206.7C71.3001 201.7 69.6001 193.5 69.6001 193.5C69.6001 193.5 70.2 192.9 69.7 192C69.2 191.1 68.4 189.6 68.7 188.4C69 187.1 68.6001 186.3 68.3001 185C68.0001 183.7 68.4001 180 69.3001 176.8C70.2001 173.7 73.3001 155.9 74.1001 149.4C74.9001 142.9 76.7001 138.5 76.9001 132.8C77.0001 127.1 76.3001 122.6 76.3001 122.6C76.3001 122.6 77.7 120.2 77.7 118.2C77.7 116.2 77.2 109.8 77.2 109.8C77.2 109.8 85.5001 104.8 87.4001 103.1C89.3001 101.5 91.9001 100.3 92.6001 96.9001C93.2001 93.5001 91.7001 88.7001 90.5001 84.6001C89.2001 80.4001 85.3001 73.7001 84.6001 68.9001C83.8001 64.1001 81.5001 58.2001 80.1001 54.1001C78.7001 50.0001 76.7001 47.9001 74.3001 46.2001C71.9001 44.4001 71.9001 44.4001 71.9001 44.4001C71.9001 44.4001 71.4001 40.5001 69.3001 38.6001C67.2001 36.7001 66.4001 34.3001 62.0001 33.2001C59.8001 32.6001 56.2 34.7001 56.2 34.7001C56.2 34.7001 54.8001 32.6001 53.8001 32.9001C52.8001 33.3001 52.8001 33.3001 52.8001 33.3001C52.8001 33.3001 51.9001 30.5001 52.8001 29.7001C53.7001 28.8001 55.2001 30.3001 57.6001 26.3001C60.0001 22.3001 59.7 19.1001 59.7 19.1001C59.7 19.1001 61.8001 19.2001 62.6001 18.3001C63.4001 17.4001 62.9 16.5001 64.7 15.8001C66.6 15.0001 68.3001 13.5001 68.3001 11.3001C68.3001 9.00006 66.5001 6.90006 64.1001 5.60006C61.7001 4.30006 61.7 4.30006 61.7 4.30006C61.7 4.30006 61.2 1.90006 59.2 1.90006C57.2 1.90006 55.1001 3.30006 55.1001 3.30006C55.1001 3.30006 53.1001 1.30006 47.4001 6.07371e-05C41.7001 -1.29994 33.7 1.20006 31.7 3.00006C29.4 5.10006 30.4001 7.70006 30.4001 7.70006Z" fill="white"/>
<path d="M51.7 46.4003C51.7 46.4003 51.8001 42.8003 52.3001 42.7003C52.8001 42.6003 55.9001 43.9003 57.4001 44.4003C58.9001 44.9003 59.5001 46.1003 59.5001 46.1003L59.4001 48.6003C59.4001 48.6003 57.8001 46.7003 55.5001 46.7003C53.2001 46.7003 51.7 46.4003 51.7 46.4003Z" fill="#F7F8F8"/>
<path d="M37.9001 47.6C37.9001 47.6 34.9 44.3 32.1 44C29.3 43.6 24.1 43.9 24.1 43.9C24.1 43.9 27.5 42.5 28.6 42.4C29.7 42.3 31.1001 41.4 32.5001 41C33.9001 40.6 34.1 40.2 37.7 41.3C41.2 42.3 43.1001 43.3 44.0001 44.2C44.9001 45.1 44.9001 45.1 44.9001 45.1C44.9001 45.1 43.6001 44.7 41.5001 45.6C39.3001 46.4 37.9001 47.6 37.9001 47.6Z" fill="#F7F8F8"/>
<path d="M53.0001 45.9001C52.2001 45.8001 50.6 46.2001 48.7 45.9001C46.8 45.6001 45.2 44.4001 42.2 45.3001C39.2 46.2001 37.9 46.4001 37.2 48.6001C36.4 50.7001 35.2001 57.8001 34.3001 61.2001C33.4001 64.6001 32.7001 65.9001 32.8001 69.9001C32.9001 73.9001 33.6001 73.2001 32.5001 77.6001C31.5001 82.0001 31.5001 88.4001 31.6001 89.8001C31.7001 91.2001 30.6001 94.7001 30.6001 96.8001C30.6001 98.9001 30.5001 102.6 31.1001 106.6C31.7001 110.6 32.6001 113.3 33.0001 116.2C33.4001 119.1 35.8001 121.9 38.8001 122.9C41.8001 123.9 47.0001 123.3 49.4001 123.2C51.8001 123.1 59.1 122.1 63.2 122.4C67.4 122.8 73.9 122.8 76.7 120.5C79.5 118.2 79.5001 117.4 79.1001 114.8C78.7001 112.3 78.7 108 78.7 103.9C78.7 99.8001 79.5001 98.2001 79.1001 93.1001C78.7001 87.9001 79.0001 79.5001 77.5001 74.9001C76.0001 70.2001 73.2001 66.3001 71.8001 64.5001C70.4001 62.6001 66.4001 57.5001 65.1001 54.9001C63.8001 52.4001 63.2001 50.6001 61.8001 49.9001C60.4001 49.1001 59.4001 47.8001 57.5001 47.1001C55.6001 46.2001 53.0001 45.9001 53.0001 45.9001Z" fill="#F2F2F3"/>
<path d="M39.0001 90.4003C38.6001 91.9003 38.9001 95.8003 39.4001 97.7003C39.9001 99.6003 39.5001 103.6 39.5001 106.6C39.5001 109.6 39.1001 113.4 40.1001 115C41.1001 116.6 43.9001 118.3 46.1001 119C48.4001 119.8 52.8001 118.7 54.7001 118.4C56.6001 118 63.9001 117.8 65.9001 117.6C67.9001 117.5 71.8001 117.5 73.6001 116.2C75.4001 114.9 77.4001 112.8 76.9001 109.9C76.4001 107 76.3001 103.6 76.0001 100.8C75.7001 98.0003 76.3001 91.9003 75.5001 90.0003C74.7001 88.1003 74.5001 85.2003 71.4001 85.0003C68.3001 84.7003 63.9002 85.5003 58.3002 85.8003C52.8002 86.1003 47.2001 86.9003 44.7001 87.2003C42.2001 87.5003 39.4001 88.9003 39.0001 90.4003Z" fill="#F7F8F8"/>
<path d="M34.8001 91.8C34.8001 90.5 34.3001 84 34.3001 81.9C34.3001 79.8 31.9 75.2 35.2 69.2C38.5 63.2 37.6 62 39.1 60.5C40.6 59 42.6 58.4 44 58.7C45.4 59.1 46.5 59 48.6 58.3C50.7 57.7 53.6 58.4 56.5 58.4C59.4 58.4 60.1 57.4 63.1 58.4C66.1 59.4 67.7 60.8 70 64.1C72.3 67.4 74.5 70 76 74.8C77.5 79.6 77.9001 82.5 77.9001 82.5C77.9001 82.5 75.9 74.5 74.1 71.7C72.3 68.9 70.6 66 69.7 65C68.8 64 68.2001 62.2 66.8001 61.1C65.4001 60 63.7 59.2 61.5 59C59.4 58.7 58.4 59.1 57.1 59.1C55.8 59.1 51.1 58.3 49.6 58.8C48.1 59.3 46.3 59.6 44.5 59.6C42.6 59.6 41 59.1 39.7 60.7C38.4 62.3 38.3001 63.3 37.4001 65.5C36.5001 67.6 35.9 69.3 35.1 70.4C34.3 71.5 33.6 74.7 33.7 76.7C33.8 78.7 34.6001 79.5 34.8001 82.2C35.1001 85 35.1 92 35.1 92L34.8001 91.8Z" fill="#F7F8F8"/>
<path d="M38.8001 92.0001C38.8001 92.0001 40.9001 93.3001 42.4001 93.6001C43.9001 94.0001 48.3001 94.4001 50.8001 94.1001C53.3001 93.8001 56.1 95.1001 58.6 95.0001C61.1 94.9001 64.4001 93.4001 67.3001 93.0001C70.2001 92.6001 71.6001 92.4001 72.8001 91.5001C74.1001 90.6001 75.4001 90.1001 75.4001 90.1001L75.5001 91.5001C75.5001 91.5001 75 91.8001 73.1 92.8001C71.2 93.8001 69.5 93.9001 67.2 94.3001C65.3 94.6001 61.3001 96.1001 58.4001 96.1001C55.5001 96.1001 51.5 95.3001 50.1 95.5001C48.7 95.6001 44.6001 95.6001 42.4001 95.1001C40.3001 94.6001 38.6 93.8001 38.6 93.8001V92.0001H38.8001Z" fill="#F2F2F3"/>
</svg>
