<svg width="76" height="104" viewBox="0 0 76 104" fill="none" xmlns="http://www.w3.org/2000/svg">
<path d="M32.9 29.8999H13.1V31.6999H32.9V29.8999Z" fill="white"/>
<path d="M60.9 29.8999H41.1V31.6999H60.9V29.8999Z" fill="white"/>
<path d="M32.9 38.1001H13.1V39.9001H32.9V38.1001Z" fill="white"/>
<path d="M60.9 38.1001H41.1V39.9001H60.9V38.1001Z" fill="white"/>
<path d="M32.9 46.2998H13.1V48.0998H32.9V46.2998Z" fill="white"/>
<path d="M60.9 46.2998H41.1V48.0998H60.9V46.2998Z" fill="white"/>
<path d="M32.9 54.5H13.1V56.3H32.9V54.5Z" fill="white"/>
<path d="M60.9 54.5H41.1V56.3H60.9V54.5Z" fill="white"/>
<path d="M32.9 62.7002H13.1V64.5002H32.9V62.7002Z" fill="white"/>
<path d="M60.9 62.7002H41.1V64.5002H60.9V62.7002Z" fill="white"/>
<path d="M32.9 70.8999H13.1V72.6999H32.9V70.8999Z" fill="white"/>
<path d="M60.9 70.8999H41.1V72.6999H60.9V70.8999Z" fill="white"/>
<path d="M32.9 79.1001H13.1V80.9001H32.9V79.1001Z" fill="white"/>
<path d="M60.9 79.1001H41.1V80.9001H60.9V79.1001Z" fill="white"/>
<path d="M71 9.3H55.1C54.5 8 53.2 7.1 51.6 7.1H44.2V5.9C44.2 2.6 41.5 0 38.3 0H36.7C33.4 0 30.8 2.7 30.8 5.9V7H23.4C21.9 7 20.5 7.9 19.9 9.2H4.1C1.8 9.2 0 11 0 13.3V99.6C0 101.9 2.8 103.7 5.1 103.7H71C73.3 103.7 75.1 101.9 75.1 99.6V13.4C75.1 11.1 73.3 9.3 71 9.3ZM55.5 16.8V16.1H67.9V96.9H7.1V16.1H19.5V16.8H55.5ZM21.3 10.9C21.3 9.8 22.2 8.8 23.4 8.8H32.6V5.9C32.6 3.6 34.5 1.8 36.7 1.8H38.3C40.6 1.8 42.4 3.7 42.4 5.9V8.8H51.6C52.7 8.8 53.7 9.7 53.7 10.9V15H21.4V10.9H21.3ZM73.3 99.7C73.3 101 72.3 102 71 102H5.1C3.7 102 1.8 100.8 1.8 99.7V13.4C1.8 12.1 2.8 11.1 4.1 11.1H19.6V14.3H5.4V98.7H69.7V14.3H55.5V11.1H71C72.3 11.1 73.3 12.1 73.3 13.4V99.7Z" fill="white"/>
</svg>
