<svg width="76" height="96" viewBox="0 0 76 96" fill="none" xmlns="http://www.w3.org/2000/svg">
<path d="M75.3 0H11V5.5H5.89999V11.1H0V95.5H64.3V89.9H70.2V84.4H75.3V0ZM62.4 93.8H1.59999V13H5.79999V90H62.4V93.8ZM68.4 88.2H7.59999V7.4H11V84.5H68.4V88.2ZM73.5 82.6H12.7V1.8H73.5V82.6Z" fill="white"/>
<path d="M39.2 7.2998H18.7V9.0998H39.2V7.2998Z" fill="white"/>
<path d="M39.2 27.8999H18.7V29.6999H39.2V27.8999Z" fill="white"/>
<path d="M39.2 70.3999H18.7V72.1999H39.2V70.3999Z" fill="white"/>
<path d="M66.1 37.2998H18.7V39.0998H66.1V37.2998Z" fill="white"/>
<path d="M66.1 44.1001H18.7V45.9001H66.1V44.1001Z" fill="white"/>
<path d="M66.1 50.8999H18.7V52.6999H66.1V50.8999Z" fill="white"/>
<path d="M66.1 57.7002H18.7V59.5002H66.1V57.7002Z" fill="white"/>
</svg>
