<svg width="41" height="65" viewBox="0 0 41 65" fill="none" xmlns="http://www.w3.org/2000/svg">
<g clip-path="url(#clip0)">
<path opacity="0.3" d="M37.9548 59.5096H35.4209C35.5508 59.1816 35.6483 58.8536 35.6483 58.46C35.6483 57.1152 34.5438 56 33.2119 56H5.43644C4.10452 56 3 57.1152 3 58.46C3 59.8048 4.10452 60.92 5.43644 60.92H7.97034C7.84039 61.248 7.74294 61.576 7.74294 61.9696C7.74294 63.3144 8.84746 64.4296 10.1794 64.4296H37.9873C39.3192 64.4296 40.4237 63.3144 40.4237 61.9696C40.4237 60.592 39.3192 59.5096 37.9548 59.5096Z" fill="#0069AA"/>
<path d="M13.7188 33.1136L10.3252 33.0738L10.3384 31.8641C10.3384 31.3722 9.95695 30.9601 9.45713 30.9601L5.48486 30.9202C4.99819 30.9202 4.59044 31.3057 4.59044 31.8109L4.57729 33.0206L1.18376 32.9674C0.57871 32.9541 0.0920413 33.446 0.0920413 34.0575L0.0657349 36.5034L14.771 36.6629L14.7973 34.217C14.7973 33.6188 14.3107 33.1136 13.7188 33.1136ZM5.35333 31.7976C5.35333 31.7311 5.40594 31.678 5.47171 31.678L9.44398 31.7178C9.50975 31.7178 9.56236 31.771 9.56236 31.8375L9.5492 33.0472L5.32702 32.994L5.35333 31.7976Z" fill="#CBF2AD"/>
<path d="M7.37891 39.202C6.64233 39.1887 6.06359 38.5905 6.05044 37.8593L0.039415 37.7929L-4.46973e-05 42.193C-0.0131979 42.8045 0.473471 43.2963 1.07852 43.2963L13.6135 43.4425C14.2186 43.4558 14.7053 42.964 14.7053 42.3525L14.7579 37.9524L8.74685 37.8859C8.72054 38.6304 8.11549 39.2153 7.37891 39.202Z" fill="#CBF2AD"/>
<path d="M21.6765 10.5815C24.5677 10.5815 26.9115 8.21273 26.9115 5.29074C26.9115 2.36874 24.5677 0 21.6765 0C18.7853 0 16.4415 2.36874 16.4415 5.29074C16.4415 8.21273 18.7853 10.5815 21.6765 10.5815Z" fill="#0069AA"/>
<path d="M25.3857 12.4957H18.2172C16.5467 12.4957 15.0078 13.3997 14.1792 14.8486L6.85281 28.3945C6.39245 29.2453 6.62921 30.3087 7.40525 30.8937C8.29966 31.5583 9.56237 31.319 10.1543 30.3752L15.6918 21.0433L15.9285 35.5729L16.1653 59.6072C16.1784 60.9365 17.2439 62 18.5592 62C19.8613 62 20.9136 60.9498 20.9531 59.6471L21.545 35.8388C21.545 35.6925 21.6633 35.5862 21.808 35.5862C21.9527 35.5862 22.0711 35.7058 22.0711 35.8388L22.663 59.6471C22.6893 60.9631 23.7547 62 25.0569 62C26.3722 62 27.4376 60.9365 27.4507 59.6072L27.6875 35.5729L27.9243 21.0433L33.4618 30.3752C34.0668 31.319 35.3164 31.5583 36.2108 30.8937C36.9868 30.322 37.2236 29.2586 36.7632 28.3945L29.4369 14.8486C28.5951 13.3997 27.0562 12.4957 25.3857 12.4957Z" fill="#0069AA"/>
</g>
<defs>
<clipPath id="clip0">
<rect width="41.0003" height="65" fill="white" transform="translate(-0.000305176)"/>
</clipPath>
</defs>
</svg>
