<svg width="1600" height="369" viewBox="0 0 1600 369" fill="none" xmlns="http://www.w3.org/2000/svg">
<g clip-path="url(#clip0)">
<path opacity="0.15" d="M1505.24 35.5563V33.1057C1505.24 20.3625 1494.89 10 1482.16 10H1345.18C1332.46 10 1322.11 20.3625 1322.11 33.1057V35.5563C1322.11 48.2994 1332.46 58.662 1345.18 58.662H1402.03C1414.76 58.662 1425.11 69.0245 1425.11 81.7676V103.683C1425.11 116.426 1414.76 126.789 1402.03 126.789H1194.08C1181.35 126.789 1171 137.151 1171 149.894C1171 162.637 1181.35 173 1194.08 173H1585.37C1598.1 173 1608.45 162.637 1608.45 149.894C1608.45 137.151 1618.8 126.789 1631.52 126.789H1675.92C1688.65 126.789 1699 116.426 1699 103.683V81.7676C1699 69.0245 1688.65 58.662 1675.92 58.662H1528.31C1515.59 58.662 1505.24 48.2994 1505.24 35.5563Z" fill="#007AB7"/>
<path opacity="0.2" d="M1366.5 255.3H659.1C659.1 205.4 618.7 165 568.8 165H-1V369H446.3H548.9H1366.5H1599V255.3C1599 231.8 1580 212.8 1556.5 212.8H1409.1C1385.5 212.8 1366.5 231.8 1366.5 255.3Z" fill="#7AC142"/>
<path opacity="0.3" d="M1591.79 348.841H1107.21C1091.05 348.841 1078 335.788 1078 319.633V316.208C1078 300.053 1091.05 287 1107.21 287H1591.79C1607.95 287 1621 300.053 1621 316.208V319.633C1621 335.788 1607.95 348.841 1591.79 348.841Z" fill="#7AC142"/>
<path d="M984.846 172.184L992.619 153.518L998.225 155.175L994.211 175.37C993.319 177.918 990.516 179.319 987.904 178.428C985.356 177.536 983.955 174.733 984.846 172.184Z" fill="#FC857A"/>
<path d="M992.619 153.517L993.384 148.166C993.638 146.382 995.359 145.171 997.206 145.554C998.926 145.936 1000.01 147.656 999.627 149.376L998.225 155.237L992.619 153.517Z" fill="#F4D2BA"/>
<path d="M981.152 336.483C977.011 336.483 973.571 333.297 973.316 329.156L965.034 224.041C965.034 216.905 970.831 211.108 977.967 211.108H984.401C991.536 211.108 997.333 216.905 997.333 224.041L989.052 329.156C988.733 333.297 985.293 336.483 981.152 336.483Z" fill="#0069AA"/>
<path d="M981.152 143.26C973.953 143.26 968.092 137.399 968.092 130.201V121.919C968.092 114.72 973.953 108.859 981.152 108.859C988.35 108.859 994.211 114.72 994.211 121.919V130.201C994.211 137.399 988.414 143.26 981.152 143.26Z" fill="#F4D2BA"/>
<path d="M995.231 230.73H966.563C963.442 230.73 960.894 228.182 960.894 225.06L965.034 158.423C965.034 151.288 970.832 145.491 977.967 145.491H981.853C988.988 145.491 994.785 151.288 994.785 158.423L1000.96 225.06C1000.96 228.182 998.417 230.73 995.231 230.73Z" fill="#FF6A52"/>
<path d="M997.397 186.645L970.449 162.691C967.901 160.398 967.646 156.448 969.939 153.836C972.233 151.288 976.183 151.033 978.794 153.326L1005.74 177.28C1008.29 179.574 1008.55 183.523 1006.25 186.135C1003.96 188.747 999.945 188.938 997.397 186.645Z" fill="#FC857A"/>
<path d="M996.186 180.911L1003.58 156.384L1010.84 157.785L1008.35 183.778C1007.59 187.154 1004.21 189.193 1000.84 188.428C997.524 187.664 995.422 184.287 996.186 180.911Z" fill="#FC857A"/>
<path d="M1003.58 156.447L1003.89 149.631C1004.02 147.337 1006.06 145.553 1008.35 145.808C1010.58 146.063 1012.18 148.102 1011.86 150.331L1010.84 157.849L1003.58 156.447Z" fill="#F4D2BA"/>
<path d="M983.445 121.41C980.26 122.939 976.692 123.512 973.507 124.978C971.277 125.997 969.239 127.781 968.219 129.883C967.964 130.456 967.072 130.329 967.009 129.692C966.499 125.869 966.754 121.92 968.028 118.225C969.684 113.51 973.316 109.433 978.03 107.777C981.598 106.566 989.37 106.821 991.345 110.962C993.192 115.103 986.63 119.881 983.445 121.41Z" fill="#E5B01C"/>
<path d="M965.162 97.0107C959.81 95.3543 953.057 97.9663 951.401 103.381C950.445 106.567 951.337 109.943 952.611 113.001C954.905 118.289 959.683 124.659 954.777 130.011C954.65 130.138 954.586 130.202 954.459 130.329C953.185 131.603 954.841 133.706 956.37 132.686C957.389 131.986 958.281 131.094 958.982 130.074C962.359 125.169 959.874 113.383 968.22 112.555C970.577 112.3 973.316 112.237 974.526 109.816C974.909 108.924 975.036 107.968 974.909 107.013C974.208 102.044 969.621 98.3485 965.162 97.0107Z" fill="#E5B01C"/>
<path d="M1058.17 131.54C1050.97 131.54 1045.11 125.679 1045.11 118.48V110.198C1045.11 102.999 1050.97 97.1382 1058.17 97.1382C1065.37 97.1382 1071.23 102.999 1071.23 110.198V118.48C1071.23 125.742 1065.37 131.54 1058.17 131.54Z" fill="#8C6449"/>
<path d="M1066.01 174.987L1039.06 150.97C1036.51 148.676 1036.26 144.726 1038.55 142.114C1040.84 139.566 1044.79 139.311 1047.41 141.605L1074.35 165.558C1076.9 167.852 1077.16 171.802 1074.86 174.414C1072.57 177.026 1068.56 177.28 1066.01 174.987Z" fill="#FC857A"/>
<path d="M1098.44 135.936L1099.96 129.247C1100.47 127.017 1102.77 125.616 1105 126.316C1107.16 126.953 1108.37 129.247 1107.67 131.349L1105.32 138.612L1098.44 135.936Z" fill="#8C6449"/>
<path d="M1042.5 202.764L1045.11 209.071C1046 211.237 1044.86 213.658 1042.69 214.359C1040.59 215.06 1038.23 213.913 1037.59 211.747L1035.37 204.484L1042.5 202.764Z" fill="#8C6449"/>
<path d="M1089.01 175.816C1086.14 174.86 1084.67 171.675 1085.76 168.808L1098.63 135.426L1106.08 137.974L1095.89 172.248C1094.99 175.179 1091.87 176.835 1089.01 175.816Z" fill="#7AC142"/>
<path d="M1026.64 164.222C1029.57 163.331 1032.63 164.987 1033.39 167.917L1042.63 202.446L1035.11 204.74L1023.2 171.039C1022.18 168.3 1023.77 165.178 1026.64 164.222Z" fill="#7AC142"/>
<path d="M1077.54 204.165L1078.11 324.379C1078.05 327.628 1075.44 330.177 1072.19 330.177H1070.66C1067.54 330.177 1064.99 327.756 1064.8 324.634L1059.57 231.495C1059.57 231.177 1059.26 230.858 1058.94 230.858C1058.55 230.858 1058.3 231.177 1058.3 231.495L1055.94 324.634C1055.88 327.883 1053.27 330.432 1050.02 330.432H1047.85C1044.73 330.432 1042.18 328.011 1041.99 324.889L1039.38 205.503L1077.54 204.165Z" fill="#0069AA"/>
<path d="M1095.89 168.171L1082.06 144.345C1079.58 139.312 1074.48 136.127 1068.94 136.127L1047.66 136.063C1041.67 136.063 1036.26 139.631 1034.03 145.173L1023.45 167.152C1022.31 170.019 1023.64 173.268 1026.51 174.414C1029.38 175.561 1032.63 174.223 1033.77 171.356L1038.42 163.839L1038.81 206.65C1038.87 209.007 1040.78 210.918 1043.14 210.918H1073.4C1075.76 210.918 1077.67 209.007 1077.73 206.65L1078.18 160.208L1086.01 173.076C1087.35 175.816 1090.73 176.963 1093.47 175.625C1096.14 174.287 1097.22 170.91 1095.89 168.171Z" fill="#7AC142"/>
<path d="M1050.65 103.891C1052.25 103.637 1053.33 105.357 1054.54 106.44C1056.45 108.223 1059.51 108.542 1061.8 107.268C1062.89 106.631 1063.78 105.675 1064.93 105.166C1065.94 104.72 1067.41 104.528 1068.43 105.038C1069.38 105.484 1069.45 106.631 1070.85 106.44C1072.12 106.249 1070.34 101.789 1069.96 101.343C1068.81 99.9416 1066.96 98.5401 1065.37 97.7119C1060.15 94.9725 1051.93 95.3548 1047.79 100.069C1046.96 100.961 1044.22 106.249 1046.07 107.077C1047.28 107.714 1049.38 104.146 1050.65 103.891Z" fill="#969696"/>
<path d="M1142.9 137.4C1135.7 137.4 1129.84 131.539 1129.84 124.34V116.058C1129.84 108.86 1135.7 102.999 1142.9 102.999C1150.1 102.999 1155.96 108.86 1155.96 116.058V124.34C1155.9 131.603 1150.1 137.4 1142.9 137.4Z" fill="#FCBA8D"/>
<path d="M1168.26 210.853L1166.73 217.542C1166.22 219.772 1163.93 221.173 1161.7 220.472C1159.53 219.835 1158.32 217.542 1159.02 215.44L1161.38 208.177L1168.26 210.853Z" fill="#FCBA8D"/>
<path d="M1113.92 211.108V217.925C1113.92 220.218 1111.94 222.065 1109.65 221.938C1107.42 221.811 1105.7 219.836 1105.95 217.606L1106.65 210.025L1113.92 211.108Z" fill="#FCBA8D"/>
<path d="M1177.69 170.974C1180.55 171.93 1182.02 175.115 1180.94 177.982L1168.07 211.364L1160.61 208.816L1170.81 174.542C1171.7 171.611 1174.82 169.955 1177.69 170.974Z" fill="#0069AA"/>
<path d="M1113.79 169.444C1116.78 169.699 1119.01 172.439 1118.63 175.433L1114.11 210.917L1106.27 210.217L1107.93 174.541C1108.12 171.483 1110.79 169.19 1113.79 169.444Z" fill="#0069AA"/>
<path d="M1162.91 210.025L1161.5 324.697C1161.44 327.946 1158.83 330.494 1155.58 330.494H1154.05C1150.93 330.494 1148.38 328.073 1148.19 324.951L1144.3 237.291C1144.3 236.973 1143.99 236.654 1143.67 236.654C1143.28 236.654 1143.03 236.973 1143.03 237.291L1142.01 324.951C1141.95 328.2 1139.33 330.749 1136.09 330.749H1133.92C1130.8 330.749 1128.25 328.328 1128.06 325.206L1122.71 211.426L1162.91 210.025Z" fill="#002D44"/>
<path d="M1180.62 174.032L1166.79 150.205C1164.31 145.173 1159.21 141.987 1153.67 141.987L1132.39 141.924C1126.4 141.924 1120.99 145.491 1118.76 151.034L1108.18 173.012C1107.04 175.879 1108.37 179.128 1111.24 180.275C1114.11 181.422 1117.36 180.084 1118.5 177.217L1123.15 169.7L1121.5 221.238C1121.56 223.595 1123.47 225.506 1125.83 225.506H1160.04C1162.4 225.506 1164.31 223.595 1164.37 221.238L1162.84 166.068L1170.68 178.937C1172.02 181.676 1175.39 182.823 1178.13 181.485C1180.81 180.147 1181.95 176.835 1180.62 174.032Z" fill="#0069AA"/>
<path d="M1149.97 109.751C1149.97 111.28 1149.34 112.809 1148.19 113.829C1150.16 113.637 1152.08 113 1153.73 111.917C1154.05 113.892 1154.75 115.803 1155.77 117.524C1156.09 114.529 1156.47 111.535 1156.73 108.541C1156.79 107.968 1156.6 103.699 1156.79 103.635C1151.89 104.782 1147.11 101.469 1142.14 101.151C1138.32 100.896 1134.37 102.552 1131.88 105.419C1130.61 106.885 1129.72 108.605 1129.27 110.452C1128.95 111.599 1128.19 114.975 1129.08 116.058C1130.29 117.524 1134.56 115.485 1136.02 114.912C1138.38 113.956 1140.61 112.746 1142.9 111.726C1143.41 111.408 1149.97 109.242 1149.97 109.751Z" fill="#002D44"/>
<path d="M1229.73 336.101C1233.87 336.165 1237.38 332.98 1237.7 328.902L1247.51 219.2C1247.64 212.065 1241.9 206.204 1234.77 206.076L1228.33 206.013C1221.2 205.885 1215.34 211.619 1215.21 218.754L1221.96 328.648C1222.15 332.788 1225.59 336.038 1229.73 336.101Z" fill="#FC857A"/>
<path d="M1231.65 138.103C1238.84 138.103 1244.71 132.242 1244.71 125.043V116.761C1244.71 109.562 1238.84 103.701 1231.65 103.701C1224.45 103.701 1218.59 109.562 1218.59 116.761V125.043C1218.59 132.242 1224.45 138.103 1231.65 138.103Z" fill="#DD9666"/>
<path d="M1218.59 225.572H1243.62C1246.74 225.572 1249.29 223.023 1249.29 219.902L1245.66 153.265C1245.66 146.13 1239.86 140.332 1232.73 140.332H1228.33C1221.2 140.332 1215.4 146.13 1215.4 153.265L1212.79 219.902C1212.92 223.023 1215.46 225.572 1218.59 225.572Z" fill="#7AC142"/>
<path d="M1218.59 186.838L1235.66 155.048C1237.32 151.991 1236.17 148.232 1233.11 146.576C1230.05 144.919 1226.29 146.066 1224.64 149.124L1207.56 180.913C1205.91 183.971 1207.05 187.73 1210.11 189.386C1213.17 190.979 1216.93 189.832 1218.59 186.838Z" fill="#86CC48"/>
<path d="M1213.87 177.346L1188.39 175.307L1187.05 182.57L1212.15 189.705C1215.53 190.214 1218.71 187.794 1219.22 184.417C1219.67 181.041 1217.25 177.855 1213.87 177.346Z" fill="#86CC48"/>
<path d="M1188.39 175.308L1181.89 173.078C1179.72 172.313 1177.37 173.588 1176.73 175.817C1176.16 177.983 1177.5 180.213 1179.66 180.723L1187.05 182.507L1188.39 175.308Z" fill="#DD9666"/>
<path d="M1188.39 175.306C1188.39 175.306 1186.16 171.165 1185.14 171.038C1184.12 170.911 1181.7 172.057 1183.29 173.968C1184.88 175.88 1188.39 175.306 1188.39 175.306Z" fill="#DD9666"/>
<path d="M1215.91 110.072C1215.34 111.728 1215.15 113.639 1216.1 115.104C1216.61 115.933 1217.44 116.442 1218.33 116.888C1219.73 117.589 1221.33 117.971 1222.85 117.844C1225.15 117.716 1227.25 116.633 1229.1 115.359C1230.95 114.085 1232.67 112.493 1233.62 110.39C1235.66 105.994 1232.6 100.771 1227.63 101.726C1222.79 102.618 1217.76 105.166 1215.91 110.072Z" fill="#0069AA"/>
<path d="M1231.65 114.404C1232.09 116.953 1232.86 119.182 1233.68 120.265C1234.38 121.221 1235.34 122.113 1235.79 123.196C1236.68 125.234 1234.64 128.929 1234.32 131.095C1233.94 133.516 1234.51 135.555 1235.4 137.721C1236.1 139.377 1237.51 141.161 1237.7 142.945C1237.82 143.9 1237.51 144.856 1237.31 145.812C1236.61 149.379 1237.57 153.902 1242.09 154.03C1245.09 154.094 1247.38 151.227 1248.21 148.36C1249.1 145.175 1248.78 141.671 1247.32 138.677C1247.25 138.485 1249.16 135.109 1249.29 134.599C1249.74 133.007 1249.8 131.541 1249.67 129.949C1249.55 127.146 1249.23 124.024 1246.49 122.431C1248.59 118.29 1248.34 113.067 1245.85 109.18C1244 106.25 1239.29 102.491 1235.47 103.065C1231.33 103.638 1230.82 109.563 1231.65 114.404Z" fill="#0069AA"/>
<path d="M17.7997 252.6C12.9968 252.6 9.13867 248.742 9.13867 243.939V116.228C9.13867 111.425 12.9968 107.567 17.7997 107.567C22.6026 107.567 26.4607 111.425 26.4607 116.228V243.939C26.4607 248.663 22.6026 252.6 17.7997 252.6Z" fill="#A35B2B"/>
<path d="M26.8544 145.203H17.7997C16.3037 145.203 15.0439 143.944 15.0439 142.448C15.0439 140.952 16.3037 139.692 17.7997 139.692H26.8544C38.9011 139.692 48.7432 129.85 48.7432 117.803V114.732C48.7432 113.236 50.003 111.977 51.499 111.977C52.995 111.977 54.2548 113.236 54.2548 114.732V117.803C54.2548 132.921 41.9719 145.203 26.8544 145.203Z" fill="#A35B2B"/>
<path d="M17.7996 172.918H17.5634C2.44599 172.918 -9.83691 160.635 -9.83691 145.518V117.803C-9.83691 116.307 -8.57713 115.047 -7.08113 115.047C-5.58514 115.047 -4.32535 116.307 -4.32535 117.803V145.518C-4.32535 157.565 5.51672 167.407 17.5634 167.407H17.7996C19.2956 167.407 20.5554 168.667 20.5554 170.163C20.5554 171.659 19.3744 172.918 17.7996 172.918Z" fill="#A35B2B"/>
<path d="M82.1272 42.5781H73.0725V28.0161C73.0725 12.5835 60.6321 0 45.1997 0H-0.624977C-15.9786 0 -28.4978 12.5044 -28.4978 28.0161H-39.2847C-54.5596 28.0161 -67 40.5205 -67 55.874V61.0973C-67 76.4507 -54.5596 88.955 -39.2847 88.955C-39.2847 105.021 -26.3719 118 -10.3883 118H11.5004H34.3341H58.6637C66.3799 118 72.6001 111.748 72.6001 103.992H82.1272C97.4809 103.992 110 91.4875 110 75.9758V70.5151C110 55.0825 97.5596 42.5781 82.1272 42.5781Z" fill="#7AC142"/>
<path fill-rule="evenodd" clip-rule="evenodd" d="M91.5 236C97.299 236 102 240.731 102 246.566V281.434C102 287.269 97.299 292 91.5 292C85.701 292 81 287.269 81 281.434V246.566C81 240.731 85.701 236 91.5 236Z" fill="#A35B2B"/>
<path d="M86.985 125.169C89.0238 120.944 94.9762 120.944 97.015 125.169L117.642 167.923C118.773 170.267 117.086 173 114.508 173H69.4923C66.914 173 65.2269 170.267 66.3579 167.923L86.985 125.169Z" fill="#249B29"/>
<path d="M91.5 134L126.587 200.789C127.831 203.157 126.116 206 123.444 206H59.5557C56.884 206 55.1693 203.157 56.4131 200.789L91.5 134Z" fill="#249B29"/>
<path d="M91.5 147L142.62 248.872C143.802 251.228 142.083 254 139.44 254H43.5604C40.9171 254 39.1978 251.228 40.38 248.872L91.5 147Z" fill="#249B29"/>
<path d="M1539.39 286.601C1534.78 286.601 1531.08 282.898 1531.08 278.288V155.714C1531.08 151.105 1534.78 147.402 1539.39 147.402C1544 147.402 1547.7 151.105 1547.7 155.714V278.288C1547.7 282.822 1544 286.601 1539.39 286.601Z" fill="#A35B2B"/>
<path d="M1548.08 183.523H1539.39C1537.95 183.523 1536.74 182.314 1536.74 180.879C1536.74 179.443 1537.95 178.234 1539.39 178.234H1548.08C1559.64 178.234 1569.09 168.787 1569.09 157.225V154.278C1569.09 152.842 1570.3 151.633 1571.73 151.633C1573.17 151.633 1574.38 152.842 1574.38 154.278V157.225C1574.38 171.735 1562.59 183.523 1548.08 183.523Z" fill="#A35B2B"/>
<path d="M1539.39 210.123H1539.16C1524.65 210.123 1512.86 198.335 1512.86 183.825V157.225C1512.86 155.789 1514.07 154.58 1515.51 154.58C1516.94 154.58 1518.15 155.789 1518.15 157.225V183.825C1518.15 195.387 1527.6 204.834 1539.16 204.834H1539.39C1540.82 204.834 1542.03 206.043 1542.03 207.478C1542.03 208.914 1540.9 210.123 1539.39 210.123Z" fill="#A35B2B"/>
<path d="M1601.23 85.0164H1592.53V71.1288C1592.53 56.4109 1580.58 44.4102 1565.76 44.4102H1521.75C1507 44.4102 1494.98 56.3354 1494.98 71.1288H1484.62C1469.95 71.1288 1458 83.0541 1458 97.6965V102.678C1458 117.32 1469.95 129.246 1484.62 129.246C1484.62 144.567 1497.02 156.945 1512.37 156.945H1533.4H1555.33H1578.69C1586.1 156.945 1592.08 150.983 1592.08 143.586H1601.23C1615.98 143.586 1628 131.661 1628 116.867V111.66C1628 96.9417 1616.05 85.0164 1601.23 85.0164Z" fill="#7AC142"/>
</g>
<defs>
<clipPath id="clip0">
<rect width="1602" height="369" fill="white" transform="translate(-1)"/>
</clipPath>
</defs>
</svg>
