<svg width="38" height="58" viewBox="0 0 38 58" fill="none" xmlns="http://www.w3.org/2000/svg">
<path opacity="0.3" d="M34.9548 52.5096H32.4209C32.5508 52.1816 32.6483 51.8536 32.6483 51.46C32.6483 50.1152 31.5438 49 30.2119 49H2.43644C1.10452 49 0 50.1152 0 51.46C0 52.8048 1.10452 53.92 2.43644 53.92H4.97034C4.84039 54.248 4.74294 54.576 4.74294 54.9696C4.74294 56.3144 5.84746 57.4296 7.17938 57.4296H34.9873C36.3192 57.4296 37.4237 56.3144 37.4237 54.9696C37.4237 53.592 36.3192 52.5096 34.9548 52.5096Z" fill="#0069AA"/>
<path d="M20.9947 10.3607C23.7931 10.3607 26.0616 8.09821 26.0616 5.30731C26.0616 2.51641 23.7931 0.253937 20.9947 0.253937C18.1963 0.253937 15.9277 2.51641 15.9277 5.30731C15.9277 8.09821 18.1963 10.3607 20.9947 10.3607Z" fill="#0069AA"/>
<path d="M32.6181 25.0129L27.1056 16.0997C25.9216 14.2079 23.9228 12.9509 21.6949 12.6842L17.8629 12.2398C17.7738 12.2271 17.6846 12.2271 17.5955 12.2144C16.1824 12.1129 14.9347 13.1286 14.7565 14.5253L14.2855 18.6645L12.605 27.2984C12.4777 28.4792 12.6941 29.6727 13.2415 30.7265L23.0699 52.5526C23.6809 53.7334 25.0686 54.292 26.329 53.873C27.8313 53.3779 28.5824 51.7019 27.9586 50.2544L22.5224 31.8312L24.3175 20.9753L29.168 27.565C29.9191 28.5173 31.3068 28.657 32.2362 27.8951C33.0892 27.1841 33.2547 25.9271 32.6181 25.0129Z" fill="#0069AA"/>
<path d="M12.3503 42.4204L9.49859 49.6069C8.58196 50.8766 8.95116 52.6541 10.3006 53.4667C11.4464 54.1524 12.936 53.8984 13.7762 52.8446L18.1684 44.909L14.3491 36.1862C14.2218 35.8561 13.738 35.8942 13.6616 36.2497L12.3503 42.4204Z" fill="#0069AA"/>
<path d="M6.53224 31.0821L8.82382 31.5391C9.4731 31.6661 10.0969 31.2344 10.1988 30.5869L12.885 13.573C12.9869 12.9128 12.5158 12.3033 11.8538 12.2398L11.6756 12.2271C9.15482 11.9986 6.90144 13.7508 6.50677 16.2394L6.23942 17.9661C5.0809 18.055 4.06242 18.8549 3.70595 20.0103L2.15277 25.1907C1.55441 27.1841 2.78932 29.2283 4.78809 29.6854C5.09363 30.3837 5.73018 30.9297 6.53224 31.0821Z" fill="#CBF2AD"/>
<path d="M3.4513 20.861L4.20243 21.1531C4.57163 21.2927 4.77532 21.699 4.67347 22.0799L4.03692 24.4035C3.92234 24.8479 3.43857 25.0891 3.01844 24.9241L2.31824 24.6574L3.4513 20.861Z" fill="#16487D"/>
</svg>
