<svg width="288" height="38" viewBox="0 0 288 38" fill="none" xmlns="http://www.w3.org/2000/svg">
<path d="M39.2866 9.82166V25.6345H36.5169V18.4942H29.3275V25.6247H26.5185V9.82166H29.2882V16.1075H36.4776V9.82166H39.2866ZM23.7881 25.6247H21.0184V9.82166H23.7881V25.6247ZM18.2978 25.6247H15.3513L8.18144 13.9959H8.11269V25.6247H5.48049V9.82166H8.42698L15.6164 21.4603V9.82166H18.2486L18.2978 25.6247ZM49.0395 17.679L39.2866 0H3.25097C2.38786 0.00259975 1.56098 0.347294 0.951589 0.958529C0.342194 1.56976 -3.91526e-06 2.39767 0 3.26079L0 32.107C0 32.5339 0.0840888 32.9567 0.247465 33.3511C0.410842 33.7455 0.650306 34.1039 0.952187 34.4058C1.25407 34.7077 1.61245 34.9471 2.00688 35.1105C2.4013 35.2739 2.82405 35.358 3.25097 35.358H39.2277L49.0395 17.679Z" fill="white"/>
<path d="M41.6831 35.358L51.5048 17.679L41.7126 0H44.1975C44.926 0.0420982 45.634 0.257433 46.2626 0.628117C46.8913 0.9988 47.4224 1.51413 47.8118 2.1313L56.3567 17.679L47.7431 33.2267C47.3536 33.8438 46.8225 34.3592 46.1939 34.7299C45.5653 35.1005 44.8573 35.3159 44.1287 35.358H41.6831Z" fill="white"/>
<path d="M41.6831 35.358L51.5048 17.679L41.7126 0H44.1975C44.926 0.0420982 45.634 0.257433 46.2626 0.628117C46.8913 0.9988 47.4224 1.51413 47.8118 2.1313L56.3567 17.679L47.7431 33.2267C47.3536 33.8438 46.8225 34.3592 46.1939 34.7299C45.5653 35.1005 44.8573 35.3159 44.1287 35.358H41.6831Z" fill="white"/>
<path d="M60.8354 11.9531H62.8587L67.7695 19.9578V11.9531H69.5865V22.8257H67.6222L62.7114 14.8309V22.8257H60.8354V11.9531Z" fill="white"/>
<path d="M78.249 21.0674C78.249 21.4995 78.3472 21.6665 78.6615 21.6665C78.8053 21.6787 78.9499 21.6787 79.0937 21.6665V22.8648C78.7363 22.9745 78.3669 23.0405 77.9936 23.0612C77.2963 23.0612 76.7954 22.8156 76.6579 22.079C75.9005 22.7327 74.9277 23.0826 73.9275 23.0612C72.5131 23.0612 71.2363 22.3049 71.2363 20.7629C71.2363 18.7986 72.798 18.4843 74.2614 18.3173C75.5088 18.0816 76.6186 18.2191 76.6186 17.1977C76.6186 16.1762 75.6954 16.1369 74.998 16.1369C74.0159 16.1369 73.3382 16.5298 73.2596 17.3843H71.5212C71.639 15.3315 73.3676 14.7324 75.0962 14.7324C76.6382 14.7324 78.249 15.361 78.249 17.0209V21.0674ZM76.5204 18.8772C75.8434 19.1592 75.1218 19.3188 74.3891 19.3486C73.6426 19.4763 72.9649 19.7415 72.9649 20.6549C72.9649 21.5683 73.9471 21.637 74.5659 21.637C75.332 21.637 76.5302 21.2344 76.5302 20.1442L76.5204 18.8772Z" fill="white"/>
<path d="M79.3296 14.9485H80.6457V12.5913H82.3743V14.9485H83.9458V16.245H82.3743V20.4486C82.3743 21.1656 82.4332 21.529 83.219 21.529C83.4627 21.5384 83.7067 21.5186 83.9458 21.4701V22.8058C83.5627 22.8058 83.1993 22.8942 82.8163 22.8942C81.0091 22.8942 80.6752 22.1969 80.6457 20.9299V16.245H79.3296V14.9485Z" fill="white"/>
<path d="M85.2422 11.9531H86.9708V13.5933H85.2422V11.9531ZM85.2422 14.9487H86.9708V22.8061H85.2422V14.9487Z" fill="white"/>
<path d="M88.4932 18.8772C88.4932 18.3548 88.5961 17.8376 88.796 17.355C88.9959 16.8724 89.2889 16.4338 89.6582 16.0645C90.0276 15.6951 90.4661 15.4021 90.9487 15.2022C91.4313 15.0023 91.9486 14.8994 92.4709 14.8994C92.9933 14.8994 93.5106 15.0023 93.9932 15.2022C94.4758 15.4021 94.9143 15.6951 95.2837 16.0645C95.653 16.4338 95.946 16.8724 96.1459 17.355C96.3458 17.8376 96.4487 18.3548 96.4487 18.8772C96.4487 21.3031 94.9951 23.0317 92.52 23.0317C90.045 23.0317 88.4932 21.3031 88.4932 18.8772ZM94.7103 18.8772C94.7103 17.5218 94.0228 16.1075 92.4709 16.1075C90.9191 16.1075 90.2316 17.5218 90.2316 18.8772C90.2316 20.2326 90.9191 21.6665 92.4709 21.6665C94.0228 21.6665 94.7103 20.2522 94.7103 18.8772Z" fill="white"/>
<path d="M97.8926 14.9488H99.5328V16.1077C99.7828 15.6787 100.141 15.323 100.572 15.0765C101.003 14.83 101.492 14.7012 101.988 14.7032C102.356 14.658 102.728 14.6953 103.079 14.8126C103.431 14.9299 103.751 15.1241 104.017 15.3811C104.284 15.638 104.489 15.9513 104.619 16.2979C104.749 16.6445 104.8 17.0158 104.768 17.3845V22.7963H103.039V17.8855C103.039 16.6479 102.519 16.1176 101.497 16.1176C101.235 16.125 100.977 16.185 100.738 16.2939C100.499 16.4028 100.285 16.5584 100.107 16.7516C99.9294 16.9447 99.7923 17.1716 99.7038 17.4186C99.6153 17.6656 99.5772 17.9279 99.5917 18.1899V22.8356H97.8926V14.9488Z" fill="white"/>
<path d="M113.224 21.0672C113.224 21.4994 113.313 21.6663 113.627 21.6663C113.771 21.6786 113.915 21.6786 114.059 21.6663V22.8646C113.702 22.9752 113.332 23.0412 112.959 23.061C112.262 23.061 111.761 22.8155 111.623 22.0789C110.866 22.7325 109.893 23.0824 108.893 23.061C107.478 23.061 106.202 22.3048 106.202 20.7628C106.202 18.7984 107.773 18.4841 109.227 18.3172C110.484 18.0814 111.594 18.2189 111.594 17.1975C111.594 16.176 110.612 16.1368 109.963 16.1368C108.981 16.1368 108.304 16.5296 108.225 17.3841H106.486C106.614 15.3608 108.333 14.7617 110.071 14.7617C111.604 14.7617 113.224 15.3903 113.224 17.0502V21.0672ZM111.486 18.877C110.809 19.1602 110.087 19.3199 109.354 19.3484C108.608 19.4761 107.94 19.7413 107.94 20.6547C107.94 21.5681 108.922 21.6369 109.531 21.6369C110.297 21.6369 111.496 21.2342 111.496 20.144L111.486 18.877Z" fill="white"/>
<path d="M115.139 11.9531H116.878V22.8257H115.149L115.139 11.9531Z" fill="white"/>
<path d="M123.232 11.9531H125.138V22.8257H123.232V11.9531Z" fill="white"/>
<path d="M127.22 14.9488H128.87V16.1077C129.12 15.6787 129.478 15.323 129.909 15.0765C130.34 14.83 130.829 14.7012 131.325 14.7032C131.693 14.658 132.065 14.6953 132.416 14.8126C132.768 14.9299 133.088 15.1241 133.354 15.3811C133.621 15.638 133.826 15.9513 133.956 16.2979C134.086 16.6445 134.137 17.0158 134.105 17.3845V22.7963H132.396V17.8855C132.396 16.6479 131.885 16.1176 130.864 16.1176C130.601 16.125 130.343 16.185 130.104 16.2939C129.866 16.4028 129.651 16.5584 129.473 16.7516C129.296 16.9447 129.159 17.1716 129.07 17.4186C128.982 17.6656 128.944 17.9279 128.958 18.1899V22.8356H127.22V14.9488Z" fill="white"/>
<path d="M137.267 20.2915C137.366 21.2736 138.122 21.6665 139.055 21.6665C139.703 21.6665 140.852 21.529 140.803 20.6254C140.754 19.7218 139.497 19.6433 138.23 19.3191C136.963 18.995 135.706 18.5923 135.706 16.9914C135.706 15.3905 137.562 14.7324 138.996 14.7324C140.607 14.7324 142.07 15.4101 142.276 17.1584H140.45C140.292 16.3334 139.615 16.1075 138.849 16.1075C138.348 16.1075 137.415 16.2253 137.415 16.9128C137.415 17.7673 138.701 17.895 139.978 18.1798C141.255 18.4647 142.522 18.9263 142.522 20.4781C142.522 22.354 140.636 23.0317 139.006 23.0317C137.041 23.0317 135.549 22.1478 135.519 20.2915H137.267Z" fill="white"/>
<path d="M143.072 14.9485H144.379V12.5913H146.117V14.9485H147.688V16.245H146.117V20.4486C146.117 21.1656 146.176 21.529 146.952 21.529C147.199 21.5387 147.446 21.5189 147.688 21.4701V22.8058C147.305 22.8058 146.942 22.8942 146.559 22.8942C144.742 22.8942 144.408 22.1969 144.379 20.9299V16.245H143.072V14.9485Z" fill="white"/>
<path d="M148.975 11.9531H150.714V13.5933H148.975V11.9531ZM148.975 14.9487H150.714V22.8061H148.975V14.9487Z" fill="white"/>
<path d="M151.804 14.9485H153.12V12.5913H154.858V14.9485H156.42V16.245H154.858V20.4486C154.858 21.1656 154.917 21.529 155.693 21.529C155.937 21.5388 156.181 21.519 156.42 21.4701V22.8058C156.037 22.8058 155.673 22.8942 155.29 22.8942C153.483 22.8942 153.149 22.1969 153.12 20.9299V16.245H151.804V14.9485Z" fill="white"/>
<path d="M164.581 22.8257H162.872V21.7257C162.644 22.1188 162.318 22.4459 161.925 22.6749C161.533 22.9039 161.087 23.0269 160.633 23.032C158.58 23.032 157.687 22.0007 157.687 19.948V14.9487H159.425V19.781C159.425 21.1658 159.985 21.6667 160.928 21.6667C162.381 21.6667 162.892 20.7337 162.892 19.5158V14.9487H164.63L164.581 22.8257Z" fill="white"/>
<path d="M165.613 14.9485H166.968V12.5913H168.697V14.9485H170.268V16.245H168.697V20.4486C168.697 21.1656 168.766 21.529 169.541 21.529C169.785 21.5384 170.029 21.5186 170.268 21.4701V22.8058C169.885 22.8058 169.522 22.8942 169.139 22.8942C167.332 22.8942 166.998 22.1969 166.968 20.9299V16.245H165.652L165.613 14.9485Z" fill="white"/>
<path d="M172.861 19.3389C172.828 19.6344 172.858 19.9337 172.949 20.2168C173.04 20.4999 173.191 20.7602 173.391 20.9805C173.59 21.2008 173.835 21.3759 174.108 21.4943C174.381 21.6126 174.676 21.6713 174.973 21.6667C175.403 21.7157 175.837 21.6103 176.197 21.3693C176.557 21.1282 176.819 20.7672 176.937 20.3506H178.578C178.399 21.1484 177.942 21.8567 177.289 22.3481C176.636 22.8395 175.828 23.0819 175.012 23.0319C172.547 23.0319 171.162 21.3131 171.162 18.8969C171.112 18.3507 171.181 17.8002 171.363 17.2829C171.546 16.7657 171.838 16.2939 172.219 15.8998C172.601 15.5058 173.063 15.1987 173.574 14.9996C174.085 14.8005 174.633 14.7141 175.181 14.7463C175.728 14.7785 176.262 14.9285 176.747 15.186C177.231 15.4436 177.654 15.8026 177.987 16.2386C178.319 16.6747 178.554 17.1774 178.675 17.7124C178.795 18.2475 178.799 18.8023 178.686 19.3389H172.861ZM176.908 18.1898C176.908 17.6532 176.695 17.1386 176.315 16.7591C175.936 16.3797 175.421 16.1665 174.885 16.1665C174.348 16.1665 173.833 16.3797 173.454 16.7591C173.075 17.1386 172.861 17.6532 172.861 18.1898H176.908Z" fill="white"/>
<path d="M183.803 18.8772C183.803 18.3548 183.906 17.8376 184.106 17.355C184.305 16.8724 184.598 16.4338 184.968 16.0645C185.337 15.6951 185.776 15.4021 186.258 15.2022C186.741 15.0023 187.258 14.8994 187.781 14.8994C188.303 14.8994 188.82 15.0023 189.303 15.2022C189.785 15.4021 190.224 15.6951 190.593 16.0645C190.963 16.4338 191.256 16.8724 191.455 17.355C191.655 17.8376 191.758 18.3548 191.758 18.8772C191.758 21.3031 190.305 23.0317 187.781 23.0317C185.256 23.0317 183.803 21.3031 183.803 18.8772ZM190.02 18.8772C190.02 17.5218 189.332 16.1075 187.781 16.1075C186.229 16.1075 185.541 17.5218 185.541 18.8772C185.541 20.2326 186.229 21.6665 187.781 21.6665C189.332 21.6665 190.02 20.2522 190.02 18.8772Z" fill="white"/>
<path d="M193.202 14.9486H194.842V16.1075C195.092 15.6785 195.45 15.3229 195.881 15.0763C196.312 14.8298 196.801 14.701 197.297 14.7031C197.665 14.658 198.038 14.6955 198.39 14.8127C198.741 14.93 199.062 15.124 199.329 15.3808C199.596 15.6375 199.803 15.9506 199.934 16.2971C200.065 16.6437 200.117 17.0151 200.087 17.3844V22.7961H198.397V17.8853C198.397 16.6477 197.877 16.1174 196.855 16.1174C196.593 16.1248 196.335 16.1848 196.096 16.2937C195.857 16.4026 195.643 16.5582 195.465 16.7514C195.288 16.9446 195.15 17.1714 195.062 17.4184C194.973 17.6655 194.935 17.9277 194.95 18.1897V22.8354H193.221L193.202 14.9486Z" fill="white"/>
<path d="M206.412 11.9531H210.92C214.269 11.9531 215.713 14.3889 215.713 17.3845C215.713 20.3801 214.269 22.8257 210.92 22.8257H206.412V11.9531ZM208.318 21.2641H210.184C213.13 21.2641 213.808 19.5649 213.808 17.3845C213.808 15.2041 213.13 13.5049 210.184 13.5049H208.318V21.2641Z" fill="white"/>
<path d="M217.157 14.9488H218.787V16.4711C218.952 15.9791 219.264 15.5492 219.68 15.2386C220.096 14.9281 220.596 14.7516 221.115 14.7327C221.335 14.7281 221.556 14.7445 221.773 14.7818V16.4613C221.527 16.4157 221.277 16.3895 221.026 16.3827C219.838 16.3827 218.895 17.3649 218.895 19.0739V22.8258H217.157V14.9488Z" fill="white"/>
<path d="M229.434 22.8257H227.725V21.7257C227.496 22.1181 227.17 22.4447 226.777 22.6736C226.385 22.9025 225.94 23.026 225.486 23.032C223.433 23.032 222.539 22.0007 222.539 19.948V14.9487H224.278V19.781C224.278 21.1658 224.837 21.6667 225.78 21.6667C227.224 21.6667 227.745 20.7337 227.745 19.5158V14.9487H229.483L229.434 22.8257Z" fill="white"/>
<path d="M238.539 22.4129C238.539 24.7701 237.154 25.9389 234.669 25.9389C233.088 25.9389 231.3 25.33 231.153 23.4933H232.881C233.097 24.4755 233.864 24.6523 234.777 24.6523C235.051 24.6913 235.33 24.6663 235.593 24.5791C235.855 24.4919 236.094 24.3449 236.29 24.1497C236.486 23.9545 236.635 23.7165 236.723 23.4543C236.812 23.1921 236.838 22.913 236.8 22.6388V21.4308C236.568 21.853 236.227 22.2051 235.812 22.4504C235.398 22.6957 234.925 22.8253 234.443 22.8254C231.938 22.8254 230.907 20.9299 230.907 18.6807C230.907 16.4315 232.233 14.752 234.472 14.752C234.944 14.7236 235.413 14.8306 235.826 15.0603C236.238 15.29 236.576 15.6329 236.8 16.0485V14.9681H238.539V22.4129ZM236.8 18.7102C236.8 17.3548 236.191 16.1074 234.679 16.1074C233.166 16.1074 232.606 17.5414 232.606 18.8477C232.606 20.154 233.235 21.4504 234.679 21.4504C236.123 21.4504 236.8 20.0459 236.8 18.7102Z" fill="white"/>
<path d="M247.673 11.9531H249.696L253.88 22.8257H251.837L250.855 19.948H246.524L245.541 22.8257H243.577L247.673 11.9531ZM246.995 18.4943H250.315L248.684 13.8192L246.995 18.4943Z" fill="white"/>
<path d="M254.715 11.9531H256.453V15.9702C256.718 15.5854 257.073 15.2713 257.488 15.0556C257.902 14.8399 258.363 14.729 258.83 14.7327C261.305 14.7327 262.513 16.6282 262.513 18.9265C262.513 21.0382 261.443 23.032 259.115 23.032C258.579 23.105 258.033 23.0226 257.542 22.7945C257.051 22.5665 256.635 22.2023 256.345 21.7453V22.8257H254.705L254.715 11.9531ZM258.644 16.1077C257.18 16.1077 256.434 17.2175 256.434 18.897C256.434 20.5765 257.249 21.6667 258.644 21.6667C260.235 21.6667 260.824 20.2622 260.824 18.897C260.824 17.5318 260.028 16.1077 258.594 16.1077H258.644Z" fill="white"/>
<path d="M270.882 22.8257H269.182V21.7257C268.953 22.1175 268.626 22.4436 268.234 22.6724C267.842 22.9012 267.397 23.025 266.943 23.032C264.881 23.032 263.997 22.0007 263.997 19.948V14.9487H265.735V19.781C265.735 21.1658 266.305 21.6667 267.248 21.6667C268.691 21.6667 269.212 20.7337 269.212 19.5158V14.9487H270.94L270.882 22.8257Z" fill="white"/>
<path d="M274.025 20.2915C274.123 21.2736 274.879 21.6665 275.812 21.6665C276.46 21.6665 277.609 21.529 277.56 20.6254C277.511 19.7218 276.254 19.6433 274.987 19.3191C273.72 18.995 272.463 18.5923 272.463 16.9914C272.463 15.3905 274.319 14.7324 275.753 14.7324C277.364 14.7324 278.827 15.4101 279.034 17.1584H277.226C277.069 16.3334 276.392 16.1075 275.625 16.1075C275.125 16.1075 274.192 16.2253 274.192 16.9128C274.192 17.7673 275.478 17.895 276.755 18.1798C278.032 18.4647 279.299 18.9263 279.299 20.4781C279.299 22.354 277.413 23.0317 275.783 23.0317C273.818 23.0317 272.325 22.1478 272.296 20.2915H274.025Z" fill="white"/>
<path d="M281.96 19.3389C281.928 19.635 281.959 19.9345 282.052 20.2175C282.144 20.5006 282.296 20.7608 282.496 20.9809C282.697 21.201 282.942 21.3759 283.215 21.4941C283.489 21.6124 283.784 21.6712 284.082 21.6667C284.504 21.7036 284.926 21.5925 285.276 21.3524C285.625 21.1123 285.88 20.7581 285.997 20.3506H287.647C287.467 21.1475 287.009 21.8545 286.356 22.3456C285.703 22.8367 284.897 23.0799 284.082 23.0319C281.616 23.0319 280.232 21.3131 280.232 18.8969C280.182 18.3507 280.25 17.8002 280.433 17.2829C280.615 16.7657 280.907 16.2939 281.289 15.8998C281.67 15.5058 282.132 15.1987 282.643 14.9996C283.155 14.8005 283.703 14.7141 284.25 14.7463C284.798 14.7785 285.332 14.9285 285.816 15.186C286.3 15.4436 286.723 15.8026 287.056 16.2386C287.389 16.6747 287.623 17.1774 287.744 17.7124C287.865 18.2475 287.868 18.8023 287.755 19.3389H281.96ZM286.017 18.1898C286.036 17.9116 285.998 17.6324 285.905 17.3695C285.812 17.1066 285.665 16.8657 285.475 16.6618C285.285 16.4579 285.055 16.2952 284.799 16.184C284.543 16.0729 284.267 16.0155 283.988 16.0155C283.709 16.0155 283.434 16.0729 283.178 16.184C282.922 16.2952 282.692 16.4579 282.502 16.6618C282.311 16.8657 282.165 17.1066 282.072 17.3695C281.979 17.6324 281.941 17.9116 281.96 18.1898H286.017Z" fill="white"/>
<path d="M63.7329 28.0703H65.1571L66.5026 35.7901H65.1276L64.8231 33.7472H61.7391L60.5507 35.7901H59.1069L63.7329 28.0703ZM64.1946 29.465L62.3383 32.7454H64.6955L64.1946 29.465Z" fill="white"/>
<path d="M72.2087 35.79H71.0301L71.2068 35.0337C71.0305 35.3393 70.7751 35.5918 70.4675 35.7647C70.1599 35.9375 69.8114 36.0243 69.4586 36.0159C69.1566 36.0403 68.853 35.997 68.5699 35.8891C68.2868 35.7811 68.0314 35.6112 67.8224 35.3919C67.6134 35.1725 67.456 34.9092 67.3619 34.6212C67.2677 34.3333 67.2391 34.0279 67.2782 33.7274C67.2782 31.9202 68.3979 30.1229 70.3229 30.1229C70.6639 30.0842 71.0086 30.1523 71.3094 30.3176C71.6101 30.4829 71.8523 30.7375 72.0024 31.0461L72.6212 28.0996H73.8587L72.2087 35.79ZM70.4506 31.0166C69.0756 31.0166 68.4863 32.3917 68.4863 33.6488C68.4639 33.8211 68.4801 33.9961 68.5339 34.1612C68.5876 34.3264 68.6775 34.4775 68.797 34.6035C68.9164 34.7296 69.0625 34.8274 69.2245 34.8899C69.3865 34.9524 69.5604 34.9781 69.7336 34.9649C71.0301 34.9649 71.6979 33.4819 71.6979 32.4113C71.7316 32.2336 71.7239 32.0504 71.6755 31.8761C71.627 31.7018 71.5391 31.541 71.4185 31.4061C71.2978 31.2713 71.1478 31.166 70.98 31.0985C70.8121 31.0309 70.631 31.0029 70.4506 31.0166Z" fill="white"/>
<path d="M74.124 30.2017H75.4008L75.8625 34.2777L78.0232 30.2017H79.3197L76.2357 35.7902H74.8606L74.124 30.2017Z" fill="white"/>
<path d="M83.995 34.1698C83.9438 34.3498 83.9077 34.5338 83.887 34.7198C83.887 34.8671 83.9557 34.9653 84.1522 34.9653C84.3486 34.9653 84.4468 34.9064 84.5843 34.8966L84.3879 35.7903C84.0668 35.875 83.7375 35.9244 83.4057 35.9377C83.3091 35.9416 83.2127 35.926 83.1223 35.8918C83.0319 35.8575 82.9493 35.8053 82.8796 35.7384C82.8099 35.6714 82.7544 35.591 82.7165 35.502C82.6787 35.4131 82.6592 35.3174 82.6593 35.2207C82.1527 35.6973 81.4787 35.9549 80.7834 35.9377C80.5693 35.9637 80.3522 35.9448 80.1459 35.8823C79.9396 35.8198 79.7486 35.7149 79.585 35.5745C79.4214 35.434 79.2889 35.261 79.196 35.0665C79.103 34.872 79.0515 34.6603 79.0449 34.4448C79.0449 33.0697 80.1548 32.5983 81.3825 32.4804C81.795 32.4804 82.2173 32.4215 82.62 32.3822C82.7122 32.3829 82.8034 32.3639 82.8877 32.3265C82.9719 32.2892 83.0472 32.2343 83.1086 32.1655C83.1699 32.0967 83.2159 32.0156 83.2434 31.9277C83.2709 31.8397 83.2794 31.7469 83.2682 31.6554C83.2682 31.125 82.8361 30.9777 82.2861 30.9777C81.6182 30.9777 81.0682 31.1643 80.8914 31.8617H79.7815C80.0566 30.4768 81.0878 30.0054 82.4236 30.0054C84.4567 30.0054 84.5156 30.909 84.5156 31.3018C84.5124 31.5866 84.4762 31.8701 84.4075 32.1465L83.995 34.1698ZM81.2744 34.9653C82.4727 34.9653 82.8754 34.101 83.0325 33.001C82.8115 33.1667 82.5427 33.2563 82.2664 33.2563C81.5789 33.3153 80.3021 33.2563 80.3021 34.2385C80.2923 34.7885 80.8226 34.9653 81.2744 34.9653Z" fill="white"/>
<path d="M86.1951 30.2016H87.3442L87.1773 31.007C87.401 30.6968 87.6965 30.4454 88.0386 30.2743C88.3807 30.1033 88.7592 30.0177 89.1416 30.0248C90.2613 30.0248 90.772 30.6141 90.772 31.5079C90.7772 31.7418 90.7574 31.9756 90.7131 32.2052L89.9666 35.7705H88.7193L89.4362 32.3231C89.4787 32.1524 89.505 31.9782 89.5148 31.8026C89.5148 31.6159 89.5148 30.9972 88.6701 30.9972C88.4492 31.0048 88.2319 31.0566 88.0312 31.1493C87.8305 31.2421 87.6504 31.374 87.5014 31.5374C87.1939 31.8783 86.9836 32.2955 86.8924 32.7454L86.2638 35.7705H85.0361L86.1951 30.2016Z" fill="white"/>
<path d="M95.6629 32.048C95.6629 31.3605 95.2308 31.0167 94.5629 31.0167C93.3352 31.0167 92.7262 32.4408 92.7262 33.5016C92.7262 34.3364 93.0503 34.965 93.9736 34.965C94.298 34.969 94.614 34.8622 94.8694 34.6622C95.1248 34.4621 95.3043 34.1809 95.3781 33.865H96.6058C96.4652 34.4963 96.0996 35.0549 95.5772 35.4363C95.0548 35.8176 94.4115 35.9958 93.7673 35.9374C93.4546 35.9548 93.1418 35.904 92.8506 35.7885C92.5594 35.6731 92.2968 35.4957 92.081 35.2687C91.8652 35.0416 91.7013 34.7704 91.6007 34.4738C91.5002 34.1771 91.4653 33.8622 91.4985 33.5507C91.4622 33.109 91.5168 32.6646 91.659 32.2449C91.8012 31.8252 92.028 31.4391 92.3253 31.1105C92.6227 30.7818 92.9842 30.5177 93.3876 30.3343C93.7911 30.151 94.2278 30.0523 94.6709 30.0444C94.9502 30.0063 95.2344 30.0288 95.5043 30.1103C95.7741 30.1918 96.0232 30.3305 96.2348 30.5168C96.4463 30.7032 96.6152 30.9329 96.73 31.1903C96.8449 31.4477 96.903 31.7268 96.9004 32.0087L95.6629 32.048Z" fill="white"/>
<path d="M98.4032 30.2016H99.6309L98.4719 35.7901H97.2344L98.4032 30.2016ZM98.8451 28.0703H100.063L99.8273 29.2391H98.6094L98.8451 28.0703Z" fill="white"/>
<path d="M101.006 30.2016H102.145L101.978 31.007C102.202 30.6968 102.498 30.4454 102.84 30.2743C103.182 30.1033 103.56 30.0177 103.943 30.0248C105.062 30.0248 105.573 30.6141 105.573 31.5079C105.578 31.7418 105.559 31.9756 105.514 32.2052L104.778 35.7705H103.54L104.257 32.3231C104.302 32.1526 104.332 31.9784 104.345 31.8026C104.345 31.6159 104.345 30.9972 103.491 30.9972C103.27 31.0048 103.053 31.0566 102.852 31.1493C102.651 31.2421 102.471 31.374 102.322 31.5374C102.015 31.8783 101.804 32.2955 101.713 32.7454L101.085 35.7705H99.8569L101.006 30.2016Z" fill="white"/>
<path d="M111.171 35.633C110.798 37.342 110.111 38.0001 108.353 38.0001C107.105 38.0001 105.976 37.5286 105.946 36.2223H107.184C107.184 36.8509 107.753 37.0867 108.461 37.0867C109.561 37.0867 109.836 36.4286 110.032 35.5152L110.15 34.9652C109.98 35.2266 109.747 35.4411 109.472 35.5887C109.198 35.7363 108.89 35.8124 108.578 35.8098C108.277 35.8292 107.975 35.782 107.693 35.6716C107.412 35.5612 107.158 35.3903 106.95 35.1711C106.742 34.9518 106.585 34.6895 106.49 34.4028C106.394 34.116 106.363 33.8117 106.398 33.5116C106.398 31.8321 107.38 30.0642 109.286 30.0642C109.653 30.0281 110.021 30.1145 110.334 30.3099C110.647 30.5054 110.886 30.7989 111.014 31.1445L111.181 30.2213H112.35L111.171 35.633ZM108.785 34.8179C110.101 34.8179 110.641 33.4723 110.641 32.3428C110.663 32.1702 110.647 31.9948 110.593 31.8292C110.539 31.6637 110.45 31.5121 110.33 31.3853C110.211 31.2585 110.065 31.1597 109.903 31.096C109.741 31.0323 109.567 31.0053 109.394 31.0169C108.195 31.0169 107.616 32.4115 107.616 33.433C107.616 34.1893 107.95 34.8179 108.785 34.8179Z" fill="white"/>
<path d="M119.569 28.0703H120.993L122.329 35.7901H120.954L120.649 33.7472H117.575L116.387 35.7901H114.914L119.569 28.0703ZM120.031 29.4355L118.165 32.716H120.522L120.031 29.4355Z" fill="white"/>
<path d="M128.045 35.79H126.866L127.043 35.0337C126.866 35.3408 126.609 35.5943 126.3 35.7672C125.99 35.9401 125.64 36.0261 125.285 36.0159C124.983 36.0407 124.68 35.9974 124.397 35.8894C124.115 35.7814 123.86 35.6114 123.651 35.3918C123.443 35.1722 123.287 34.9086 123.194 34.6206C123.101 34.3326 123.074 34.0273 123.115 33.7274C123.115 31.9202 124.224 30.1229 126.149 30.1229C126.492 30.0836 126.838 30.1512 127.141 30.3165C127.443 30.4818 127.687 30.7367 127.839 31.0461L128.458 28.0996H129.646L128.045 35.79ZM126.287 31.0166C124.912 31.0166 124.323 32.3917 124.323 33.6488C124.298 33.8232 124.313 34.0009 124.367 34.1685C124.421 34.3361 124.513 34.4891 124.635 34.616C124.757 34.7428 124.907 34.8402 125.072 34.9007C125.237 34.9611 125.414 34.9831 125.59 34.9649C126.857 34.9649 127.554 33.4819 127.554 32.3622C127.58 32.1863 127.565 32.0069 127.512 31.8373C127.459 31.6677 127.368 31.5124 127.246 31.3829C127.124 31.2535 126.974 31.1533 126.808 31.0899C126.642 31.0265 126.464 31.0014 126.287 31.0166Z" fill="white"/>
<path d="M134.645 35.79H133.467L133.643 35.0337C133.466 35.3408 133.209 35.5943 132.9 35.7672C132.59 35.9401 132.24 36.0261 131.885 36.0159C131.584 36.0407 131.28 35.9974 130.997 35.8894C130.715 35.7814 130.46 35.6114 130.252 35.3918C130.043 35.1722 129.887 34.9086 129.794 34.6206C129.701 34.3326 129.674 34.0273 129.715 33.7274C129.715 31.9202 130.834 30.1229 132.75 30.1229C133.092 30.0836 133.438 30.1512 133.741 30.3165C134.043 30.4818 134.287 30.7367 134.439 31.0461L135.058 28.0996H136.285L134.645 35.79ZM132.887 31.0166C131.512 31.0166 130.923 32.3917 130.923 33.6488C130.898 33.8232 130.913 34.0009 130.967 34.1685C131.021 34.3361 131.113 34.4891 131.235 34.616C131.357 34.7428 131.507 34.8402 131.672 34.9007C131.838 34.9611 132.015 34.9831 132.19 34.9649C133.457 34.9649 134.154 33.4819 134.154 32.3622C134.18 32.1863 134.166 32.0069 134.112 31.8373C134.059 31.6677 133.968 31.5124 133.846 31.3829C133.724 31.2535 133.575 31.1533 133.409 31.0899C133.242 31.0265 133.064 31.0014 132.887 31.0166Z" fill="white"/>
<path d="M137.218 30.2016H138.485L137.336 35.7901H136.099L137.218 30.2016ZM137.66 28.0703H138.878L138.642 29.2391H137.425L137.66 28.0703Z" fill="white"/>
<path d="M143.092 32.048C143.092 31.3605 142.659 31.0167 141.992 31.0167C140.764 31.0167 140.155 32.4408 140.155 33.5016C140.155 34.3364 140.479 34.965 141.402 34.965C141.727 34.969 142.043 34.8622 142.298 34.6622C142.554 34.4621 142.733 34.1809 142.807 33.865H144.034C143.894 34.4963 143.528 35.0549 143.006 35.4363C142.484 35.8176 141.84 35.9958 141.196 35.9374C140.883 35.9548 140.57 35.904 140.279 35.7885C139.988 35.6731 139.726 35.4957 139.51 35.2687C139.294 35.0416 139.13 34.7704 139.029 34.4738C138.929 34.1771 138.894 33.8622 138.927 33.5507C138.891 33.109 138.946 32.6646 139.088 32.2449C139.23 31.8252 139.457 31.4391 139.754 31.1105C140.051 30.7818 140.413 30.5177 140.816 30.3343C141.22 30.151 141.657 30.0523 142.1 30.0444C142.379 30.0063 142.663 30.0288 142.933 30.1103C143.203 30.1918 143.452 30.3305 143.663 30.5168C143.875 30.7032 144.044 30.9329 144.159 31.1903C144.274 31.4477 144.332 31.7268 144.329 32.0087L143.092 32.048Z" fill="white"/>
<path d="M146.52 28.4829H147.718L147.374 30.1624H148.484L148.288 31.0758H147.178L146.608 33.8161C146.553 34.0118 146.517 34.2124 146.5 34.4152C146.5 34.6509 146.579 34.8277 146.942 34.8277C147.161 34.8503 147.381 34.8503 147.6 34.8277L147.394 35.7313C147.072 35.807 146.742 35.8465 146.412 35.8492C145.518 35.8492 145.292 35.3286 145.292 34.8179C145.301 34.6066 145.327 34.3963 145.371 34.1893L146.009 31.1249H145.027L145.223 30.2115H146.205L146.52 28.4829Z" fill="white"/>
<path d="M149.427 30.2016H150.655L149.505 35.7901H148.307L149.427 30.2016ZM149.869 28.0703H151.087L150.851 29.2391H149.633L149.869 28.0703Z" fill="white"/>
<path d="M151.136 33.4918C151.111 33.0547 151.174 32.617 151.321 32.2048C151.469 31.7926 151.698 31.4144 151.995 31.0926C152.292 30.7709 152.651 30.5123 153.05 30.3322C153.449 30.1521 153.88 30.0542 154.318 30.0444C154.641 30.0069 154.969 30.0417 155.278 30.1463C155.586 30.2508 155.867 30.4225 156.101 30.649C156.335 30.8754 156.516 31.151 156.63 31.4557C156.745 31.7605 156.79 32.0869 156.764 32.4114C156.805 32.8547 156.753 33.3017 156.611 33.7236C156.469 34.1456 156.24 34.5332 155.94 34.8615C155.639 35.1899 155.273 35.4517 154.865 35.6302C154.457 35.8088 154.017 35.9 153.572 35.8981C153.246 35.9295 152.918 35.889 152.611 35.7796C152.303 35.6702 152.023 35.4945 151.791 35.265C151.558 35.0354 151.379 34.7576 151.266 34.4512C151.153 34.1448 151.108 33.8173 151.136 33.4918ZM152.364 33.4918C152.364 34.307 152.756 34.9258 153.65 34.9258C154.917 34.9258 155.526 33.5507 155.526 32.4212C155.526 31.5962 155.143 30.9774 154.249 30.9774C152.982 31.0167 152.364 32.4114 152.364 33.5311V33.4918Z" fill="white"/>
<path d="M158.433 30.2017H159.592L159.415 31.0071C159.633 30.7025 159.92 30.4544 160.254 30.2835C160.587 30.1127 160.956 30.024 161.33 30.0249C162.46 30.0249 162.971 30.6142 162.971 31.508C162.971 31.7417 162.951 31.975 162.912 32.2053L162.165 35.7706H160.938L161.645 32.3232C161.695 32.1538 161.724 31.979 161.733 31.8026C161.733 31.616 161.782 30.9973 160.879 30.9973C160.658 31.006 160.441 31.0582 160.24 31.1509C160.04 31.2436 159.86 31.375 159.71 31.5374C159.409 31.8815 159.203 32.2978 159.111 32.7455L158.482 35.7706H157.254L158.433 30.2017Z" fill="white"/>
<path d="M168.049 33.2364C168.049 34.4347 168.697 34.8668 169.826 34.8668C170.553 34.8668 171.545 34.5329 171.545 33.6391C171.545 32.7453 170.641 32.5489 169.689 32.2837C169.011 32.0971 167.587 31.7534 167.587 30.3194C167.587 28.8854 168.638 27.9131 170.465 27.9131C172.066 27.9131 173.411 28.5613 173.313 30.3783H172.016C172.016 29.3962 171.486 29.0229 170.435 29.0229C170.072 29.0229 168.932 29.131 168.932 30.1524C168.932 30.9087 169.689 31.1346 170.543 31.3114C171.633 31.5864 172.891 31.881 172.891 33.5016C172.891 34.6999 172.016 35.9963 169.679 35.9963C167.872 35.9963 166.732 35.1909 166.732 33.2659L168.049 33.2364Z" fill="white"/>
<path d="M177.919 32.048C177.919 31.3605 177.487 31.0167 176.809 31.0167C175.582 31.0167 174.973 32.4408 174.973 33.5016C174.973 34.3364 175.297 34.965 176.22 34.965C176.545 34.9709 176.862 34.8647 177.118 34.6644C177.374 34.464 177.553 34.1818 177.625 33.865H178.852C178.714 34.4973 178.349 35.0572 177.826 35.4389C177.303 35.8206 176.658 35.9979 176.014 35.9374C175.701 35.9548 175.388 35.904 175.097 35.7885C174.806 35.6731 174.543 35.4957 174.328 35.2687C174.112 35.0416 173.948 34.7704 173.847 34.4738C173.747 34.1771 173.712 33.8622 173.745 33.5507C173.709 33.109 173.763 32.6646 173.906 32.2449C174.048 31.8252 174.275 31.4391 174.572 31.1105C174.869 30.7818 175.231 30.5177 175.634 30.3343C176.038 30.151 176.474 30.0523 176.918 30.0444C177.197 30.0063 177.481 30.0288 177.751 30.1103C178.021 30.1918 178.27 30.3305 178.481 30.5168C178.693 30.7032 178.862 30.9329 178.977 31.1903C179.091 31.4477 179.15 31.7268 179.147 32.0087L177.919 32.048Z" fill="white"/>
<path d="M180.65 30.2016H181.877L180.718 35.7901H179.491L180.65 30.2016ZM181.092 28.0703H182.31L182.074 29.2391H180.856L181.092 28.0703Z" fill="white"/>
<path d="M187.466 34.0615C187.311 34.6415 186.956 35.1479 186.463 35.4912C185.971 35.8345 185.373 35.9926 184.775 35.9374C184.449 35.9559 184.123 35.9054 183.818 35.789C183.512 35.6727 183.235 35.4932 183.005 35.2623C182.774 35.0314 182.594 34.7543 182.478 34.4492C182.361 34.1441 182.311 33.8178 182.329 33.4918C182.299 33.0599 182.356 32.6263 182.496 32.2168C182.637 31.8073 182.859 31.4304 183.149 31.1086C183.438 30.7868 183.79 30.5267 184.182 30.3439C184.575 30.161 185 30.0592 185.433 30.0444C187.397 30.0444 187.81 31.5275 187.81 32.6177C187.809 32.8513 187.789 33.0845 187.751 33.315H183.587C183.577 33.4327 183.577 33.5509 183.587 33.6686C183.567 33.8462 183.588 34.0259 183.649 34.194C183.709 34.3622 183.806 34.5145 183.934 34.6393C184.062 34.7642 184.216 34.8584 184.386 34.9149C184.555 34.9713 184.735 34.9885 184.912 34.9651C185.206 34.988 185.498 34.9112 185.742 34.7472C185.987 34.5832 186.168 34.3416 186.258 34.0615H187.466ZM186.612 32.4998C186.612 32.3722 186.612 32.2641 186.612 32.1561C186.619 32.0011 186.593 31.8463 186.536 31.702C186.479 31.5577 186.392 31.4273 186.28 31.3194C186.169 31.2116 186.036 31.1288 185.889 31.0766C185.743 31.0244 185.588 31.004 185.433 31.0168C185.008 31.0071 184.595 31.1523 184.27 31.4252C183.944 31.6981 183.729 32.0801 183.665 32.4998H186.612Z" fill="white"/>
<path d="M189.263 30.2016H190.412L190.246 31.007C190.469 30.6968 190.765 30.4454 191.107 30.2743C191.449 30.1033 191.827 30.0177 192.21 30.0248C193.33 30.0248 193.84 30.6141 193.84 31.5079C193.845 31.7418 193.826 31.9756 193.781 32.2052L193.035 35.7705H191.807L192.524 32.3231C192.567 32.1524 192.593 31.9782 192.603 31.8026C192.603 31.6159 192.603 30.9972 191.748 30.9972C191.529 31.005 191.313 31.0569 191.114 31.1497C190.915 31.2425 190.736 31.3743 190.589 31.5374C190.282 31.8783 190.071 32.2955 189.98 32.7454L189.352 35.7705H188.124L189.263 30.2016Z" fill="white"/>
<path d="M198.731 32.048C198.731 31.3605 198.299 31.0167 197.631 31.0167C196.404 31.0167 195.795 32.4408 195.795 33.5016C195.795 34.3364 196.119 34.965 197.042 34.965C197.366 34.969 197.682 34.8622 197.938 34.6622C198.193 34.4621 198.373 34.1809 198.446 33.865H199.674C199.534 34.4963 199.168 35.0549 198.646 35.4363C198.123 35.8176 197.48 35.9958 196.836 35.9374C196.523 35.9548 196.21 35.904 195.919 35.7885C195.628 35.6731 195.365 35.4957 195.149 35.2687C194.934 35.0416 194.77 34.7704 194.669 34.4738C194.569 34.1771 194.534 33.8622 194.567 33.5507C194.531 33.109 194.585 32.6646 194.727 32.2449C194.87 31.8252 195.096 31.4391 195.394 31.1105C195.691 30.7818 196.053 30.5177 196.456 30.3343C196.859 30.151 197.296 30.0523 197.739 30.0444C198.019 30.0063 198.303 30.0288 198.573 30.1103C198.842 30.1918 199.092 30.3305 199.303 30.5168C199.515 30.7032 199.684 30.9329 199.798 31.1903C199.913 31.4477 199.971 31.7268 199.969 32.0087L198.731 32.048Z" fill="white"/>
<path d="M205.685 34.0615C205.53 34.6414 205.175 35.1479 204.682 35.4912C204.19 35.8345 203.592 35.9926 202.994 35.9374C202.668 35.9559 202.342 35.9053 202.037 35.789C201.731 35.6726 201.454 35.4931 201.223 35.2622C200.993 35.0313 200.813 34.7543 200.697 34.4492C200.58 34.1441 200.53 33.8178 200.548 33.4918C200.516 33.0596 200.572 32.6254 200.712 32.2153C200.853 31.8052 201.074 31.4278 201.364 31.1057C201.654 30.7836 202.006 30.5235 202.4 30.3411C202.793 30.1587 203.219 30.0578 203.652 30.0444C203.987 30.0236 204.322 30.0775 204.633 30.2024C204.945 30.3272 205.224 30.5199 205.452 30.7663C205.679 31.0127 205.849 31.3067 205.949 31.6269C206.049 31.9472 206.076 32.2856 206.029 32.6177C206.03 32.8519 206.007 33.0856 205.96 33.315H201.805C201.792 33.4325 201.792 33.5511 201.805 33.6686C201.788 33.8467 201.81 34.0265 201.872 34.1946C201.933 34.3627 202.032 34.5147 202.16 34.6393C202.289 34.764 202.444 34.858 202.614 34.9144C202.783 34.9708 202.964 34.9881 203.141 34.9651C203.434 34.9892 203.725 34.9128 203.968 34.7485C204.211 34.5842 204.391 34.3418 204.477 34.0615H205.685ZM204.781 32.4998C204.781 32.3721 204.781 32.2641 204.781 32.1561C204.789 32.0011 204.763 31.8463 204.706 31.702C204.649 31.5577 204.562 31.4273 204.45 31.3194C204.339 31.2116 204.205 31.1288 204.059 31.0766C203.913 31.0244 203.758 31.004 203.603 31.0168C203.192 31.0259 202.797 31.1795 202.488 31.4508C202.179 31.722 201.976 32.0934 201.914 32.4998H204.781Z" fill="white"/>
</svg>
