<svg width="98" height="62" viewBox="0 0 98 62" fill="none" xmlns="http://www.w3.org/2000/svg">
<path d="M88.807 62H9.193C4.13465 62 0 57.913 0 52.913V9.08696C0 4.08696 4.13465 0 9.193 0H88.807C93.9093 0 98 4.08696 98 9.08696V52.8696C98 57.913 93.9093 62 88.807 62Z" fill="#83D040"/>
<path d="M0 9.08696L46.1409 39.9565C47.8564 41.1304 50.1436 41.1304 51.8591 39.9565L98 9.08696C98 4.04348 93.8653 0 88.807 0H9.193C4.13465 0 0 4.08696 0 9.08696Z" fill="#A3E56A"/>
<path d="M51.2437 57.1738C47.0211 57.1738 43.2823 56.6086 40.0273 55.4782C36.7724 54.3477 34.0453 52.6521 31.846 50.4347C29.6467 48.2173 27.9753 45.5216 26.8317 42.3042C25.688 39.0869 25.1162 35.4347 25.1162 31.2608C25.1162 27.2608 25.688 23.6521 26.8317 20.5216C27.9753 17.3477 29.6467 14.6956 31.89 12.4782C34.0893 10.2608 36.7724 8.56512 39.9394 7.43469C43.1063 6.26077 46.6692 5.69556 50.6719 5.69556C54.5426 5.69556 57.9735 6.30425 60.8765 7.56512C63.8236 8.82599 66.2428 10.5216 68.2221 12.6521C70.2015 14.7825 71.653 17.1738 72.6647 19.826C73.6324 22.4782 74.1602 25.2173 74.1602 28.0434C74.1602 30.0434 74.0722 32.0434 73.8523 34.0869C73.6763 36.1303 73.2365 37.9999 72.6207 39.6956C72.0049 41.3912 71.0372 42.7825 69.7616 43.826C68.486 44.8695 66.7266 45.3912 64.5273 45.3912C63.5597 45.3912 62.504 45.2608 61.3164 44.9564C60.1728 44.6521 59.1171 44.1738 58.2374 43.4782C57.3577 42.7825 56.7859 41.826 56.6539 40.6521H56.39C56.0381 41.4347 55.5543 42.2173 54.8505 42.9129C54.1467 43.6086 53.267 44.1738 52.1674 44.6086C51.0677 45.0434 49.7482 45.2173 48.1647 45.1738C46.3613 45.0869 44.7778 44.6956 43.4142 43.9564C42.0507 43.2173 40.9071 42.2173 39.9834 40.9564C39.0597 39.6956 38.3559 38.2173 37.916 36.5651C37.4322 34.8695 37.2123 33.0869 37.2123 31.1303C37.2123 29.3043 37.4762 27.6086 38.048 26.0434C38.6198 24.5216 39.3676 23.1738 40.3792 22.0434C41.3909 20.9129 42.5345 19.9564 43.8541 19.3043C45.1737 18.6521 46.6252 18.1738 48.1647 18.0434C49.5282 17.9129 50.8038 17.9564 51.9474 18.2173C53.0911 18.4782 54.0148 18.826 54.7625 19.3477C55.5103 19.826 55.9501 20.3912 56.1701 20.9999H56.434V19.8695C56.434 19.2173 56.9618 18.6956 57.6216 18.6956H59.6889C60.3487 18.6956 60.8765 19.2173 60.8765 19.8695V37.2608C60.8765 38.3912 61.1844 39.4347 61.8442 40.3042C62.504 41.1738 63.4277 41.6086 64.7033 41.6086C66.1108 41.6086 67.2105 41.1303 67.9582 40.1738C68.706 39.2173 69.2338 37.739 69.4977 35.739C69.7616 33.739 69.9376 31.1738 69.9376 28.0869C69.9376 26.2608 69.6737 24.4347 69.1898 22.6521C68.706 20.8695 67.9142 19.2173 66.9026 17.6521C65.8909 16.0869 64.6153 14.739 63.0318 13.5216C61.4923 12.3477 59.6889 11.3912 57.5776 10.739C55.5103 10.0434 53.1351 9.73903 50.4959 9.73903C47.241 9.73903 44.3379 10.2173 41.7868 11.2173C39.2356 12.2173 37.0363 13.6521 35.2329 15.5651C33.4295 17.4782 32.0659 19.739 31.1422 22.4347C30.2185 25.1303 29.7347 28.2173 29.7347 31.6521C29.7347 35.1303 30.2185 38.2173 31.1422 40.9564C32.0659 43.6521 33.4735 45.9564 35.2769 47.826C37.1243 49.6956 39.3676 51.0869 42.0947 52.0434C44.8218 52.9999 47.9448 53.4782 51.4636 53.4782C53.0031 53.4782 54.4986 53.3477 55.9501 53.0434C57.4456 52.739 58.7212 52.4347 59.8649 52.0869C60.0408 52.0434 60.2167 51.9999 60.3927 51.9129C61.4483 51.6086 62.592 52.1738 62.9439 53.2608C63.2518 54.3042 62.6799 55.4347 61.5803 55.7825C61.1404 55.9129 60.6566 56.0434 60.1288 56.1738C58.7652 56.5216 57.2697 56.826 55.7302 57.0434C54.1467 57.0434 52.6512 57.1738 51.2437 57.1738ZM48.8245 40.826C50.6719 40.826 52.1674 40.4782 53.311 39.739C54.4546 38.9999 55.2904 37.8695 55.8182 36.3912C56.346 34.9129 56.6099 32.9999 56.6099 30.739C56.6099 28.4347 56.302 26.6521 55.7302 25.3477C55.1584 24.0434 54.2787 23.1738 53.179 22.6521C52.0354 22.1303 50.6279 21.8695 49.0004 21.8695C47.4169 21.8695 46.0974 22.2608 44.9537 23.0869C43.8541 23.9129 42.9744 24.9999 42.4026 26.3477C41.8308 27.6956 41.5229 29.1738 41.5229 30.739C41.5229 32.4782 41.7428 34.1303 42.2266 35.6521C42.7105 37.1738 43.4582 38.4347 44.5139 39.3912C45.6135 40.3477 47.0211 40.826 48.8245 40.826Z" fill="#0069AA"/>
</svg>
