<svg width="76" height="104" viewBox="0 0 76 104" fill="none" xmlns="http://www.w3.org/2000/svg">
<g clip-path="url(#clip0)">
<path d="M60.9 29.9H27.4V31.7H60.9V29.9Z" fill="#22DDBE"/>
<path d="M60.9 45.6H27.4V47.4H60.9V45.6Z" fill="#22DDBE"/>
<path d="M60.9 60.2H27.4V62H60.9V60.2Z" fill="#22DDBE"/>
<path d="M60.9 76.8H27.4V78.6H60.9V76.8Z" fill="#22DDBE"/>
<path d="M13.9 26.5L12.6 27.8L15.9 31.1L12.6 34.3L13.9 35.6L17.1 32.3L20.4 35.6L21.6 34.3L18.4 31.1L21.6 27.8L20.4 26.5L17.1 29.8L13.9 26.5Z" fill="#22DDBE"/>
<path d="M20.4 42.1L17.1 45.3L13.9 42.1L12.6 43.3L15.9 46.6L12.6 49.8L13.9 51.1L17.1 47.8L20.4 51.1L21.6 49.8L18.4 46.6L21.6 43.3L20.4 42.1Z" fill="#22DDBE"/>
<path d="M20.4 57.6L17.1 60.8L13.9 57.6L12.6 58.8L15.9 62.1L12.6 65.4L13.9 66.6L17.1 63.4L20.4 66.6L21.6 65.4L18.4 62.1L21.6 58.8L20.4 57.6Z" fill="#22DDBE"/>
<path d="M20.4 73.1L17.1 76.4L13.9 73.1L12.6 74.4L15.9 77.6L12.6 80.9L13.9 82.2L17.1 78.9L20.4 82.2L21.6 80.9L18.4 77.6L21.6 74.4L20.4 73.1Z" fill="#22DDBE"/>
<path d="M71 9.3H55.1C54.5 7.9 53.2 7 51.6 7H44.2V5.9C44.2 2.6 41.5 0 38.3 0H36.7C33.4 0 30.8 2.7 30.8 5.9V7H23.4C21.9 7 20.5 7.9 19.9 9.2H4.1C1.8 9.3 0 11.1 0 13.4V99.7C0 102 2.8 103.8 5.1 103.8H71C73.3 103.8 75.1 102 75.1 99.7V13.4C75.1 11.1 73.3 9.3 71 9.3ZM55.5 16.8V16H67.9V96.8H7.1V16H19.5V16.7H55.5V16.8ZM21.3 10.9C21.3 9.8 22.2 8.8 23.4 8.8H32.6V5.9C32.6 3.6 34.5 1.8 36.7 1.8H38.3C40.6 1.8 42.4 3.7 42.4 5.9V8.8H51.6C52.7 8.8 53.7 9.7 53.7 10.9V15H21.3V10.9ZM73.3 99.7C73.3 101 72.3 102 71 102H5.1C3.7 102 1.8 100.8 1.8 99.7V13.4C1.8 12.1 2.8 11.1 4.1 11.1H19.6V14.3H5.3V98.7H69.6V14.3H55.5V11H71C72.3 11 73.3 12 73.3 13.3V99.7Z" fill="#22DDBE"/>
</g>
<defs>
<clipPath id="clip0">
<rect width="75.1" height="103.8" fill="white"/>
</clipPath>
</defs>
</svg>
