<svg xmlns="http://www.w3.org/2000/svg" viewBox="0 0 9.27 16"><defs>
  <style>

   .cls-1{
   fill:#0069aa !important;
   }


  </style>
</defs>
<title>favicon</title>
<g id="Layer_2" data-name="Layer 2">
  <g id="Layer_1-2" data-name="Layer 1">
    <path class="cls-1" d="M7.65,15.27a.81.81,0,1,1,.89.73A.82.82,0,0,1,7.65,15.27Z"/>
    <path class="cls-1" d="M7.63,13.32a.65.65,0,0,1,1.29-.13.65.65,0,0,1-1.29.13Z"/>
    <path class="cls-1" d="M7.67,11.6a.44.44,0,1,1,.48.4A.43.43,0,0,1,7.67,11.6Z"/>
    <path class="cls-1" d="M4.4,14.4A.82.82,0,0,1,5.92,15a.82.82,0,0,1-1,.46A.81.81,0,0,1,4.4,14.4Z"/>
    <path class="cls-1" d="M5.26,12.65a.65.65,0,1,1,.37.83A.65.65,0,0,1,5.26,12.65Z"/>
    <path class="cls-1" d="M6.07,11.13a.44.44,0,0,1,.57-.25.45.45,0,0,1,.26.58.45.45,0,0,1-.83-.33Z"/>
    <path class="cls-1" d="M1.9,12.16A.81.81,0,0,1,3,12.22a.81.81,0,1,1-1.14-.06Z"/>
    <path class="cls-1" d="M3.45,11a.65.65,0,0,1,.92,0,.66.66,0,0,1,0,.92.67.67,0,0,1-.92,0A.65.65,0,0,1,3.45,11Z"/><path class="cls-1" d="M4.85,10a.44.44,0,0,1,.63,0,.45.45,0,0,1,0,.63.45.45,0,0,1-.6-.67Z"/><path class="cls-1" d="M.66,9a.81.81,0,0,1,.43,1.57A.81.81,0,1,1,.66,9Z"/><path class="cls-1" d="M2.58,8.68a.65.65,0,1,1-.45.79A.65.65,0,0,1,2.58,8.68Z"/><path class="cls-1" d="M4.28,8.43a.43.43,0,0,1,.54.31.44.44,0,0,1-.31.55A.46.46,0,0,1,4,9,.45.45,0,0,1,4.28,8.43Z"/><path class="cls-1" d="M1,5.68a.81.81,0,0,1,.63,1,.8.8,0,0,1-.95.63A.81.81,0,0,1,1,5.68Z"/>
    <path class="cls-1" d="M2.85,6.23a.66.66,0,0,1,.5.77.63.63,0,0,1-.76.5.65.65,0,0,1-.51-.76A.66.66,0,0,1,2.85,6.23Z"/><path class="cls-1" d="M4.47,6.77a.45.45,0,0,1-.18.88.45.45,0,0,1,.18-.88Z"/><path class="cls-1" d="M2.76,2.83a.81.81,0,1,1-1,1.27A.8.8,0,0,1,1.62,3,.82.82,0,0,1,2.76,2.83Z"/><path class="cls-1" d="M4.18,4.17a.65.65,0,1,1-.8,1,.66.66,0,0,1-.11-.92A.65.65,0,0,1,4.18,4.17Z"/><path class="cls-1" d="M5.39,5.38a.45.45,0,0,1-.55.7.43.43,0,0,1-.07-.62A.44.44,0,0,1,5.39,5.38Z"/><path class="cls-1" d="M5.64,1.09a.82.82,0,0,1-.4,1.08A.81.81,0,0,1,4.56.7.82.82,0,0,1,5.64,1.09Z"/>
    <path class="cls-1" d="M6.31,2.93a.65.65,0,1,1-.86-.32A.65.65,0,0,1,6.31,2.93Z"/>
    <path class="cls-1" d="M6.84,4.56a.45.45,0,0,1-.22.59A.45.45,0,0,1,6,4.93a.45.45,0,0,1,.81-.37Z"/>
    <path class="cls-1" d="M9,.84A.81.81,0,0,1,7.37.78.81.81,0,1,1,9,.84Z"/>
    <path class="cls-1" d="M8.76,2.78a.65.65,0,0,1-.67.62.65.65,0,1,1,.05-1.29A.65.65,0,0,1,8.76,2.78Z"/>
    <path class="cls-1" d="M8.5,4.47A.44.44,0,0,1,8,4.9a.45.45,0,0,1,0-.89A.44.44,0,0,1,8.5,4.47Z"/>
  </g></g>
</svg>
