<svg width="215" height="55" viewBox="0 0 215 55" fill="none" xmlns="http://www.w3.org/2000/svg">
<path fill-rule="evenodd" clip-rule="evenodd" d="M60.6519 40.5372H60.8875C62.712 40.5372 63.962 39.9123 63.962 38.0982C63.962 36.4279 62.9475 35.5362 61.2361 35.5362H60.6519V40.5372ZM59.3813 34.4492H61.41C63.2446 34.4492 65.3043 35.413 65.3043 38.0061C65.3043 40.66 63.2752 41.623 61.3078 41.623H59.3817V34.45L59.3813 34.4492ZM72.6513 41.6234H71.7494L69.536 36.0281V41.6234H68.265V34.45H70.1814L72.2104 39.707L74.291 34.45H76.1872V41.6234H74.9158V36.049L72.6513 41.6234Z" fill="#FEFEFE"/>
<mask id="mask0" mask-type="alpha" maskUnits="userSpaceOnUse" x="0" y="0" width="215" height="55">
<path d="M0 54.4246H215V0.114746H0V54.4246Z" fill="white"/>
</mask>
<g mask="url(#mask0)">
<path fill-rule="evenodd" clip-rule="evenodd" d="M79.4648 41.6231H80.7354V34.4497H79.4648V41.6231Z" fill="#FEFEFE"/>
</g>
<mask id="mask1" mask-type="alpha" maskUnits="userSpaceOnUse" x="0" y="0" width="215" height="55">
<path d="M0 54.4246H215V0.114746H0V54.4246Z" fill="white"/>
</mask>
<g mask="url(#mask1)">
<path fill-rule="evenodd" clip-rule="evenodd" d="M88.8308 41.6231L85.2847 36.7759V41.6231H84.0142V34.4497H85.1313L88.6975 39.3074V34.4497H89.9685V41.6231H88.8308Z" fill="#FEFEFE"/>
</g>
<mask id="mask2" mask-type="alpha" maskUnits="userSpaceOnUse" x="0" y="0" width="215" height="55">
<path d="M0 54.4246H215V0.114746H0V54.4246Z" fill="white"/>
</mask>
<g mask="url(#mask2)">
<path fill-rule="evenodd" clip-rule="evenodd" d="M93.2466 41.6231H94.5172V34.4497H93.2466V41.6231Z" fill="#FEFEFE"/>
</g>
<mask id="mask3" mask-type="alpha" maskUnits="userSpaceOnUse" x="0" y="0" width="215" height="55">
<path d="M0 54.4246H215V0.114746H0V54.4246Z" fill="white"/>
</mask>
<g mask="url(#mask3)">
<path fill-rule="evenodd" clip-rule="evenodd" d="M100.184 35.4233C99.5895 35.4233 99.1184 35.7204 99.1184 36.2639C99.1184 36.8272 99.8254 37.053 100.399 37.2475C101.455 37.6065 102.644 38.0776 102.644 39.5225C102.644 41.1007 101.209 41.7464 100.02 41.7464C98.9337 41.7464 98.114 41.3672 97.335 40.5986L98.1961 39.7688C98.8209 40.3732 99.2924 40.6498 100.03 40.6498C100.666 40.6498 101.301 40.3422 101.301 39.5942C101.301 38.9074 100.573 38.6513 99.8254 38.3855C98.862 38.0365 97.8471 37.5651 97.8471 36.3251C97.8471 34.962 98.9333 34.3267 100.112 34.3267C101.004 34.3267 101.732 34.6036 102.429 35.1262L101.68 36.0381C101.311 35.7107 100.737 35.4233 100.184 35.4233Z" fill="#FEFEFE"/>
</g>
<mask id="mask4" mask-type="alpha" maskUnits="userSpaceOnUse" x="0" y="0" width="215" height="55">
<path d="M0 54.4246H215V0.114746H0V54.4246Z" fill="white"/>
</mask>
<g mask="url(#mask4)">
<path fill-rule="evenodd" clip-rule="evenodd" d="M107.848 35.5354V41.6234H106.578V35.5354H104.835V34.4492H109.591V35.5354H107.848Z" fill="#FEFEFE"/>
</g>
<mask id="mask5" mask-type="alpha" maskUnits="userSpaceOnUse" x="0" y="0" width="215" height="55">
<path d="M0 54.4246H215V0.114746H0V54.4246Z" fill="white"/>
</mask>
<g mask="url(#mask5)">
<path fill-rule="evenodd" clip-rule="evenodd" d="M114.119 37.6055C114.949 37.6055 115.564 37.3084 115.564 36.591C115.564 35.9557 115.062 35.5354 114.325 35.5354H113.412V37.6055H114.119ZM114.355 34.4492C115.492 34.4492 116.907 35.0334 116.907 36.5604C116.907 37.7186 116.107 38.3334 115.267 38.5689L117.491 41.623H115.913L113.863 38.6917H113.412V41.623H112.142V34.4492H114.355Z" fill="#FEFEFE"/>
</g>
<mask id="mask6" mask-type="alpha" maskUnits="userSpaceOnUse" x="0" y="0" width="215" height="55">
<path d="M0 54.4246H215V0.114746H0V54.4246Z" fill="white"/>
</mask>
<g mask="url(#mask6)">
<path fill-rule="evenodd" clip-rule="evenodd" d="M130.596 35.5354V41.6234H129.325V35.5354H127.583V34.4492H132.338V35.5354H130.596Z" fill="#FEFEFE"/>
</g>
<mask id="mask7" mask-type="alpha" maskUnits="userSpaceOnUse" x="0" y="0" width="215" height="55">
<path d="M0 54.4246H215V0.114746H0V54.4246Z" fill="white"/>
</mask>
<g mask="url(#mask7)">
<path fill-rule="evenodd" clip-rule="evenodd" d="M134.889 41.6231H136.16V34.4497H134.889V41.6231Z" fill="#FEFEFE"/>
</g>
<mask id="mask8" mask-type="alpha" maskUnits="userSpaceOnUse" x="0" y="0" width="215" height="55">
<path d="M0 54.4246H215V0.114746H0V54.4246Z" fill="white"/>
</mask>
<g mask="url(#mask8)">
<path fill-rule="evenodd" clip-rule="evenodd" d="M142.841 35.4442C141.468 35.4442 140.464 36.5812 140.464 38.0362C140.464 39.4919 141.468 40.6292 142.841 40.6292C144.224 40.6292 145.229 39.4919 145.229 38.0362C145.229 36.5812 144.224 35.4438 142.841 35.4438L142.841 35.4442ZM142.841 41.7464C140.73 41.7464 139.121 40.0861 139.121 38.0362C139.121 35.9869 140.73 34.3267 142.841 34.3267C144.963 34.3267 146.571 35.9866 146.571 38.0362C146.571 40.0861 144.963 41.7464 142.841 41.7464Z" fill="#FEFEFE"/>
</g>
<mask id="mask9" mask-type="alpha" maskUnits="userSpaceOnUse" x="0" y="0" width="215" height="55">
<path d="M0 54.4246H215V0.114746H0V54.4246Z" fill="white"/>
</mask>
<g mask="url(#mask9)">
<path fill-rule="evenodd" clip-rule="evenodd" d="M154.348 41.6231L150.802 36.7759V41.6231H149.532V34.4497H150.649L154.215 39.3074V34.4497H155.486V41.6231H154.348Z" fill="#FEFEFE"/>
</g>
<mask id="mask10" mask-type="alpha" maskUnits="userSpaceOnUse" x="0" y="0" width="215" height="55">
<path d="M0 54.4246H215V0.114746H0V54.4246Z" fill="white"/>
</mask>
<g mask="url(#mask10)">
<path fill-rule="evenodd" clip-rule="evenodd" d="M55.3345 41.6231H56.7902L54.074 34.4497H53.0184L50.1592 41.6231H51.5529L52.0654 40.2088H54.0352L53.6555 39.1431H52.4548L53.4592 36.3866H53.4693L55.3345 41.6231Z" fill="#FEFEFE"/>
</g>
<mask id="mask11" mask-type="alpha" maskUnits="userSpaceOnUse" x="0" y="0" width="215" height="55">
<path d="M0 54.4246H215V0.114746H0V54.4246Z" fill="white"/>
</mask>
<g mask="url(#mask11)">
<path fill-rule="evenodd" clip-rule="evenodd" d="M124.735 41.6231H126.19L123.474 34.4497H122.419L119.56 41.6231H120.953L121.466 40.2088H123.436L123.056 39.1431H121.855L122.86 36.3866H122.87L124.735 41.6231Z" fill="#FEFEFE"/>
</g>
<mask id="mask12" mask-type="alpha" maskUnits="userSpaceOnUse" x="0" y="0" width="215" height="55">
<path d="M0 54.4246H215V0.114746H0V54.4246Z" fill="white"/>
</mask>
<g mask="url(#mask12)">
<path fill-rule="evenodd" clip-rule="evenodd" d="M56.068 27.2985H56.0762C57.4931 27.2855 58.6868 26.8129 59.6192 25.8973C60.5505 25.0015 61.0369 23.7839 61.0626 22.271V13.0761H58.2699V22.0542C58.2602 22.8391 58.0534 23.4349 57.6521 23.8287C57.2359 24.2467 56.7197 24.4505 56.0721 24.4505C55.4271 24.4505 54.9172 24.2486 54.5029 23.8212C54.09 23.4267 53.8844 22.8481 53.8743 22.0601V13.0757H51.0815V22.2793C51.0942 23.788 51.5903 25.0071 52.55 25.8973C53.4895 26.8137 54.6738 27.2855 56.068 27.2985Z" fill="#FEFEFE"/>
</g>
<mask id="mask13" mask-type="alpha" maskUnits="userSpaceOnUse" x="0" y="0" width="215" height="55">
<path d="M0 54.4246H215V0.114746H0V54.4246Z" fill="white"/>
</mask>
<g mask="url(#mask13)">
<path fill-rule="evenodd" clip-rule="evenodd" d="M62.4829 27.1888H65.1663V24.4502H62.4829V27.1888Z" fill="#FEFEFE"/>
</g>
<mask id="mask14" mask-type="alpha" maskUnits="userSpaceOnUse" x="0" y="0" width="215" height="55">
<path d="M0 54.4246H215V0.114746H0V54.4246Z" fill="white"/>
</mask>
<g mask="url(#mask14)">
<path fill-rule="evenodd" clip-rule="evenodd" d="M79.4258 27.1888H82.1092V24.4502H79.4258V27.1888Z" fill="#FEFEFE"/>
</g>
<mask id="mask15" mask-type="alpha" maskUnits="userSpaceOnUse" x="0" y="0" width="215" height="55">
<path d="M0 54.4246H215V0.114746H0V54.4246Z" fill="white"/>
</mask>
<g mask="url(#mask15)">
<path fill-rule="evenodd" clip-rule="evenodd" d="M90.0537 27.1589H92.8461V21.489H97.0132V18.8605H92.8461V15.7844H99.1098V13.0454H90.0537V27.1589Z" fill="#FEFEFE"/>
</g>
<mask id="mask16" mask-type="alpha" maskUnits="userSpaceOnUse" x="0" y="0" width="215" height="55">
<path d="M0 54.4246H215V0.114746H0V54.4246Z" fill="white"/>
</mask>
<g mask="url(#mask16)">
<path fill-rule="evenodd" clip-rule="evenodd" d="M107.698 20.102C107.698 21.3774 107.655 22.2434 107.574 22.6711C107.495 23.0567 107.353 23.3676 107.123 23.6315C106.967 23.8499 106.756 24.0302 106.476 24.1776C105.932 24.4986 105.08 24.5218 104.49 24.1642C104.22 24.0311 103.985 23.8369 103.804 23.5968C103.604 23.371 103.468 23.0623 103.399 22.6711C103.31 22.2385 103.266 21.374 103.266 20.102C103.266 18.828 103.31 17.9572 103.4 17.5063C103.468 17.1308 103.601 16.837 103.825 16.5813C103.993 16.3574 104.221 16.167 104.499 16.0166C104.765 15.8747 105.096 15.7956 105.482 15.784C105.875 15.7964 106.216 15.8751 106.483 16.0125C106.75 16.1629 106.965 16.3507 107.15 16.6071C107.354 16.8363 107.496 17.1423 107.573 17.5078C107.655 17.9531 107.698 18.8258 107.698 20.102H107.698ZM109.883 15.5575C109.555 14.8841 109.018 14.2794 108.287 13.7609C107.537 13.2272 106.597 12.9495 105.481 12.936C104.386 12.9495 103.454 13.2264 102.716 13.755C101.974 14.2705 101.425 14.8718 101.098 15.5153C100.877 15.88 100.715 16.3551 100.611 16.9315C100.519 17.4805 100.473 18.5178 100.473 20.102C100.473 21.6577 100.519 22.6868 100.611 23.2452C100.661 23.5528 100.727 23.8185 100.815 24.0515C100.892 24.2381 100.98 24.4348 101.083 24.6524C101.425 25.3265 101.976 25.9245 102.71 26.4239C103.453 26.9577 104.383 27.2414 105.476 27.2679H105.496C106.599 27.2421 107.538 26.9584 108.281 26.4284C109.015 25.9211 109.553 25.3213 109.853 24.698C110.105 24.3254 110.279 23.8357 110.372 23.237C110.451 22.6786 110.49 21.6529 110.49 20.102C110.49 18.526 110.451 17.4947 110.371 16.9423C110.279 16.3615 110.106 15.8792 109.883 15.5575Z" fill="#FEFEFE"/>
</g>
<mask id="mask17" mask-type="alpha" maskUnits="userSpaceOnUse" x="0" y="0" width="215" height="55">
<path d="M0 54.4246H215V0.114746H0V54.4246Z" fill="white"/>
</mask>
<g mask="url(#mask17)">
<path fill-rule="evenodd" clip-rule="evenodd" d="M119.909 20.102C119.909 21.3774 119.867 22.2434 119.785 22.6711C119.707 23.0567 119.564 23.3676 119.334 23.6315C119.179 23.8499 118.967 24.0302 118.688 24.1776C118.144 24.4986 117.291 24.5218 116.701 24.1642C116.432 24.0311 116.197 23.8368 116.016 23.5968C115.816 23.371 115.68 23.0623 115.61 22.6711C115.522 22.2385 115.477 21.374 115.477 20.102C115.477 18.828 115.522 17.9572 115.612 17.5063C115.68 17.1308 115.812 16.837 116.036 16.5813C116.205 16.3574 116.433 16.167 116.71 16.0166C116.977 15.8747 117.308 15.7956 117.693 15.784C118.087 15.7964 118.428 15.8751 118.695 16.0125C118.961 16.1629 119.177 16.3507 119.362 16.6071C119.565 16.8363 119.707 17.1423 119.784 17.5078C119.867 17.9531 119.909 18.8258 119.909 20.102ZM122.095 15.5575C121.766 14.8841 121.229 14.2794 120.498 13.7609C119.749 13.2272 118.808 12.9495 117.693 12.936C116.597 12.9495 115.666 13.2264 114.928 13.755C114.186 14.2705 113.637 14.8718 113.31 15.5153C113.09 15.88 112.926 16.3551 112.823 16.9315C112.73 17.4805 112.685 18.5178 112.685 20.102C112.685 21.6577 112.73 22.6868 112.823 23.2452C112.872 23.5528 112.939 23.8185 113.027 24.0515C113.104 24.2381 113.192 24.4348 113.294 24.6524C113.637 25.3265 114.187 25.9245 114.922 26.4239C115.664 26.9577 116.595 27.2414 117.688 27.2679H117.707C118.81 27.2421 119.749 26.9584 120.493 26.4284C121.226 25.9211 121.764 25.3213 122.064 24.698C122.316 24.3254 122.49 23.8357 122.583 23.237C122.662 22.6786 122.702 21.6529 122.702 20.102C122.702 18.526 122.662 17.4947 122.582 16.9423C122.49 16.3615 122.317 15.8792 122.095 15.5575" fill="#FEFEFE"/>
</g>
<mask id="mask18" mask-type="alpha" maskUnits="userSpaceOnUse" x="0" y="0" width="215" height="55">
<path d="M0 54.4246H215V0.114746H0V54.4246Z" fill="white"/>
</mask>
<g mask="url(#mask18)">
<path fill-rule="evenodd" clip-rule="evenodd" d="M128.126 15.7844L130.12 15.7837C130.926 15.7837 131.535 16.0909 132.004 16.7571C132.215 17.0046 132.351 17.3394 132.408 17.74C132.459 18.2215 132.485 19.0411 132.485 20.1748C132.485 21.3382 132.459 22.1374 132.41 22.5442C132.361 22.9063 132.249 23.2038 132.058 23.4569C131.643 24.1052 130.979 24.4199 130.031 24.4199H128.126V15.7844ZM134.533 15.4925C133.586 13.8826 132.146 13.0588 130.253 13.0454H125.333V27.1585H130.12C131.163 27.1585 132.063 26.9148 132.781 26.4426C133.506 26.0021 134.083 25.434 134.494 24.7506C134.645 24.5005 134.771 24.2586 134.882 24.0153C134.989 23.7622 135.07 23.474 135.12 23.1605C135.226 22.5633 135.277 21.5629 135.277 20.102C135.277 18.7321 135.245 17.79 135.176 17.2092C135.081 16.5987 134.862 16.0142 134.532 15.4922L134.533 15.4925Z" fill="#FEFEFE"/>
</g>
<mask id="mask19" mask-type="alpha" maskUnits="userSpaceOnUse" x="0" y="0" width="215" height="55">
<path d="M0 54.4246H215V0.114746H0V54.4246Z" fill="white"/>
</mask>
<g mask="url(#mask19)">
<path fill-rule="evenodd" clip-rule="evenodd" d="M165.59 15.7844L167.584 15.7837C168.391 15.7837 168.998 16.0909 169.468 16.7571C169.678 17.0046 169.815 17.3394 169.872 17.74C169.923 18.2215 169.949 19.0411 169.949 20.1748C169.949 21.3382 169.923 22.1374 169.874 22.5442C169.825 22.9063 169.713 23.2038 169.522 23.4569C169.107 24.1052 168.444 24.4199 167.496 24.4199H165.59V15.7844ZM171.996 15.4925C171.05 13.8826 169.611 13.0588 167.717 13.0454H162.797V27.1585H167.584C168.627 27.1585 169.527 26.9148 170.245 26.4426C170.971 26.0021 171.547 25.434 171.958 24.7506C172.109 24.5005 172.235 24.2586 172.347 24.0153C172.453 23.7622 172.534 23.474 172.585 23.1605C172.69 22.5633 172.741 21.5629 172.741 20.102C172.741 18.7321 172.709 17.79 172.64 17.2092C172.546 16.5987 172.327 16.0142 171.996 15.4922V15.4925Z" fill="#FEFEFE"/>
</g>
<mask id="mask20" mask-type="alpha" maskUnits="userSpaceOnUse" x="0" y="0" width="215" height="55">
<path d="M0 54.4246H215V0.114746H0V54.4246Z" fill="white"/>
</mask>
<g mask="url(#mask20)">
<path fill-rule="evenodd" clip-rule="evenodd" d="M178.175 15.6751H180.808C181.328 15.6751 181.719 15.7799 181.987 16.0017C182.297 16.2316 182.452 16.6146 182.461 17.1674C182.461 17.6403 182.32 18.0251 182.023 18.3517C181.739 18.6836 181.305 18.8508 180.702 18.8605H178.175V15.6751ZM185.145 17.1599C185.104 15.8105 184.624 14.7527 183.723 14.0215C182.971 13.3739 181.996 13.0454 180.826 13.0454H175.382V27.1589H178.174V21.4894H179.973L182.633 27.1589H185.902L182.817 21.0542C184.338 20.299 185.12 18.9964 185.145 17.1599Z" fill="#FEFEFE"/>
</g>
<mask id="mask21" mask-type="alpha" maskUnits="userSpaceOnUse" x="0" y="0" width="215" height="55">
<path d="M0 54.4246H215V0.114746H0V54.4246Z" fill="white"/>
</mask>
<g mask="url(#mask21)">
<path fill-rule="evenodd" clip-rule="evenodd" d="M194.545 22.0235C194.535 22.8085 194.329 23.4046 193.927 23.7977C193.511 24.2165 192.995 24.4199 192.347 24.4199C191.702 24.4199 191.193 24.2183 190.778 23.7906C190.365 23.3956 190.159 22.8175 190.15 22.0295V13.0454H187.357V22.2486C187.369 23.7573 187.865 24.9764 188.825 25.8667C189.764 26.783 190.948 27.2544 192.343 27.2679H192.352C193.768 27.2544 194.962 26.7826 195.894 25.8667C196.826 24.9708 197.313 23.7532 197.338 22.2404V13.0454H194.546V22.0235H194.545Z" fill="#FEFEFE"/>
</g>
<mask id="mask22" mask-type="alpha" maskUnits="userSpaceOnUse" x="0" y="0" width="215" height="55">
<path d="M0 54.4246H215V0.114746H0V54.4246Z" fill="white"/>
</mask>
<g mask="url(#mask22)">
<path fill-rule="evenodd" clip-rule="evenodd" d="M147.377 17.8798C147.75 17.6245 148.135 17.4035 148.447 17.0795C148.739 16.7764 148.861 16.4225 148.773 16.0108C148.598 15.1945 147.585 14.8242 146.892 15.3184C146.486 15.6081 146.322 16.2367 146.533 16.7189C146.729 17.1635 147.08 17.4961 147.377 17.8798ZM149.475 24.1532L146.644 20.8252C146.315 21.0609 146.008 21.3268 145.728 21.6195C145.357 22.0028 145.204 22.4676 145.204 22.9883C145.204 23.877 145.76 24.6299 146.617 24.8818C147.344 25.0953 148.054 25.0237 148.73 24.6832C149.003 24.5437 149.254 24.3651 149.475 24.1532ZM148.774 19.4702L151.168 22.3033C151.439 21.9416 151.599 21.543 151.703 21.1186C151.808 20.6957 151.864 20.2649 151.891 19.8252H154.343C154.318 20.0932 154.299 20.3526 154.267 20.6102C154.192 21.2287 154.072 21.8382 153.871 22.4295C153.661 23.0571 153.329 23.6369 152.893 24.1353C152.872 24.1596 152.853 24.1868 152.827 24.2211L155.354 27.2035C155.325 27.2438 155.289 27.227 155.26 27.227C154.237 27.2282 153.216 27.2274 152.193 27.2293C152.161 27.2317 152.128 27.2259 152.099 27.2124C152.069 27.199 152.044 27.1783 152.025 27.1524C151.724 26.7866 151.418 26.4253 151.114 26.0625C151.095 26.0401 151.081 26.0154 151.061 25.9878C150.836 26.155 150.63 26.3152 150.418 26.4645C149.752 26.9322 149.007 27.2002 148.205 27.2961C147.32 27.4017 146.438 27.3644 145.575 27.13C143.98 26.697 143.064 25.6407 142.778 24.0271C142.674 23.4388 142.648 22.8453 142.785 22.2582C142.938 21.6023 143.269 21.0365 143.703 20.527C144.114 20.0454 144.617 19.6726 145.13 19.3105C145.164 19.2866 145.199 19.2638 145.243 19.2332C145.12 19.0843 144.996 18.941 144.878 18.7931C144.443 18.2463 144.072 17.661 143.921 16.9686C143.589 15.445 144.222 13.878 145.842 13.233C146.64 12.915 147.467 12.8527 148.311 12.9631C149.032 13.0576 149.677 13.3304 150.223 13.8179C150.696 14.2397 150.998 14.766 151.141 15.38C151.291 16.0261 151.312 16.6704 151.053 17.2986C150.888 17.6943 150.609 18.0078 150.306 18.2993C149.891 18.6987 149.402 19.0018 148.944 19.3463C148.892 19.3859 148.838 19.4236 148.774 19.4702Z" fill="#FEFEFE"/>
</g>
<mask id="mask23" mask-type="alpha" maskUnits="userSpaceOnUse" x="0" y="0" width="215" height="55">
<path d="M0 54.4246H215V0.114746H0V54.4246Z" fill="white"/>
</mask>
<g mask="url(#mask23)">
<path fill-rule="evenodd" clip-rule="evenodd" d="M204.758 19.0155V21.7534H206.966V22.018C206.957 22.7459 206.747 23.311 206.32 23.7526C205.904 24.202 205.391 24.4204 204.75 24.4204C204.371 24.4204 204.048 24.3401 203.758 24.1647C203.489 24.0316 203.254 23.8373 203.072 23.5973C202.872 23.3715 202.736 23.0628 202.667 22.6716C202.579 22.2386 202.534 21.3745 202.534 20.1024C202.534 18.8285 202.579 17.9577 202.668 17.5068C202.737 17.1313 202.869 16.8375 203.093 16.5818C203.261 16.3579 203.489 16.1675 203.767 16.0171C204.035 15.873 204.369 15.7954 204.74 15.7845C205.269 15.7954 205.703 15.9458 206.051 16.2324C206.405 16.5465 206.663 16.955 206.794 17.4101L206.884 17.7136H209.774L209.681 17.213C209.46 16.0186 208.92 15.0029 208.078 14.1914C207.22 13.3725 206.103 12.9496 204.749 12.9365C203.654 12.9496 202.721 13.2277 201.984 13.7588C201.243 14.2758 200.693 14.8786 200.367 15.5244C200.146 15.8902 199.982 16.3642 199.88 16.9375C199.787 17.487 199.742 18.5217 199.742 20.1024C199.742 21.6582 199.787 22.6873 199.88 23.2453C199.929 23.5533 199.996 23.819 200.084 24.0516C200.161 24.2382 200.249 24.4353 200.351 24.6525C200.694 25.327 201.244 25.925 201.979 26.4244C202.721 26.9582 203.651 27.2419 204.744 27.268H204.762C205.669 27.2512 206.484 27.0366 207.201 26.6323V27.1844H209.774V19.0155H204.758Z" fill="#FEFEFE"/>
</g>
<mask id="mask24" mask-type="alpha" maskUnits="userSpaceOnUse" x="0" y="0" width="215" height="55">
<path d="M0 54.4246H215V0.114746H0V54.4246Z" fill="white"/>
</mask>
<g mask="url(#mask24)">
<path fill-rule="evenodd" clip-rule="evenodd" d="M73.3051 15.431C72.3543 15.431 71.5022 15.9066 71.5022 16.8177C71.5022 17.8875 72.8097 18.1846 73.8795 18.5609C75.8406 19.2346 78.1982 20.1457 78.1982 23.0579C78.1982 26.0691 75.3651 27.3568 72.9486 27.3568C70.809 27.3568 69.145 26.5446 67.6396 25.0389L69.5209 23.1964C70.6504 24.286 71.5216 24.9396 72.9684 24.9396C74.0777 24.9396 75.1669 24.4051 75.1669 23.1766C75.1669 21.9882 73.8993 21.5324 72.4928 21.0177C70.69 20.3439 68.6695 19.5515 68.6695 16.8969C68.6695 14.2624 70.9079 13.0142 73.2061 13.0142C74.9888 13.0142 76.3953 13.5886 77.8018 14.6588L76.1773 16.6792C75.4047 16.0253 74.3745 15.431 73.3051 15.431Z" fill="#FEFEFE"/>
</g>
<mask id="mask25" mask-type="alpha" maskUnits="userSpaceOnUse" x="0" y="0" width="215" height="55">
<path d="M215 54.4246V0.114746H0V54.4246H215Z" fill="white"/>
</mask>
<g mask="url(#mask25)">
<path fill-rule="evenodd" clip-rule="evenodd" d="M6.4082 48.5844H41.8295V6.18164H6.4082V48.5844Z" fill="#FEFEFE"/>
</g>
<path fill-rule="evenodd" clip-rule="evenodd" d="M36.154 26.2118L33.1619 17.2191L31.7237 21.4512H33.3407L33.9252 23.4843H31.0787L30.1366 26.2118H27.4916L31.9219 14.4092H34.2694L38.6996 26.2118H36.154ZM24.354 25.8314C23.5933 26.086 22.734 26.2122 21.7747 26.2122H17.7748V19.2463H20.238V24.1122H21.8251C22.4642 24.1122 23.0095 24.0215 23.4615 23.8397C23.9132 23.6579 24.2797 23.3963 24.5611 23.0547C24.8418 22.7128 25.0486 22.3082 25.1808 21.8397C25.3133 21.3709 25.3793 20.845 25.3793 20.2608C25.3793 19.6879 25.3215 19.1668 25.2058 18.6987C25.0901 18.2303 24.9053 17.8365 24.6518 17.517C24.398 17.1975 24.0703 16.9496 23.6683 16.7723C23.3159 16.6185 22.8815 16.5446 22.3899 16.5241H12.4051V19.228H15.7282V21.3437H12.4054V26.2118H9.94189V14.4092H22.6299C24.2245 14.485 25.4883 14.9821 26.4125 15.8802C27.4203 16.8612 27.925 18.3158 27.925 20.2444C27.925 21.2254 27.7847 22.085 27.5032 22.8233C27.2225 23.5616 26.8172 24.1846 26.2882 24.6911C25.7593 25.1987 25.1147 25.5787 24.3544 25.8318L24.354 25.8314Z" fill="#007CBA"/>
</svg>
