<svg width="27" height="19" viewBox="0 0 27 19" fill="none" xmlns="http://www.w3.org/2000/svg">
<path d="M5.8 10L7.9 12.7C4 11.8 2 10.2 2 8.90002C2 7.90002 3.1 6.80002 5 6.00002C7.3 5.00002 10.3 4.50002 13.5 4.50002V2.40002C10 2.40002 6.7 3.00002 4.2 4.10002C1.5 5.30002 0 7.00002 0 8.90002C0 10 0.5 11.6 3 13C4.3 13.8 5.9 14.4 7.8 14.8L5 16.9L5.9 18.3L11.3 14.3L7 9.00002L5.8 10Z" fill="#002F6C"/>
<path d="M24.3 5C23.2 4.3 21.9 3.8 20.4 3.3L23.2 1.5L22.4 0L16.8 3.6L20.6 9.3L21.9 8.3L19.9 5.3C22.9 6.1 25 7.6 25 8.9C25 9.9 23.9 11 21.9 11.8C19.6 12.8 16.6 13.3 13.4 13.3V15.4C16.9 15.4 20.2 14.8 22.7 13.7C25.5 12.5 27 10.8 27 8.9C26.9 7.9 26.5 6.3 24.3 5Z" fill="#002F6C"/>
</svg>
