<svg width="1600" height="81" viewBox="0 0 1600 81" fill="none" xmlns="http://www.w3.org/2000/svg">
<g clip-path="url(#clip0)">
<path d="M783.8 79.0999C781.9 77.7999 782.6 75.8999 782.6 74.3999C782.6 62.4999 782.6 50.5999 782.6 38.6999C782.6 31.9999 782.6 25.2999 782.6 18.5999C782.6 17.4999 782.6 16.2999 782.6 14.2999C784.6 15.6999 786 16.6999 787.6 17.7999C787.3 15.2999 787.1 12.7999 786.7 9.5999C787.8 10.9999 788.5 11.8999 788.9 12.4999C792.4 10.9999 792.8 6.9999 795.8 3.4999C794.6 8.8999 793.7 13.2999 792.6 18.2999C795.1 15.9999 797.7 14.5999 797.8 11.0999C798.2 11.2999 798.5 11.4999 799.1 11.8999C800.4 10.6999 801.7 9.3999 803.1 8.1999C803.3 8.2999 803.5 8.3999 803.7 8.5999C802.7 10.7999 801.7 12.8999 800.7 15.1999C801.2 16.0999 801.6 16.9999 802.2 18.0999C803.9 15.4999 803.8 12.1999 806.3 10.0999C806.6 11.1999 806.8 12.0999 807.3 14.0999C807.6 11.3999 807.7 9.8999 807.9 7.8999C810.7 10.5999 810.5 13.8999 810.9 18.0999C813.6 13.0999 815.7 9.0999 818.3 4.1999C818.8 8.5999 816.7 11.5999 816.6 15.8999C818.8 12.6999 820.4 10.4999 822.4 7.6999C822.6 9.4999 822.8 10.5999 823 12.0999C823.9 11.3999 824.7 10.8999 825.4 10.2999C826.1 11.2999 825.2 13.2999 827.7 13.0999C827 14.3999 826.3 15.4999 826 16.5999C825.8 17.5999 826.1 18.7999 826.2 20.6999C827.1 19.6999 827.6 19.2999 827.8 18.8999C829.2 15.7999 830.6 12.5999 832.1 9.4999C832.6 8.4999 833.4 7.5999 834.3 6.9999C834 11.0999 832.2 15.0999 836.5 17.9999C837.5 15.8999 838.5 13.8999 840 10.9999C840.7 13.2999 841 14.5999 841.5 16.2999C842.8 14.0999 844 12.0999 845.3 9.9999C846.8 12.5999 848.1 14.8999 849.5 17.3999C851.2 16.7999 852.5 16.2999 854.1 15.6999C853.7 13.8999 853.3 12.1999 852.8 9.7999C854.4 11.0999 855.3 11.8999 856.3 12.7999C856.5 12.6999 856.8 12.5999 856.9 12.3999C857.7 10.9999 858.4 9.4999 859.3 7.8999C860.3 11.2999 861.2 14.1999 862.3 17.5999C864.1 13.7999 861.6 10.6999 862.1 7.3999C864.3 7.8999 863.7 9.9999 864.5 11.1999C865.3 12.3999 865.8 13.6999 866.5 15.0999C868.9 11.9999 871.1 8.9999 873.6 5.7999C875 9.0999 871.3 10.8999 872.3 13.9999C873.2 12.8999 874 11.9999 875.3 10.3999C875.8 12.3999 876.1 13.6999 876.5 15.0999C877.2 15.1999 877.8 15.1999 878.8 15.2999C879 13.5999 879.2 12.0999 879.4 10.3999C880.5 11.6999 881.5 12.8999 882.6 14.2999C883.7 12.7999 884.6 11.4999 885.9 9.6999C885.6 12.4999 885.4 14.5999 885.1 16.7999C885.3 16.8999 885.5 16.8999 885.8 16.9999C886.7 15.0999 887.6 13.0999 888.4 11.1999C888.7 11.1999 888.9 11.2999 889.2 11.2999C889.2 14.1999 889.2 17.0999 889.2 20.9999C891 17.4999 890.8 14.1999 893.6 12.4999C894.2 12.6999 894.7 12.9999 895.3 13.1999C896.2 12.0999 896.9 11.1999 898.1 9.6999C898.1 11.7999 898.1 13.2999 898.1 15.5999C899.3 13.9999 900 13.0999 900.9 11.9999C901.8 15.5999 899.1 19.4999 903.3 22.4999C902.9 20.1999 902.6 18.3999 902.3 16.1999C903.5 17.0999 904.2 17.5999 905.3 18.4999C905.2 15.7999 905 13.5999 904.9 11.3999C906.9 11.1999 906.9 13.1999 907.9 14.1999C909.3 14.7999 910.9 11.2999 911.9 14.5999C914.4 12.9999 916.5 11.5999 918.7 10.0999C918.9 10.1999 919 10.3999 919.2 10.4999C918.6 11.4999 917.9 12.4999 916.9 14.0999C918.2 13.6999 918.9 13.4999 919.8 13.1999C919.9 13.9999 919.9 14.7999 920.2 15.3999C920.6 16.0999 921.4 16.5999 922.5 17.6999C922.1 15.4999 921.9 13.9999 921.6 12.1999C922.6 12.9999 923.3 13.5999 924.1 14.1999C924.4 13.5999 924.6 12.9999 924.9 12.4999C926.8 11.6999 927.7 15.9999 930 13.3999C930.5 15.0999 931 16.6999 931.4 18.2999C931.7 18.2999 931.9 18.1999 932.2 18.1999C932.3 16.2999 932.5 14.3999 932.6 11.9999C933.6 13.3999 934.3 14.2999 934.9 14.9999C936.9 13.8999 939 12.7999 941.3 11.4999C941 12.9999 940.7 14.4999 940.5 15.9999C940.8 16.1999 941 16.3999 941.3 16.5999C942 15.6999 943.4 14.2999 943.2 13.9999C941.7 11.9999 944.4 12.6999 944.5 11.6999C944.3 11.0999 944.1 10.3999 943.6 9.0999C946.7 10.5999 948.9 12.2999 951.1 14.2999C951.8 13.6999 952.4 13.0999 953 12.5999C953.6 12.8999 954.1 13.1999 954.6 13.4999C955.7 12.2999 956.6 11.1999 958 9.5999C958 12.6999 958 14.9999 958 17.3999C958.8 16.7999 959.4 16.1999 960.1 15.5999C961.8 17.4999 958.7 19.1999 960 21.1999C961 20.6999 961.4 19.8999 961.7 18.7999C962 17.4999 962.3 16.4999 961.7 15.1999C961.3 14.1999 961.6 12.8999 961.6 11.3999C962.6 12.5999 963.4 13.3999 964.6 14.7999C964.6 12.5999 964.6 11.0999 964.6 8.9999C965.5 9.8999 966 10.1999 966.3 10.5999C966.7 11.0999 966.9 11.6999 967.2 12.2999C968.3 12.3999 969.3 12.3999 970.4 12.4999C971.4 14.7999 972.3 16.9999 973.7 20.1999C973.7 16.2999 973.7 13.3999 973.7 9.2999C975.2 12.3999 976.2 14.2999 977.2 16.3999C978.4 13.9999 977.3 11.8999 977.3 9.4999C978.2 10.6999 979.1 11.8999 980.2 13.3999C981.3 12.0999 982.3 10.9999 983.4 9.6999C984.7 11.0999 982.5 13.8999 985.4 15.0999C985.9 14.3999 986.4 13.6999 986.9 12.8999C987.4 12.0999 987.9 11.2999 988.3 10.5999C991 13.6999 990.7 18.0999 993.7 21.0999C992.6 15.6999 990 10.7999 988.1 5.0999C989 5.6999 990 5.8999 990.5 6.4999C992.5 9.0999 994.3 11.6999 996.3 14.4999C997.7 11.7999 998.9 9.4999 1000.1 7.1999C1000.3 7.2999 1000.6 7.3999 1000.8 7.3999C1000.5 10.1999 1000.1 13.0999 999.8 15.8999C1000.1 15.9999 1000.4 15.9999 1000.7 16.0999C1001.6 13.2999 1002.5 10.4999 1003.6 7.2999C1004.6 8.8999 1005.6 10.4999 1006.7 12.3999C1007.7 11.3999 1008.6 10.3999 1010.3 8.5999C1009.7 11.1999 1009.3 12.6999 1008.9 14.5999C1010 15.3999 1011.1 16.1999 1012.3 17.0999C1015 15.6999 1015.4 12.8999 1016.8 10.7999C1016.6 10.2999 1016.3 9.8999 1016.2 9.4999C1016.1 9.1999 1016.3 8.8999 1016.6 7.8999C1018.1 10.4999 1019.3 12.7999 1020.8 15.2999C1021.5 13.8999 1022.2 12.5999 1023.3 10.5999C1024.6 13.4999 1025.6 15.7999 1026.5 17.9999C1029.9 14.6999 1029.7 10.7999 1027.8 5.6999C1032.5 9.8999 1033.6 14.8999 1035.9 19.2999C1037.5 17.1999 1037.5 17.1999 1035.3 12.6999C1035.8 12.4999 1036.4 12.3999 1036.7 11.9999C1037.1 11.5999 1037.3 10.8999 1037.5 10.3999C1038.1 10.6999 1038.7 10.9999 1039.7 11.4999C1039.9 10.3999 1040.1 9.4999 1040.3 8.5999C1040.5 8.5999 1040.9 8.4999 1041 8.6999C1042.6 10.4999 1044.1 12.2999 1046.4 14.9999C1045.4 10.8999 1044.6 7.7999 1043.9 4.7999C1044.2 4.6999 1044.5 4.5999 1044.7 4.4999C1046.9 8.3999 1049.1 12.2999 1051.5 16.5999C1052.2 13.4999 1052.8 10.8999 1053.4 8.2999C1056.4 8.4999 1054.4 11.1999 1055.7 12.1999C1056 11.2999 1056.2 10.3999 1056.6 9.0999C1058 12.0999 1059.2 14.6999 1060.5 17.4999C1061.1 16.3999 1061.6 15.5999 1062.2 14.4999C1061.2 12.3999 1060.2 10.1999 1059.2 7.9999C1059.3 7.7999 1059.4 7.6999 1059.6 7.4999C1060.5 8.1999 1061.4 8.8999 1062.2 9.6999C1063 10.4999 1063.7 11.2999 1065 10.4999C1065.3 11.3999 1065.4 12.4999 1065.9 13.2999C1066.6 14.3999 1067.6 15.2999 1068.9 16.7999C1070.1 11.9999 1066.7 8.3999 1067.7 3.8999C1069.3 6.2999 1070.6 8.2999 1071.8 10.1999C1075.1 10.6999 1076.2 7.9999 1078.7 6.1999C1078.3 9.4999 1077.9 12.2999 1077.6 15.1999C1080.5 13.0999 1083.1 11.0999 1085.9 8.9999C1087.3 10.8999 1085.5 11.9999 1085.1 13.0999C1084.4 14.7999 1084.4 15.8999 1086.2 17.3999C1087.3 13.7999 1089.5 10.9999 1092.5 8.5999C1094.7 10.2999 1093.5 13.5999 1095.2 16.1999C1098.4 13.1999 1098.6 8.0999 1102.7 5.0999C1102 8.3999 1101.3 11.2999 1100.7 14.0999C1100.9 14.1999 1101.1 14.1999 1101.2 14.2999C1102.8 12.2999 1104.5 10.2999 1106.1 8.3999C1106.3 8.4999 1106.5 8.5999 1106.8 8.6999C1106.5 10.4999 1106.1 12.2999 1105.7 14.5999C1107.2 12.8999 1108.2 11.6999 1109.5 10.1999C1109.7 11.3999 1109.9 12.1999 1110 13.0999C1110.5 12.9999 1111.1 12.8999 1112 12.6999C1111 15.2999 1108.4 17.4999 1110.8 20.6999C1113.2 16.5999 1113.4 11.3999 1117.7 8.1999C1118.1 11.6999 1116.9 15.4999 1120.2 18.1999C1122 16.6999 1121.2 13.4999 1124 12.1999C1124.5 13.2999 1125 14.3999 1125.4 15.3999C1125.9 15.2999 1126.3 15.2999 1126.4 15.0999C1127.3 13.5999 1128.1 11.9999 1129 10.2999C1130.5 12.7999 1131.9 15.0999 1133.2 17.1999C1135.4 18.0999 1136.3 16.2999 1137.6 15.2999C1137.1 13.7999 1136.6 12.2999 1136 10.1999C1137 10.6999 1137.6 10.9999 1138.2 11.3999C1138.7 11.6999 1139.2 12.1999 1139.7 12.6999C1141 11.0999 1142.1 9.6999 1143.2 8.2999C1144.2 11.7999 1145.2 14.9999 1146.3 18.5999C1148 14.6999 1144.7 11.2999 1146.3 7.3999C1147.7 10.1999 1148.9 12.6999 1150.3 15.3999C1152.6 12.3999 1154.8 9.3999 1157.4 5.8999C1158.7 9.3999 1155.2 11.3999 1156.1 14.4999C1156.9 13.2999 1157.6 12.3999 1158.3 11.3999C1159.3 13.2999 1160 15.0999 1162.6 15.5999C1162.8 13.7999 1162.9 12.1999 1163 10.2999C1164 11.5999 1164.7 12.5999 1165.5 13.5999C1166.1 13.2999 1166.6 13.1999 1166.9 12.8999C1167.6 12.0999 1168.2 11.1999 1169.2 9.7999C1169.1 12.3999 1169 14.2999 1168.8 17.1999C1170.3 14.5999 1171.2 12.9999 1172.2 11.2999C1172.4 11.3999 1172.6 11.3999 1172.8 11.4999C1172.8 13.9999 1172.8 16.3999 1172.8 20.0999C1174.3 16.7999 1175.3 14.6999 1176.4 12.2999C1177.1 12.4999 1177.7 12.6999 1178.7 12.9999C1179.5 11.9999 1180.4 10.6999 1181.8 8.8999C1181.9 10.9999 1182 12.5999 1182.2 14.3999C1183.2 13.5999 1183.9 12.9999 1185.4 11.7999C1183.9 15.5999 1183.4 18.6999 1186.4 21.9999C1186.3 19.6999 1186.2 18.0999 1186.1 16.1999C1186.9 16.6999 1187.3 16.8999 1188 17.2999C1188.1 14.8999 1188.3 12.5999 1188.4 9.7999C1189.8 11.4999 1190.8 12.7999 1192 14.3999C1192.6 13.7999 1193.2 13.1999 1193.8 12.4999C1194.1 12.9999 1194.3 13.5999 1194.9 14.5999C1197.6 12.7999 1200.2 11.0999 1202.8 9.3999C1203 9.5999 1203.1 9.6999 1203.3 9.8999C1202.6 11.0999 1201.9 12.2999 1200.6 14.4999C1202.2 13.4999 1203 13.0999 1204.4 12.2999C1204 13.4999 1203.8 14.1999 1203.4 15.0999C1204 15.4999 1204.7 15.9999 1206.2 16.9999C1205.9 14.6999 1205.6 13.1999 1205.3 11.0999C1206.4 12.3999 1207.1 13.1999 1208 14.1999C1208.2 13.2999 1208.3 12.5999 1208.5 11.3999C1209.8 12.4999 1210.8 13.3999 1212 14.3999C1213.5 13.6999 1214.9 12.9999 1216.5 12.2999C1217.3 12.9999 1218 13.5999 1218.8 14.2999C1220.8 13.2999 1222.8 12.3999 1224.9 11.3999C1224.8 12.7999 1224.7 13.9999 1224.6 15.3999C1227.6 15.1999 1226 12.9999 1226.8 11.7999C1227.2 11.8999 1227.8 11.9999 1228.6 12.0999C1228.2 10.9999 1227.9 9.9999 1227.2 8.0999C1230.3 10.3999 1232.7 12.1999 1235.2 14.0999C1235.4 13.1999 1235.7 12.2999 1235.9 11.2999C1236.6 11.8999 1237.2 12.4999 1238 13.2999C1239 12.2999 1240.1 11.2999 1241.4 10.0999C1241.5 12.6999 1241.7 14.8999 1241.8 17.7999C1242.8 16.4999 1243.5 15.5999 1244.1 14.7999C1246 16.8999 1242.6 18.9999 1244 21.3999C1247.2 18.5999 1244.7 14.7999 1246 11.3999C1246.8 12.3999 1247.5 13.2999 1248.6 14.5999C1248.6 12.3999 1248.6 10.6999 1248.6 7.8999C1249.8 9.9999 1250.5 11.0999 1251.2 12.3999C1252.2 12.4999 1253.1 12.5999 1254.2 12.5999C1255.1 14.4999 1256.1 16.3999 1257.2 18.5999C1258.2 15.8999 1257.2 13.2999 1258 10.1999C1259.2 12.2999 1260.1 13.8999 1261 15.4999C1261.2 15.3999 1261.4 15.3999 1261.6 15.2999C1261.3 13.4999 1261 11.5999 1260.6 8.6999C1262.2 10.8999 1263.2 12.1999 1264.3 13.5999C1265.3 12.1999 1266.1 10.9999 1267.4 9.1999C1267.6 11.2999 1267.8 12.6999 1268 14.1999C1269.5 14.9999 1270.2 13.9999 1270.7 12.9999C1271.1 12.2999 1271.1 11.3999 1271.4 9.9999C1275.4 14.0999 1274.4 19.9999 1278.7 23.6999C1277.5 16.9999 1274 11.6999 1272.1 5.3999C1273 5.8999 1274 6.0999 1274.4 6.6999C1276.2 9.1999 1277.9 11.7999 1279.9 14.7999C1281.8 12.1999 1281.8 8.5999 1285.1 6.0999C1283.7 9.9999 1283.6 13.1999 1284.1 17.2999C1285.3 13.4999 1286.3 10.5999 1287.3 7.2999C1288.4 8.9999 1289.3 10.4999 1290.4 12.2999C1291.3 11.4999 1292.4 10.5999 1293.5 9.5999C1293.6 9.9999 1293.9 10.2999 1293.8 10.5999C1293.4 11.9999 1293 13.3999 1292.6 14.7999C1293.9 15.4999 1294.9 16.0999 1296.2 16.7999C1297.3 15.5999 1298.5 14.4999 1299.5 13.1999C1300.5 11.8999 1300.3 10.2999 1300.5 8.5999C1301.3 9.5999 1302.1 10.4999 1302.8 11.5999C1303.5 12.5999 1304 13.6999 1305.2 15.5999C1305.7 13.1999 1306.1 11.8999 1306.5 10.0999C1308.1 11.3999 1309.5 12.4999 1310.7 13.5999C1314.9 12.4999 1310.9 9.5999 1312.2 7.8999C1313.6 8.1999 1315 8.3999 1316.3 8.6999C1317.7 6.0999 1318.9 3.8999 1320.1 1.5999C1320.3 1.6999 1320.5 1.6999 1320.7 1.7999C1320.1 5.2999 1319.6 8.8999 1318.9 13.3999C1321.3 11.3999 1323.2 10.3999 1323.3 7.8999C1326.8 8.3999 1325.7 8.9999 1327.8 3.9999C1328.8 5.2999 1329.6 6.3999 1330.4 7.3999C1331.8 6.0999 1331.8 7.9999 1332.6 8.2999C1332.8 7.3999 1333.1 6.4999 1333.3 5.5999C1336 6.8999 1334.3 9.6999 1335.8 11.8999C1336.3 11.0999 1336.8 10.5999 1336.9 9.9999C1337.1 8.6999 1337.1 7.3999 1338.6 6.8999C1338.8 7.2999 1339 7.7999 1339.2 8.2999C1339.4 8.1999 1339.7 8.1999 1339.8 7.9999C1340.9 6.1999 1342.1 4.3999 1343.2 2.4999C1345.4 4.2999 1341 7.2999 1345 8.5999C1345.7 7.7999 1346.6 6.7999 1347.5 5.7999C1347.7 5.8999 1347.9 5.9999 1348.1 6.0999C1347.8 7.4999 1347.5 8.7999 1347.1 10.7999C1349.6 8.6999 1352.2 7.4999 1351.6 3.8999C1352.6 5.7999 1353.7 7.6999 1354.9 9.9999C1356.2 8.4999 1357.4 7.0999 1358.9 5.3999C1359.6 8.7999 1358.4 12.1999 1361.1 15.1999C1362.3 13.1999 1363.4 11.4999 1364.8 9.2999C1365.6 10.9999 1366.2 12.2999 1366.7 13.3999C1367.9 11.5999 1369.2 9.5999 1370.4 7.7999C1371.8 10.1999 1373.2 12.5999 1374.6 15.0999C1376.2 14.4999 1377.6 13.9999 1379.1 13.3999C1378.5 11.4999 1378 9.6999 1377.2 6.7999C1379 8.5999 1379.9 9.4999 1381 10.5999C1382.1 9.0999 1383.3 7.4999 1384.6 5.6999C1385.7 9.1999 1386.7 12.3999 1387.7 15.9999C1389.5 11.9999 1386.2 8.5999 1387.8 4.6999C1389.1 7.5999 1390.3 10.2999 1391.6 13.1999C1394 9.8999 1396.3 6.8999 1398.5 3.8999C1398.7 3.9999 1399 4.0999 1399.2 4.1999C1398.5 6.6999 1397.9 9.1999 1397.2 11.5999C1397.4 11.5999 1397.5 11.6999 1397.7 11.6999C1398.3 10.8999 1398.9 9.9999 1399.7 8.7999C1400.3 9.9999 1400.7 10.9999 1401.3 11.7999C1401.8 12.3999 1402.7 12.6999 1403.9 13.4999C1404.2 11.6999 1404.3 10.3999 1404.6 8.8999C1405.6 9.7999 1406.4 10.3999 1407.6 11.3999C1408.5 10.2999 1409.3 9.2999 1410.2 8.1999C1410.3 10.0999 1410.5 11.9999 1410.7 14.3999C1411.9 11.9999 1412.9 10.1999 1414.1 7.8999C1415 10.9999 1414 13.9999 1414.8 16.8999C1415.9 14.4999 1417 12.2999 1418.1 9.8999C1419 10.2999 1419.5 10.5999 1420.3 10.8999C1421.1 9.6999 1421.9 8.4999 1422.8 7.1999C1423.4 9.4999 1423.4 10.2999 1423.1 11.9999C1425 11.9999 1425.3 10.2999 1426.5 8.6999C1426.3 10.1999 1426.4 11.1999 1426 11.9999C1425 14.6999 1425.6 16.9999 1427.9 19.0999C1427.8 17.4999 1427.6 15.8999 1427.4 13.4999C1428.3 14.7999 1428.7 15.2999 1429.5 16.2999C1429.5 13.2999 1429.5 10.7999 1429.5 7.3999C1431.2 9.3999 1432.3 10.5999 1433.6 12.0999C1434.3 11.2999 1435 10.5999 1436.5 8.9999C1436.1 10.5999 1436 11.0999 1435.8 11.6999C1436.1 11.7999 1436.5 12.0999 1436.7 11.9999C1439.2 10.4999 1441.8 8.8999 1444.8 6.9999C1443.9 8.6999 1443.2 9.9999 1442.4 11.5999C1446.8 9.3999 1446.9 9.3999 1449.2 13.0999C1449.5 11.9999 1449.7 11.0999 1450 9.8999C1450.8 10.2999 1451.5 10.6999 1452.1 11.0999C1452.6 11.3999 1453.1 11.7999 1453.7 12.1999C1454.3 11.4999 1454.8 10.8999 1455.6 9.8999C1455.6 11.7999 1455.6 13.2999 1455.6 14.9999C1457.4 13.3999 1457.4 13.3999 1456.6 8.7999C1457.5 9.6999 1458.1 10.0999 1458.4 10.5999C1458.8 11.0999 1459 11.5999 1459.3 12.2999C1461.5 11.1999 1463.4 10.2999 1465.5 9.1999C1465.6 10.4999 1465.7 11.6999 1465.9 13.7999C1466.8 12.3999 1467.2 11.4999 1467.8 10.7999C1468.3 10.2999 1469 9.8999 1469.7 9.4999C1469.5 8.7999 1469.2 8.0999 1468.8 6.7999C1471.9 8.1999 1474.1 10.0999 1476.6 11.9999C1476.8 11.0999 1476.9 10.2999 1477.1 9.0999C1477.9 9.7999 1478.5 10.3999 1479.8 11.5999C1480.5 10.2999 1481.1 9.0999 1481.8 7.7999C1482.1 7.9999 1482.4 8.1999 1482.7 8.3999C1482.7 10.4999 1482.7 12.6999 1482.7 15.2999C1483.9 14.3999 1484.5 13.8999 1485.8 12.8999C1485.4 15.1999 1485.1 16.9999 1484.7 18.6999C1488.2 16.1999 1485.8 12.3999 1487.1 8.9999C1487.9 9.9999 1488.5 10.7999 1489.4 11.8999C1489.6 10.2999 1489.8 8.7999 1490 6.7999C1491 7.9999 1491.8 8.9999 1492.6 9.9999C1493.1 9.6999 1493.7 9.4999 1494.6 8.9999C1495.5 10.8999 1496.5 12.8999 1497.6 15.0999C1500.1 12.7999 1497.6 10.1999 1498.1 7.6999C1500.7 8.6999 1500.3 10.9999 1501.1 12.6999C1502 12.2999 1502.8 11.9999 1502.1 10.5999C1501.6 9.5999 1501.8 8.3999 1501.6 6.1999C1503 7.9999 1503.7 8.9999 1504.4 9.8999C1507.1 10.7999 1506.6 7.3999 1508.6 6.9999C1508.6 8.4999 1508.6 9.9999 1508.6 11.6999C1509.6 11.7999 1510.3 11.8999 1511.4 11.9999C1511.6 10.2999 1511.9 8.6999 1512.1 6.9999C1515.9 10.1999 1514.7 15.8999 1518.8 19.2999C1518.9 15.6999 1516.9 13.2999 1516 10.5999C1515.1 7.7999 1513.8 5.1999 1513 2.2999C1516.4 4.8999 1518.5 8.3999 1520.9 12.6999C1522.4 9.2999 1523.7 6.5999 1524.9 3.8999C1525.1 3.9999 1525.3 3.9999 1525.5 4.0999C1525.2 7.5999 1524.9 10.9999 1524.6 14.4999C1524.9 14.4999 1525.1 14.5999 1525.4 14.5999C1526.3 11.4999 1527.2 8.2999 1528.3 4.5999C1529.5 6.4999 1530.4 7.9999 1531.4 9.6999C1532.4 8.7999 1533.4 7.8999 1534.9 6.4999C1534.7 7.6999 1534.6 8.1999 1534.4 8.7999C1533.1 12.8999 1533.6 13.4999 1538.6 13.7999C1539.6 11.5999 1540.7 9.2999 1541.9 6.7999C1543.8 8.1999 1544 10.6999 1545.5 12.5999C1546.1 11.3999 1546.7 10.2999 1547.4 9.0999C1550 10.0999 1550 12.5999 1550.3 14.8999C1554.2 12.9999 1554.4 12.2999 1553.2 3.8999C1557.3 7.9999 1559.1 12.6999 1560.5 17.9999C1561.1 16.7999 1561.6 15.8999 1562.1 14.9999C1561.2 12.9999 1560.3 11.1999 1559.1 8.6999C1560.4 9.1999 1561 9.4999 1561.8 9.8999C1562 9.0999 1562.1 8.2999 1562.3 7.1999C1562.9 7.8999 1563.4 8.3999 1564.4 9.4999C1564.9 7.9999 1565.2 6.9999 1565.6 5.6999C1567.4 7.8999 1569 9.8999 1570.9 12.2999C1571.3 8.2999 1568.7 5.4999 1568.5 1.4999C1571.9 5.1999 1573.5 9.3999 1576.2 13.9999C1577.1 10.4999 1577.7 7.8999 1578.6 4.3999C1579.5 6.2999 1580.1 7.4999 1580.7 8.6999C1583.2 7.2999 1582.8 9.7999 1583.4 10.7999C1584.1 11.9999 1584.5 13.3999 1585.2 15.0999C1586.3 11.7999 1586.3 11.7999 1584.2 5.7999C1589.1 7.2999 1591 11.3999 1593.8 15.1999C1594.9 10.2999 1591.5 6.3999 1592.6 0.899902C1593.8 3.3999 1594.4 4.9999 1595.3 6.5999C1595.9 7.6999 1597.6 7.6999 1598.4 9.4999C1599 8.4999 1599.4 7.8999 1599.8 7.1999C1599.9 7.2999 1600 7.3999 1600.1 7.4999C1600.2 7.5999 1600.3 7.7999 1600.3 7.8999C1600.3 9.3999 1600.4 10.8999 1600.3 12.3999C1600.2 13.7999 1599.6 15.2999 1599.7 16.6999C1601.2 37.6999 1599.8 58.7999 1600.5 80.0999C1327.8 79.0999 1055.9 79.0999 783.8 79.0999Z" fill="white"/>
<path d="M-33.7 80.0999C-35.6 78.7999 -34.9 76.8999 -34.9 75.3999C-34.9 63.4999 -34.9 51.5999 -34.9 39.6999C-34.9 32.9999 -34.9 26.2999 -34.9 19.5999C-34.9 18.4999 -34.9 17.2999 -34.9 15.2999C-32.9 16.6999 -31.5 17.6999 -29.9 18.7999C-30.2 16.2999 -30.4 13.7999 -30.8 10.5999C-29.7 11.9999 -29 12.8999 -28.6 13.4999C-25.1 11.9999 -24.7 7.9999 -21.7 4.4999C-22.9 9.8999 -23.8 14.2999 -24.9 19.2999C-22.4 16.9999 -19.8 15.5999 -19.7 12.0999C-19.3 12.2999 -19 12.4999 -18.4 12.8999C-17.1 11.6999 -15.8 10.3999 -14.4 9.1999C-14.2 9.2999 -14 9.3999 -13.8 9.5999C-14.8 11.7999 -15.8 13.8999 -16.8 16.1999C-16.3 17.0999 -15.9 17.9999 -15.3 19.0999C-13.6 16.4999 -13.7 13.1999 -11.2 11.0999C-10.9 12.1999 -10.7 13.0999 -10.2 15.0999C-9.90001 12.3999 -9.80001 10.8999 -9.60001 8.8999C-6.80001 11.5999 -7.00001 14.8999 -6.60001 19.0999C-3.90001 14.0999 -1.80001 10.0999 0.799984 5.1999C1.29998 9.5999 -0.800018 12.5999 -0.900017 16.8999C1.29998 13.6999 2.89999 11.4999 4.89999 8.6999C5.09999 10.4999 5.29998 11.5999 5.49998 13.0999C6.39999 12.3999 7.19999 11.8999 7.89999 11.2999C8.59999 12.2999 7.69999 14.2999 10.2 14.0999C9.49998 15.3999 8.79998 16.4999 8.49998 17.5999C8.29998 18.5999 8.59999 19.7999 8.69999 21.6999C9.59999 20.6999 10.1 20.2999 10.3 19.8999C11.7 16.7999 13.1 13.5999 14.6 10.4999C15.1 9.4999 15.9 8.5999 16.8 7.9999C16.5 12.0999 14.7 16.0999 19 18.9999C20 16.8999 21 14.8999 22.5 11.9999C23.2 14.2999 23.5 15.5999 24 17.2999C25.3 15.0999 26.5 13.0999 27.8 10.9999C29.3 13.5999 30.6 15.8999 32 18.3999C33.7 17.7999 35 17.2999 36.6 16.6999C36.2 14.8999 35.8 13.1999 35.3 10.7999C36.9 12.0999 37.8 12.8999 38.8 13.7999C39 13.6999 39.3 13.5999 39.4 13.3999C40.2 11.9999 40.9 10.4999 41.8 8.8999C42.8 12.2999 43.7 15.1999 44.8 18.5999C46.6 14.7999 44.1 11.6999 44.6 8.3999C46.8 8.8999 46.2 10.9999 47 12.1999C47.8 13.3999 48.3 14.6999 49 16.0999C51.4 12.9999 53.6 9.9999 56.1 6.7999C57.5 10.0999 53.8 11.8999 54.8 14.9999C55.7 13.8999 56.5 12.9999 57.8 11.3999C58.3 13.3999 58.6 14.6999 59 16.0999C59.7 16.1999 60.3 16.1999 61.3 16.2999C61.5 14.5999 61.7 13.0999 61.9 11.3999C63 12.6999 64 13.8999 65.1 15.2999C66.2 13.7999 67.1 12.4999 68.4 10.6999C68.1 13.4999 67.9 15.5999 67.6 17.7999C67.8 17.8999 68 17.8999 68.3 17.9999C69.2 16.0999 70.1 14.0999 70.9 12.1999C71.2 12.1999 71.4 12.2999 71.7 12.2999C71.7 15.1999 71.7 18.0999 71.7 21.9999C73.5 18.4999 73.3 15.1999 76.1 13.4999C76.7 13.6999 77.2 13.9999 77.8 14.1999C78.7 13.0999 79.4 12.1999 80.6 10.6999C80.6 12.7999 80.6 14.2999 80.6 16.5999C81.8 14.9999 82.5 14.0999 83.4 12.9999C84.3 16.5999 81.6 20.4999 85.8 23.4999C85.4 21.1999 85.1 19.3999 84.8 17.1999C86 18.0999 86.7 18.5999 87.8 19.4999C87.7 16.7999 87.5 14.5999 87.4 12.3999C89.4 12.1999 89.4 14.1999 90.4 15.1999C91.8 15.7999 93.4 12.2999 94.4 15.5999C96.9 13.9999 99 12.5999 101.2 11.0999C101.4 11.1999 101.5 11.3999 101.7 11.4999C101.1 12.4999 100.4 13.4999 99.4 15.0999C100.7 14.6999 101.4 14.4999 102.3 14.1999C102.4 14.9999 102.4 15.7999 102.7 16.3999C103.1 17.0999 103.9 17.5999 105 18.6999C104.6 16.4999 104.4 14.9999 104.1 13.1999C105.1 13.9999 105.8 14.5999 106.6 15.1999C106.9 14.5999 107.1 13.9999 107.4 13.4999C109.3 12.6999 110.2 16.9999 112.5 14.3999C113 16.0999 113.5 17.6999 113.9 19.2999C114.2 19.2999 114.4 19.1999 114.7 19.1999C114.8 17.2999 115 15.3999 115.1 12.9999C116.1 14.3999 116.8 15.2999 117.4 15.9999C119.4 14.8999 121.5 13.7999 123.8 12.4999C123.5 13.9999 123.2 15.4999 123 16.9999C123.3 17.1999 123.5 17.3999 123.8 17.5999C124.5 16.6999 125.9 15.2999 125.7 14.9999C124.2 12.9999 126.9 13.6999 127 12.6999C126.8 12.0999 126.6 11.3999 126.1 10.0999C129.2 11.5999 131.4 13.2999 133.6 15.2999C134.3 14.6999 134.9 14.0999 135.5 13.5999C136.1 13.8999 136.6 14.1999 137.1 14.4999C138.2 13.2999 139.1 12.1999 140.5 10.5999C140.5 13.6999 140.5 15.9999 140.5 18.3999C141.3 17.7999 141.9 17.1999 142.6 16.5999C144.3 18.4999 141.2 20.1999 142.5 22.1999C143.5 21.6999 143.9 20.8999 144.2 19.7999C144.5 18.4999 144.8 17.4999 144.2 16.1999C143.8 15.1999 144.1 13.8999 144.1 12.3999C145.1 13.5999 145.9 14.3999 147.1 15.7999C147.1 13.5999 147.1 12.0999 147.1 9.9999C148 10.8999 148.5 11.1999 148.8 11.5999C149.2 12.0999 149.4 12.6999 149.7 13.2999C150.8 13.3999 151.8 13.3999 152.9 13.4999C153.9 15.7999 154.8 17.9999 156.2 21.1999C156.2 17.2999 156.2 14.3999 156.2 10.2999C157.7 13.3999 158.7 15.2999 159.7 17.3999C160.9 14.9999 159.8 12.8999 159.8 10.4999C160.7 11.6999 161.6 12.8999 162.7 14.3999C163.8 13.0999 164.8 11.9999 165.9 10.6999C167.2 12.0999 165 14.8999 167.9 16.0999C168.4 15.3999 168.9 14.6999 169.4 13.8999C169.9 13.0999 170.4 12.2999 170.8 11.5999C173.5 14.6999 173.2 19.0999 176.2 22.0999C175.1 16.6999 172.5 11.7999 170.6 6.0999C171.5 6.6999 172.5 6.8999 173 7.4999C175 10.0999 176.8 12.6999 178.8 15.4999C180.2 12.7999 181.4 10.4999 182.6 8.1999C182.8 8.2999 183.1 8.3999 183.3 8.3999C183 11.1999 182.6 14.0999 182.3 16.8999C182.6 16.9999 182.9 16.9999 183.2 17.0999C184.1 14.2999 185 11.4999 186.1 8.2999C187.1 9.8999 188.1 11.4999 189.2 13.3999C190.2 12.3999 191.1 11.3999 192.8 9.5999C192.2 12.1999 191.8 13.6999 191.4 15.5999C192.5 16.3999 193.6 17.1999 194.8 18.0999C197.5 16.6999 197.9 13.8999 199.3 11.7999C199.1 11.2999 198.8 10.8999 198.7 10.4999C198.6 10.1999 198.8 9.8999 199.1 8.8999C200.6 11.4999 201.8 13.7999 203.3 16.2999C204 14.8999 204.7 13.5999 205.8 11.5999C207.1 14.4999 208.1 16.7999 209 18.9999C212.4 15.6999 212.2 11.7999 210.3 6.6999C215 10.8999 216.1 15.8999 218.4 20.2999C220 18.1999 220 18.1999 217.8 13.6999C218.3 13.4999 218.9 13.3999 219.2 12.9999C219.6 12.5999 219.8 11.8999 220 11.3999C220.6 11.6999 221.2 11.9999 222.2 12.4999C222.4 11.3999 222.6 10.4999 222.8 9.5999C223 9.5999 223.4 9.4999 223.5 9.6999C225.1 11.4999 226.6 13.2999 228.9 15.9999C227.9 11.8999 227.1 8.7999 226.4 5.7999C226.7 5.6999 227 5.5999 227.2 5.4999C229.4 9.3999 231.6 13.2999 234 17.5999C234.7 14.4999 235.3 11.8999 235.9 9.2999C238.9 9.4999 236.9 12.1999 238.2 13.1999C238.5 12.2999 238.7 11.3999 239.1 10.0999C240.5 13.0999 241.7 15.6999 243 18.4999C243.6 17.3999 244.1 16.5999 244.7 15.4999C243.7 13.3999 242.7 11.1999 241.7 8.9999C241.8 8.7999 241.9 8.6999 242.1 8.4999C243 9.1999 243.9 9.8999 244.7 10.6999C245.5 11.4999 246.2 12.2999 247.5 11.4999C247.8 12.3999 247.9 13.4999 248.4 14.2999C249.1 15.3999 250.1 16.2999 251.4 17.7999C252.6 12.9999 249.2 9.3999 250.2 4.8999C251.8 7.2999 253.1 9.2999 254.3 11.1999C257.6 11.6999 258.7 8.9999 261.2 7.1999C260.8 10.4999 260.4 13.2999 260.1 16.1999C263 14.0999 265.6 12.0999 268.4 9.9999C269.8 11.8999 268 12.9999 267.6 14.0999C266.9 15.7999 266.9 16.8999 268.7 18.3999C269.8 14.7999 272 11.9999 275 9.5999C277.2 11.2999 276 14.5999 277.7 17.1999C280.9 14.1999 281.1 9.0999 285.2 6.0999C284.5 9.3999 283.8 12.2999 283.2 15.0999C283.4 15.1999 283.6 15.1999 283.7 15.2999C285.3 13.2999 287 11.2999 288.6 9.3999C288.8 9.4999 289 9.5999 289.3 9.6999C289 11.4999 288.6 13.2999 288.2 15.5999C289.7 13.8999 290.7 12.6999 292 11.1999C292.2 12.3999 292.4 13.1999 292.5 14.0999C293 13.9999 293.6 13.8999 294.5 13.6999C293.5 16.2999 290.9 18.4999 293.3 21.6999C295.7 17.5999 295.9 12.3999 300.2 9.1999C300.6 12.6999 299.4 16.4999 302.7 19.1999C304.5 17.6999 303.7 14.4999 306.5 13.1999C307 14.2999 307.5 15.3999 307.9 16.3999C308.4 16.2999 308.8 16.2999 308.9 16.0999C309.8 14.5999 310.6 12.9999 311.5 11.2999C313 13.7999 314.4 16.0999 315.7 18.1999C317.9 19.0999 318.8 17.2999 320.1 16.2999C319.6 14.7999 319.1 13.2999 318.5 11.1999C319.5 11.6999 320.1 11.9999 320.7 12.3999C321.2 12.6999 321.7 13.1999 322.2 13.6999C323.5 12.0999 324.6 10.6999 325.7 9.2999C326.7 12.7999 327.7 15.9999 328.8 19.5999C330.5 15.6999 327.2 12.2999 328.8 8.3999C330.2 11.1999 331.4 13.6999 332.8 16.3999C335.1 13.3999 337.3 10.3999 339.9 6.8999C341.2 10.3999 337.7 12.3999 338.6 15.4999C339.4 14.2999 340.1 13.3999 340.8 12.3999C341.8 14.2999 342.5 16.0999 345.1 16.5999C345.3 14.7999 345.4 13.1999 345.5 11.2999C346.5 12.5999 347.2 13.5999 348 14.5999C348.6 14.2999 349.1 14.1999 349.4 13.8999C350.1 13.0999 350.7 12.1999 351.7 10.7999C351.6 13.3999 351.5 15.2999 351.3 18.1999C352.8 15.5999 353.7 13.9999 354.7 12.2999C354.9 12.3999 355.1 12.3999 355.3 12.4999C355.3 14.9999 355.3 17.3999 355.3 21.0999C356.8 17.7999 357.8 15.6999 358.9 13.2999C359.6 13.4999 360.2 13.6999 361.2 13.9999C362 12.9999 362.9 11.6999 364.3 9.8999C364.4 11.9999 364.5 13.5999 364.7 15.3999C365.7 14.5999 366.4 13.9999 367.9 12.7999C366.4 16.5999 365.9 19.6999 368.9 22.9999C368.8 20.6999 368.7 19.0999 368.6 17.1999C369.4 17.6999 369.8 17.8999 370.5 18.2999C370.6 15.8999 370.8 13.5999 370.9 10.7999C372.3 12.4999 373.3 13.7999 374.5 15.3999C375.1 14.7999 375.7 14.1999 376.3 13.4999C376.6 13.9999 376.8 14.5999 377.4 15.5999C380.1 13.7999 382.7 12.0999 385.3 10.3999C385.5 10.5999 385.6 10.6999 385.8 10.8999C385.1 12.0999 384.4 13.2999 383.1 15.4999C384.7 14.4999 385.5 14.0999 386.9 13.2999C386.5 14.4999 386.3 15.1999 385.9 16.0999C386.5 16.4999 387.2 16.9999 388.7 17.9999C388.4 15.6999 388.1 14.1999 387.8 12.0999C388.9 13.3999 389.6 14.1999 390.5 15.1999C390.7 14.2999 390.8 13.5999 391 12.3999C392.3 13.4999 393.3 14.3999 394.5 15.3999C396 14.6999 397.4 13.9999 399 13.2999C399.8 13.9999 400.5 14.5999 401.3 15.2999C403.3 14.2999 405.3 13.3999 407.4 12.3999C407.3 13.7999 407.2 14.9999 407.1 16.3999C410.1 16.1999 408.5 13.9999 409.3 12.7999C409.7 12.8999 410.3 12.9999 411.1 13.0999C410.7 11.9999 410.4 10.9999 409.7 9.0999C412.8 11.3999 415.2 13.1999 417.7 15.0999C417.9 14.1999 418.2 13.2999 418.4 12.2999C419.1 12.8999 419.7 13.4999 420.5 14.2999C421.5 13.2999 422.6 12.2999 423.9 11.0999C424 13.6999 424.2 15.8999 424.3 18.7999C425.3 17.4999 426 16.5999 426.6 15.7999C428.5 17.8999 425.1 19.9999 426.5 22.3999C429.7 19.5999 427.2 15.7999 428.5 12.3999C429.3 13.3999 430 14.2999 431.1 15.5999C431.1 13.3999 431.1 11.6999 431.1 8.8999C432.3 10.9999 433 12.0999 433.7 13.3999C434.7 13.4999 435.6 13.5999 436.7 13.5999C437.6 15.4999 438.6 17.3999 439.7 19.5999C440.7 16.8999 439.7 14.2999 440.5 11.1999C441.7 13.2999 442.6 14.8999 443.5 16.4999C443.7 16.3999 443.9 16.3999 444.1 16.2999C443.8 14.4999 443.5 12.5999 443.1 9.6999C444.7 11.8999 445.7 13.1999 446.8 14.5999C447.8 13.1999 448.6 11.9999 449.9 10.1999C450.1 12.2999 450.3 13.6999 450.5 15.1999C452 15.9999 452.7 14.9999 453.2 13.9999C453.6 13.2999 453.6 12.3999 453.9 10.9999C457.9 15.0999 456.9 20.9999 461.2 24.6999C460 17.9999 456.5 12.6999 454.6 6.3999C455.5 6.8999 456.5 7.0999 456.9 7.6999C458.7 10.1999 460.4 12.7999 462.4 15.7999C464.3 13.1999 464.3 9.5999 467.6 7.0999C466.2 10.9999 466.1 14.1999 466.6 18.2999C467.8 14.4999 468.8 11.5999 469.8 8.2999C470.9 9.9999 471.8 11.4999 472.9 13.2999C473.8 12.4999 474.9 11.5999 476 10.5999C476.1 10.9999 476.4 11.2999 476.3 11.5999C475.9 12.9999 475.5 14.3999 475.1 15.7999C476.4 16.4999 477.4 17.0999 478.7 17.7999C479.8 16.5999 481 15.4999 482 14.1999C483 12.8999 482.8 11.2999 483 9.5999C483.8 10.5999 484.6 11.4999 485.3 12.5999C486 13.5999 486.5 14.6999 487.7 16.5999C488.2 14.1999 488.6 12.8999 489 11.0999C490.6 12.3999 492 13.4999 493.2 14.5999C497.4 13.4999 493.4 10.5999 494.7 8.8999C496.1 9.1999 497.5 9.3999 498.8 9.6999C500.2 7.0999 501.4 4.8999 502.6 2.5999C502.8 2.6999 503 2.6999 503.2 2.7999C502.6 6.2999 502.1 9.8999 501.4 14.3999C503.8 12.3999 505.7 11.3999 505.8 8.8999C509.3 9.3999 508.2 9.9999 510.3 4.9999C511.3 6.2999 512.1 7.3999 512.9 8.3999C514.3 7.0999 514.3 8.9999 515.1 9.2999C515.3 8.3999 515.6 7.4999 515.8 6.5999C518.5 7.8999 516.8 10.6999 518.3 12.8999C518.8 12.0999 519.3 11.5999 519.4 10.9999C519.6 9.6999 519.6 8.3999 521.1 7.8999C521.3 8.2999 521.5 8.7999 521.7 9.2999C521.9 9.1999 522.2 9.1999 522.3 8.9999C523.4 7.1999 524.6 5.3999 525.7 3.4999C527.9 5.2999 523.5 8.2999 527.5 9.5999C528.2 8.7999 529.1 7.7999 530 6.7999C530.2 6.8999 530.4 6.9999 530.6 7.0999C530.3 8.4999 530 9.7999 529.6 11.7999C532.1 9.6999 534.7 8.4999 534.1 4.8999C535.1 6.7999 536.2 8.6999 537.4 10.9999C538.7 9.4999 539.9 8.0999 541.4 6.3999C542.1 9.7999 540.9 13.1999 543.6 16.1999C544.8 14.1999 545.9 12.4999 547.3 10.2999C548.1 11.9999 548.7 13.2999 549.2 14.3999C550.4 12.5999 551.7 10.5999 552.9 8.7999C554.3 11.1999 555.7 13.5999 557.1 16.0999C558.7 15.4999 560.1 14.9999 561.6 14.3999C561 12.4999 560.5 10.6999 559.7 7.7999C561.5 9.5999 562.4 10.4999 563.5 11.5999C564.6 10.0999 565.8 8.4999 567.1 6.6999C568.2 10.1999 569.2 13.3999 570.2 16.9999C572 12.9999 568.7 9.5999 570.3 5.6999C571.6 8.5999 572.8 11.2999 574.1 14.1999C576.5 10.8999 578.8 7.8999 581 4.8999C581.2 4.9999 581.5 5.0999 581.7 5.1999C581 7.6999 580.4 10.1999 579.7 12.5999C579.9 12.5999 580 12.6999 580.2 12.6999C580.8 11.8999 581.4 10.9999 582.2 9.7999C582.8 10.9999 583.2 11.9999 583.8 12.7999C584.3 13.3999 585.2 13.6999 586.4 14.4999C586.7 12.6999 586.8 11.3999 587.1 9.8999C588.1 10.7999 588.9 11.3999 590.1 12.3999C591 11.2999 591.8 10.2999 592.7 9.1999C592.8 11.0999 593 12.9999 593.2 15.3999C594.4 12.9999 595.4 11.1999 596.6 8.8999C597.5 11.9999 596.5 14.9999 597.3 17.8999C598.4 15.4999 599.5 13.2999 600.6 10.8999C601.5 11.2999 602 11.5999 602.8 11.8999C603.6 10.6999 604.4 9.4999 605.3 8.1999C605.9 10.4999 605.9 11.2999 605.6 12.9999C607.5 12.9999 607.8 11.2999 609 9.6999C608.8 11.1999 608.9 12.1999 608.5 12.9999C607.5 15.6999 608.1 17.9999 610.4 20.0999C610.3 18.4999 610.1 16.8999 609.9 14.4999C610.8 15.7999 611.2 16.2999 612 17.2999C612 14.2999 612 11.7999 612 8.3999C613.7 10.3999 614.8 11.5999 616.1 13.0999C616.8 12.2999 617.5 11.5999 619 9.9999C618.6 11.5999 618.5 12.0999 618.3 12.6999C618.6 12.7999 619 13.0999 619.2 12.9999C621.7 11.4999 624.3 9.8999 627.3 7.9999C626.4 9.6999 625.7 10.9999 624.9 12.5999C629.3 10.3999 629.4 10.3999 631.7 14.0999C632 12.9999 632.2 12.0999 632.5 10.8999C633.3 11.2999 634 11.6999 634.6 12.0999C635.1 12.3999 635.6 12.7999 636.2 13.1999C636.8 12.4999 637.3 11.8999 638.1 10.8999C638.1 12.7999 638.1 14.2999 638.1 15.9999C639.9 14.3999 639.9 14.3999 639.1 9.7999C640 10.6999 640.6 11.0999 640.9 11.5999C641.3 12.0999 641.5 12.5999 641.8 13.2999C644 12.1999 645.9 11.2999 648 10.1999C648.1 11.4999 648.2 12.6999 648.4 14.7999C649.3 13.3999 649.7 12.4999 650.3 11.7999C650.8 11.2999 651.5 10.8999 652.2 10.4999C652 9.7999 651.7 9.0999 651.3 7.7999C654.4 9.1999 656.6 11.0999 659.1 12.9999C659.3 12.0999 659.4 11.2999 659.6 10.0999C660.4 10.7999 661 11.3999 662.3 12.5999C663 11.2999 663.6 10.0999 664.3 8.7999C664.6 8.9999 664.9 9.1999 665.2 9.3999C665.2 11.4999 665.2 13.6999 665.2 16.2999C666.4 15.3999 667 14.8999 668.3 13.8999C667.9 16.1999 667.6 17.9999 667.2 19.6999C670.7 17.1999 668.3 13.3999 669.6 9.9999C670.4 10.9999 671 11.7999 671.9 12.8999C672.1 11.2999 672.3 9.7999 672.5 7.7999C673.5 8.9999 674.3 9.9999 675.1 10.9999C675.6 10.6999 676.2 10.4999 677.1 9.9999C678 11.8999 679 13.8999 680.1 16.0999C682.6 13.7999 680.1 11.1999 680.6 8.6999C683.2 9.6999 682.8 11.9999 683.6 13.6999C684.5 13.2999 685.3 12.9999 684.6 11.5999C684.1 10.5999 684.3 9.3999 684.1 7.1999C685.5 8.9999 686.2 9.9999 686.9 10.8999C689.6 11.7999 689.1 8.3999 691.1 7.9999C691.1 9.4999 691.1 10.9999 691.1 12.6999C692.1 12.7999 692.8 12.8999 693.9 12.9999C694.1 11.2999 694.4 9.6999 694.6 7.9999C698.4 11.1999 697.2 16.8999 701.3 20.2999C701.4 16.6999 699.4 14.2999 698.5 11.5999C697.6 8.7999 696.3 6.1999 695.5 3.2999C698.9 5.8999 701 9.3999 703.4 13.6999C704.9 10.2999 706.2 7.5999 707.4 4.8999C707.6 4.9999 707.8 4.9999 708 5.0999C707.7 8.5999 707.4 11.9999 707.1 15.4999C707.4 15.4999 707.6 15.5999 707.9 15.5999C708.8 12.4999 709.7 9.2999 710.8 5.5999C712 7.4999 712.9 8.9999 713.9 10.6999C714.9 9.7999 715.9 8.8999 717.4 7.4999C717.2 8.6999 717.1 9.1999 716.9 9.7999C715.6 13.8999 716.1 14.4999 721.1 14.7999C722.1 12.5999 723.2 10.2999 724.4 7.7999C726.3 9.1999 726.5 11.6999 728 13.5999C728.6 12.3999 729.2 11.2999 729.9 10.0999C732.5 11.0999 732.5 13.5999 732.8 15.8999C736.7 13.9999 736.9 13.2999 735.7 4.8999C739.8 8.9999 741.6 13.6999 743 18.9999C743.6 17.7999 744.1 16.8999 744.6 15.9999C743.7 13.9999 742.8 12.1999 741.6 9.6999C742.9 10.1999 743.5 10.4999 744.3 10.8999C744.5 10.0999 744.6 9.2999 744.8 8.1999C745.4 8.8999 745.9 9.3999 746.9 10.4999C747.4 8.9999 747.7 7.9999 748.1 6.6999C749.9 8.8999 751.5 10.8999 753.4 13.2999C753.8 9.2999 751.2 6.4999 751 2.4999C754.4 6.1999 756 10.3999 758.7 14.9999C759.6 11.4999 760.2 8.8999 761.1 5.3999C762 7.2999 762.6 8.4999 763.2 9.6999C765.7 8.2999 765.3 10.7999 765.9 11.7999C766.6 12.9999 767 14.3999 767.7 16.0999C768.8 12.7999 768.8 12.7999 766.7 6.7999C771.6 8.2999 773.5 12.3999 776.3 16.1999C777.4 11.2999 774 7.3999 775.1 1.8999C776.3 4.3999 776.9 5.9999 777.8 7.5999C778.4 8.6999 780.1 8.6999 780.9 10.4999C781.5 9.4999 781.9 8.8999 782.3 8.1999C782.4 8.2999 782.5 8.3999 782.6 8.4999C782.7 8.5999 782.8 8.7999 782.8 8.8999C782.8 10.3999 782.9 11.8999 782.8 13.3999C782.7 14.7999 782.1 16.2999 782.2 17.6999C783.7 38.6999 782.3 59.7999 783 81.0999C510.3 80.0999 238.4 80.0999 -33.7 80.0999Z" fill="white"/>
</g>
<defs>
<clipPath id="clip0">
<rect width="1635" height="80.1" fill="white" transform="translate(-35)"/>
</clipPath>
</defs>
</svg>
