<svg width="73" height="161" viewBox="0 0 73 161" fill="none" xmlns="http://www.w3.org/2000/svg">
<g clip-path="url(#clip0)">
<path d="M40.35 50.76C40.35 50.76 39.81 50.23 40.33 49.37C40.86 48.51 40.86 48.51 40.86 48.51C40.86 48.51 40.25 47.12 40.93 45.83C41.61 44.53 41.59 42.82 41.59 42.82C41.59 42.82 40.45 41.66 41.55 40.03C42.65 38.41 43.39 37.32 44.34 36.35C45.29 35.37 46.88 33.96 46.88 33.96C46.88 33.96 47.61 32.34 47.16 31.06C46.71 29.78 46.71 29.78 46.71 29.78C46.71 29.78 45.38 30.44 43.39 30.25C41.43 30.04 41.4 28 41.4 28C41.4 28 39.97 29.31 38.57 29.32C37.17 29.34 32.67 28.97 32.76 28.32C32.86 27.67 34.65 25.18 34.6 20.89C34.55 16.6 32.94 8.89001 36.55 5.31001C40.15 1.72001 44.32 0.170007 47 0.030007C49.68 -0.109993 50.11 0.200007 50.11 0.200007C50.11 0.200007 53.74 -1.02999 57.03 4.19001C60.32 9.41001 62.68 18.17 63.15 21.49C63.62 24.81 63.83 24.16 63.62 24.81C63.41 25.46 62.88 25.78 62.35 26.44C61.82 27.09 61.09 28.28 60.02 28.4C58.95 28.52 58.95 28.52 58.95 28.52C58.95 28.52 62.17 28.8 63.07 32.01C63.97 35.22 65.4 38 65.4 38C65.4 38 67.22 37.44 67.23 38.19C67.24 38.94 66.52 41.31 66.33 43.35C66.14 45.39 65.97 48.83 65.97 48.83C65.97 48.83 67.17 50.32 67.75 53.74C68.33 57.17 68.35 58.67 68.35 58.67C68.35 58.67 69.42 58.76 70.54 62.18C71.66 65.6 71.66 65.6 71.66 65.6C71.66 65.6 70.71 66.68 69.96 67.02C69.21 67.35 69.21 67.35 69.21 67.35C69.21 67.35 70.44 71.3 70.8 74.2C71.16 77.09 71.6 77.84 71.17 78.06C70.74 78.28 69.99 78.07 69.99 78.07C69.99 78.07 70.87 79.88 71.56 83.09C72.24 86.3 72.58 87.48 72.58 87.48C72.58 87.48 71.62 87.82 71.3 87.82C70.98 87.82 71.56 91.25 71.7 93.93C71.84 96.61 71.96 97.47 71.43 97.8C70.9 98.13 69.93 98.14 69.93 98.14C69.93 98.14 71.22 106.81 69.83 107.26C68.44 107.71 64.05 108.3 62.86 107.78C61.67 107.26 61.98 106.07 61.98 106.07C61.98 106.07 60.69 105.77 59.19 105.68C57.69 105.59 54.9 105.52 54.04 105.32C53.18 105.12 52.64 105.02 52.64 105.02C52.64 105.02 50.75 108.05 50.59 112.66C50.43 117.28 52.71 119.28 53.73 123.56C54.75 127.84 54.7 132.24 54.65 136.75C54.6 141.26 55.2 146.61 55.2 146.61C55.2 146.61 56.92 146.48 56.82 147.34C56.72 148.2 57.74 152.16 57.12 154.2C56.5 156.25 55.32 156.37 53.39 156.39C51.46 156.41 50.92 156.31 50.92 156.31C50.92 156.31 51.27 158.56 49.67 158.9C48.07 159.24 46.25 160.12 41.75 160.18C37.24 160.24 33.07 160.72 32.83 159.33C32.6 157.94 33.45 157.18 34.4 156.41C35.36 155.65 35.46 155.11 35.46 155.11C35.46 155.11 32.56 155.04 32.55 154.07C32.54 153.11 32.63 151.82 34.45 151.47C36.27 151.12 38.62 150.56 39.15 149.8C39.68 149.04 40.82 145.92 40.86 141.09C40.91 136.26 39.5 127.37 38.38 123.31C37.26 119.25 35.05 114.55 35.98 112.08C36.91 109.6 37.49 104.23 37.49 104.23C37.49 104.23 35.47 105.76 32.25 105.26C29.03 104.76 28.9 103.48 29.11 102.72C29.31 101.97 29.81 98.42 30.43 97.34C31.06 96.26 31.49 95.93 31.49 95.93C31.49 95.93 30.41 95.41 30.51 94.66C30.61 93.91 31.96 90.89 32.9 88.94C33.84 87 34.14 85.49 34.14 85.49C34.14 85.49 35.24 79.47 35.21 76.57C35.17 73.67 36.4 68.83 36.4 68.83C36.4 68.83 34.46 67.78 34.45 67.14C34.44 66.5 36.2 61.11 37.15 60.24C38.1 59.37 38.1 59.37 38.1 59.37C38.1 59.37 37.01 57.88 38.37 55.4C39.73 52.92 40.35 50.76 40.35 50.76Z" fill="url(#paint0_linear)"/>
<path d="M49.62 46.03C49.62 46.03 49.58 43.03 54.08 42.54C58.58 42.05 60.33 44.93 60.13 45.68C59.93 46.43 59.92 54.27 59.31 56.85C58.7 59.43 59.04 61.14 57.67 63.2C56.3 65.26 52.41 71.31 48.7 74.69C44.99 78.06 41.69 80.14 41.37 80.79C41.06 81.44 39.49 85.11 38.55 86.73C37.6 88.35 36.33 89.01 35.89 88.8C35.46 88.59 35.56 88.05 35.56 88.05C35.56 88.05 34.92 88.59 34.28 88.49C33.64 88.39 33.95 87.74 33.95 87.74C33.95 87.74 32.99 88.18 32.34 87.87C31.69 87.56 32.21 86.48 32.21 86.48C32.21 86.48 30.93 86.71 30.38 85.86C29.83 85.01 31.42 83.38 31.42 83.38C31.42 83.38 28.96 84.27 28.95 82.98C28.94 82.4 29.88 81.94 31.07 81.13C32.03 80.47 33.08 79.07 34.78 77.86C36.48 76.66 37.33 76.32 38.39 74.92C39.44 73.51 43.56 67.99 45.67 65.28C47.78 62.57 50.86 59.63 50.84 58.45C50.82 57.27 49.7 52.89 49.66 50.2C49.64 47.53 49.62 46.03 49.62 46.03Z" fill="#9FCAF3"/>
<path d="M33.27 146.89C33.48 144.28 33.87 140.84 34.22 136.86C34.42 134.57 34.61 132.1 34.75 129.5C34.94 125.98 35.04 122.23 34.94 118.38C34.65 106.72 28.94 103.61 28.94 103.61C28.94 103.61 24.08 100.62 21.58 100.68C19.08 100.74 15.83 100.74 12.32 103.52C9.42 105.82 9.02 109.98 9.02 109.98C9.02 109.98 8.2 110.72 7.11 111.93C6.57 112.53 6.64 113.95 6.05 114.76C5.43 115.6 4.14 115.86 3.61 116.86C2.9 118.19 2.35 119.63 2.12 121.1C1.45 125.42 2.77 126.8 2.77 126.8C2.77 126.8 2.26 129.06 1.81 132.3C1.61 133.71 0.299999 135.31 0.169999 136.99C0.0499988 138.44 1.1 139.95 1.1 141.45C1.1 142.19 1.12 142.92 1.15 143.65C1.26 145.74 -0.410001 148.8 0.109999 150.29C1.03 152.95 4.56 153.38 6.59 154.23C7.94 154.79 9.7 155.12 11.8 155.31C14.63 155.57 18.07 155.55 21.91 155.46C28.56 155.29 32.77 153.04 33.27 146.89Z" fill="#92BEF4"/>
<path d="M26.92 103.01C26.92 103.01 27.12 99.27 24.81 98.37C22.5 97.47 17.68 101.54 17.68 101.54L19.99 101.37C19.99 101.37 22.49 98.71 24.09 99.43C25.69 100.15 25.32 102.99 25.32 102.99L26.92 103.01Z" fill="#9FCAF3"/>
<path d="M30.09 105.63C30.09 105.63 34.56 108.4 35.83 114.62C37.1 120.84 37.08 125.03 37.07 127.2C37.06 129.37 39.78 134.29 38.89 138.33C38.76 138.91 42.19 143.55 40.3 146.43C38.41 149.31 37.39 149.74 36.38 150.74C35.36 151.75 31.9 151.15 31.9 151.15L32.05 149.85C32.05 149.85 33.78 150.29 35.37 149.72C36.96 149.15 37.41 147.48 38.13 146.41C39.59 144.25 39.16 142.8 38.01 141.49C36.86 140.18 34.98 139.45 33.99 135.83C33 132.21 32.45 125.85 32.17 124.26C31.89 122.67 32.65 115.59 30.06 112.54C27.47 109.52 30.09 105.63 30.09 105.63Z" fill="#9FCAF3"/>
<path d="M33.37 111.29C33.37 111.29 36.55 112.74 36.39 115.92C36.24 119.1 38.4 123.15 38.83 123.59C39.26 124.02 38.1 124.74 38.1 124.74C38.1 124.74 37.24 123.73 36.37 121.56C35.51 119.39 35.37 118.52 34.94 117.07C34.52 115.63 33.37 111.29 33.37 111.29Z" fill="#92BEF4"/>
<path d="M28.15 119.11C28.15 119.11 25.44 113.36 21.02 112C16.6 110.64 12.59 110.83 10.74 110.82C8.89 110.81 7.39 111.63 7.39 111.63C7.39 111.63 7.21 111.76 7.03 112.05C6.85 112.34 6.78 112.63 6.78 112.63C6.78 112.63 7.75 111.73 11.04 111.75C14.33 111.77 17.93 112.09 21.01 113.04C24.09 113.98 25.1 116.37 25.82 117.59C26.46 118.67 26.84 118.93 26.84 118.93L28.15 119.11Z" fill="url(#paint1_linear)"/>
<path d="M19.44 119.09C19.44 119.09 16.56 116.8 12.37 116.36C8.52 115.95 5.98 116.04 4.89 116.36C3.79 116.67 3.59 116.88 3.59 116.88L3.22 117.64C3.22 117.64 4.85 116.47 9.67 116.78C14.72 117.11 16.13 118.28 17.32 118.89C17.85 119.16 19.44 119.09 19.44 119.09Z" fill="url(#paint2_linear)"/>
<path d="M19.13 143.23C19.13 143.23 20.34 136.96 16.81 135.9C13.8 134.99 5.05001 133.49 2.96001 134.26C0.870006 135.04 0.600006 135.43 0.600006 135.43L0.870006 134.52C0.870006 134.52 2.58001 133.22 5.45001 133.5C8.33001 133.77 13.81 134.59 16.3 135.12C18.78 135.65 19.73 137.63 19.94 138.93C20.32 141.29 19.92 143.11 19.92 143.11L19.13 143.23Z" fill="url(#paint3_linear)"/>
<path d="M29.29 151.39C29.29 151.39 35.44 152.35 33.19 155.07C32.01 156.5 28.34 157.92 28.34 157.92L28.35 156.48C28.35 156.48 30.58 155.58 31.5 154.53C32.79 153.07 27.98 152.68 27.98 152.68L29.29 151.39Z" fill="#92BEF4"/>
</g>
<defs>
<linearGradient id="paint0_linear" x1="50.8128" y1="-0.00630188" x2="50.8128" y2="160.308" gradientUnits="userSpaceOnUse">
<stop stop-color="#CEE4FE"/>
<stop offset="1" stop-color="#B1D3FD"/>
</linearGradient>
<linearGradient id="paint1_linear" x1="17.465" y1="110.816" x2="17.465" y2="119.11" gradientUnits="userSpaceOnUse">
<stop stop-color="#CEE4FE"/>
<stop offset="1" stop-color="#B1D3FD"/>
</linearGradient>
<linearGradient id="paint2_linear" x1="11.33" y1="116.085" x2="11.33" y2="119.098" gradientUnits="userSpaceOnUse">
<stop stop-color="#CEE4FE"/>
<stop offset="1" stop-color="#B1D3FD"/>
</linearGradient>
<linearGradient id="paint3_linear" x1="10.3519" y1="133.461" x2="10.3519" y2="143.23" gradientUnits="userSpaceOnUse">
<stop stop-color="#CEE4FE"/>
<stop offset="1" stop-color="#B1D3FD"/>
</linearGradient>
<clipPath id="clip0">
<rect width="72.58" height="160.31" fill="white"/>
</clipPath>
</defs>
</svg>
