<svg width="56" height="187" viewBox="0 0 56 187" fill="none" xmlns="http://www.w3.org/2000/svg">
<g clip-path="url(#clip0)">
<path d="M46.36 60.94C46.36 60.94 46.43 65.25 45.91 67.33C45.4 69.41 45.66 69.08 45.93 71.91C46.19 74.74 46.57 81.88 46.4 84.5C46.22 87.12 45.96 87.83 45.8 88.05C45.64 88.27 42.78 86.95 42.78 86.95C46.22 96.89 42.25 60.39 37.5 69.63C37.92 68.81 44.14 57.97 44.14 57.97L46.36 60.94Z" fill="#92BEF4"/>
<path d="M29.77 24.87C29.77 24.87 29.81 24.21 30.03 23.99C30.24 23.77 31.72 23.58 32.41 22.97C33.11 22.36 34.24 21.63 34.52 21.63C34.79 21.63 35.72 21.61 35.72 21.61C35.72 21.61 36.41 20.07 36.45 19.31C36.49 18.55 36.49 18.22 36.49 18.22C36.49 18.22 35.61 17.63 35.27 16.66C34.93 15.68 34.42 14.55 34.73 13.61C35.04 12.68 35.81 12.78 35.81 12.78C35.81 12.78 34.83 9.47 34.76 8.05C34.68 6.63 35.19 3.95 36.48 2.79C37.77 1.63 38.86 1.5 39.51 1.54C40.17 1.59 39.78 1.54 40.17 1.59C40.55 1.64 41.45 0.040003 43.8 0.010003C46.15 -0.029997 48.72 0.640003 50.42 1.16C52.12 1.68 53.83 2.74 54.66 3.88C55.5 5.01 55.12 5.73 54.64 6.28C54.16 6.83 53.19 7.78 53.19 7.78C53.19 7.78 53.81 9.08 53.99 10.17C54.17 11.26 53.8 12.24 54.1 13.77C54.4 15.29 54.53 17.25 53.74 19.07C52.95 20.88 51.61 22.48 50.55 24.25C49.49 26.01 49.38 26.18 48.34 26.14C47.3 26.1 47.3 26.1 47.3 26.1C47.3 26.1 46.62 27.8 46.57 28.07C46.52 28.34 47.48 30.29 47.44 31.44C47.4 32.59 47.31 33.79 47.31 33.79C47.31 33.79 49.24 35.23 50.56 36.14C51.88 37.05 53.5 39.15 53.56 39.8C53.62 40.45 54.09 42.57 53.71 46.34C53.33 50.11 52.83 52.68 51.83 55.53C50.84 58.38 50.3 59.1 50.37 59.97C50.44 60.84 50.56 61.77 50.18 61.99C49.8 62.21 48.82 62.23 46.96 61.82C45.1 61.41 44.93 61.09 44.93 61.09C44.93 61.09 42.53 64.78 42.22 66.09C41.91 67.4 42.03 68.75 42.41 71.65C42.66 73.58 44.26 78.5 44.12 80.13C43.98 81.77 45.7 86.92 46.04 87.63C46.38 88.33 45.57 88.78 45.24 88.95C44.92 89.12 44.43 89.84 44.43 89.84C44.43 89.84 46.04 95.05 46.64 98.53C47.03 100.83 46.35 104.75 46.35 108.02C46.35 111.29 45 122.99 44.2 128.07C43.4 133.15 43.77 135.6 42.74 139.66C41.71 143.71 38.26 149.98 38.7 157.07C39.13 164.15 39.79 167.63 39.27 169.33C38.75 171.03 36.26 172.48 35.95 173.47C35.64 174.46 35.55 175.55 35.55 175.55C35.55 175.55 36.45 177.44 37.23 178.31C38.01 179.17 42.22 180.2 43.42 180.18C44.62 180.16 45.5 180.91 45.69 182.11C45.87 183.31 44.86 184.85 44.15 185.19C43.45 185.53 38.86 185.49 36.9 185.46C34.94 185.44 33.46 185.02 33.46 185.02C33.46 185.02 33.05 186.44 32.29 186.68C31.53 186.91 29.07 186.73 26.45 186.33C23.83 185.93 21.53 185.48 20.21 184.57C18.89 183.66 18.99 183.01 17.83 182.26C16.67 181.51 16.82 180.58 16.87 180.26C16.92 179.93 17.29 179.22 17.34 179.05C17.39 178.89 16.9 178.73 17.31 177.36C17.73 175.99 17.83 175.61 17.83 175.61C17.83 175.61 16.73 175.3 16.83 174.21C16.92 173.12 17.47 169.89 17.55 168.04C17.63 166.18 16.74 158.13 17.42 152.61C18.1 147.09 17.2 134.72 16.63 129.44C16.06 124.16 16.64 115.59 15.46 110.26C14.29 104.93 12.98 101.24 11.92 96.62C10.87 92 10.86 88.02 11.3 84.85C11.74 81.68 12.09 79.17 12.09 79.17C12.09 79.17 10 78.17 9.56 77.46C9.11 76.76 8.81 75.07 9.23 73.59C9.64 72.11 10.98 66.8 11.7 64.01C12.42 61.22 11.39 51.03 11.22 50.54C11.05 50.05 9.39 48.71 9.59 47.62C9.79 46.53 10.85 44.65 11.42 42.74C11.99 40.82 13.28 35.95 14.29 33.97C15.3 31.99 17.45 29.94 18.85 28.88C20.25 27.82 20.69 27.92 22.7 27.24C24.71 26.55 25.74 26.27 27.1 25.75C28.47 25.22 29.77 24.87 29.77 24.87Z" fill="url(#paint0_linear)"/>
<path d="M47.42 33.98C47.58 33.81 50.05 34.87 49.9 35.58C49.75 36.29 48.11 40.19 41.48 48.36C34.84 56.53 26.88 63.75 22.8 67.9C18.72 72.05 17.48 73.11 17.48 72.94C17.48 72.78 17.28 70.76 17.1 69.67C16.92 68.58 16.92 68.58 16.92 68.58C16.92 68.58 20.74 64.81 22.77 62.65C24.81 60.49 30.41 56.04 35.08 50.9C39.75 45.76 45.3 37.98 45.3 37.98C45.3 37.98 46.28 37.97 46.94 38.34C47.6 38.71 47.6 38.82 47.76 38.76C47.92 38.7 48.25 38.37 48.18 37.61C48.11 36.85 48.33 36.35 48.04 35.48C47.76 34.63 47.42 33.98 47.42 33.98Z" fill="#D2E2F7"/>
<path d="M9.95 76.93C9.95 76.93 8.1 77.23 7.78 77.67C7.46 78.11 6.64 81.34 5.82 84.74C5 88.13 3.9 91.04 2.98 95.2C2.06 99.36 1.92 101.05 1.35 102.7C0.78 104.34 -0.27 107.25 0.0700001 108.01C0.41 108.77 -0.13 108.94 4.08 110.02C8.3 111.1 9.73 112.12 10.7 111.06C11.67 110.01 12.94 107.86 14.01 103.1C15.08 98.34 16.52 85.5 16.52 85.5L14.1 77.3L9.95 76.93Z" fill="#D2E2F7"/>
<path d="M10.76 47.63C10.76 47.63 10.33 51.51 9.08 55.35C7.83 59.19 6.9 62.53 7.19 63.83C7.48 65.13 8.36 69.1 9.99 75.62C11.62 82.14 13.74 85.27 14.15 87.06C14.56 88.85 14.35 89.46 14.75 90.65C15.15 91.84 15.3 94.62 15.3 94.62C15.3 94.62 15.91 91.72 17.14 89.9C18.37 88.08 19.69 85.17 19.69 85.17C19.69 85.17 18.14 80.34 17.73 78.44C17.32 76.54 17.71 73.69 17.28 70.32C16.85 66.95 15.52 62.39 15.94 61.23C16.36 60.08 17.78 58.82 18.6 55.8C19.43 52.79 19.83 52 19.83 52C19.83 52 18.28 50.39 14.98 48.91C11.68 47.45 10.76 47.63 10.76 47.63Z" fill="#92BEF4"/>
</g>
<defs>
<linearGradient id="paint0_linear" x1="32.0924" y1="0.00829315" x2="32.0924" y2="186.781" gradientUnits="userSpaceOnUse">
<stop stop-color="#BBD6F7"/>
<stop offset="0.348958" stop-color="#ACCDF5"/>
<stop offset="1" stop-color="#92BEF4"/>
</linearGradient>
<clipPath id="clip0">
<rect width="55.14" height="186.75" fill="white"/>
</clipPath>
</defs>
</svg>
