<svg width="100" height="169" viewBox="0 0 100 169" fill="none" xmlns="http://www.w3.org/2000/svg">
<g clip-path="url(#clip0)">
<path d="M65.1 130.11L61.8 136.09V140.02H61.09L61.27 141.63C61.27 141.63 63.32 141.45 63.95 143.5C64.57 145.55 64.75 148.77 64.75 148.77L62.79 146.89C62.79 146.89 62.16 143.32 61.81 143.14C61.45 142.96 60.74 143.23 60.74 143.23C60.74 143.23 61.01 144.03 60.74 144.39C60.47 144.75 59.22 144.84 59.04 144.57C58.86 144.3 58.86 143.41 58.86 143.41C58.86 143.41 58.32 143.05 58.41 144.48C58.5 145.91 59.12 148.23 59.12 148.23L57.69 152.07C57.69 152.07 56.44 145.37 56.35 144.39C56.26 143.41 56.17 142.16 56.97 141.89C57.77 141.62 58.4 141.62 58.4 141.62L58.49 140.28C58.49 140.28 57.78 140.55 57.69 140.01C57.6 139.47 57.42 136.62 57.42 136.62L48.94 132.42L48.76 130.19L56.98 133.41C56.98 133.41 57.07 131.98 57.43 131.8C57.79 131.62 60.11 131.62 60.38 131.62C60.65 131.62 61.36 129.57 61.36 129.57L65.1 130.11Z" fill="url(#paint0_linear)"/>
<path d="M57.4 153.5C57.94 157.85 60.32 161.14 62.72 160.85C65.12 160.55 66.63 156.78 66.09 152.43C65.55 148.08 63.17 144.78 60.77 145.08C58.37 145.38 56.86 149.15 57.4 153.5ZM61.17 155.47L61.62 154.76H62.87C62.87 154.76 62.96 154.76 62.42 156.1C61.88 157.44 61.44 157.17 61.44 157.17L61.17 155.47Z" fill="url(#paint1_linear)"/>
<path d="M16.6 153.98C17.32 154.08 20.94 153.77 20.94 153.77L30.45 153.67V152.74H31.69V153.46L44.51 152.53L44.61 151.19C44.61 151.19 45.54 151.19 46.57 150.88C47.6 150.57 47.91 149.43 48.74 149.23C49.57 149.02 51.22 148.3 51.32 146.13C51.42 143.96 50.49 143.03 50.49 143.03C50.49 143.03 51.01 141.48 51.11 139.62C51.21 137.76 50.28 135.07 50.28 135.07C50.28 135.07 50.28 135.07 50.69 134.14C51.1 133.21 50.48 131.97 50.48 131.97V128.46L23.6 129.6C23.6 129.6 23.29 131.98 22.67 133.84C22.05 135.7 20.29 136.01 20.19 136.73C20.09 137.45 20.19 139.94 19.16 142.11C18.13 144.28 18.02 144.07 17.09 145.63C16.16 147.18 17.61 149.56 17.61 149.56C17.61 149.56 14.92 150.18 14.72 150.59C14.54 150.98 15.88 153.88 16.6 153.98ZM33.56 148.71L37.28 149.43H33.56V148.71Z" fill="url(#paint2_linear)"/>
<path d="M0.0300104 130.11C0.51001 151.38 6.45001 168.5 13.3 168.34C20.15 168.19 25.32 150.82 24.84 129.55C24.36 108.28 18.42 91.16 11.57 91.32C4.72001 91.47 -0.44999 108.84 0.0300104 130.11ZM11 101.26C14.27 100.99 17.16 114.91 17.43 131.87C17.7 148.83 14.12 162.15 11.85 162.15C10.4 162.15 5.81001 149.01 5.54001 132.05C5.28001 115.1 8.54001 101.46 11 101.26Z" fill="#53E6DD"/>
<path d="M77.08 88.95C77.08 88.95 78.94 87.61 81.22 88.85C83.49 90.09 84.53 92.68 84.53 92.68C84.53 92.68 86.7 92.99 88.04 95.88C89.38 98.77 94.76 110.15 94.86 131.03C94.96 151.91 89.69 163.39 85.35 165.25C81.01 167.11 77.6 162.98 75.43 158.22C73.26 153.46 70.47 142.61 70.05 135.99C69.64 129.37 69.12 120.59 69.53 115.42C69.94 110.25 69.94 110.25 69.94 110.25L74.18 112.01C74.18 112.01 74.9 137.65 78.73 149.13C82.56 160.6 84.62 159.67 84.62 159.67C84.62 159.67 91.34 149.13 89.27 123.69C87.2 98.26 81.1 94.02 81.1 94.02C81.1 94.02 79.03 96.5 78.21 99.19C77.38 101.88 77.38 101.88 77.38 101.88L77.08 88.95Z" fill="#53E6DD"/>
<path d="M83.27 127.16C83.27 129.06 83.81 130.6 84.48 130.6C85.15 130.6 85.69 129.06 85.69 127.16C85.69 125.26 85.15 123.72 84.48 123.72C83.81 123.72 83.27 125.26 83.27 127.16Z" fill="url(#paint3_linear)"/>
<path d="M85.46 125.46C85.46 125.46 86.44 125.64 86.44 126.71C86.44 127.78 85.64 127.96 85.28 127.96C84.92 127.97 85.46 125.46 85.46 125.46Z" fill="url(#paint4_linear)"/>
<path d="M83.77 124.54L71.26 125.62C71.26 125.62 69.21 124.7 66.26 124.7C63.31 124.69 63.49 125.6 63.49 125.6L29.55 127.43L15.8 126.79L10.71 127.59C10.71 127.59 8.66002 127.69 8.12002 128.09C7.58002 128.49 7.22002 130.51 8.02002 130.92C8.82002 131.33 12.93 131.84 18.11 131.85C23.29 131.86 24.63 132.27 31.77 132.19C38.91 132.11 65.26 131.47 65.26 131.47C65.26 131.47 65.53 132.38 67.31 132.39C69.1 132.39 69.55 131.28 69.55 131.28L77.23 130.59C77.23 130.59 77.94 130.79 78.21 130.29C78.48 129.79 78.48 129.58 78.48 129.58L83.75 129.19L83.77 124.54Z" fill="#53E6DD"/>
<path d="M9.24 133.06C9.85855 133.06 10.36 131.48 10.36 129.53C10.36 127.58 9.85855 126 9.24 126C8.62144 126 8.12 127.58 8.12 129.53C8.12 131.48 8.62144 133.06 9.24 133.06Z" fill="url(#paint5_linear)"/>
<path d="M88.9805 116.3L84.9477 125.811L85.1687 125.904L89.2015 116.394L88.9805 116.3Z" fill="url(#paint6_linear)"/>
<path d="M90.64 127.3L90.61 127.53L84.1 126.6L84.13 126.36L90.64 127.3Z" fill="url(#paint7_linear)"/>
<path d="M89.76 120.9L82.11 125.34L81.99 125.14L89.64 120.69L89.76 120.9Z" fill="url(#paint8_linear)"/>
<path d="M87.1984 105.165L85.235 126.254L85.4641 126.276L87.4274 105.187L87.1984 105.165Z" fill="url(#paint9_linear)"/>
<path d="M84.44 97.22H84.2V124.82H84.44V97.22Z" fill="url(#paint10_linear)"/>
<path d="M80.5337 128.464L80.4395 128.685L90.9977 133.192L91.0919 132.971L80.5337 128.464Z" fill="url(#paint11_linear)"/>
<path d="M90.53 138.84L90.32 138.94C90.32 138.94 85.81 129.18 85.07 127.58C85.46 129.42 89.3 147.76 89.3 147.76L89.07 147.81L84.62 126.62L84.84 126.55L90.53 138.84Z" fill="url(#paint12_linear)"/>
<path d="M83.81 125.81L83.6 125.91L78.84 116.71L79.05 116.61L83.81 125.81Z" fill="url(#paint13_linear)"/>
<path d="M79.6687 112.067L79.4423 112.146L84.0933 125.382L84.3197 125.303L79.6687 112.067Z" fill="url(#paint14_linear)"/>
<path d="M84.33 125.63L84.1 125.68L77.07 91.87L77.3 91.82L84.33 125.63Z" fill="url(#paint15_linear)"/>
<path d="M86.29 99.84L78.95 123.31L78.73 123.24L86.07 99.77L86.29 99.84Z" fill="url(#paint16_linear)"/>
<path d="M88.7777 108.746L78.1303 124.663L78.3298 124.797L88.9772 108.879L88.7777 108.746Z" fill="url(#paint17_linear)"/>
<path d="M84.9141 128.645L84.6752 128.669L87.4341 157.094L87.673 157.071L84.9141 128.645Z" fill="url(#paint18_linear)"/>
<path d="M91.13 144.29L90.95 144.44L78.03 128.21L78.21 128.06L91.13 144.29Z" fill="url(#paint19_linear)"/>
<path d="M84.65 128.98L81.03 157.72L80.79 157.69L84.41 128.95L84.65 128.98Z" fill="url(#paint20_linear)"/>
<path d="M84.3205 128.313L78.014 151.16L78.2453 151.224L84.5519 128.377L84.3205 128.313Z" fill="url(#paint21_linear)"/>
<path d="M84.42 127.98L76.05 143.29L75.84 143.17L84.22 127.87L84.42 127.98Z" fill="url(#paint22_linear)"/>
<path d="M84.7501 126.16L84.7601 126.22L75.1001 135.88L74.9301 135.71C74.9301 135.71 84.4201 126.22 84.5001 126.14C84.4801 126.03 79.9601 91.77 79.9601 91.77L80.1901 91.74L84.7501 126.16Z" fill="url(#paint23_linear)"/>
<path d="M77.9149 128.506L77.6955 128.604L88.3358 152.59L88.5552 152.492L77.9149 128.506Z" fill="url(#paint24_linear)"/>
<path d="M77.2109 128.933L76.9805 129.001L86.1818 160.537L86.4122 160.469L77.2109 128.933Z" fill="url(#paint25_linear)"/>
<path d="M82.68 159.65L82.45 159.69L76.76 127.95L76.99 127.91L82.68 159.65Z" fill="url(#paint26_linear)"/>
<path d="M78.13 148.92H77.9L77.69 128.24H77.93L78.13 148.92Z" fill="url(#paint27_linear)"/>
<path d="M77.2746 128.323L75.5181 139.07L75.7549 139.109L77.5115 128.361L77.2746 128.323Z" fill="url(#paint28_linear)"/>
<path d="M77.19 129.02L74.91 133.36L74.71 133.25L76.98 128.91L77.19 129.02Z" fill="url(#paint29_linear)"/>
<path d="M5.26911 123.772L5.19833 124.001L15.9477 127.319L16.0185 127.09L5.26911 123.772Z" fill="url(#paint30_linear)"/>
<path d="M9.32482 129.43L9.16455 129.609L20.7607 140.013L20.921 139.835L9.32482 129.43Z" fill="url(#paint31_linear)"/>
<path d="M4.72382 116.321L4.49438 116.391L8.42888 129.211L8.65832 129.141L4.72382 116.321Z" fill="url(#paint32_linear)"/>
<path d="M9.56707 108.169L7.80969 128.433L8.04881 128.454L9.80619 108.189L9.56707 108.169Z" fill="url(#paint33_linear)"/>
<path d="M18.15 147.21L17.95 147.32L9.35999 130.67L9.56999 130.56L18.15 147.21Z" fill="url(#paint34_linear)"/>
<path d="M9.77174 132.242L9.54523 132.321L16.6014 152.471L16.8279 152.392L9.77174 132.242Z" fill="url(#paint35_linear)"/>
<path d="M15.06 159.95L14.83 160C14.83 160 9.94 136.14 9.24 132.71C9.54 136.24 11.86 163.37 11.86 163.37L11.63 163.39L8.84 130.72L9.07 130.69L15.06 159.95Z" fill="url(#paint36_linear)"/>
<path d="M9.17002 131.24L8.76002 159.88L8.52002 159.87L8.94002 131.24H9.17002Z" fill="url(#paint37_linear)"/>
<path d="M9.79 130.02L5.86 147.29L5.63 147.24L9.56001 129.97L9.79 130.02Z" fill="url(#paint38_linear)"/>
<path d="M10.3956 128.501L4.50403 141.422L4.72241 141.521L10.614 128.601L10.3956 128.501Z" fill="url(#paint39_linear)"/>
<path d="M9.37813 129.086L3.79651 135.39L3.9762 135.549L9.55782 129.245L9.37813 129.086Z" fill="url(#paint40_linear)"/>
<path d="M4.85631 128.333L4.7894 128.564L8.71743 129.704L8.78434 129.474L4.85631 128.333Z" fill="url(#paint41_linear)"/>
<path d="M9.17 128.84L9.23 129.26L4 122.94L4.18 122.79C4.18 122.79 8.39 127.88 8.87 128.46C8.75 127.66 6.04 109.13 6.04 109.13L6.27 109.1L9.17 128.84Z" fill="url(#paint42_linear)"/>
<path d="M18.44 120.47L9.55001 128.64L9.39001 128.46L18.28 120.3L18.44 120.47Z" fill="url(#paint43_linear)"/>
<path d="M18.1516 111.122L9.4682 127.559L9.68041 127.671L18.3638 111.234L18.1516 111.122Z" fill="url(#paint44_linear)"/>
<path d="M14.65 107.49L9.07 128.48L8.84 128.42L14.42 107.43L14.65 107.49Z" fill="url(#paint45_linear)"/>
<path d="M17.2108 112.204L16.0737 128.023L16.313 128.04L17.4502 112.221L17.2108 112.204Z" fill="url(#paint46_linear)"/>
<path d="M15.69 125.94L15.45 125.99L12.35 108.82L12.58 108.78L15.69 125.94Z" fill="url(#paint47_linear)"/>
<path d="M15.81 127.41H15.58L15.37 107.15H15.61L15.81 127.41Z" fill="url(#paint48_linear)"/>
<path d="M16.4 127.47L16.18 127.56L9.35999 108.95L9.57999 108.87L16.4 127.47Z" fill="url(#paint49_linear)"/>
<path d="M7.29728 115.556L7.10605 115.701L15.8926 127.287L16.0838 127.142L7.29728 115.556Z" fill="url(#paint50_linear)"/>
<path d="M15.98 130.58L5.64 145.88L5.44 145.75L15.78 130.45L15.98 130.58Z" fill="url(#paint51_linear)"/>
<path d="M16.3 130.35L6.99002 154.75L6.77002 154.66L16.08 130.27L16.3 130.35Z" fill="url(#paint52_linear)"/>
<path d="M16.1 130.85L10 161.86L9.77002 161.82L15.87 130.8L16.1 130.85Z" fill="url(#paint53_linear)"/>
<path d="M15.1484 130.2L13.0795 162.665L13.319 162.681L15.3879 130.216L15.1484 130.2Z" fill="url(#paint54_linear)"/>
<path d="M16.3121 129.678L16.0748 129.714L17.9283 141.915L18.1656 141.879L16.3121 129.678Z" fill="url(#paint55_linear)"/>
<path d="M18.99 134.82L18.77 134.89C18.68 134.65 16.51 131.63 15.06 129.65L15.25 129.51C15.62 130.02 18.88 134.5 18.99 134.82Z" fill="url(#paint56_linear)"/>
<path d="M16.1 131.64L16.93 147.77L16.7 147.78C16.7 147.78 16.14 136.95 15.98 133.76C15.76 137.39 14.35 160.81 14.35 160.81L14.12 160.8L15.88 131.64H16.1Z" fill="url(#paint57_linear)"/>
<path fill-rule="evenodd" clip-rule="evenodd" d="M72.95 35.6C72.2426 34.955 71.3351 34.8457 70.4004 34.7332C69.538 34.6293 68.6526 34.5227 67.88 33.99C66.27 32.88 64.42 31.76 60.71 30.53C57 29.29 53.29 29.05 53.29 29.05C53.29 29.05 53.17 26.33 52.18 26.21C51.19 26.09 50.08 26.09 50.08 26.09C50.08 26.09 49.59 25.35 49.59 24.11C49.59 22.87 49.47 22.01 49.47 22.01C49.47 22.01 49.73 23.67 50.68 23.1C51.3 22.73 52.27 19.94 52 17.44C51.82 15.76 51.43 14.76 51 14.73C50.57 14.7 50.53 14.91 50.53 14.91C50.53 14.91 50.6 9.15 48.49 4.83C46.39 0.499999 41.44 -0.360001 36.99 0.129999C32.54 0.619999 30.19 3.79 29.07 6.88C27.96 9.97 29.13 15.97 29.13 15.97C29.13 15.97 27.95 15.65 28.08 18.37C28.2 21.09 29.04 22.46 30.03 23.69C31.02 24.93 31.58 23.43 31.58 23.43C31.58 23.43 31.92 23.88 32.54 25.73C33.16 27.58 33.28 28.82 33.28 28.82C33.28 28.82 31.43 29.56 30.07 30.8C28.71 32.04 25 34.51 22.16 35.99C21.3273 36.424 20.5788 36.7522 19.9088 37.046L19.9087 37.046C18.2937 37.7542 17.1345 38.2625 16.35 39.57C15.8541 40.3965 15.2345 41.9894 14.5571 43.7308L14.5571 43.7309C13.7182 45.8874 12.7907 48.2716 11.9 49.71C11.1119 50.9827 10.2663 52.8162 9.44876 54.5887L9.44875 54.5887C8.59622 56.4371 7.77427 58.2192 7.08002 59.23C6.85962 59.5509 6.65866 59.8326 6.47768 60.0863L6.47762 60.0864C5.5419 61.3983 5.14054 61.9609 5.35002 63.31C5.60002 64.92 5.97002 65.29 5.97002 65.29C5.97002 65.29 5.23002 69.74 5.97002 73.94C6.30256 75.8274 7.05917 77.8157 7.83694 79.8597C8.78994 82.3642 9.77471 84.9521 10.05 87.54C10.54 92.24 10.67 94.59 10.3 95.7C10.0004 96.5989 8.72351 99.1244 7.98849 100.578C7.8159 100.919 7.67319 101.202 7.58002 101.39C7.49393 101.564 7.38841 101.753 7.27292 101.96C6.73106 102.931 5.97002 104.294 5.97002 106.33C5.97002 108.8 7.58002 108.8 7.58002 108.8C7.58002 108.8 7.46002 110.16 8.32002 110.16H9.19002C9.19002 110.16 9.81002 111.27 10.8 111.27H11.79C11.79 111.27 12.16 111.64 13.03 111.64C13.9 111.64 14.51 110.03 14.51 110.03C14.51 110.03 15.99 111.02 16.24 109.91C16.3681 109.341 16.2993 108.738 16.2192 108.037C16.143 107.369 16.0566 106.612 16.12 105.71C16.1869 104.68 16.8308 103.454 17.4521 102.271C17.9463 101.33 18.4261 100.416 18.59 99.65C18.7819 98.753 18.4414 97.356 18.0175 95.6166C17.6238 94.0011 17.1582 92.0902 16.98 90.01C16.9663 89.849 16.9535 89.6856 16.9418 89.5201C17.0308 90.0725 17.1265 90.6876 17.23 91.38C17.97 96.33 20.58 104.59 20.58 104.59L22.2954 104.554C21.0197 110.501 23.63 129.58 23.63 129.58L46.57 128.77L47.0321 127.644L73.15 127L73.57 122.24C73.57 122.24 72.85 121.21 71.61 121.21C70.37 121.21 67.16 121.83 67.16 121.83L53.82 122.24L73.36 116.66L74.08 117.49C74.81 118.32 76.15 118.11 76.15 118.11L76.05 127.31L79.36 126.07L81.12 103.22C81.12 103.22 80.6 102.5 79.36 102.5C78.709 102.5 78.2289 102.671 77.9197 102.833L77.19 64.8C77.19 64.8 78.43 65.05 80.16 65.29C81.3292 65.459 82.06 66.1532 82.7165 66.7769C83.0313 67.0761 83.3291 67.359 83.65 67.56C84.64 68.18 86.22 65.54 86.22 65.54C86.22 65.54 88.45 66.53 88.45 69.12C88.45 71.72 89.44 79.01 90.55 83.21C91.66 87.41 90.43 88.9 90.43 88.9C90.43 88.9 89.07 89.64 87.96 91.87C87.2474 93.3016 87.1942 94.4736 87.1496 95.4574V95.4575C87.1247 96.006 87.1025 96.4961 86.97 96.94C86.8587 97.313 86.5846 97.8027 86.285 98.3378C85.5886 99.5817 84.7549 101.071 85.51 101.91C86.215 102.694 86.8579 102.026 87.5482 101.309C87.6412 101.213 87.735 101.115 87.83 101.02C88.1373 100.716 88.4165 100.381 88.6769 100.07C89.2806 99.3468 89.783 98.7453 90.3 98.92C91.04 99.17 90.79 101.89 89.93 102.88C89.5594 103.307 88.682 103.527 87.8033 103.748C86.6428 104.04 85.48 104.332 85.48 105.1C85.48 106.46 86.59 106.21 86.59 106.21C86.59 106.21 85.97 107.57 86.59 108.19C87.21 108.81 88.44 108.81 88.44 108.81C88.44 108.81 89.55 109.31 90.79 109.31C92.03 109.31 95.36 108.81 95.98 108.2C96.6 107.58 97.34 106.1 97.22 103.63C97.163 102.457 97.1038 101.505 97.0444 100.551C96.9788 99.4963 96.913 98.4397 96.85 97.08C96.7882 95.74 96.9866 94.7638 97.1771 93.8272C97.3562 92.9465 97.5282 92.1006 97.47 91.02C97.416 90.0168 97.6616 88.791 97.959 87.3062L97.959 87.3062L97.959 87.3061C98.3227 85.4903 98.764 83.2871 98.83 80.63C98.8745 78.8444 99.1577 77.5501 99.4337 76.2891C99.9027 74.1461 100.351 72.0991 99.57 67.9C99.4626 67.3214 99.3645 66.7883 99.2739 66.2961C98.3189 61.1068 98.2018 60.4705 96.85 59C95.32 57.36 93.34 56 93.34 56C93.34 56 93.34 55.14 92.47 54.39C92.3801 54.3135 92.2427 54.1987 92.0639 54.0491C90.5127 52.7523 85.8424 48.8476 81.96 44.75C79.7405 42.4074 78.1726 41.1028 77.0718 40.1868C76.0251 39.3158 75.4007 38.7962 75.04 38.07C74.7 37.38 72.95 35.6 72.95 35.6ZM19.85 69.8C18.9984 69.8769 18.2906 70.1011 17.7048 70.4408C17.72 69.6368 17.72 69.12 17.72 69.12C17.72 69.12 17.84 69.86 19.94 68.63C22.04 67.39 23.9 64.92 23.9 64.92C23.8232 65.4388 23.754 65.8905 23.6925 66.2921L23.6924 66.2927C23.2889 68.9264 23.2154 69.4066 23.4886 72.5257C23.2796 71.4811 22.4998 69.5548 19.85 69.8Z" fill="url(#paint58_linear)"/>
</g>
<defs>
<linearGradient id="paint0_linear" x1="56.93" y1="129.57" x2="56.93" y2="152.07" gradientUnits="userSpaceOnUse">
<stop offset="1" stop-color="#9BE3F2"/>
</linearGradient>
<linearGradient id="paint1_linear" x1="61.745" y1="145.061" x2="61.745" y2="160.868" gradientUnits="userSpaceOnUse">
<stop offset="1" stop-color="#9BE3F2"/>
</linearGradient>
<linearGradient id="paint2_linear" x1="33.0155" y1="128.46" x2="33.0155" y2="154" gradientUnits="userSpaceOnUse">
<stop offset="1" stop-color="#9BE3F2"/>
</linearGradient>
<linearGradient id="paint3_linear" x1="84.48" y1="123.72" x2="84.48" y2="130.6" gradientUnits="userSpaceOnUse">
<stop offset="1" stop-color="#9BE3F2"/>
</linearGradient>
<linearGradient id="paint4_linear" x1="85.7981" y1="125.46" x2="85.7981" y2="127.96" gradientUnits="userSpaceOnUse">
<stop offset="1" stop-color="#9BE3F2"/>
</linearGradient>
<linearGradient id="paint5_linear" x1="9.24" y1="126" x2="9.24" y2="133.06" gradientUnits="userSpaceOnUse">
<stop offset="1" stop-color="#9BE3F2"/>
</linearGradient>
<linearGradient id="paint6_linear" x1="86.9641" y1="121.055" x2="87.1851" y2="121.149" gradientUnits="userSpaceOnUse">
<stop offset="1" stop-color="#9BE3F2"/>
</linearGradient>
<linearGradient id="paint7_linear" x1="87.37" y1="126.36" x2="87.37" y2="127.53" gradientUnits="userSpaceOnUse">
<stop offset="1" stop-color="#9BE3F2"/>
</linearGradient>
<linearGradient id="paint8_linear" x1="85.875" y1="120.69" x2="85.875" y2="125.34" gradientUnits="userSpaceOnUse">
<stop offset="1" stop-color="#9BE3F2"/>
</linearGradient>
<linearGradient id="paint9_linear" x1="86.2167" y1="115.71" x2="86.4457" y2="115.731" gradientUnits="userSpaceOnUse">
<stop offset="1" stop-color="#9BE3F2"/>
</linearGradient>
<linearGradient id="paint10_linear" x1="84.32" y1="97.22" x2="84.32" y2="124.82" gradientUnits="userSpaceOnUse">
<stop offset="1" stop-color="#9BE3F2"/>
</linearGradient>
<linearGradient id="paint11_linear" x1="80.4866" y1="128.575" x2="91.0448" y2="133.082" gradientUnits="userSpaceOnUse">
<stop offset="1" stop-color="#9BE3F2"/>
</linearGradient>
<linearGradient id="paint12_linear" x1="87.575" y1="126.55" x2="87.575" y2="147.81" gradientUnits="userSpaceOnUse">
<stop offset="1" stop-color="#9BE3F2"/>
</linearGradient>
<linearGradient id="paint13_linear" x1="81.325" y1="116.61" x2="81.325" y2="125.91" gradientUnits="userSpaceOnUse">
<stop offset="1" stop-color="#9BE3F2"/>
</linearGradient>
<linearGradient id="paint14_linear" x1="79.5555" y1="112.106" x2="84.2065" y2="125.342" gradientUnits="userSpaceOnUse">
<stop offset="1" stop-color="#9BE3F2"/>
</linearGradient>
<linearGradient id="paint15_linear" x1="80.7" y1="91.82" x2="80.7" y2="125.68" gradientUnits="userSpaceOnUse">
<stop offset="1" stop-color="#9BE3F2"/>
</linearGradient>
<linearGradient id="paint16_linear" x1="82.51" y1="99.77" x2="82.51" y2="123.31" gradientUnits="userSpaceOnUse">
<stop offset="1" stop-color="#9BE3F2"/>
</linearGradient>
<linearGradient id="paint17_linear" x1="83.454" y1="116.704" x2="83.6535" y2="116.838" gradientUnits="userSpaceOnUse">
<stop offset="1" stop-color="#9BE3F2"/>
</linearGradient>
<linearGradient id="paint18_linear" x1="84.7947" y1="128.657" x2="87.5536" y2="157.083" gradientUnits="userSpaceOnUse">
<stop offset="1" stop-color="#9BE3F2"/>
</linearGradient>
<linearGradient id="paint19_linear" x1="84.58" y1="128.06" x2="84.58" y2="144.44" gradientUnits="userSpaceOnUse">
<stop offset="1" stop-color="#9BE3F2"/>
</linearGradient>
<linearGradient id="paint20_linear" x1="82.72" y1="128.95" x2="82.72" y2="157.72" gradientUnits="userSpaceOnUse">
<stop offset="1" stop-color="#9BE3F2"/>
</linearGradient>
<linearGradient id="paint21_linear" x1="81.1673" y1="139.736" x2="81.3986" y2="139.8" gradientUnits="userSpaceOnUse">
<stop offset="1" stop-color="#9BE3F2"/>
</linearGradient>
<linearGradient id="paint22_linear" x1="80.13" y1="127.87" x2="80.13" y2="143.29" gradientUnits="userSpaceOnUse">
<stop offset="1" stop-color="#9BE3F2"/>
</linearGradient>
<linearGradient id="paint23_linear" x1="79.8451" y1="91.74" x2="79.8451" y2="135.88" gradientUnits="userSpaceOnUse">
<stop offset="1" stop-color="#9BE3F2"/>
</linearGradient>
<linearGradient id="paint24_linear" x1="77.8052" y1="128.555" x2="88.4455" y2="152.541" gradientUnits="userSpaceOnUse">
<stop offset="1" stop-color="#9BE3F2"/>
</linearGradient>
<linearGradient id="paint25_linear" x1="77.0957" y1="128.967" x2="86.297" y2="160.503" gradientUnits="userSpaceOnUse">
<stop offset="1" stop-color="#9BE3F2"/>
</linearGradient>
<linearGradient id="paint26_linear" x1="79.72" y1="127.91" x2="79.72" y2="159.69" gradientUnits="userSpaceOnUse">
<stop offset="1" stop-color="#9BE3F2"/>
</linearGradient>
<linearGradient id="paint27_linear" x1="77.91" y1="128.24" x2="77.91" y2="148.92" gradientUnits="userSpaceOnUse">
<stop offset="1" stop-color="#9BE3F2"/>
</linearGradient>
<linearGradient id="paint28_linear" x1="76.3963" y1="133.696" x2="76.6332" y2="133.735" gradientUnits="userSpaceOnUse">
<stop offset="1" stop-color="#9BE3F2"/>
</linearGradient>
<linearGradient id="paint29_linear" x1="75.95" y1="128.91" x2="75.95" y2="133.36" gradientUnits="userSpaceOnUse">
<stop offset="1" stop-color="#9BE3F2"/>
</linearGradient>
<linearGradient id="paint30_linear" x1="5.23372" y1="123.887" x2="15.9831" y2="127.204" gradientUnits="userSpaceOnUse">
<stop offset="1" stop-color="#9BE3F2"/>
</linearGradient>
<linearGradient id="paint31_linear" x1="9.24469" y1="129.52" x2="20.8409" y2="139.924" gradientUnits="userSpaceOnUse">
<stop offset="1" stop-color="#9BE3F2"/>
</linearGradient>
<linearGradient id="paint32_linear" x1="4.6091" y1="116.356" x2="8.5436" y2="129.176" gradientUnits="userSpaceOnUse">
<stop offset="1" stop-color="#9BE3F2"/>
</linearGradient>
<linearGradient id="paint33_linear" x1="8.68838" y1="118.301" x2="8.9275" y2="118.322" gradientUnits="userSpaceOnUse">
<stop offset="1" stop-color="#9BE3F2"/>
</linearGradient>
<linearGradient id="paint34_linear" x1="13.755" y1="130.56" x2="13.755" y2="147.32" gradientUnits="userSpaceOnUse">
<stop offset="1" stop-color="#9BE3F2"/>
</linearGradient>
<linearGradient id="paint35_linear" x1="9.65848" y1="132.281" x2="16.7147" y2="152.432" gradientUnits="userSpaceOnUse">
<stop offset="1" stop-color="#9BE3F2"/>
</linearGradient>
<linearGradient id="paint36_linear" x1="11.95" y1="130.69" x2="11.95" y2="163.39" gradientUnits="userSpaceOnUse">
<stop offset="1" stop-color="#9BE3F2"/>
</linearGradient>
<linearGradient id="paint37_linear" x1="8.84502" y1="131.24" x2="8.84502" y2="159.88" gradientUnits="userSpaceOnUse">
<stop offset="1" stop-color="#9BE3F2"/>
</linearGradient>
<linearGradient id="paint38_linear" x1="7.71" y1="129.97" x2="7.71" y2="147.29" gradientUnits="userSpaceOnUse">
<stop offset="1" stop-color="#9BE3F2"/>
</linearGradient>
<linearGradient id="paint39_linear" x1="7.44982" y1="134.962" x2="7.6682" y2="135.061" gradientUnits="userSpaceOnUse">
<stop offset="1" stop-color="#9BE3F2"/>
</linearGradient>
<linearGradient id="paint40_linear" x1="6.58732" y1="132.238" x2="6.76701" y2="132.397" gradientUnits="userSpaceOnUse">
<stop offset="1" stop-color="#9BE3F2"/>
</linearGradient>
<linearGradient id="paint41_linear" x1="4.82285" y1="128.449" x2="8.75089" y2="129.589" gradientUnits="userSpaceOnUse">
<stop offset="1" stop-color="#9BE3F2"/>
</linearGradient>
<linearGradient id="paint42_linear" x1="6.615" y1="109.1" x2="6.615" y2="129.26" gradientUnits="userSpaceOnUse">
<stop offset="1" stop-color="#9BE3F2"/>
</linearGradient>
<linearGradient id="paint43_linear" x1="13.915" y1="120.3" x2="13.915" y2="128.64" gradientUnits="userSpaceOnUse">
<stop offset="1" stop-color="#9BE3F2"/>
</linearGradient>
<linearGradient id="paint44_linear" x1="13.8099" y1="119.341" x2="14.0221" y2="119.453" gradientUnits="userSpaceOnUse">
<stop offset="1" stop-color="#9BE3F2"/>
</linearGradient>
<linearGradient id="paint45_linear" x1="11.745" y1="107.43" x2="11.745" y2="128.48" gradientUnits="userSpaceOnUse">
<stop offset="1" stop-color="#9BE3F2"/>
</linearGradient>
<linearGradient id="paint46_linear" x1="16.6423" y1="120.113" x2="16.8816" y2="120.131" gradientUnits="userSpaceOnUse">
<stop offset="1" stop-color="#9BE3F2"/>
</linearGradient>
<linearGradient id="paint47_linear" x1="14.02" y1="108.78" x2="14.02" y2="125.99" gradientUnits="userSpaceOnUse">
<stop offset="1" stop-color="#9BE3F2"/>
</linearGradient>
<linearGradient id="paint48_linear" x1="15.59" y1="107.15" x2="15.59" y2="127.41" gradientUnits="userSpaceOnUse">
<stop offset="1" stop-color="#9BE3F2"/>
</linearGradient>
<linearGradient id="paint49_linear" x1="12.88" y1="108.87" x2="12.88" y2="127.56" gradientUnits="userSpaceOnUse">
<stop offset="1" stop-color="#9BE3F2"/>
</linearGradient>
<linearGradient id="paint50_linear" x1="7.20166" y1="115.629" x2="15.9882" y2="127.214" gradientUnits="userSpaceOnUse">
<stop offset="1" stop-color="#9BE3F2"/>
</linearGradient>
<linearGradient id="paint51_linear" x1="10.71" y1="130.45" x2="10.71" y2="145.88" gradientUnits="userSpaceOnUse">
<stop offset="1" stop-color="#9BE3F2"/>
</linearGradient>
<linearGradient id="paint52_linear" x1="11.535" y1="130.27" x2="11.535" y2="154.75" gradientUnits="userSpaceOnUse">
<stop offset="1" stop-color="#9BE3F2"/>
</linearGradient>
<linearGradient id="paint53_linear" x1="12.935" y1="130.8" x2="12.935" y2="161.86" gradientUnits="userSpaceOnUse">
<stop offset="1" stop-color="#9BE3F2"/>
</linearGradient>
<linearGradient id="paint54_linear" x1="14.114" y1="146.433" x2="14.3535" y2="146.448" gradientUnits="userSpaceOnUse">
<stop offset="1" stop-color="#9BE3F2"/>
</linearGradient>
<linearGradient id="paint55_linear" x1="16.1935" y1="129.696" x2="18.0469" y2="141.897" gradientUnits="userSpaceOnUse">
<stop offset="1" stop-color="#9BE3F2"/>
</linearGradient>
<linearGradient id="paint56_linear" x1="17.025" y1="129.51" x2="17.025" y2="134.89" gradientUnits="userSpaceOnUse">
<stop offset="1" stop-color="#9BE3F2"/>
</linearGradient>
<linearGradient id="paint57_linear" x1="15.525" y1="131.64" x2="15.525" y2="160.81" gradientUnits="userSpaceOnUse">
<stop offset="1" stop-color="#9BE3F2"/>
</linearGradient>
<linearGradient id="paint58_linear" x1="53" y1="-10" x2="31" y2="144" gradientUnits="userSpaceOnUse">
<stop stop-color="#C8EFF8"/>
<stop offset="0.729167" stop-color="#93E0F1"/>
</linearGradient>
<clipPath id="clip0">
<rect width="99.95" height="168.34" fill="white"/>
</clipPath>
</defs>
</svg>
