<svg width="41" height="151" viewBox="0 0 41 151" fill="none" xmlns="http://www.w3.org/2000/svg">
<g clip-path="url(#clip0)">
<path d="M10.67 47.4C10.67 47.4 5.71999 52.09 4.45999 54.08C3.18999 56.07 2.01999 55.95 1.98999 56.77C1.93999 57.59 3.32999 60 3.53999 60.99C3.75999 61.98 3.70999 64.19 3.49999 65.36C3.27999 66.52 3.13999 66.84 3.37999 67.12C3.62999 67.39 4.47999 68.05 4.60999 68.06C4.73999 68.07 4.50999 70.92 5.54999 71.59C6.58999 72.26 9.37999 73.2 11.68 73.61C13.98 74.01 16.28 74.28 16.28 74.28C16.28 74.28 17.66 60.23 17.69 59.64C17.72 59.05 15.89 50.17 15.89 50.17L10.67 47.4Z" fill="#71F7E3"/>
<path d="M30.43 9.23C30.43 9.23 31.75 9.35 32.01 9.65C32.27 9.94 32.14 11.47 31.8 11.58C31.46 11.69 30.74 11.81 30.74 11.81C30.74 11.81 31.39 12.4 31.3 12.95C31.21 13.5 30.55 13.84 30.55 13.84C30.55 13.84 30.59 14.95 30.53 15.52C30.46 16.1 30.19 16.9 30.09 17.21C29.98 17.51 29.94 17.82 29.93 18.06C29.92 18.31 30.37 19.16 29.87 19.94C29.37 20.72 28.76 20.57 28.25 20.94C27.74 21.32 26.94 21.96 26.94 21.96L26.95 23.69C26.95 23.69 27.61 24.03 27.78 24.34C27.95 24.66 29.47 25.01 30.71 24.91C31.95 24.82 34.55 25.28 35.3 26.89C36.06 28.5 36.42 31.85 36.33 33.88C36.24 35.91 37.19 36.64 37.16 37.84C37.13 39.04 37.04 40.3 37.28 41.11C37.52 41.92 37.91 44.04 37.9 44.32C37.89 44.6 37.24 45.28 37.24 45.28C37.24 45.28 38.02 48.99 38.45 51.04C38.88 53.1 35.96 58.65 36.44 63.13C36.64 65.06 37.99 67.78 38.32 70.31C38.48 71.59 39.05 77.4 39.04 77.34C38.94 76.8 38.83 90.61 38.26 95.25C37.91 98.13 35.86 112.04 35.65 112.74C35.43 113.44 33.21 113.4 31.98 113.37C30.75 113.34 30.38 113.32 30.38 113.32C30.38 113.32 30.32 116.46 29.31 120.39C28.29 124.32 27.07 129.29 27 130.24C26.92 131.19 26.79 132.37 26.79 132.37C26.79 132.37 27.76 132.98 28.17 133.31C28.58 133.64 29.88 134.85 30.92 136.35C31.96 137.85 33.06 138.01 34.15 138.46C35.24 138.91 37.82 139.54 37.94 140.87C38.06 142.2 37.7 143.23 35.29 144.02C32.88 144.8 30.6 144.1 28.73 143.71C26.87 143.31 25.92 143.05 25.18 143.05C24.44 143.05 19.64 142.69 19.28 141.81C18.92 140.93 19.34 139.29 19.34 139.29C19.34 139.29 19.28 137.24 19.33 136.26C19.38 135.28 19.44 133.84 20.05 133.25C20.66 132.66 20.64 132.76 20.64 132.76C20.64 132.76 21.27 129.17 21.42 125.39C21.53 122.37 20.82 119.07 20.68 117.55C20.53 116.03 20.49 114.98 20.49 114.98C20.49 114.98 19.19 115.16 18.44 115.22C17.7 115.27 17.51 115.27 17.51 115.27C17.51 115.27 17.36 117.76 16.32 120.92C15.28 124.08 14.63 126.7 14.13 130.16C13.63 133.62 13.24 137.25 13.24 137.25C13.24 137.25 14.32 137.27 14.55 137.68C14.78 138.09 14.99 138.84 14.96 140.07C14.93 141.3 15.26 142.83 15.26 142.83C15.26 142.83 15.62 145.07 15.38 145.43C15.15 145.79 13.88 146.62 12.68 147C11.49 147.37 10.61 147.77 10.31 148.15C10.02 148.54 8.49001 150.1 6.05001 150.29C3.61001 150.48 0.990009 150.39 0.350009 149.43C-0.279991 148.48 0.0400091 147.54 0.500009 146.97C0.960009 146.41 2.17001 144.98 2.41001 144.41C2.65001 143.84 4.75001 140.67 5.16001 139.83C5.57001 138.99 6.04001 136.96 7.04001 136.6C8.04001 136.25 8.20001 136.84 8.20001 136.84C8.20001 136.84 7.82001 127.79 7.66001 123.96C7.50001 120.13 7.80001 114.44 7.80001 114.44C7.80001 114.44 6.85001 114.27 7.03001 113.7C7.21001 113.12 7.94001 110.84 7.93001 109.73C7.92001 108.62 7.90001 105.75 8.48001 103.9C9.06001 102.05 9.43001 96.73 9.34001 94.2C9.24001 91.67 9.29001 88.74 9.61001 86.56C9.93001 84.38 9.39001 81.4 10.07 78.75C10.75 76.1 10.89 73.11 10.89 73.11L11.1 70.71C11.1 70.71 10.1 67.12 10.35 65.62C10.6 64.12 11 60.38 11.11 57.91C11.23 55.45 10.04 52.4 9.99001 50.27C9.94001 48.14 10.29 44.52 10.29 44.52C10.29 44.52 8.41001 43.94 6.75001 43.8C5.09001 43.66 3.59001 43.53 3.57001 42.66C3.55001 41.8 4.05001 40.34 4.42001 38.44C4.79001 36.55 5.11001 32.95 6.14001 31.4C7.17001 29.85 9.01001 27.34 10.54 26.43C12.06 25.52 15.39 23.7 16.22 23.09C17.05 22.48 17.52 22.38 17.52 22.38C17.52 22.38 18.53 21.22 18.39 20.17C18.25 19.11 17.45 17.9 17.45 17.9C17.45 17.9 16.37 17.59 16.19 16.84C16.01 16.09 14.9 15.08 14.61 14.33C14.25 13.39 12.78 11.57 12.84 10.27C12.9 8.98 13.23 8.5 13.02 7.75C12.81 7 13.44 5.36 14.18 4.72C14.92 4.08 16.17 2.99 16.37 2.14C16.57 1.28 18.21 1.06 18.75 0.649998C19.29 0.239998 21.84 -0.160002 22.85 0.0399978C23.86 0.239998 24.67 0.709998 25.49 0.959998C26.31 1.21 27 1.03 27.8 1.72C28.6 2.41 29.26 3.36 29.24 3.76C29.22 4.16 28.97 4.95 28.97 4.95C28.97 4.95 29.53 5.56 29.6 6.58C29.67 7.6 30.17 8.18 30.31 8.62C30.43 9.08 30.43 9.23 30.43 9.23Z" fill="url(#paint0_linear)"/>
<path d="M28.04 24.58C28.04 24.58 28.36 23.98 29.82 24.14C31.28 24.31 34.43 24.52 35.49 26.36C36.54 28.2 36.82 30.69 36.88 32.75C36.95 34.81 36.9 35.72 36.66 36.78C36.41 37.84 35.94 38.93 35.87 39.02C35.8 39.11 35.75 39.57 35.75 39.57C35.75 39.57 35.97 40.49 36.01 40.92C36.06 41.35 35.79 42.74 35.75 42.99C35.7 43.25 34.7 43.82 34.7 43.82C34.7 43.82 34.28 43.05 34.45 42.11C34.62 41.17 35.15 39.67 35.09 38.23C35.03 36.79 34.28 35.42 33.9 33.12C33.52 30.82 32.41 28 31.53 26.78C30.64 25.59 28.04 24.58 28.04 24.58Z" fill="#71F7E3"/>
<path d="M10.32 26.49C10.32 26.49 10.21 25.44 10.84 25.15C11.47 24.86 12.82 24.07 13.51 23.87C14.2 23.68 15.37 23.83 16.24 25.56C17.1 27.3 18.14 29.5 17.99 32.1C17.83 34.7 17.46 36.31 16.92 37.53C16.37 38.74 16.07 39.64 16.07 39.64C16.07 39.64 16.78 41.11 16.63 41.65C16.47 42.2 16.47 42.2 16.47 42.2C16.47 42.2 16.85 43.16 16.73 43.52C16.62 43.87 15.69 44.87 15.69 44.87C15.69 44.87 14.57 47.2 13.83 51.92C13.09 56.64 11.69 60.31 11.41 60.65C11.13 61 10.79 58.2 10.86 57.42C10.93 56.64 11.94 52.55 12.15 50.18C12.36 47.81 13.48 44.08 13.48 44.08C13.48 44.08 13.38 42.74 13.53 42.42C13.67 42.1 13.79 41 13.79 41C13.79 41 13.62 39.66 13.66 38.94C13.7 38.23 13.01 36.2 13.36 32.83C13.72 29.46 13.04 27.17 12.31 26.72C11.57 26.25 10.32 26.49 10.32 26.49Z" fill="#71F7E3"/>
<path d="M17.35 69.2C17.35 69.2 14.46 64.69 13.84 62.55C13.23 60.42 10.9 55.04 10.35 54.11C9.80002 53.18 10.13 53.07 10.42 52.02C10.72 50.97 11.62 47.07 11.77 45.66C11.93 44.25 11.99 44.12 11.99 44.12C11.99 44.12 9.53002 43.67 7.74002 43.52C5.94002 43.38 4.51002 43.38 4.51002 43.38C4.51002 43.38 4.31002 49.12 4.05002 51.64C3.80002 54.16 3.37002 55.28 4.03002 56.69C4.69002 58.11 6.47002 62.52 8.43002 64.97C10.39 67.42 12.13 70.47 12.61 71.17C13.09 71.87 13.72 72.57 13.72 72.57C13.72 72.57 15.38 71.51 16.11 70.61C16.84 69.74 17.35 69.2 17.35 69.2Z" fill="#A3FAED"/>
<path d="M35.02 46.22C35.02 46.22 35.91 46.11 36.52 45.7C37.13 45.29 37.5 44.88 37.5 44.88C37.5 44.88 39.82 53.86 40.39 60.8C40.67 64.21 40.39 63.9 39.81 70.08C39.62 72.05 38.74 74.65 38.74 74.65C38.74 74.65 37.57 70.18 37.32 69.28C37.07 68.38 36.42 63.51 36.35 58.99C36.29 55.45 35.13 50.37 35.05 49.04C34.95 47.69 35.02 46.22 35.02 46.22Z" fill="#A3FAED"/>
</g>
<defs>
<linearGradient id="paint0_linear" x1="19.5192" y1="-0.0131378" x2="19.5192" y2="150.371" gradientUnits="userSpaceOnUse">
<stop stop-color="#68EBDB"/>
<stop offset="1" stop-color="#9BE3F2"/>
</linearGradient>
<clipPath id="clip0">
<rect width="40.5" height="150.36" fill="white"/>
</clipPath>
</defs>
</svg>
