<svg width="82" height="135" viewBox="0 0 82 135" fill="none" xmlns="http://www.w3.org/2000/svg">
<g clip-path="url(#clip0)">
<path d="M36.94 115.94C36.94 115.94 37.24 120.03 37.11 122.17C36.99 124.31 36.42 128.6 34.82 130.31C33.21 132.01 30.14 132.26 28.5 131.71C26.85 131.17 25.81 129.33 25.75 128.3C25.7 127.28 26.05 125.72 26.05 125.72C26.05 125.72 27.71 126.42 27.75 126.54C27.8 126.66 28.23 129.63 29.03 130.5C29.83 131.37 30.1 131.39 30.93 131.27C31.75 131.15 34.17 129.08 34.98 127.26C35.79 125.44 36.04 124.84 36.32 122.69C36.66 120.1 36.14 116.97 36.14 116.97L36.94 115.94Z" fill="#92BEF4"/>
<path d="M64.79 24.87C64.79 24.87 64.67 24.41 64.13 24.17C63.59 23.94 63.16 23.78 63.16 23.78L63.24 23.43C63.24 23.43 64.25 23.47 64.75 22.58C65.25 21.69 65.41 21.38 65.99 20.76C66.57 20.14 67.65 18.56 67.69 17.24C67.73 15.92 67.42 15.42 67.53 14.96C67.65 14.5 67.99 13.99 67.95 13.72C67.91 13.45 67.95 13.33 68.14 12.94C68.4 12.42 68.6 11.94 68.33 11.01C68.06 10.08 68.14 9 68.18 8.26C68.22 7.53 67.87 6.87 67.87 6.87C67.87 6.87 68.41 5.79 66.52 3.93C64.62 2.07 60.84 -0.630002 55.5 0.0999978C50.16 0.829998 48.27 5.67 48.27 8.72C48.27 11.77 48.85 13.94 49.97 15.84C51.09 17.73 51.94 18.66 52.29 18.86C52.64 19.05 52.75 20.17 52.64 20.87C52.52 21.57 52.37 21.91 52.37 21.91C52.37 21.91 50.01 21.64 49.2 21.99C48.39 22.34 48.12 22.76 48.12 23.5C48.12 24.23 46.81 24.7 46.81 25.01C46.81 25.32 47 25.55 47 25.55C47 25.55 42.51 26.75 40.97 30.19C39.42 33.63 38.88 34.95 38.88 34.95C38.88 34.95 37.68 37.35 36.91 39.94C36.14 42.53 34.55 46.09 34.59 47.52C34.63 48.95 35.05 49.72 35.05 49.72C35.05 49.72 34.66 50.88 34.82 51.15C34.98 51.42 35.13 51.81 35.13 51.81C35.13 51.81 33.62 57.22 33.31 58.85C33 60.47 31.3 66.62 31.18 67.67C31.06 68.71 31.03 69.33 31.03 69.53C31.03 69.72 32.27 69.76 33.66 69.92C35.05 70.08 37.68 70.65 37.95 70.35C38.22 70.04 37.91 68.84 38.34 67.02C38.77 65.2 38.84 63.89 39.23 62.26C39.62 60.64 40.24 58.9 40.24 58.9C40.24 58.9 39.78 64.78 40.82 69.42C41.86 74.06 41.98 76.96 42.13 78.08C42.28 79.2 41.9 80.28 42.21 80.59C42.52 80.9 46.08 80.78 46.08 80.78C46.08 80.78 46.47 83.8 46.43 85.61C46.39 87.43 47.59 88.51 47.17 88.9C46.74 89.29 45.31 90.02 44.81 91.57C44.31 93.12 44.73 95.94 44.27 96.6C43.81 97.26 41.99 100.35 42.22 102.05C42.45 103.75 42.76 104.41 42.65 105.38C42.53 106.35 42.38 107.12 42.38 107.12C42.38 107.12 41.34 108.59 40.29 110.45C39.25 112.31 39.98 114.28 39.98 114.28C39.98 114.28 40.13 116.14 38.59 118.5C37.04 120.86 38.01 124.07 39.21 125.23C40.41 126.39 42.92 127.09 44.47 126.54C46.02 126 46.94 124.41 46.87 122.6C46.79 120.78 46.72 119.24 47.37 117.73C48.03 116.22 48.38 115.02 48.38 115.02C48.38 115.02 51.28 112.89 51.44 111.85C51.59 110.81 50.98 108.49 50.74 107.83C50.51 107.17 50.32 107.13 50.82 106.24C51.32 105.35 51.59 104.27 52.06 102.64C52.52 101.02 53.88 100.13 54.3 98.35C54.73 96.57 54.84 95.68 55.85 94.6C56.86 93.52 57.13 93.21 57.13 93.21C57.13 93.21 56.82 97.04 56.43 97.97C56.04 98.9 56.35 99.56 56.04 101.1C55.73 102.65 55.11 102.92 54.96 105.04C54.81 107.17 55.7 107.98 55.27 109.1C54.84 110.22 53.72 113.24 53.65 114.55C53.57 115.86 53.22 117.3 52.61 118.53C51.99 119.77 51.91 122.51 52.11 123.09C52.3 123.67 52.57 123.94 52.57 123.94C52.57 123.94 52.45 125.22 52.45 125.68C52.45 126.14 52.91 126.3 52.91 126.3C52.91 126.3 52.48 126.73 52.45 127.27C52.41 127.81 52.45 128.86 52.84 129.24C53.23 129.63 54.93 129.7 56.9 129.78C58.87 129.86 59.57 129.82 60.57 129.24C61.58 128.66 62.46 128.47 63.55 128.58C64.63 128.7 66.45 128.46 67.07 127.46C67.69 126.46 67.46 124.95 67.26 124.06C67.07 123.17 65.83 122.32 65.09 122.13C64.35 121.94 63.31 122.32 63.31 122.32C63.31 122.32 64.01 120.58 64.2 119.73C64.39 118.88 64.32 117.99 64.01 117.72C63.7 117.45 63.7 117.45 63.7 117.45C63.7 117.45 64.55 117.49 65.21 114.94C65.87 112.39 66.49 109.26 67.22 107.28C67.95 105.31 69.35 102.56 69.46 100.55C69.58 98.54 69.11 97.57 69.42 96.8C69.73 96.03 70.31 93.32 70.35 91.46C70.39 89.6 70.2 88.1 70.78 85.04C71.36 81.98 71.13 79.9 71.13 79.9C71.13 79.9 72.33 79.32 72.17 78.7C72.01 78.08 71.55 78.39 71.78 76.65C72.01 74.91 71.55 73.75 71.55 71.58C71.55 69.42 72.36 66.51 71.74 63.15C71.12 59.79 71.51 58.59 71.31 55.92C71.12 53.25 69.84 49.62 69.84 49.62C69.84 49.62 72.59 50.67 73.9 50.42C75.22 50.16 75.68 50.13 75.68 50.13C75.68 50.13 76.34 50.87 76.96 50.98C77.58 51.1 78.85 51.13 79.71 50.09C80.56 49.05 82.42 46.26 81.95 44.71C81.49 43.16 81.25 43.12 81.22 42.89C81.18 42.66 82.15 41.81 81.03 41C79.91 40.19 78.86 39.03 77.82 37.6C76.78 36.17 76.27 33.35 75.46 32.11C74.65 30.87 73.49 30.45 72.25 29.13C71.01 27.82 70.39 27.27 68.77 26.62C67.11 25.96 64.79 24.87 64.79 24.87Z" fill="url(#paint0_linear)"/>
<path d="M37.9 85.95C37.83 85.72 37.15 84.65 36.81 83.74C36.48 82.83 35.6 82.08 35.62 81.37C35.64 80.67 35.5 80.27 35.39 79.58C35.29 78.9 34.58 78 34.29 77.11C33.99 76.22 33.94 75.87 33.57 75.6C33.2 75.34 32.92 75.34 32.92 75.34C32.92 75.34 32.73 75.53 32.55 75.58C32.38 75.63 32.38 75.63 32.38 75.63C32.38 75.63 33.03 75.58 33.03 76.1C33.03 76.31 32.93 76.5 32.87 76.64C32.82 76.78 33.15 76.37 33.4 76.46C33.84 76.64 33.82 77.44 34.07 77.88C34.31 78.32 34.91 79.46 35.02 80.3C35.12 81.14 34.67 82.19 35 83.05C35.33 83.91 35.84 85.52 36.14 85.87C36.42 86.24 37.9 85.95 37.9 85.95Z" fill="#92BEF4"/>
<path d="M32.03 75.75C32.03 75.75 31.73 76.28 31.94 76.56C32.15 76.84 32.15 76.84 32.15 76.84L31.73 77.07C31.73 77.07 31.12 76.7 30.96 77.16C30.8 77.62 30.8 77.62 30.8 77.62C30.8 77.62 29.92 77.95 29.57 78.34C29.22 78.73 28.59 79.25 28.13 80.27C27.67 81.29 27.39 82.48 27.15 82.78C26.9 83.08 25.47 83.02 24.98 83.06C24.49 83.09 24.42 82.78 24.42 82.78C24.42 82.78 25.33 82.8 26.36 81.9C27.39 81.01 27.74 80.17 27.95 79.59C28.16 79.01 28.07 78.21 28.49 77.63C28.91 77.05 29.4 76.49 29.89 76.3C30.4 76.08 32.03 75.75 32.03 75.75Z" fill="#92BEF4"/>
<path d="M0.64001 119.07C0.86001 118.64 1.18001 117.61 1.57001 116.3C2.57001 116.38 4.05001 116.49 5.37001 116.61C7.66001 116.81 13.3 117.53 15.98 118.2C18.66 118.88 26.12 119.99 26.12 119.99C26.12 119.99 26.12 119.99 27.42 120.23C28.72 120.47 31.32 121.38 32.59 122.22C33.37 122.74 34.23 123.26 34.77 123.58C34.5 124.18 34.29 124.75 34.2 125.29C33.92 126.96 33.14 129.75 30.85 130.1C28.56 130.46 23 128.75 20.32 128.19C17.64 127.63 11.6 127.71 10.3 127.28C9.00001 126.84 8.53001 125.73 7.07001 125.01C5.61001 124.29 1.67001 123.7 0.64001 122.5C-0.37999 121.29 -0.0299904 120.38 0.64001 119.07Z" fill="url(#paint1_linear)"/>
<path d="M27.42 120.3C26.12 120.06 26.12 120.06 26.12 120.06C26.12 120.06 18.67 118.96 15.98 118.29C13.3 117.62 7.66001 116.91 5.37001 116.71C4.04001 116.6 2.57001 116.48 1.57001 116.41C2.37001 113.73 3.45001 109.85 4.51001 107.41C6.09001 103.78 7.51001 101.06 8.14001 99.8C8.77001 98.54 9.56001 95.07 10.31 92.94C11.06 90.81 11.65 88.8 12.52 87.38C13.39 85.96 14.49 84.7 16.07 84.42C17.65 84.14 18.91 83.91 19.78 83.67C20.65 83.43 23.31 82.76 23.31 82.76C24.05 82.64 25.03 82.09 26.15 82.11C27.27 82.13 27.78 82.92 30.14 83.25C32.51 83.58 34.2 83.99 35.22 83.9C36.24 83.81 36.85 84.14 37.59 84.92C38.26 85.63 38.12 86.23 38.94 86.34C39.76 86.44 41.82 86.84 42.25 87.5C42.55 87.96 42.81 88.99 42.2 90.86C41.59 92.73 40.64 97.83 40.1 100.93C39.56 104.03 38.82 109.95 38.23 111.76C37.63 113.56 37.27 114.76 37.2 115.56C37.13 116.37 37.34 118.1 36.66 119.83C36.19 121.01 35.36 122.36 34.79 123.62C34.25 123.3 33.39 122.79 32.61 122.28C31.32 121.45 28.72 120.54 27.42 120.3Z" fill="#9BE3F2"/>
<path d="M26.57 121.08C26.64 120.94 28.41 117.51 28.84 115.22C29.1 113.83 29.68 111.5 30.2 109.44C30.53 108.09 30.85 106.82 31.05 105.92C31.26 104.97 33.15 96.59 33.92 94.27C34.71 91.9 35.23 90.11 34.67 88.67L34.56 88.38C34.1 87.18 33.86 86.57 32.75 86.62C31.71 86.66 30.99 87.17 30.34 88.32C30.17 88.62 30.01 88.91 29.87 89.18C29.61 89.67 29.52 90.08 29.22 90.3C28.9 90.44 27.4 90.75 25.64 89.46C24.75 88.81 23.92 88.24 23.12 87.69C22.23 87.08 21.39 86.5 20.56 85.88C18.6 84.41 17.11 83.86 16.01 84.19C14.7 84.58 13.74 85.25 13.08 86.22L12.49 87.46C12.49 87.46 12.84 86.99 13.41 86.28C13.97 85.57 14.93 85.02 16.15 84.65C17.1 84.37 18.45 84.9 20.28 86.27C21.12 86.9 21.96 87.48 22.86 88.09C23.66 88.64 24.48 89.21 25.37 89.86C27.34 91.3 29.03 91.01 29.52 90.69C29.66 90.59 29.98 90.24 30.3 89.42C30.41 89.14 30.6 88.86 30.77 88.57C31.33 87.57 31.91 87.15 32.78 87.11C33.54 87.08 33.65 87.32 34.13 88.56L34.24 88.85C34.74 90.15 34.24 91.86 33.49 94.13C32.71 96.48 30.82 104.88 30.61 105.83C30.41 106.72 30.09 107.99 29.76 109.34C29.25 111.41 28.67 113.75 28.4 115.15C27.98 117.38 26.19 120.85 26.17 120.88L26.57 121.08Z" fill="#92BEF4"/>
<path d="M33.41 107.84C33.41 107.84 35.22 102.04 35.62 97.66C36.01 93.28 36.13 88.71 35.58 87.29C35.03 85.87 34.79 85.28 34.28 85.04C33.77 84.8 33.14 85.04 33.14 85.04L32.63 85.47C32.63 85.47 33.81 85 34.37 85.75C34.92 86.5 35.55 87.25 35.55 90.72C35.55 94.19 35.04 97.86 34.56 100.7C34.09 103.54 32.82 107.6 32.82 107.6L33.41 107.84Z" fill="#92BEF4"/>
<path d="M31.48 86.78C31.48 86.78 29.82 87.41 28.52 86.82C27.22 86.23 25.68 84.77 24.89 84.18C24.1 83.59 22.92 83.12 22.56 83.04C22.21 82.96 22.34 83.02 22.34 83.02L21.1 83.32C21.1 83.32 22.25 83.29 23.7 84.39C25.39 85.66 27.29 86.83 29.06 87.31C30.1 87.57 31.48 86.78 31.48 86.78Z" fill="#92BEF4"/>
<path d="M30.22 129.26L29.19 131.78C29.19 131.78 29.07 133.87 27.45 134.15C25.83 134.43 25.08 132.49 25.08 132.49C25.08 132.49 23.94 130.64 23.94 130.2C23.94 129.77 24.41 128.23 24.41 128.23L30.22 129.26Z" fill="#92BEF4"/>
<path d="M22.1 127.92C22.1 127.92 20.44 130.46 20.33 130.61C20.21 130.76 18.44 130.16 18.44 129.93C18.44 129.7 18.87 127.24 18.87 127.24L22.1 127.92Z" fill="#92BEF4"/>
<path d="M9.04002 125.55C9.04002 125.55 7.23002 125.62 7.03002 125.65C6.83002 125.68 5.89002 127.59 5.69002 127.62C5.49002 127.65 3.56002 127.29 3.56002 127C3.56002 126.7 3.52002 123.38 3.52002 123.38C3.52002 123.38 8.13002 124.33 8.29002 124.4C8.45002 124.46 9.04002 125.55 9.04002 125.55Z" fill="#92BEF4"/>
<path d="M30.5 107.21C30.5 107.21 32.35 107.17 34.56 108.24C36.77 109.3 38.62 110.08 38.62 110.08L38.35 111.32C38.35 111.32 36.88 110.95 35.86 110.25C34.83 109.54 32.86 108.79 31.84 108.63C30.81 108.47 30.1 108.47 30.1 108.47L30.5 107.21Z" fill="#92BEF4"/>
<path d="M16.42 126.73L15.39 129.25C15.39 129.25 15.27 131.34 13.65 131.62C12.03 131.9 11.28 129.96 11.28 129.96C11.28 129.96 10.14 128.11 10.14 127.67C10.14 127.24 10.61 125.7 10.61 125.7L16.42 126.73Z" fill="#92BEF4"/>
<path d="M37.25 70.3C37.25 70.3 37.08 71.81 36.81 72.13C36.54 72.45 36.54 72.45 36.54 72.45C36.54 72.45 36.94 74.4 37.07 75.02C37.17 75.49 37.27 76.69 36.95 77.27C36.63 77.85 36.54 78.44 36.17 78.35C35.8 78.26 35.82 77.75 35.91 77.31C36.03 76.73 35.68 75.6 35.3 75.74C34.93 75.87 34.83 76.61 34.66 77.12C34.49 77.63 34.57 78.48 34.72 78.63C34.86 78.78 35.28 79.13 35.02 79.56C34.78 79.96 34.16 79.65 33.63 79.36C33.2 79.12 33.08 78.23 33.08 78.23C33.08 78.23 32.84 78.74 32.33 78.43C31.82 78.12 31.7 77.59 31.7 77.59C31.7 77.59 30.89 77.63 30.58 76.85C30.32 76.19 30.01 75.1 30.16 74.11C30.31 73.12 30.94 72.11 31.28 71.79C31.62 71.47 32.07 68.28 32.39 67.63C32.73 66.96 37.25 70.3 37.25 70.3Z" fill="#57D0EA"/>
</g>
<defs>
<linearGradient id="paint0_linear" x1="56.5275" y1="-0.0222626" x2="56.5275" y2="129.811" gradientUnits="userSpaceOnUse">
<stop offset="0.145833" stop-color="#A7E6F4"/>
<stop offset="1" stop-color="#4ACBD2"/>
</linearGradient>
<linearGradient id="paint1_linear" x1="17.3848" y1="116.3" x2="17.3848" y2="130.149" gradientUnits="userSpaceOnUse">
<stop offset="0.145833" stop-color="#A7E6F4"/>
<stop offset="1" stop-color="#4ACBD2"/>
</linearGradient>
<clipPath id="clip0">
<rect width="81.99" height="134.17" fill="white"/>
</clipPath>
</defs>
</svg>
