<svg width="61" height="218" viewBox="0 0 61 218" fill="none" xmlns="http://www.w3.org/2000/svg">
<g clip-path="url(#clip0)">
<path d="M8.82999 55.18C8.82999 55.18 7.90999 65.23 7.90999 67.81C7.90999 70.39 7.16999 77.76 6.98999 82.46C6.80999 87.16 5.78999 93.06 5.78999 95.18C5.78999 97.3 6.33999 98.96 7.72999 98.5C9.10999 98.04 9.65999 96.2 9.65999 94.54C9.65999 92.88 9.65999 91.87 9.65999 91.87L9.01999 91.69C9.01999 91.69 8.83999 97.31 7.53999 97.59C6.24999 97.87 6.52999 93.99 6.89999 91.78C7.26999 89.57 8.09999 85.33 8.36999 82.47C8.64999 79.61 10.03 68.64 9.83999 65.05C9.64999 61.44 8.82999 55.18 8.82999 55.18Z" fill="#9BE3F2"/>
<path d="M51.59 60.76C51.59 60.76 53.72 58.31 54.23 58.05C54.75 57.79 55.33 58.11 56.81 58.44C58.29 58.76 58.49 59.02 57.84 59.92C57.2 60.82 55.97 61.92 55.97 61.92L49.26 63.92L51.59 60.76Z" fill="#22DDBE"/>
<path d="M51.91 60.89L54.36 58.37L56.81 59.01L54.94 61.01C54.95 61.02 51.72 60.89 51.91 60.89Z" fill="#9BE3F2"/>
<path d="M38.95 64.83C39.14 64.64 41.79 63.02 42.56 61.67C43.33 60.32 44.17 58.32 45.14 57.86C46.11 57.41 47.14 57.28 48.43 57.28C49.72 57.28 50.49 56.89 50.95 57.93C51.4 58.96 51.4 58.96 51.4 58.96L46.11 63.41L39.6 68.83L38.95 64.83Z" fill="#28C4AD"/>
<path d="M11.22 105.5C11.22 105.5 9.46999 105.41 8.81999 105.04C8.16999 104.67 8.16999 104.67 8.16999 104.67L8.07999 103.38C8.07999 103.38 6.59999 102.74 6.41999 103.01C6.23999 103.29 6.23999 104.39 6.23999 104.39C6.23999 104.39 4.94999 104.11 3.74999 104.39C2.54999 104.67 2.17999 106.6 2.36999 107.61C2.54999 108.62 1.99999 111.48 1.99999 112.31C1.99999 113.14 1.99999 113.51 1.99999 113.51C1.99999 113.51 0.429993 116.27 0.429993 118.03C0.429993 119.78 0.339993 124.76 0.0599934 126.33C-0.220007 127.9 0.429993 128.45 0.429993 128.45C0.429993 128.45 -0.0300066 129.83 1.71999 130.2C3.46999 130.57 6.23999 129.55 9.64999 129.55C13.06 129.55 14.44 129.09 16.47 129.27C18.5 129.45 19.33 128.26 18.68 125.21C18.04 122.17 12.41 109.17 12.41 109.17L11.22 105.5Z" fill="#9BE3F2"/>
<path d="M18.6 24.9C18.6 24.9 19.5 29.32 17.57 32.7C15.64 36.09 14.28 37.73 14.28 37.73C14.28 37.73 11.96 38.12 11.57 39.28C11.18 40.44 10.12 44.22 9.35 46.34C8.58 48.47 8.38 50.89 8.77 51.47C9.16 52.05 9.35 52.54 9.35 52.54C9.35 52.54 8.09 52.54 8.87 59.89C9.65 67.24 9.16 72.57 8.48 78.56C7.8 84.56 6.84 91.33 8.48 93.66C10.12 95.98 11.38 96.17 11.58 96.85C11.77 97.53 11.68 98.3 11.19 99.75C10.71 101.2 9.16 107.2 10.8 112.81C12.44 118.42 16.12 121.13 17.67 127.13C19.22 133.13 20.09 144.64 20.86 149C21.63 153.35 20.86 159.84 19.89 165.26C18.92 170.68 17.76 175.32 18.15 183.55C18.54 191.77 18.34 198.64 19.31 200.68C20.28 202.71 20.57 203.39 19.6 204.16C18.63 204.93 18.83 205.9 19.31 206.29C19.79 206.68 19.79 206.1 19.79 206.68C19.79 207.26 19.21 208.32 19.11 208.9C19.01 209.48 19.59 209.68 19.59 209.68C19.59 209.68 18.43 212.29 18.43 214.13C18.43 215.97 18.62 216.84 19.98 217.13C21.33 217.42 26.85 217.81 28.3 217.42C29.75 217.03 32.56 217.42 34.68 217.71C36.81 218 42.81 217.9 45.81 216.94C48.81 215.97 49.29 214.91 49 214.04C48.71 213.17 48.32 213.07 48.32 213.07C48.32 213.07 50.64 212.68 52.58 212.01C54.51 211.33 55.19 209.2 54.13 208.43C53.07 207.66 52.1 207.95 49.29 206.79C46.48 205.63 42.9 204.08 41.84 203.79C40.77 203.5 39.9 203.11 39.9 203.11C39.9 203.11 39.71 202.05 39.13 201.66C38.55 201.27 36.32 199.44 36.03 198.76C35.74 198.08 36.9 197.31 35.45 193.53C34 189.76 32.74 182.21 32.74 179.11C32.74 176.01 32.55 169.34 33.61 166.43C34.67 163.53 37.38 158.88 37.38 156.08C37.38 153.27 38.83 143.79 39.8 139.44C40.77 135.09 41.44 122.31 41.54 116.89C41.63 111.47 40.18 104.7 40.18 104.7C40.18 104.7 40.86 103.25 40.86 102.67C40.86 102.09 40.28 98.99 40.18 98.7C40.08 98.41 43.37 94.73 42.5 90.67C41.63 86.61 41.05 80.42 40.76 74.8C40.47 69.19 40.18 66.86 40.28 63.67C40.38 60.48 39.99 58.15 37.76 54.19C35.54 50.22 33.41 45.97 32.15 44.03C30.89 42.09 27.89 39.58 27.89 39.58L28.28 38.61C28.28 38.61 29.63 40.35 31.37 40.35C33.11 40.35 32.92 38.71 33.5 38.71C34.08 38.71 34.24 38.9 34.69 38.9C35.14 38.9 35.3 38.38 35.27 38.06C35.24 37.74 35.17 37.61 35.17 37.61C35.17 37.61 36.2 37.77 36.36 37.45C36.52 37.13 36.49 36.68 36.62 36.45C36.75 36.22 36.94 36 36.94 36C36.94 36 37.71 36.48 38.39 36.39C39.07 36.29 39.16 35.62 39.13 35C39.1 34.39 39.1 32.9 39.32 32.1C39.55 31.29 40.19 30.81 40.9 30.65C41.61 30.49 42.09 30.07 42.45 28.97C42.8 27.88 43.25 26.78 43.38 24.71C43.51 22.65 42.83 20.94 42.83 20.94C42.83 20.94 42.6 16.65 39.38 12.81C36.15 8.97 32.87 8.45 31.61 8.29C30.35 8.13 27.8 8.25 27.8 8.25C27.8 8.25 28.31 7.61 28.47 7C28.63 6.39 28.21 4.94 27.89 4.29C27.57 3.65 26.7 3.32 25.79 2.16C24.89 1 24.18 0.900002 22.89 0.480002C21.6 0.0600023 19.21 -0.259998 18.5 0.290002C17.79 0.840002 17.82 1.13 16.95 1.32C16.08 1.51 14.82 1.77 14.43 2.16C14.04 2.55 12.88 3.48 12.49 3.51C12.1 3.54 11.2 4.03 10.91 4.9C10.62 5.77 9.17 6.19 8.94 7.19C8.71 8.19 9.13 8.64 9.13 8.64C9.13 8.64 8.99 7.55 9.6 7.06C10.21 6.58 10.47 6.67 10.47 6.67C10.47 6.67 9.83 7.54 9.99 8.35C10.15 9.16 10.18 9.48 10.18 9.48C10.18 9.48 9.54 9.61 9.15 10.71C8.76 11.81 9.41 12.26 9.44 12.68C9.47 13.1 8.89 13.78 9.05 14.2C9.21 14.62 9.21 14.62 9.21 14.62C9.21 14.62 8.5 15.65 8.53 16.46C8.56 17.27 8.69 17.65 8.56 17.88C8.43 18.1 8.43 18.1 8.43 18.1C8.43 18.1 8.91 17.91 8.88 17.23C8.85 16.55 9.01 15.97 9.27 15.91C9.53 15.85 9.72 15.85 9.72 15.85C9.72 15.85 9.43 16.79 9.62 17.69C9.81 18.59 9.33 19.17 9.33 19.17C9.33 19.17 9.98 18.46 9.94 17.75C9.91 17.04 10.17 16.88 10.17 16.88C10.17 16.88 10.65 18.49 10.52 19.2C10.39 19.91 10.62 20.33 10.78 20.78C10.94 21.23 10.68 21.52 10.68 21.52C10.68 21.52 11.32 21.39 11.07 20.62C10.81 19.85 11.23 19.49 11.23 19.49C11.23 19.49 11.52 20.91 12.07 21.52C12.62 22.13 13.13 22 13.36 22.59C13.59 23.17 13.68 24.17 14.62 24.69C15.56 25.21 16.56 25.95 17.26 25.82C17.82 25.7 18.6 24.9 18.6 24.9Z" fill="url(#paint0_linear)"/>
<path d="M8.86 102.54C8.58 102.06 8.13 101.59 8.13 101.59C8.13 101.59 8.14 101.06 8.21 100.75C8.28 100.44 8.27 100.33 8.27 99.72C8.27 99.11 8.21 98.17 8.19 97.97C8.16 97.77 7.6 97.9 7.45 98.05C7.3 98.2 7.2 98.73 7.19 99.17C7.18 99.6 7.13 100.41 7.12 100.76C7.11 101.11 7.16 101.67 7.16 101.67C7.16 101.67 6.35 102.31 6.13 102.66C5.91 103.01 6.11 103.54 6.42 103.67C6.73 103.8 8.03 103.98 8.39 103.82C8.75 103.67 9.14 103.01 8.86 102.54ZM8.32 103.07C8.24 103.27 7.89 103.37 7.41 103.34C6.93 103.31 6.42 103.1 6.57 102.96C6.72 102.82 7.24 102.32 7.24 102.32C7.24 102.32 7.4 102.57 7.63 102.52C7.87 102.46 7.92 102.42 7.92 102.42C7.92 102.42 8.4 102.87 8.32 103.07Z" fill="#9BE3F2"/>
<path d="M41.53 64.89C42.11 63.86 44.11 62.63 45.01 61.54C45.91 60.44 48.56 58.31 49.4 58.12C50.24 57.93 51.98 57.93 52.43 57.93C52.88 57.93 54.11 58.32 53.27 59.22C52.43 60.12 52.43 60.12 52.43 60.12C52.43 60.12 53.46 60.18 55.27 60.31C57.08 60.44 59.01 60.44 59.46 60.89C59.91 61.34 60.17 61.92 59.91 62.37C59.65 62.82 59.65 62.82 59.65 62.82C59.65 62.82 60.17 63.27 59.97 63.98C59.77 64.69 59.39 65.14 58.74 65.21C58.1 65.27 55.65 65.14 55.32 65.53C55 65.92 54.93 66.69 54.29 67.01C53.64 67.33 53.39 68.3 52.61 68.69C51.84 69.08 49.77 69.72 48.09 69.66C46.41 69.6 45.06 69.92 44.29 71.34C43.52 72.76 37.13 79.59 35.71 81.53C34.29 83.47 31.65 84.88 32.29 84.43C32.93 83.98 34.48 82.11 33.84 78.82C33.2 75.53 32.03 74.5 32.03 74.5C32.03 74.5 36.29 71.15 37.64 69.53C39.01 67.92 41.53 64.89 41.53 64.89Z" fill="#28C4AD"/>
</g>
<defs>
<linearGradient id="paint0_linear" x1="31.1023" y1="-0.00236511" x2="31.1023" y2="217.853" gradientUnits="userSpaceOnUse">
<stop stop-color="#94EBE0"/>
<stop offset="1" stop-color="#50CBC3"/>
</linearGradient>
<clipPath id="clip0">
<rect width="60.02" height="217.85" fill="white"/>
</clipPath>
</defs>
</svg>
