<svg width="46" height="41" viewBox="0 0 46 41" fill="none" xmlns="http://www.w3.org/2000/svg">
<path d="M43.8559 30.8976H2.14407C0.974576 30.8976 0 29.9464 0 28.7328V2.1648C0 0.9512 0.94209 0 2.14407 0H43.8559C45.0254 0 46 0.9512 46 2.1648V28.7656C46 29.9464 45.0579 30.8976 43.8559 30.8976Z" fill="#0069AA"/>
<path d="M44.1158 2.6568H1.94916V27.1256H44.1158V2.6568Z" fill="#E6E6E6"/>
<path d="M23 30.0776C23.5562 30.0776 24.0071 29.6224 24.0071 29.0608C24.0071 28.4992 23.5562 28.044 23 28.044C22.4439 28.044 21.993 28.4992 21.993 29.0608C21.993 29.6224 22.4439 30.0776 23 30.0776Z" fill="#00559B"/>
<path d="M25.5339 34.2432V30.8976H23H20.4661V34.2432H25.5339Z" fill="#0069AA"/>
<path d="M44.0833 2.62399H1.94916V4.75599H44.0833V2.62399Z" fill="white"/>
<path d="M27.2232 35.9816H18.8093C18.2246 35.9816 17.7373 35.4896 17.7373 34.8992V34.604C17.7373 34.0136 18.2246 33.5216 18.8093 33.5216H27.2232C27.8079 33.5216 28.2952 34.0136 28.2952 34.604V34.8992C28.2952 35.4896 27.8079 35.9816 27.2232 35.9816Z" fill="#0069AA"/>
<path opacity="0.3" d="M40.2175 36.08H37.6836C37.8135 35.752 37.911 35.424 37.911 35.0304C37.911 33.6856 36.8065 32.5704 35.4746 32.5704H7.69914C6.36722 32.5704 5.2627 33.6856 5.2627 35.0304C5.2627 36.3752 6.36722 37.4904 7.69914 37.4904H10.233C10.1031 37.8184 10.0056 38.1464 10.0056 38.54C10.0056 39.8848 11.1102 41 12.4421 41H40.25C41.5819 41 42.6864 39.8848 42.6864 38.54C42.6864 37.1624 41.5819 36.08 40.2175 36.08Z" fill="#0069AA"/>
<path d="M41.3545 6.888H4.84039V10.5944H41.3545V6.888Z" fill="#0069AA"/>
<path d="M21.9929 12.9888H4.84039V16.6952H21.9929V12.9888Z" fill="#7AC142"/>
<path d="M41.3545 12.9888H24.202V16.6952H41.3545V12.9888Z" fill="#7AC142"/>
<path d="M21.9929 19.2208H4.84039V22.9272H21.9929V19.2208Z" fill="#7AC142"/>
<path d="M41.3545 19.2208H24.202V22.9272H41.3545V19.2208Z" fill="#7AC142"/>
</svg>
