<svg width="50" height="97" viewBox="0 0 50 97" fill="none" xmlns="http://www.w3.org/2000/svg">
<path d="M25.0535 29.7807C33.2976 29.7807 40.0428 23.08 40.0428 14.8904C40.0428 6.70066 33.2976 0 25.0535 0C16.8094 0 10.0642 6.70066 10.0642 14.8904C10.0642 23.08 16.8094 29.7807 25.0535 29.7807ZM25.0535 1.91447C32.227 1.91447 38.1156 7.76425 38.1156 14.8904C38.1156 22.0164 32.227 27.8662 25.0535 27.8662C17.8801 27.8662 11.9914 22.0164 11.9914 14.8904C11.9914 7.76425 17.773 1.91447 25.0535 1.91447Z" fill="#22DDBE"/>
<path d="M48.5011 51.1589C48.0728 39.7784 38.8651 30.8442 27.409 30.8442H22.6981C11.242 30.8442 1.92719 39.7784 1.606 51.1589L0 96.9999H50L48.5011 51.1589ZM38.758 36.3749L32.0128 39.9912L26.3383 32.6524H27.3019C31.5846 32.6524 35.546 34.035 38.758 36.3749ZM23.6617 32.6524L17.9872 39.9912L11.242 36.3749C14.454 34.035 18.3084 32.6524 22.591 32.6524H23.6617ZM1.92719 95.0855L3.42612 51.1589C3.64026 45.7346 5.99572 41.0548 9.63597 37.6513L18.5225 42.4374L25.0535 34.035L31.5846 42.4374L40.4711 37.6513C44.2184 40.9484 46.5739 45.7346 46.6809 51.1589L48.1799 95.0855H1.92719Z" fill="#22DDBE"/>
<path d="M25.0535 44.7775C23.9829 44.7775 23.1263 45.6283 23.1263 46.6919C23.1263 47.7555 23.9829 48.6064 25.0535 48.6064C26.1242 48.6064 26.9807 47.7555 26.9807 46.6919C26.9807 45.7347 26.1242 44.7775 25.0535 44.7775ZM25.0535 47.7555C24.5182 47.7555 24.0899 47.3301 24.0899 46.7983C24.0899 46.2665 24.5182 45.8411 25.0535 45.8411C25.5889 45.8411 26.0171 46.2665 26.0171 46.7983C26.0171 47.3301 25.5889 47.7555 25.0535 47.7555Z" fill="#22DDBE"/>
<path d="M25.0535 56.1578C23.9829 56.1578 23.1263 57.0087 23.1263 58.0723C23.1263 59.1359 23.9829 59.9868 25.0535 59.9868C26.1242 59.9868 26.9807 59.1359 26.9807 58.0723C26.9807 57.0087 26.1242 56.1578 25.0535 56.1578ZM25.0535 59.0295C24.5182 59.0295 24.0899 58.6041 24.0899 58.0723C24.0899 57.5405 24.5182 57.1151 25.0535 57.1151C25.5889 57.1151 26.0171 57.5405 26.0171 58.0723C26.0171 58.6041 25.5889 59.0295 25.0535 59.0295Z" fill="#22DDBE"/>
</svg>
