<svg width="133" height="101" viewBox="0 0 133 101" fill="none" xmlns="http://www.w3.org/2000/svg">
<path d="M36.6 96.3H54.6H77.6H95.6H97.4H127.4V42.4H97.4V35.3L66 16.5L34.8 35.3V42.4H4.79999V96.3H34.8H36.6ZM56.4 66.3C56.8 63.1 59.6 60.6 63 60.6H69.2C72.6 60.6 75.3 63.1 75.8 66.3H56.4ZM56.3 68.1H65V94.6H56.3V68.1ZM66.8 94.5V68.1H75.7V94.6H66.8V94.5ZM125.5 44.2V94.5H97.3V44.2H125.5ZM36.6 36.3L66 18.5L95.4 36.2V42.3V94.4H77.4V67.2C77.4 62.6 73.6 58.8 69 58.8H63C58.4 58.8 54.6 62.6 54.6 67.2V94.5H36.6V42.4V36.3ZM6.49999 94.5V44.2H34.8V94.5H6.49999Z" fill="#22DDBE"/>
<path d="M32 34.1L66 13.9L99.8 34.1L100.7 32.6L66.9 12.3V8.4H79.4V0H65.1V12.3L31.1 32.5L32 34.1ZM66.9 1.8H77.6V6.6H66.9V1.8Z" fill="#22DDBE"/>
<path d="M65.9 48.5C71 48.5 75.1 44.4 75.1 39.3C75.1 34.2 71 30.1 65.9 30.1C60.8 30.1 56.7 34.2 56.7 39.3C56.8 44.4 60.9 48.5 65.9 48.5ZM65.9 31.9C70 31.9 73.3 35.2 73.3 39.3C73.3 43.4 70 46.7 65.9 46.7C61.8 46.7 58.5 43.4 58.5 39.3C58.6 35.3 61.9 31.9 65.9 31.9Z" fill="#22DDBE"/>
<path d="M11.8 89.7H28.8V69.6H11.8V89.7ZM13.6 87.9V84.4H27.1V87.9H13.6ZM27.1 71.4V82.6H13.6V71.4H27.1Z" fill="#22DDBE"/>
<path d="M11.8 66H28.8V49H11.8V66ZM13.6 64.2V60.5H27.1V64.2H13.6ZM27.1 50.8V58.8H13.6V50.8H27.1Z" fill="#22DDBE"/>
<path d="M119.9 69.6H102.9V89.7H119.9V69.6ZM118.1 71.4V82.6H104.6V71.4H118.1ZM104.7 87.9V84.4H118.2V87.9H104.7Z" fill="#22DDBE"/>
<path d="M119.9 49H102.9V66H119.9V49ZM118.1 50.8V58.8H104.6V50.8H118.1ZM104.7 64.2V60.5H118.2V64.2H104.7Z" fill="#22DDBE"/>
<path d="M66.8 33.9H65.1V38.4H59.7V40.2H66.8V33.9Z" fill="#22DDBE"/>
<path d="M132.1 98.5H0V100.3H132.1V98.5Z" fill="#22DDBE"/>
</svg>
