<svg width="103" height="90" viewBox="0 0 103 90" fill="none" xmlns="http://www.w3.org/2000/svg">
<path d="M41.1 7.19995H20.6V8.99995H41.1V7.19995Z" fill="#22DDBE"/>
<path d="M68.2 26.5H20.6V28.3H68.2V26.5Z" fill="#22DDBE"/>
<path d="M68.2 15.7H20.6V17.5H68.2V15.7Z" fill="#22DDBE"/>
<path d="M68.2 33.3H20.6V35.1H68.2V33.3Z" fill="#22DDBE"/>
<path d="M68.2 59.3H20.6V61.1H68.2V59.3Z" fill="#22DDBE"/>
<path d="M59.7 41.3H30.9V43.1H59.7V41.3Z" fill="#22DDBE"/>
<path d="M59.7 48.3H30.9V50.1H59.7V48.3Z" fill="#22DDBE"/>
<path d="M59.7 67H30.9V68.8H59.7V67Z" fill="#22DDBE"/>
<path d="M59.7 74H30.9V75.8H59.7V74Z" fill="#22DDBE"/>
<path d="M102.2 41.3L98.7 37.8C98.3 37.4 97.7 37.1 97.1 37.1C96.5 37.1 96 37.3 95.5 37.8L93.8 39.5L92.9 40.4L77.2 56.2V0H12.9V5.5H0V89.9H64.3V84.4H77.2V69.4L99.5 47.1L102.2 44.4C103 43.6 103 42.2 102.2 41.3ZM62.6 88.1H1.8V7.3H12.9V84.4H62.6V88.1ZM75.4 82.6H14.7V1.8H75.5V58L65 68.4L62.4 77.7L71.7 75.1L75.5 71.3V82.6H75.4ZM68.2 74.1L64.9 75L65.8 71.7L68.2 74.1ZM71.6 72.5L67.5 68.4L93.8 42.1L97.9 46.2L71.6 72.5ZM100.9 43.2L99.5 44.6L95.4 40.5L96.8 39.1C96.9 39 97 39 97.1 39C97.2 39 97.3 39 97.4 39.1L100.9 42.6C101 42.7 101 42.8 101 42.9C101 43 101 43.1 100.9 43.2Z" fill="#22DDBE"/>
<path d="M91.3272 47.4385L72.8091 65.9724L74.0824 67.2447L92.6006 48.7108L91.3272 47.4385Z" fill="#22DDBE"/>
</svg>
