<svg width="62" height="211" viewBox="0 0 62 211" fill="none" xmlns="http://www.w3.org/2000/svg">
<g clip-path="url(#clip0)">
<path d="M52.1277 68.8532C52.1277 68.8532 52.2064 73.7229 51.6217 76.073C51.0482 78.4231 51.3406 78.0502 51.6442 81.2477C51.9365 84.4452 52.3638 92.5123 52.1727 95.4725C51.9703 98.4328 51.6779 99.235 51.498 99.4835C51.3181 99.7321 48.1023 98.2407 48.1023 98.2407C51.9703 109.471 47.5064 68.2318 42.1654 78.6716C42.6377 77.7452 49.6315 65.4976 49.6315 65.4976L52.1277 68.8532Z" fill="url(#paint0_linear)"/>
<path d="M33.4737 28.0995C33.4737 28.0995 33.5187 27.3538 33.766 27.1052C34.0022 26.8566 35.6663 26.642 36.4421 25.9527C37.2292 25.2635 38.4998 24.4387 38.8147 24.4387C39.1182 24.4387 40.1639 24.4162 40.1639 24.4162C40.1639 24.4162 40.9398 22.6762 40.9848 21.8175C41.0297 20.9588 41.0297 20.5859 41.0297 20.5859C41.0297 20.5859 40.0403 19.9193 39.658 18.8234C39.2757 17.7161 38.7022 16.4394 39.0508 15.3773C39.3993 14.3266 40.2651 14.4395 40.2651 14.4395C40.2651 14.4395 39.1632 10.6997 39.0845 9.09535C38.9946 7.49096 39.568 4.46295 41.0185 3.15232C42.469 1.84169 43.6946 1.69481 44.4255 1.74001C45.1676 1.7965 44.729 1.74001 45.1676 1.7965C45.5948 1.85299 46.6068 0.0452269 49.2492 0.0113313C51.8915 -0.0338628 54.7813 0.723138 56.6928 1.31066C58.6043 1.89819 60.527 3.09583 61.4603 4.38386C62.4048 5.66059 61.9775 6.47409 61.4378 7.09551C60.8981 7.71693 59.8074 8.79029 59.8074 8.79029C59.8074 8.79029 60.5045 10.2591 60.7069 11.4906C60.9093 12.7222 60.4933 13.8294 60.8306 15.5581C61.1679 17.2755 61.3141 19.49 60.4258 21.5463C59.5375 23.5914 58.0308 25.3991 56.839 27.399C55.6471 29.3875 55.5234 29.5796 54.354 29.5344C53.1846 29.4892 53.1846 29.4892 53.1846 29.4892C53.1846 29.4892 52.42 31.4099 52.3638 31.715C52.3076 32.0201 53.387 34.2233 53.342 35.5226C53.2971 36.8219 53.1959 38.1778 53.1959 38.1778C53.1959 38.1778 55.366 39.8047 56.8502 40.8329C58.3344 41.8611 60.156 44.2338 60.2234 44.9682C60.2909 45.7026 60.8194 48.0979 60.3921 52.3574C59.9648 56.617 59.4026 59.5207 58.2782 62.7407C57.165 65.9608 56.5578 66.7743 56.6366 67.7573C56.7153 68.7403 56.8502 69.791 56.4229 70.0396C55.9956 70.2882 54.8937 70.3108 52.8023 69.8475C50.7109 69.3843 50.5198 69.0227 50.5198 69.0227C50.5198 69.0227 47.8212 73.1919 47.4726 74.672C47.124 76.1521 47.259 77.6774 47.6862 80.954C47.9674 83.1346 49.7664 88.6935 49.609 90.5351C49.4516 92.3881 51.3856 98.2068 51.7679 99.009C52.1502 99.7999 51.2394 100.308 50.8683 100.5C50.5085 100.692 49.9576 101.506 49.9576 101.506C49.9576 101.506 51.7679 107.393 52.4425 111.324C52.881 113.923 52.1164 118.352 52.1164 122.047C52.1164 125.741 50.5985 138.961 49.6989 144.7C48.7994 150.44 49.2155 153.208 48.0573 157.795C46.8992 162.371 43.0199 169.455 43.5147 177.466C43.9982 185.465 44.7403 189.397 44.1556 191.318C43.5709 193.239 40.7711 194.877 40.4226 195.996C40.074 197.114 39.9728 198.346 39.9728 198.346C39.9728 198.346 40.9848 200.481 41.8618 201.464C42.7388 202.436 47.4726 203.599 48.8219 203.577C50.1712 203.554 51.1607 204.402 51.3743 205.758C51.5767 207.113 50.4411 208.853 49.6427 209.237C48.8556 209.622 43.6946 209.576 41.4907 209.543C39.2869 209.52 37.6228 209.045 37.6228 209.045C37.6228 209.045 37.1618 210.65 36.3072 210.921C35.4527 211.181 32.6866 210.977 29.7407 210.525C26.7947 210.074 24.2086 209.565 22.7243 208.537C21.2401 207.509 21.3526 206.774 20.0482 205.927C18.7439 205.08 18.9126 204.029 18.9688 203.667C19.025 203.294 19.4411 202.492 19.4973 202.3C19.5535 202.119 19.0025 201.939 19.4635 200.391C19.9358 198.843 20.0482 198.413 20.0482 198.413C20.0482 198.413 18.8114 198.063 18.9238 196.832C19.025 195.6 19.6435 191.951 19.7334 189.86C19.8234 187.759 18.8226 178.664 19.5872 172.427C20.3518 166.19 19.3399 152.214 18.6989 146.248C18.058 140.283 18.7102 130.6 17.3834 124.578C16.0678 118.555 14.5948 114.386 13.403 109.166C12.2223 103.946 12.2111 99.4497 12.7058 95.868C13.2006 92.2864 13.5941 89.4505 13.5941 89.4505C13.5941 89.4505 11.2441 88.3206 10.7494 87.5184C10.2434 86.7275 9.90606 84.8181 10.3783 83.1459C10.8393 81.4737 12.346 75.4742 13.1556 72.3219C13.9652 69.1696 12.807 57.6564 12.6159 57.1028C12.4247 56.5492 10.5582 55.0352 10.7831 53.8036C11.008 52.5721 12.1999 50.448 12.8408 48.2899C13.4817 46.1206 14.9322 40.6182 16.0678 38.3811C17.2035 36.144 19.621 33.8278 21.1951 32.6302C22.7693 31.4325 23.2641 31.5455 25.5241 30.7772C27.7842 29.9976 28.9423 29.6813 30.4715 29.0937C32.012 28.4949 33.4737 28.0995 33.4737 28.0995Z" fill="url(#paint1_linear)"/>
<path d="M53.3195 38.3925C53.4994 38.2004 56.2767 39.3981 56.1081 40.2003C55.9394 41.0025 54.0954 45.4089 46.6405 54.6398C39.1745 63.8707 30.2242 72.0282 25.6366 76.7171C21.049 81.406 19.6547 82.6036 19.6547 82.4116C19.6547 82.2308 19.4298 79.9485 19.2274 78.7169C19.025 77.4854 19.025 77.4854 19.025 77.4854C19.025 77.4854 23.3203 73.2259 25.6028 70.7854C27.8966 68.3449 34.1933 63.317 39.4443 57.5096C44.6953 51.7022 50.9358 42.9119 50.9358 42.9119C50.9358 42.9119 52.0377 42.9006 52.7798 43.3186C53.5219 43.7367 53.5219 43.861 53.7018 43.7932C53.8817 43.7254 54.2528 43.3525 54.1741 42.4939C54.0954 41.6352 54.3428 41.0702 54.0167 40.0873C53.7018 39.1269 53.3195 38.3925 53.3195 38.3925Z" fill="url(#paint2_linear)"/>
<path d="M11.1879 86.9196C11.1879 86.9196 9.10772 87.2585 8.74791 87.7556C8.3881 88.2528 7.46608 91.9022 6.54406 95.7437C5.62205 99.5739 4.3852 102.862 3.35074 107.562C2.31628 112.262 2.15886 114.172 1.51795 116.036C0.877035 117.889 -0.303597 121.177 0.0787029 122.035C0.461003 122.894 -0.146179 123.086 4.58759 124.306C9.3326 125.527 10.9405 126.679 12.0312 125.481C13.1219 124.295 14.5499 121.866 15.753 116.488C16.9561 111.11 18.5753 96.6024 18.5753 96.6024L15.8542 87.3376L11.1879 86.9196Z" fill="url(#paint3_linear)"/>
<path d="M12.0986 53.815C12.0986 53.815 11.6151 58.1988 10.2096 62.5374C8.80411 66.8761 7.75841 70.6498 8.08449 72.1186C8.41057 73.5874 9.40005 78.0729 11.2328 85.4395C13.0656 92.8062 15.4494 96.3426 15.9104 98.3651C16.3714 100.387 16.1353 101.077 16.585 102.421C17.0348 103.766 17.2035 106.907 17.2035 106.907C17.2035 106.907 17.8893 103.63 19.2724 101.574C20.6554 99.5175 22.1396 96.2296 22.1396 96.2296C22.1396 96.2296 20.3968 90.7725 19.9358 88.6257C19.4748 86.479 19.9133 83.2589 19.4298 79.4513C18.9463 75.6437 17.4508 70.4916 17.9231 69.181C18.3953 67.8816 19.992 66.458 20.914 63.0459C21.8473 59.645 22.297 58.7524 22.297 58.7524C22.297 58.7524 20.5542 56.9334 16.8436 55.2612C13.1331 53.6116 12.0986 53.815 12.0986 53.815Z" fill="url(#paint4_linear)"/>
</g>
<defs>
<linearGradient id="paint0_linear" x1="47.1928" y1="65.4976" x2="47.1928" y2="100.197" gradientUnits="userSpaceOnUse">
<stop stop-color="#C0DCFF"/>
<stop offset="1" stop-color="#D0E2F7"/>
</linearGradient>
<linearGradient id="paint1_linear" x1="36.085" y1="0.00939941" x2="36.085" y2="211.036" gradientUnits="userSpaceOnUse">
<stop stop-color="#DFD4FD"/>
<stop offset="0.359375" stop-color="#CEBEFB"/>
<stop offset="0.802083" stop-color="#92BEF4"/>
</linearGradient>
<linearGradient id="paint2_linear" x1="37.5702" y1="38.3719" x2="37.5702" y2="82.4308" gradientUnits="userSpaceOnUse">
<stop stop-color="#FFCAC9"/>
<stop offset="1" stop-color="#FFA7A4"/>
</linearGradient>
<linearGradient id="paint3_linear" x1="9.2897" y1="86.9196" x2="9.2897" y2="125.986" gradientUnits="userSpaceOnUse">
<stop stop-color="#FFCAC9"/>
<stop offset="1" stop-color="#FFA7A4"/>
</linearGradient>
<linearGradient id="paint4_linear" x1="15.1608" y1="53.807" x2="15.1608" y2="106.907" gradientUnits="userSpaceOnUse">
<stop stop-color="#C0DCFF"/>
<stop offset="1" stop-color="#D0E2F7"/>
</linearGradient>
<clipPath id="clip0">
<rect width="62" height="211" fill="white"/>
</clipPath>
</defs>
</svg>
