<svg width="92" height="150" viewBox="0 0 92 150" fill="none" xmlns="http://www.w3.org/2000/svg">
<g clip-path="url(#clip0)">
<path d="M41.4499 129.619C41.4499 129.619 41.7866 134.192 41.6407 136.584C41.506 138.977 40.8664 143.773 39.0711 145.685C37.2645 147.585 33.8197 147.865 31.9795 147.25C30.1281 146.646 28.9611 144.589 28.8938 143.437C28.8377 142.297 29.2304 140.553 29.2304 140.553C29.2304 140.553 31.0931 141.336 31.1379 141.47C31.194 141.604 31.6765 144.924 32.5742 145.897C33.4719 146.87 33.7749 146.892 34.7062 146.758C35.6263 146.624 38.3417 144.309 39.2506 142.275C40.1595 140.24 40.4401 139.569 40.7542 137.166C41.1357 134.27 40.5523 130.771 40.5523 130.771L41.4499 129.619Z" fill="#F28481"/>
<path d="M72.7001 27.8043C72.7001 27.8043 72.5654 27.29 71.9595 27.0217C71.3536 26.7645 70.8711 26.5857 70.8711 26.5857L70.9608 26.1944C70.9608 26.1944 72.0942 26.2391 72.6552 25.2441C73.2162 24.2491 73.3958 23.9025 74.0466 23.2093C74.6974 22.5162 75.9093 20.7498 75.9541 19.274C75.999 17.7983 75.6512 17.2393 75.7746 16.725C75.9093 16.2108 76.2908 15.6406 76.2459 15.3387C76.201 15.0369 76.2459 14.9027 76.4591 14.4667C76.7508 13.8854 76.9752 13.3487 76.6723 12.309C76.3693 11.2693 76.4591 10.0618 76.504 9.23454C76.5488 8.41841 76.1561 7.68054 76.1561 7.68054C76.1561 7.68054 76.762 6.47312 74.6413 4.39366C72.5093 2.31421 68.2678 -0.704346 62.2759 0.111783C56.2839 0.927912 54.1632 6.33896 54.1632 9.74881C54.1632 13.1587 54.814 15.5847 56.0707 17.7089C57.3275 19.8219 58.2813 20.8616 58.674 21.0852C59.0667 21.2976 59.1901 22.5497 59.0667 23.3323C58.9321 24.1149 58.7637 24.495 58.7637 24.495C58.7637 24.495 56.1156 24.1932 55.2067 24.5845C54.2978 24.9758 53.9949 25.4453 53.9949 26.2726C53.9949 27.0888 52.5249 27.6142 52.5249 27.9608C52.5249 28.3074 52.7381 28.5645 52.7381 28.5645C52.7381 28.5645 47.7 29.9061 45.9719 33.7519C44.2327 37.5978 43.6268 39.0735 43.6268 39.0735C43.6268 39.0735 42.2803 41.7567 41.4163 44.6523C40.5523 47.5479 38.7681 51.5279 38.813 53.1266C38.8579 54.7253 39.3292 55.5862 39.3292 55.5862C39.3292 55.5862 38.8916 56.883 39.0711 57.1849C39.2506 57.4868 39.419 57.9228 39.419 57.9228C39.419 57.9228 37.7246 63.9711 37.3768 65.7934C37.0289 67.6045 35.1214 74.4801 34.9867 75.654C34.8521 76.8167 34.8184 77.5099 34.8184 77.7335C34.8184 77.9459 36.2098 77.9906 37.7695 78.1695C39.3292 78.3484 42.2803 78.9856 42.5832 78.6502C42.8862 78.3036 42.5384 76.962 43.0209 74.9273C43.5034 72.8926 43.5819 71.428 44.0195 69.6057C44.4571 67.7946 45.1528 65.8493 45.1528 65.8493C45.1528 65.8493 44.6367 72.423 45.8036 77.6105C46.9706 82.7979 47.1053 86.0401 47.2736 87.2922C47.4419 88.5444 47.0155 89.7518 47.3633 90.0984C47.7112 90.4449 51.7058 90.3108 51.7058 90.3108C51.7058 90.3108 52.1434 93.6871 52.0985 95.7107C52.0537 97.7454 53.4002 98.9528 52.9289 99.3888C52.4464 99.8248 50.8418 100.641 50.2808 102.374C49.7197 104.107 50.191 107.259 49.6748 107.997C49.1587 108.735 47.1165 112.19 47.3746 114.09C47.6326 115.991 47.9805 116.729 47.8571 117.813C47.7224 118.898 47.5541 119.759 47.5541 119.759C47.5541 119.759 46.3871 121.402 45.2089 123.481C44.042 125.561 44.8611 127.763 44.8611 127.763C44.8611 127.763 45.0294 129.843 43.3014 132.481C41.5621 135.12 42.6506 138.708 43.9971 140.005C45.3436 141.302 48.16 142.085 49.8993 141.47C51.6385 140.866 52.6708 139.088 52.5923 137.065C52.5025 135.03 52.424 133.308 53.1533 131.62C53.8939 129.932 54.2866 128.591 54.2866 128.591C54.2866 128.591 57.5407 126.209 57.7202 125.047C57.8885 123.884 57.204 121.29 56.9347 120.552C56.6767 119.814 56.4635 119.77 57.0245 118.775C57.5856 117.78 57.8885 116.572 58.4159 114.75C58.9321 112.939 60.4581 111.944 60.9294 109.954C61.4119 107.964 61.5353 106.969 62.6686 105.761C63.8019 104.554 64.1049 104.207 64.1049 104.207C64.1049 104.207 63.757 108.489 63.3194 109.529C62.8818 110.569 63.2297 111.307 62.8818 113.028C62.534 114.761 61.8383 115.063 61.67 117.433C61.5016 119.814 62.5003 120.72 62.0178 121.972C61.5353 123.224 60.2786 126.601 60.2 128.065C60.1103 129.53 59.7175 131.14 59.0331 132.515C58.3374 133.901 58.2476 136.964 58.472 137.613C58.6852 138.261 58.9882 138.563 58.9882 138.563C58.9882 138.563 58.8535 139.994 58.8535 140.508C58.8535 141.023 59.3697 141.201 59.3697 141.201C59.3697 141.201 58.8872 141.682 58.8535 142.286C58.8086 142.89 58.8535 144.063 59.2911 144.488C59.7287 144.924 61.6363 145.003 63.8468 145.092C66.0573 145.181 66.8428 145.137 67.9649 144.488C69.0982 143.84 70.0856 143.627 71.3087 143.75C72.5205 143.885 74.5628 143.616 75.2584 142.498C75.9541 141.38 75.6961 139.692 75.4716 138.697C75.2584 137.702 73.8671 136.752 73.0367 136.539C72.2064 136.327 71.0394 136.752 71.0394 136.752C71.0394 136.752 71.8249 134.807 72.038 133.856C72.2512 132.906 72.1727 131.911 71.8249 131.609C71.477 131.307 71.477 131.307 71.477 131.307C71.477 131.307 72.4308 131.352 73.1714 128.501C73.9119 125.65 74.6076 122.151 75.4268 119.937C76.2459 117.735 77.8168 114.66 77.9402 112.413C78.0749 110.166 77.5475 109.082 77.8954 108.221C78.2432 107.36 78.894 104.33 78.9389 102.251C78.9838 100.171 78.7706 98.4944 79.4214 95.0734C80.0722 91.6524 79.8141 89.327 79.8141 89.327C79.8141 89.327 81.1606 88.6785 80.9811 87.9854C80.8016 87.2922 80.2854 87.6388 80.5435 85.6935C80.8016 83.7482 80.2854 82.4514 80.2854 80.0253C80.2854 77.6105 81.1943 74.3571 80.4986 70.6007C79.8029 66.8443 80.2405 65.5027 80.0161 62.5177C79.8029 59.5327 78.3666 55.4744 78.3666 55.4744C78.3666 55.4744 81.4524 56.6483 82.9223 56.3688C84.4035 56.0781 84.9196 56.0446 84.9196 56.0446C84.9196 56.0446 85.6602 56.8719 86.3559 56.9948C87.0516 57.129 88.4766 57.1625 89.4416 55.9998C90.3954 54.8371 92.4825 51.718 91.9551 49.9851C91.439 48.2522 91.1697 48.2075 91.136 47.9503C91.0911 47.6932 92.1795 46.7429 90.9228 45.8374C89.6661 44.9318 88.4879 43.6349 87.3209 42.0362C86.1539 40.4375 85.5817 37.2848 84.6728 35.8985C83.7639 34.5122 82.4622 34.0426 81.0709 32.5669C79.6795 31.1023 78.9838 30.4874 77.166 29.7607C75.3033 29.0229 72.7001 27.8043 72.7001 27.8043Z" fill="url(#paint0_linear)"/>
<path d="M42.5271 96.0908C42.4486 95.8336 41.6856 94.6374 41.3041 93.62C40.9338 92.6026 39.9463 91.7642 39.9688 90.9704C39.9912 90.1878 39.8341 89.7406 39.7107 88.9692C39.5985 88.209 38.8018 87.2028 38.4764 86.2078C38.1398 85.2128 38.0837 84.8215 37.6685 84.5196C37.2533 84.2289 36.9391 84.2289 36.9391 84.2289C36.9391 84.2289 36.7259 84.4414 36.524 84.4973C36.3332 84.5532 36.3332 84.5532 36.3332 84.5532C36.3332 84.5532 37.0626 84.4973 37.0626 85.0786C37.0626 85.3134 36.9504 85.5258 36.883 85.6823C36.8269 85.8388 37.1972 85.3805 37.4777 85.4811C37.9715 85.6823 37.949 86.5767 38.2295 87.0686C38.4988 87.5605 39.1721 88.835 39.2955 89.7742C39.4077 90.7133 38.9028 91.8871 39.2731 92.8486C39.6434 93.8101 40.2156 95.61 40.5523 96.0013C40.8664 96.415 42.5271 96.0908 42.5271 96.0908Z" fill="#F28481"/>
<path d="M35.9405 84.6873C35.9405 84.6873 35.6039 85.2798 35.8395 85.5929C36.0751 85.9059 36.0751 85.9059 36.0751 85.9059L35.6039 86.1631C35.6039 86.1631 34.9194 85.7494 34.7398 86.2637C34.5603 86.778 34.5603 86.778 34.5603 86.778C34.5603 86.778 33.5729 87.1469 33.1801 87.5829C32.7874 88.0189 32.0805 88.6003 31.5643 89.7406C31.0482 90.881 30.734 92.2114 30.4647 92.5468C30.1842 92.8821 28.5796 92.8151 28.0298 92.8598C27.4799 92.8933 27.4014 92.5468 27.4014 92.5468C27.4014 92.5468 28.4225 92.5691 29.5782 91.5629C30.734 90.5679 31.1267 89.6288 31.3624 88.9804C31.598 88.3319 31.497 87.4376 31.9683 86.7891C32.4396 86.1407 32.9894 85.5146 33.5392 85.3022C34.1115 85.0563 35.9405 84.6873 35.9405 84.6873Z" fill="#F28481"/>
<path d="M0.718135 133.118C0.964994 132.638 1.32406 131.486 1.76168 130.022C2.88376 130.111 4.54445 130.234 6.02561 130.368C8.59519 130.592 14.9238 131.397 17.931 132.146C20.9382 132.906 29.3089 134.147 29.3089 134.147C29.3089 134.147 29.3089 134.147 30.7677 134.415C32.2264 134.684 35.1438 135.701 36.5689 136.64C37.4441 137.221 38.4091 137.803 39.015 138.161C38.712 138.831 38.4764 139.469 38.3754 140.072C38.0612 141.939 37.186 145.059 34.6164 145.45C32.0468 145.852 25.808 143.941 22.8008 143.314C19.7936 142.688 13.0162 142.778 11.5575 142.297C10.0988 141.805 9.57141 140.564 7.93316 139.759C6.29491 138.954 1.87389 138.295 0.718135 136.953C-0.426395 135.6 -0.0336644 134.583 0.718135 133.118Z" fill="url(#paint1_linear)"/>
<path d="M30.7677 134.494C29.3089 134.225 29.3089 134.225 29.3089 134.225C29.3089 134.225 20.9494 132.995 17.931 132.246C14.9238 131.497 8.59519 130.704 6.02561 130.48C4.53323 130.357 2.88376 130.223 1.76168 130.145C2.65935 127.148 3.8712 122.811 5.06062 120.083C6.83352 116.024 8.42688 112.984 9.1338 111.575C9.84071 110.166 10.7272 106.287 11.5687 103.905C12.4103 101.524 13.0723 99.277 14.0485 97.6895C15.0248 96.102 16.2591 94.6933 18.032 94.3803C19.8049 94.0672 21.2187 93.8101 22.1949 93.5418C23.1711 93.2735 26.1559 92.5244 26.1559 92.5244C26.9862 92.3902 28.0859 91.7754 29.3426 91.7977C30.5993 91.8201 31.1716 92.7033 33.8197 93.0722C36.4791 93.4412 38.3754 93.8995 39.5199 93.7989C40.6645 93.6983 41.3489 94.0672 42.1793 94.9392C42.9311 95.733 42.774 96.4038 43.6941 96.5268C44.6142 96.6386 46.9257 97.0858 47.4082 97.8236C47.7448 98.3379 48.0366 99.4894 47.3521 101.58C46.6676 103.671 45.6017 109.372 44.9957 112.838C44.3898 116.304 43.5595 122.922 42.8974 124.946C42.2242 126.958 41.8202 128.3 41.7417 129.194C41.6631 130.1 41.8988 132.034 41.1357 133.968C40.6084 135.287 39.677 136.797 39.0374 138.205C38.4315 137.847 37.4665 137.277 36.5913 136.707C35.1438 135.779 32.2264 134.762 30.7677 134.494Z" fill="#FFC1BF"/>
<path d="M29.8139 135.366C29.8924 135.209 31.8785 131.374 32.361 128.814C32.6528 127.26 33.3036 124.655 33.8871 122.352C34.2573 120.843 34.6164 119.423 34.8408 118.417C35.0765 117.355 37.1972 107.986 38.0612 105.392C38.9477 102.743 39.5312 100.742 38.9028 99.1317L38.7794 98.8075C38.2632 97.4659 37.9939 96.7839 36.7484 96.8398C35.5814 96.8845 34.7735 97.4547 34.0442 98.7404C33.8534 99.0758 33.6739 99.4 33.5168 99.7019C33.225 100.25 33.124 100.708 32.7874 100.954C32.4283 101.111 30.7452 101.457 28.7703 100.015C27.7717 99.2882 26.8403 98.651 25.9427 98.0361C24.944 97.3541 24.0015 96.7057 23.0701 96.0125C20.8708 94.3691 19.1989 93.7542 17.9646 94.1231C16.4947 94.5591 15.4175 95.3082 14.6769 96.3926L14.0149 97.7789C14.0149 97.7789 14.4076 97.2535 15.0472 96.4597C15.6756 95.6659 16.7528 95.0511 18.1217 94.6374C19.1877 94.3244 20.7025 94.9169 22.7559 96.4485C23.6985 97.1529 24.6411 97.8013 25.6509 98.4833C26.5486 99.0981 27.4687 99.7354 28.4674 100.462C30.6779 102.072 32.5742 101.748 33.124 101.39C33.2811 101.278 33.6402 100.887 33.9993 99.9702C34.1227 99.6571 34.3359 99.3441 34.5266 99.0199C35.155 97.9019 35.8058 97.4324 36.782 97.3876C37.6348 97.3541 37.7583 97.6224 38.2969 99.0087L38.4203 99.3329C38.9813 100.786 38.4203 102.698 37.5787 105.236C36.7035 107.863 34.5828 117.254 34.3471 118.316C34.1227 119.311 33.7636 120.731 33.3933 122.24C32.8211 124.555 32.1703 127.171 31.8673 128.736C31.396 131.229 29.3875 135.108 29.365 135.142L29.8139 135.366Z" fill="#F28481"/>
<path d="M37.489 120.563C37.489 120.563 39.5199 114.079 39.9688 109.182C40.4064 104.286 40.541 99.1764 39.9239 97.5889C39.3068 96.0013 39.0374 95.3417 38.4652 95.0734C37.8929 94.8051 37.186 95.0734 37.186 95.0734L36.6137 95.5541C36.6137 95.5541 37.9378 95.0287 38.5662 95.8672C39.1833 96.7057 39.8902 97.5442 39.8902 101.424C39.8902 105.303 39.318 109.406 38.7794 112.581C38.252 115.756 36.8269 120.295 36.8269 120.295L37.489 120.563Z" fill="#F28481"/>
<path d="M35.3233 97.0187C35.3233 97.0187 33.4607 97.723 32.0019 97.0634C30.5432 96.4038 28.8152 94.7715 27.9288 94.1119C27.0423 93.4523 25.7183 92.9268 25.3143 92.8374C24.9216 92.748 25.0674 92.815 25.0674 92.815L23.6761 93.1504C23.6761 93.1504 24.9665 93.1169 26.5935 94.3467C28.4898 95.7665 30.6218 97.0746 32.6079 97.6112C33.7748 97.9019 35.3233 97.0187 35.3233 97.0187Z" fill="#F28481"/>
<path d="M33.9095 144.511L32.7538 147.328C32.7538 147.328 32.6191 149.665 30.8013 149.978C28.9835 150.291 28.142 148.122 28.142 148.122C28.142 148.122 26.8628 146.053 26.8628 145.562C26.8628 145.081 27.3902 143.359 27.3902 143.359L33.9095 144.511Z" fill="#F28481"/>
<path d="M24.7981 143.013C24.7981 143.013 22.9355 145.852 22.812 146.02C22.6774 146.188 20.6913 145.517 20.6913 145.26C20.6913 145.003 21.1738 142.252 21.1738 142.252L24.7981 143.013Z" fill="#F28481"/>
<path d="M10.1437 140.363C10.1437 140.363 8.1127 140.441 7.88828 140.475C7.66386 140.508 6.6091 142.644 6.38468 142.677C6.16026 142.711 3.99463 142.308 3.99463 141.984C3.99463 141.649 3.94975 137.937 3.94975 137.937C3.94975 137.937 9.12257 138.999 9.30211 139.077C9.48164 139.144 10.1437 140.363 10.1437 140.363Z" fill="#F28481"/>
<path d="M34.2237 119.859C34.2237 119.859 36.2995 119.814 38.7794 121.011C41.2592 122.196 43.335 123.068 43.335 123.068L43.0321 124.454C43.0321 124.454 41.3826 124.04 40.2381 123.258C39.0823 122.464 36.8718 121.626 35.7273 121.447C34.5715 121.268 33.7748 121.268 33.7748 121.268L34.2237 119.859Z" fill="#F28481"/>
<path d="M18.4247 141.682L17.2689 144.499C17.2689 144.499 17.1343 146.836 15.3165 147.149C13.4987 147.462 12.6572 145.293 12.6572 145.293C12.6572 145.293 11.378 143.225 11.378 142.733C11.378 142.252 11.9054 140.531 11.9054 140.531L18.4247 141.682Z" fill="#F28481"/>
<path d="M41.7978 78.5943C41.7978 78.5943 41.607 80.2824 41.3041 80.6402C41.0011 80.9979 41.0011 80.9979 41.0011 80.9979C41.0011 80.9979 41.4499 83.178 41.5958 83.8712C41.708 84.3966 41.8202 85.7382 41.4612 86.3866C41.1021 87.0351 41.0011 87.6947 40.5859 87.5941C40.1708 87.4934 40.1932 86.9233 40.2942 86.4314C40.4288 85.7829 40.0361 84.5196 39.6097 84.6761C39.1945 84.8215 39.0823 85.6488 38.8916 86.2189C38.7008 86.7891 38.7906 87.7394 38.9589 87.9071C39.116 88.0748 39.5873 88.4661 39.2955 88.9468C39.0262 89.394 38.3305 89.0474 37.7358 88.7232C37.2533 88.4549 37.1187 87.4599 37.1187 87.4599C37.1187 87.4599 36.8494 88.0301 36.2771 87.6835C35.7048 87.3369 35.5702 86.7444 35.5702 86.7444C35.5702 86.7444 34.6613 86.7891 34.3135 85.9171C34.0217 85.1792 33.6739 83.9606 33.8422 82.8538C34.0105 81.747 34.7174 80.6178 35.0989 80.2601C35.4804 79.9023 35.9854 76.3359 36.3444 75.6093C36.7259 74.8602 41.7978 78.5943 41.7978 78.5943Z" fill="#57D0EA"/>
</g>
<defs>
<linearGradient id="paint0_linear" x1="63.4288" y1="-0.0249023" x2="63.4288" y2="145.127" gradientUnits="userSpaceOnUse">
<stop offset="0.145833" stop-color="#9BE7FF"/>
<stop offset="1" stop-color="#53E6DD"/>
</linearGradient>
<linearGradient id="paint1_linear" x1="19.5073" y1="130.022" x2="19.5073" y2="145.505" gradientUnits="userSpaceOnUse">
<stop offset="0.145833" stop-color="#F28481"/>
<stop offset="1" stop-color="#CEBEFB"/>
</linearGradient>
<clipPath id="clip0">
<rect width="92" height="150" fill="white"/>
</clipPath>
</defs>
</svg>
