<svg width="86" height="189" viewBox="0 0 86 189" fill="none" xmlns="http://www.w3.org/2000/svg">
<path d="M48.12 60.17C48.12 60.17 47.48 59.55 48.1 58.54C48.71 57.53 48.71 57.53 48.71 57.53C48.71 57.53 48 55.91 48.79 54.39C49.59 52.88 49.56 50.87 49.56 50.87C49.56 50.87 48.23 49.51 49.52 47.61C50.81 45.71 51.67 44.45 52.78 43.31C53.89 42.17 55.75 40.51 55.75 40.51C55.75 40.51 56.6 38.62 56.08 37.12C55.56 35.62 55.56 35.62 55.56 35.62C55.56 35.62 54 36.39 51.68 36.17C49.36 35.95 49.33 33.57 49.33 33.57C49.33 33.57 47.66 35.09 46.03 35.12C44.4 35.14 39.13 34.71 39.25 33.95C39.37 33.2 41.46 30.29 41.39 25.27C41.33 20.26 39.46 11.26 43.66 7.07002C47.87 2.88002 52.73 1.06002 55.86 0.900018C58.99 0.730018 59.5 1.10001 59.5 1.10001C59.5 1.10001 63.74 -0.329986 67.58 5.76001C71.42 11.85 74.18 22.1 74.73 25.97C75.28 29.85 75.52 29.09 75.28 29.85C75.04 30.6 74.42 30.99 73.8 31.75C73.18 32.51 72.32 33.9 71.07 34.04C69.82 34.18 69.82 34.18 69.82 34.18C69.82 34.18 73.58 34.51 74.63 38.25C75.68 42 77.35 45.23 77.35 45.23C77.35 45.23 79.47 44.58 79.48 45.45C79.49 46.33 78.65 49.1 78.43 51.48C78.21 53.86 78.01 57.88 78.01 57.88C78.01 57.88 79.41 59.62 80.09 63.62C80.77 67.62 80.79 69.38 80.79 69.38C80.79 69.38 82.04 69.49 83.35 73.48C84.66 77.47 84.66 77.47 84.66 77.47C84.66 77.47 83.55 78.74 82.68 79.13C81.81 79.52 81.81 79.52 81.81 79.52C81.81 79.52 83.25 84.14 83.67 87.52C84.09 90.9 84.6 91.77 84.1 92.03C83.6 92.29 82.72 92.05 82.72 92.05C82.72 92.05 83.75 94.17 84.55 97.92C85.35 101.67 85.74 103.04 85.74 103.04C85.74 103.04 84.62 103.43 84.24 103.44C83.86 103.44 84.54 107.45 84.71 110.58C84.88 113.71 85.01 114.71 84.39 115.1C83.77 115.48 82.64 115.5 82.64 115.5C82.64 115.5 84.15 125.63 82.53 126.16C80.91 126.68 75.78 127.37 74.39 126.77C73 126.16 73.36 124.78 73.36 124.78C73.36 124.78 71.85 124.42 70.09 124.32C68.33 124.22 65.07 124.13 64.07 123.9C63.06 123.66 62.44 123.55 62.44 123.55C62.44 123.55 60.23 127.09 60.05 132.48C59.87 137.87 62.53 140.22 63.72 145.22C64.91 150.22 64.85 155.36 64.8 160.62C64.74 165.89 65.45 172.14 65.45 172.14C65.45 172.14 67.45 171.99 67.34 172.99C67.23 173.99 68.41 178.62 67.69 181.01C66.97 183.4 65.59 183.54 63.34 183.57C61.08 183.6 60.46 183.48 60.46 183.48C60.46 183.48 60.87 186.11 58.99 186.51C57.12 186.91 55 187.94 49.73 188.01C44.47 188.08 39.59 188.64 39.31 187.02C39.04 185.39 40.03 184.5 41.15 183.61C42.27 182.72 42.38 182.09 42.38 182.09C42.38 182.09 39 182.01 38.98 180.88C38.97 179.75 39.07 178.25 41.2 177.85C43.33 177.45 46.08 176.78 46.69 175.9C47.3 175.02 48.64 171.36 48.69 165.72C48.74 160.08 47.1 149.7 45.79 144.95C44.48 140.2 41.9 134.72 42.99 131.83C44.08 128.93 44.75 122.66 44.75 122.66C44.75 122.66 42.39 124.44 38.62 123.87C34.85 123.29 34.71 121.79 34.95 120.91C35.19 120.03 35.76 115.89 36.5 114.62C37.24 113.36 37.73 112.97 37.73 112.97C37.73 112.97 36.47 112.36 36.58 111.48C36.69 110.6 38.28 107.07 39.38 104.8C40.48 102.53 40.83 100.77 40.83 100.77C40.83 100.77 42.12 93.73 42.08 90.35C42.04 86.97 43.47 81.31 43.47 81.31C43.47 81.31 41.2 80.09 41.19 79.33C41.18 78.58 43.23 72.28 44.35 71.27C45.47 70.25 45.47 70.25 45.47 70.25C45.47 70.25 44.19 68.51 45.79 65.61C47.4 62.69 48.12 60.17 48.12 60.17Z" fill="url(#paint0_linear)"/>
<path d="M58.95 54.65C58.95 54.65 58.91 51.14 64.16 50.57C69.42 50 71.46 53.36 71.23 54.24C70.99 55.12 70.98 64.27 70.27 67.29C69.56 70.31 69.96 72.31 68.36 74.71C66.76 77.11 62.21 84.19 57.88 88.13C53.54 92.07 49.69 94.5 49.32 95.26C48.95 96.02 47.13 100.3 46.03 102.2C44.93 104.09 43.43 104.87 42.93 104.62C42.43 104.38 42.54 103.75 42.54 103.75C42.54 103.75 41.8 104.39 41.04 104.27C40.29 104.16 40.65 103.4 40.65 103.4C40.65 103.4 39.53 103.91 38.77 103.55C38.01 103.18 38.62 101.92 38.62 101.92C38.62 101.92 37.12 102.19 36.48 101.2C35.84 100.21 37.7 98.3 37.7 98.3C37.7 98.3 34.83 99.34 34.81 97.84C34.8 97.17 35.9 96.63 37.29 95.68C38.41 94.91 39.64 93.27 41.63 91.86C43.62 90.46 44.61 90.07 45.85 88.42C47.08 86.77 51.89 80.32 54.35 77.16C56.82 73.99 60.41 70.56 60.39 69.19C60.37 67.81 59.05 62.69 59.01 59.56C58.98 56.4 58.95 54.65 58.95 54.65Z" fill="url(#paint1_linear)"/>
<path d="M39.85 172.47C40.1 169.42 40.55 165.4 40.96 160.76C41.19 158.08 41.42 155.2 41.58 152.16C41.8 148.05 41.91 143.67 41.8 139.17C41.46 125.54 34.79 121.91 34.79 121.91C34.79 121.91 29.12 118.42 26.19 118.49C23.27 118.56 19.48 118.56 15.37 121.81C11.98 124.5 11.52 129.36 11.52 129.36C11.52 129.36 10.56 130.22 9.28999 131.64C8.65999 132.34 8.73998 134 8.04998 134.95C7.32998 135.94 5.81999 136.24 5.19999 137.41C4.36999 138.97 3.71998 140.65 3.45998 142.36C2.67998 147.41 4.21999 149.02 4.21999 149.02C4.21999 149.02 3.62998 151.66 3.09998 155.44C2.86998 157.09 1.33999 158.96 1.17999 160.92C1.03999 162.61 2.26998 164.38 2.25998 166.13C2.25998 166.99 2.27999 167.85 2.31999 168.7C2.43999 171.15 0.489984 174.72 1.09998 176.46C2.17998 179.56 6.29998 180.07 8.66998 181.06C10.25 181.71 12.31 182.11 14.76 182.32C18.07 182.62 22.09 182.6 26.57 182.49C34.35 182.29 39.27 179.66 39.85 172.47Z" fill="url(#paint2_linear)"/>
<path d="M32.44 121.22C32.44 121.22 32.67 116.86 29.97 115.8C27.27 114.75 21.64 119.5 21.64 119.5L24.34 119.31C24.34 119.31 27.27 116.21 29.13 117.05C31 117.89 30.57 121.21 30.57 121.21L32.44 121.22Z" fill="url(#paint3_linear)"/>
<path d="M36.14 124.27C36.14 124.27 41.36 127.5 42.84 134.77C44.32 142.03 44.3 146.93 44.29 149.47C44.28 152 47.46 157.76 46.42 162.48C46.27 163.16 50.27 168.58 48.06 171.95C45.85 175.31 44.66 175.81 43.48 176.99C42.29 178.17 38.24 177.47 38.24 177.47L38.42 175.95C38.42 175.95 40.44 176.47 42.3 175.8C44.16 175.13 44.68 173.18 45.53 171.93C47.23 169.4 46.73 167.71 45.39 166.19C44.05 164.66 41.86 163.81 40.69 159.58C39.53 155.35 38.89 147.92 38.56 146.06C38.23 144.2 39.12 135.93 36.09 132.37C33.08 128.82 36.14 124.27 36.14 124.27Z" fill="#DBD2F9"/>
<path d="M39.97 130.89C39.97 130.89 43.68 132.59 43.5 136.3C43.32 140.02 45.85 144.75 46.35 145.26C46.86 145.77 45.5 146.61 45.5 146.61C45.5 146.61 44.49 145.43 43.48 142.89C42.48 140.35 42.31 139.34 41.81 137.65C41.31 135.95 39.97 130.89 39.97 130.89Z" fill="url(#paint4_linear)"/>
<path d="M33.87 140.02C33.87 140.02 30.7 133.31 25.54 131.72C20.38 130.13 15.69 130.35 13.53 130.34C11.37 130.33 9.60999 131.28 9.60999 131.28C9.60999 131.28 9.39999 131.43 9.18999 131.77C8.97999 132.1 8.89999 132.45 8.89999 132.45C8.89999 132.45 10.03 131.4 13.88 131.42C17.73 131.44 21.93 131.82 25.53 132.92C29.13 134.02 30.31 136.81 31.15 138.24C31.89 139.5 32.34 139.81 32.34 139.81L33.87 140.02Z" fill="url(#paint5_linear)"/>
<path d="M23.7 140C23.7 140 20.33 137.33 15.44 136.81C10.94 136.33 7.97998 136.44 6.70998 136.8C5.42998 137.17 5.18998 137.41 5.18998 137.41L4.75998 138.3C4.75998 138.3 6.66998 136.94 12.3 137.3C18.2 137.68 19.84 139.06 21.24 139.77C21.83 140.07 23.7 140 23.7 140Z" fill="url(#paint6_linear)"/>
<path d="M23.33 168.2C23.33 168.2 24.74 160.87 20.62 159.63C17.11 158.57 6.87999 156.81 4.43999 157.72C1.98999 158.63 1.67999 159.08 1.67999 159.08L1.98999 158.01C1.98999 158.01 3.97999 156.49 7.33999 156.81C10.7 157.13 17.11 158.08 20.01 158.71C22.91 159.33 24.02 161.64 24.27 163.16C24.71 165.91 24.25 168.05 24.25 168.05L23.33 168.2Z" fill="url(#paint7_linear)"/>
<path d="M35.2 177.73C35.2 177.73 42.38 178.86 39.76 182.03C38.38 183.7 34.09 185.36 34.09 185.36L34.1 183.68C34.1 183.68 36.7 182.63 37.78 181.41C39.28 179.71 33.67 179.25 33.67 179.25L35.2 177.73Z" fill="#92BEF4"/>
<defs>
<linearGradient id="paint0_linear" x1="60.3423" y1="0.869918" x2="60.3423" y2="188.148" gradientUnits="userSpaceOnUse">
<stop stop-color="#92BEF4"/>
<stop offset="1" stop-color="#4ACBD2"/>
</linearGradient>
<linearGradient id="paint1_linear" x1="34.2953" y1="99.8042" x2="72.5602" y2="54.2018" gradientUnits="userSpaceOnUse">
<stop stop-color="#B1D3F4"/>
<stop offset="1" stop-color="#73DDE9"/>
</linearGradient>
<linearGradient id="paint2_linear" x1="21.4169" y1="118.481" x2="21.4169" y2="182.549" gradientUnits="userSpaceOnUse">
<stop stop-color="#DBD2F9"/>
<stop offset="0.2827" stop-color="#DCCFF4"/>
<stop offset="0.6142" stop-color="#DFC6E6"/>
<stop offset="0.9691" stop-color="#E4B7CE"/>
<stop offset="1" stop-color="#E4B5CC"/>
</linearGradient>
<linearGradient id="paint3_linear" x1="21.6414" y1="118.432" x2="32.4427" y2="118.432" gradientUnits="userSpaceOnUse">
<stop stop-color="#DBD2F9"/>
<stop offset="0.2827" stop-color="#DCCFF4"/>
<stop offset="0.6142" stop-color="#DFC6E6"/>
<stop offset="0.9691" stop-color="#E4B7CE"/>
<stop offset="1" stop-color="#E4B5CC"/>
</linearGradient>
<linearGradient id="paint4_linear" x1="39.9712" y1="138.743" x2="46.4643" y2="138.743" gradientUnits="userSpaceOnUse">
<stop stop-color="#DBD2F9"/>
<stop offset="0.2827" stop-color="#DCCFF4"/>
<stop offset="0.6142" stop-color="#DFC6E6"/>
<stop offset="0.9691" stop-color="#E4B7CE"/>
<stop offset="1" stop-color="#E4B5CC"/>
</linearGradient>
<linearGradient id="paint5_linear" x1="8.90349" y1="135.174" x2="33.872" y2="135.174" gradientUnits="userSpaceOnUse">
<stop stop-color="#92BEF4"/>
<stop offset="1" stop-color="#4ACBD2"/>
</linearGradient>
<linearGradient id="paint6_linear" x1="4.75738" y1="138.251" x2="23.6982" y2="138.251" gradientUnits="userSpaceOnUse">
<stop stop-color="#92BEF4"/>
<stop offset="1" stop-color="#4ACBD2"/>
</linearGradient>
<linearGradient id="paint7_linear" x1="1.67899" y1="162.483" x2="24.4599" y2="162.483" gradientUnits="userSpaceOnUse">
<stop stop-color="#92BEF4"/>
<stop offset="1" stop-color="#4ACBD2"/>
</linearGradient>
</defs>
</svg>
