<svg width="116" height="193" viewBox="0 0 116 193" fill="none" xmlns="http://www.w3.org/2000/svg">
<path d="M74.9035 149.162L71.1066 156.018V160.523H70.2897L70.4968 162.369C70.4968 162.369 72.8555 162.163 73.5803 164.513C74.2937 166.863 74.5008 170.555 74.5008 170.555L72.2457 168.4C72.2457 168.4 71.5208 164.307 71.1181 164.1C70.7039 163.894 69.887 164.203 69.887 164.203C69.887 164.203 70.1976 165.121 69.887 165.533C69.5763 165.946 68.1381 166.049 67.931 165.74C67.7239 165.43 67.7239 164.41 67.7239 164.41C67.7239 164.41 67.1026 163.997 67.2061 165.637C67.3097 167.276 68.0231 169.936 68.0231 169.936L66.3777 174.338C66.3777 174.338 64.9395 166.657 64.836 165.533C64.7324 164.41 64.6289 162.977 65.5493 162.667C66.4698 162.358 67.1946 162.358 67.1946 162.358L67.2982 160.821C67.2982 160.821 66.4813 161.131 66.3777 160.512C66.2742 159.893 66.0671 156.625 66.0671 156.625L56.3102 151.81L56.1031 149.253L65.5608 152.945C65.5608 152.945 65.6644 151.305 66.0786 151.099C66.4928 150.893 69.1621 150.893 69.4728 150.893C69.7834 150.893 70.6003 148.542 70.6003 148.542L74.9035 149.162Z" fill="url(#paint0_linear)"/>
<path d="M66.0441 175.978C66.6654 180.965 69.4037 184.737 72.1651 184.405C74.9265 184.061 76.6639 179.738 76.0426 174.751C75.4212 169.764 72.6829 165.981 69.9215 166.324C67.1601 166.668 65.4228 170.991 66.0441 175.978ZM70.3817 178.236L70.8995 177.422H72.3377C72.3377 177.422 72.4413 177.422 71.82 178.959C71.1986 180.495 70.6924 180.186 70.6924 180.186L70.3817 178.236Z" fill="url(#paint1_linear)"/>
<path d="M19.1006 176.528C19.929 176.643 24.0941 176.287 24.0941 176.287L35.0361 176.173V175.107H36.4628V175.932L51.2132 174.866L51.3282 173.329C51.3282 173.329 52.3982 173.329 53.5833 172.974C54.7684 172.619 55.1251 171.312 56.0801 171.082C57.0351 170.842 58.9335 170.016 59.0486 167.528C59.1636 165.04 58.0936 163.974 58.0936 163.974C58.0936 163.974 58.6919 162.197 58.807 160.065C58.922 157.932 57.852 154.848 57.852 154.848C57.852 154.848 57.852 154.848 58.3237 153.782C58.7954 152.716 58.0821 151.294 58.0821 151.294V147.27L27.1546 148.577C27.1546 148.577 26.7979 151.305 26.0846 153.438C25.3712 155.57 23.3462 155.926 23.2312 156.751C23.1161 157.577 23.2312 160.431 22.0461 162.919C20.861 165.407 20.7344 165.166 19.6644 166.955C18.5943 168.732 20.2627 171.461 20.2627 171.461C20.2627 171.461 17.1676 172.172 16.9375 172.642C16.7304 173.089 18.2722 176.414 19.1006 176.528ZM38.6144 170.486L42.8945 171.312H38.6144V170.486Z" fill="url(#paint2_linear)"/>
<path d="M0.0355475 149.162C0.587824 173.547 7.42224 193.175 15.3037 192.992C23.1851 192.82 29.1336 172.905 28.5813 148.519C28.029 124.134 21.1946 104.506 13.3132 104.689C5.43175 104.861 -0.516729 124.776 0.0355475 149.162ZM12.6574 116.085C16.4197 115.776 19.7449 131.735 20.0556 151.179C20.3662 170.624 16.2472 185.895 13.6353 185.895C11.967 185.895 6.68587 170.83 6.37522 151.386C6.07607 131.953 9.82694 116.315 12.6574 116.085Z" fill="#92BEF4"/>
<path d="M88.6873 101.972C88.6873 101.972 90.8274 100.436 93.4507 101.857C96.0625 103.279 97.2591 106.248 97.2591 106.248C97.2591 106.248 99.7559 106.604 101.298 109.917C102.839 113.231 109.03 126.278 109.145 150.216C109.26 174.155 103.196 187.317 98.2026 189.449C93.2091 191.582 89.2856 186.847 86.7889 181.389C84.2921 175.932 81.082 163.493 80.5988 155.903C80.1271 148.313 79.5288 138.247 80.0005 132.32C80.4722 126.392 80.4722 126.392 80.4722 126.392L85.3507 128.41C85.3507 128.41 86.1791 157.806 90.5858 170.968C94.9925 184.118 97.3627 183.052 97.3627 183.052C97.3627 183.052 105.095 170.968 102.713 141.801C100.331 112.646 93.3126 107.785 93.3126 107.785C93.3126 107.785 90.931 110.628 89.9875 113.712C89.0325 116.796 89.0325 116.796 89.0325 116.796L88.6873 101.972Z" fill="#92BEF4"/>
<path d="M95.8094 145.779C95.8094 147.958 96.4308 149.723 97.2017 149.723C97.9725 149.723 98.5938 147.958 98.5938 145.779C98.5938 143.601 97.9725 141.835 97.2017 141.835C96.4308 141.835 95.8094 143.601 95.8094 145.779Z" fill="url(#paint3_linear)"/>
<path d="M98.3292 143.83C98.3292 143.83 99.4567 144.037 99.4567 145.263C99.4567 146.49 98.5363 146.697 98.1221 146.697C97.7079 146.708 98.3292 143.83 98.3292 143.83Z" fill="url(#paint4_linear)"/>
<path d="M96.3847 142.776L81.991 144.014C81.991 144.014 79.6324 142.959 76.2382 142.959C72.844 142.948 73.0511 143.991 73.0511 143.991L34.0005 146.089L18.1801 145.355L12.3237 146.272C12.3237 146.272 9.96503 146.387 9.34372 146.846C8.72241 147.304 8.30821 149.62 9.22867 150.09C10.1491 150.56 14.878 151.145 20.838 151.156C26.7979 151.168 28.3397 151.638 36.5548 151.546C44.7699 151.454 75.0876 150.721 75.0876 150.721C75.0876 150.721 75.3982 151.764 77.4463 151.776C79.5058 151.776 80.0236 150.503 80.0236 150.503L88.86 149.712C88.86 149.712 89.6769 149.941 89.9875 149.368C90.2982 148.795 90.2982 148.554 90.2982 148.554L96.3617 148.107L96.3847 142.776Z" fill="#92BEF4"/>
<path d="M10.6323 152.544C11.344 152.544 11.921 150.732 11.921 148.497C11.921 146.261 11.344 144.449 10.6323 144.449C9.92063 144.449 9.34369 146.261 9.34369 148.497C9.34369 150.732 9.92063 152.544 10.6323 152.544Z" fill="url(#paint5_linear)"/>
<path d="M102.38 133.328L97.7397 144.232L97.9939 144.34L102.634 133.436L102.38 133.328Z" fill="url(#paint6_linear)"/>
<path d="M104.289 145.94L104.255 146.204L96.7644 145.137L96.7989 144.862L104.289 145.94Z" fill="url(#paint7_linear)"/>
<path d="M103.277 138.602L94.4748 143.693L94.3367 143.463L103.139 138.362L103.277 138.602Z" fill="url(#paint8_linear)"/>
<path d="M100.329 120.563L98.0703 144.741L98.3338 144.765L100.593 120.587L100.329 120.563Z" fill="url(#paint9_linear)"/>
<path d="M97.1556 111.453H96.8795V143.097H97.1556V111.453Z" fill="url(#paint10_linear)"/>
<path d="M92.6611 147.275L92.5527 147.528L104.701 152.695L104.809 152.442L92.6611 147.275Z" fill="url(#paint11_linear)"/>
<path d="M104.163 159.17L103.921 159.285C103.921 159.285 98.7319 148.095 97.8805 146.261C98.3292 148.37 102.747 169.397 102.747 169.397L102.483 169.454L97.3627 145.16L97.6159 145.08L104.163 159.17Z" fill="url(#paint12_linear)"/>
<path d="M96.4308 144.232L96.1891 144.346L90.7124 133.799L90.954 133.684L96.4308 144.232Z" fill="url(#paint13_linear)"/>
<path d="M91.6658 128.475L91.4053 128.566L96.7566 143.741L97.0171 143.65L91.6658 128.475Z" fill="url(#paint14_linear)"/>
<path d="M97.029 144.025L96.7644 144.083L88.6758 105.32L88.9405 105.262L97.029 144.025Z" fill="url(#paint15_linear)"/>
<path d="M99.2842 114.457L90.8389 141.365L90.5858 141.285L99.031 114.377L99.2842 114.457Z" fill="url(#paint16_linear)"/>
<path d="M102.146 124.668L89.8958 142.917L90.1253 143.07L102.376 124.821L102.146 124.668Z" fill="url(#paint17_linear)"/>
<path d="M97.7011 147.482L97.4262 147.509L100.601 180.099L100.875 180.072L97.7011 147.482Z" fill="url(#paint18_linear)"/>
<path d="M104.853 165.419L104.646 165.591L89.7804 146.983L89.9875 146.811L104.853 165.419Z" fill="url(#paint19_linear)"/>
<path d="M97.3972 147.866L93.2321 180.816L92.956 180.782L97.1211 147.832L97.3972 147.866Z" fill="url(#paint20_linear)"/>
<path d="M97.0181 147.101L89.762 173.295L90.0282 173.368L97.2843 147.174L97.0181 147.101Z" fill="url(#paint21_linear)"/>
<path d="M97.1326 146.719L87.5023 164.272L87.2607 164.135L96.9025 146.593L97.1326 146.719Z" fill="url(#paint22_linear)"/>
<path d="M97.5123 144.633L97.5238 144.702L86.4092 155.777L86.2136 155.582C86.2136 155.582 97.1326 144.702 97.2246 144.61C97.2016 144.484 92.001 105.205 92.001 105.205L92.2657 105.171L97.5123 144.633Z" fill="url(#paint23_linear)"/>
<path d="M89.6479 147.323L89.3955 147.435L101.638 174.934L101.89 174.823L89.6479 147.323Z" fill="url(#paint24_linear)"/>
<path d="M88.838 147.813L88.5729 147.89L99.1597 184.045L99.4248 183.968L88.838 147.813Z" fill="url(#paint25_linear)"/>
<path d="M95.1306 183.029L94.866 183.075L88.3192 146.685L88.5838 146.639L95.1306 183.029Z" fill="url(#paint26_linear)"/>
<path d="M89.8955 170.727H89.6308L89.3892 147.018H89.6654L89.8955 170.727Z" fill="url(#paint27_linear)"/>
<path d="M88.9112 147.112L86.8902 159.434L87.1627 159.478L89.1837 147.157L88.9112 147.112Z" fill="url(#paint28_linear)"/>
<path d="M88.8139 147.912L86.1906 152.888L85.9605 152.761L88.5723 147.786L88.8139 147.912Z" fill="url(#paint29_linear)"/>
<path d="M6.06349 141.895L5.98206 142.158L18.35 145.962L18.4314 145.699L6.06349 141.895Z" fill="url(#paint30_linear)"/>
<path d="M10.7299 148.382L10.5455 148.587L23.8878 160.516L24.0722 160.311L10.7299 148.382Z" fill="url(#paint31_linear)"/>
<path d="M5.43611 133.353L5.17212 133.433L9.69905 148.131L9.96304 148.05L5.43611 133.353Z" fill="url(#paint32_linear)"/>
<path d="M11.0087 124.006L8.98669 147.239L9.26182 147.263L11.2838 124.03L11.0087 124.006Z" fill="url(#paint33_linear)"/>
<path d="M20.884 168.766L20.6539 168.893L10.7704 149.804L11.0121 149.677L20.884 168.766Z" fill="url(#paint34_linear)"/>
<path d="M11.2441 151.606L10.9835 151.696L19.1022 174.798L19.3628 174.707L11.2441 151.606Z" fill="url(#paint35_linear)"/>
<path d="M17.3287 183.373L17.0641 183.43C17.0641 183.43 11.4378 156.075 10.6323 152.142C10.9775 156.189 13.6469 187.294 13.6469 187.294L13.3822 187.317L10.1721 149.861L10.4368 149.826L17.3287 183.373Z" fill="url(#paint36_linear)"/>
<path d="M10.5518 150.457L10.0801 183.293L9.80396 183.281L10.2872 150.457H10.5518Z" fill="url(#paint37_linear)"/>
<path d="M11.2652 149.058L6.74339 168.858L6.47876 168.801L11.0005 149.001L11.2652 149.058Z" fill="url(#paint38_linear)"/>
<path d="M11.9619 147.317L5.18323 162.13L5.43449 162.245L12.2132 147.431L11.9619 147.317Z" fill="url(#paint39_linear)"/>
<path d="M10.7913 147.988L4.3692 155.215L4.57595 155.398L10.998 148.17L10.7913 147.988Z" fill="url(#paint40_linear)"/>
<path d="M5.58858 147.125L5.5116 147.389L10.0311 148.696L10.1081 148.432L5.58858 147.125Z" fill="url(#paint41_linear)"/>
<path d="M10.5518 147.705L10.6208 148.187L4.60333 140.941L4.81044 140.769C4.81044 140.769 9.65436 146.605 10.2066 147.27C10.0686 146.353 6.95051 125.108 6.95051 125.108L7.21514 125.074L10.5518 147.705Z" fill="url(#paint42_linear)"/>
<path d="M21.2176 138.109L10.989 147.476L10.8049 147.27L21.0335 137.914L21.2176 138.109Z" fill="url(#paint43_linear)"/>
<path d="M20.8858 127.392L10.8949 146.237L11.1391 146.366L21.1299 127.52L20.8858 127.392Z" fill="url(#paint44_linear)"/>
<path d="M16.857 123.228L10.4368 147.293L10.1721 147.224L16.5923 123.159L16.857 123.228Z" fill="url(#paint45_linear)"/>
<path d="M19.8034 128.632L18.4951 146.768L18.7705 146.788L20.0789 128.652L19.8034 128.632Z" fill="url(#paint46_linear)"/>
<path d="M18.0536 144.381L17.7774 144.438L14.2106 124.753L14.4753 124.707L18.0536 144.381Z" fill="url(#paint47_linear)"/>
<path d="M18.1916 146.066H17.927L17.6854 122.838H17.9615L18.1916 146.066Z" fill="url(#paint48_linear)"/>
<path d="M18.8705 146.135L18.6174 146.238L10.7704 124.902L11.0236 124.81L18.8705 146.135Z" fill="url(#paint49_linear)"/>
<path d="M8.39709 132.476L8.17706 132.642L18.2866 145.925L18.5066 145.758L8.39709 132.476Z" fill="url(#paint50_linear)"/>
<path d="M18.3873 149.7L6.49031 167.242L6.26019 167.093L18.1571 149.551L18.3873 149.7Z" fill="url(#paint51_linear)"/>
<path d="M18.7554 149.437L8.04359 177.411L7.79047 177.308L18.5023 149.345L18.7554 149.437Z" fill="url(#paint52_linear)"/>
<path d="M18.5253 150.01L11.5068 185.563L11.2422 185.517L18.2607 149.953L18.5253 150.01Z" fill="url(#paint53_linear)"/>
<path d="M17.4305 149.265L15.05 186.486L15.3256 186.503L17.7061 149.283L17.4305 149.265Z" fill="url(#paint54_linear)"/>
<path d="M18.7694 148.666L18.4963 148.708L20.6289 162.695L20.9019 162.654L18.7694 148.666Z" fill="url(#paint55_linear)"/>
<path d="M21.8505 154.561L21.5974 154.642C21.4938 154.367 18.9971 150.904 17.3287 148.634L17.5473 148.474C17.9731 149.058 21.7239 154.195 21.8505 154.561Z" fill="url(#paint56_linear)"/>
<path d="M18.5253 150.916L19.4803 169.409L19.2157 169.42C19.2157 169.42 18.5714 157.004 18.3873 153.346C18.1341 157.508 16.5118 184.359 16.5118 184.359L16.2472 184.347L18.2722 150.916H18.5253Z" fill="url(#paint57_linear)"/>
<path fill-rule="evenodd" clip-rule="evenodd" d="M83.9355 40.8068C83.1216 40.0674 82.0774 39.9421 81.002 39.813C80.0098 39.6939 78.991 39.5717 78.1021 38.961C76.2497 37.6884 74.1211 36.4043 69.8525 34.9941C65.5838 33.5725 61.3152 33.2973 61.3152 33.2973C61.3152 33.2973 61.1771 30.1789 60.0381 30.0413C58.899 29.9037 57.6219 29.9037 57.6219 29.9037C57.6219 29.9037 57.0581 29.0553 57.0581 27.6336C57.0581 26.212 56.92 25.226 56.92 25.226C56.92 25.226 57.2192 27.1292 58.3122 26.4757C59.0256 26.0515 60.1416 22.8528 59.831 19.9866C59.6239 18.0605 59.1751 16.914 58.6804 16.8796C58.1856 16.8452 58.1396 17.0859 58.1396 17.0859C58.1396 17.0859 58.2202 10.4822 55.7924 5.52934C53.3762 0.565039 47.6809 -0.420942 42.5608 0.140838C37.4408 0.702618 34.7369 4.33699 33.4483 7.87964C32.1711 11.4223 33.5173 18.3012 33.5173 18.3012C33.5173 18.3012 32.1596 17.9344 32.3092 21.0528C32.4473 24.1713 33.4138 25.7419 34.5528 27.1521C35.6919 28.5738 36.3362 26.854 36.3362 26.854C36.3362 26.854 36.7274 27.37 37.4408 29.491C38.1541 31.612 38.2922 33.0336 38.2922 33.0336C38.2922 33.0336 36.1636 33.882 34.5988 35.3037C33.0341 36.7253 28.7654 39.5571 25.4978 41.2539C24.5397 41.7515 23.6785 42.1278 22.9076 42.4646L22.9075 42.4647C21.0493 43.2766 19.7156 43.8593 18.813 45.3584C18.2424 46.306 17.5294 48.1322 16.75 50.1288C15.7848 52.6012 14.7177 55.3346 13.6929 56.9838C12.7861 58.443 11.8131 60.545 10.8725 62.5771C9.89164 64.6963 8.94592 66.7395 8.14712 67.8984C7.8935 68.2663 7.66226 68.5893 7.45401 68.8802C6.37739 70.3842 5.9156 71.0294 6.15662 72.576C6.44426 74.4219 6.86998 74.8461 6.86998 74.8461C6.86998 74.8461 6.01855 79.948 6.86998 84.7632C7.25259 86.9271 8.12313 89.2067 9.01801 91.5501C10.1145 94.4214 11.2476 97.3884 11.5643 100.355C12.1281 105.744 12.2777 108.438 11.852 109.711C11.5072 110.741 10.0382 113.637 9.19249 115.303L9.1924 115.304L9.19236 115.304C8.9938 115.695 8.82961 116.019 8.7224 116.234C8.62336 116.434 8.50194 116.65 8.36907 116.888C7.74562 118.001 6.86998 119.564 6.86998 121.898C6.86998 124.73 8.7224 124.73 8.7224 124.73C8.7224 124.73 8.58433 126.289 9.57383 126.289H10.5748C10.5748 126.289 11.2882 127.562 12.4273 127.562H13.5663C13.5663 127.562 13.992 127.986 14.993 127.986C15.994 127.986 16.6959 126.14 16.6959 126.14C16.6959 126.14 18.3987 127.275 18.6864 126.002C18.8338 125.35 18.7546 124.659 18.6625 123.855C18.5748 123.089 18.4754 122.221 18.5483 121.187C18.6252 120.006 19.3661 118.6 20.081 117.244C20.6496 116.165 21.2017 115.118 21.3902 114.239C21.611 113.211 21.2193 111.609 20.7315 109.615C20.2786 107.763 19.7428 105.572 19.5378 103.187C19.522 103.003 19.5073 102.815 19.4938 102.626C19.5963 103.259 19.7064 103.964 19.8255 104.758C20.6769 110.433 23.6799 119.903 23.6799 119.903L25.6536 119.861C24.1857 126.68 27.1891 148.554 27.1891 148.554L53.5834 147.625L54.115 146.335L84.1656 145.596L84.6488 140.139C84.6488 140.139 83.8204 138.958 82.3937 138.958C80.967 138.958 77.2737 139.669 77.2737 139.669L61.925 140.139L84.4072 133.741L85.2356 134.693C86.0756 135.644 87.6173 135.404 87.6173 135.404L87.5023 145.951L91.3107 144.53L93.3357 118.332C93.3357 118.332 92.7374 117.507 91.3107 117.507C90.5617 117.507 90.0093 117.703 89.6535 117.889L88.814 74.2843C88.814 74.2843 90.2407 74.5709 92.2312 74.8461C93.5764 75.0398 94.4172 75.8357 95.1725 76.5508C95.5348 76.8938 95.8774 77.2182 96.2467 77.4486C97.3857 78.1594 99.2037 75.1327 99.2037 75.1327C99.2037 75.1327 101.769 76.2677 101.769 79.2371C101.769 82.218 102.909 90.5759 104.186 95.3912C105.463 100.206 104.048 101.915 104.048 101.915C104.048 101.915 102.483 102.763 101.206 105.32C100.386 106.961 100.325 108.305 100.273 109.433C100.245 110.062 100.219 110.623 100.067 111.132C99.9385 111.56 99.6231 112.122 99.2784 112.735C98.4772 114.161 97.5179 115.869 98.3867 116.831C99.1979 117.73 99.9376 116.964 100.732 116.142L100.732 116.141C100.839 116.031 100.947 115.919 101.056 115.81C101.41 115.461 101.731 115.078 102.03 114.721L102.03 114.721C102.725 113.892 103.303 113.202 103.898 113.403C104.749 113.689 104.462 116.808 103.472 117.943C103.046 118.432 102.036 118.684 101.025 118.938C99.69 119.272 98.3522 119.607 98.3522 120.488C98.3522 122.047 99.6294 121.76 99.6294 121.76C99.6294 121.76 98.916 123.32 99.6294 124.03C100.343 124.741 101.758 124.741 101.758 124.741C101.758 124.741 103.035 125.315 104.462 125.315C105.888 125.315 109.72 124.741 110.433 124.042C111.147 123.331 111.998 121.634 111.86 118.802C111.794 117.457 111.726 116.366 111.658 115.272C111.582 114.063 111.507 112.852 111.434 111.293C111.363 109.757 111.591 108.638 111.811 107.564C112.017 106.554 112.215 105.584 112.148 104.345C112.086 103.195 112.368 101.79 112.71 100.087C113.129 98.0056 113.636 95.4796 113.712 92.4332C113.764 90.3861 114.089 88.9022 114.407 87.4564C114.947 84.9995 115.462 82.6526 114.564 77.8384C114.44 77.175 114.327 76.5638 114.223 75.9995C113.124 70.0501 112.99 69.3206 111.434 67.6347C109.674 65.7544 107.396 64.1952 107.396 64.1952C107.396 64.1952 107.396 63.2092 106.395 62.3493C106.292 62.2619 106.134 62.1306 105.929 61.9598L105.927 61.9585C104.143 60.4716 98.7692 55.995 94.3022 51.2972C91.7485 48.6115 89.9445 47.1157 88.6779 46.0655C87.4736 45.0669 86.7552 44.4713 86.3402 43.6386C85.949 42.8476 83.9355 40.8068 83.9355 40.8068ZM22.84 80.0167C21.8602 80.1049 21.0458 80.362 20.3717 80.7514C20.3892 79.8297 20.3892 79.2371 20.3892 79.2371C20.3892 79.2371 20.5273 80.0855 22.9435 78.6754C25.3597 77.2537 27.4998 74.4219 27.4998 74.4219C27.4114 75.0169 27.3317 75.535 27.2609 75.9957C26.7967 79.0152 26.712 79.5657 27.0264 83.1417C26.786 81.9441 25.8887 79.7356 22.84 80.0167Z" fill="url(#paint58_linear)"/>
<defs>
<linearGradient id="paint0_linear" x1="65.5033" y1="148.542" x2="65.5033" y2="174.338" gradientUnits="userSpaceOnUse">
<stop offset="1" stop-color="#53E6DD"/>
</linearGradient>
<linearGradient id="paint1_linear" x1="71.0433" y1="166.303" x2="71.0433" y2="184.425" gradientUnits="userSpaceOnUse">
<stop offset="1" stop-color="#53E6DD"/>
</linearGradient>
<linearGradient id="paint2_linear" x1="37.9879" y1="147.27" x2="37.9879" y2="176.551" gradientUnits="userSpaceOnUse">
<stop offset="1" stop-color="#53E6DD"/>
</linearGradient>
<linearGradient id="paint3_linear" x1="97.2016" y1="141.835" x2="97.2016" y2="149.723" gradientUnits="userSpaceOnUse">
<stop offset="1" stop-color="#53E6DD"/>
</linearGradient>
<linearGradient id="paint4_linear" x1="98.7182" y1="143.83" x2="98.7182" y2="146.697" gradientUnits="userSpaceOnUse">
<stop offset="1" stop-color="#53E6DD"/>
</linearGradient>
<linearGradient id="paint5_linear" x1="10.6323" y1="144.449" x2="10.6323" y2="152.544" gradientUnits="userSpaceOnUse">
<stop offset="1" stop-color="#53E6DD"/>
</linearGradient>
<linearGradient id="paint6_linear" x1="100.06" y1="138.78" x2="100.314" y2="138.888" gradientUnits="userSpaceOnUse">
<stop offset="1" stop-color="#53E6DD"/>
</linearGradient>
<linearGradient id="paint7_linear" x1="100.527" y1="144.862" x2="100.527" y2="146.204" gradientUnits="userSpaceOnUse">
<stop offset="1" stop-color="#53E6DD"/>
</linearGradient>
<linearGradient id="paint8_linear" x1="98.8067" y1="138.362" x2="98.8067" y2="143.693" gradientUnits="userSpaceOnUse">
<stop offset="1" stop-color="#53E6DD"/>
</linearGradient>
<linearGradient id="paint9_linear" x1="99.1998" y1="132.652" x2="99.4633" y2="132.676" gradientUnits="userSpaceOnUse">
<stop offset="1" stop-color="#53E6DD"/>
</linearGradient>
<linearGradient id="paint10_linear" x1="97.0175" y1="111.453" x2="97.0175" y2="143.097" gradientUnits="userSpaceOnUse">
<stop offset="1" stop-color="#53E6DD"/>
</linearGradient>
<linearGradient id="paint11_linear" x1="92.6069" y1="147.401" x2="104.741" y2="152.6" gradientUnits="userSpaceOnUse">
<stop offset="1" stop-color="#53E6DD"/>
</linearGradient>
<linearGradient id="paint12_linear" x1="100.763" y1="145.08" x2="100.763" y2="169.454" gradientUnits="userSpaceOnUse">
<stop offset="1" stop-color="#53E6DD"/>
</linearGradient>
<linearGradient id="paint13_linear" x1="93.5716" y1="133.684" x2="93.5716" y2="144.346" gradientUnits="userSpaceOnUse">
<stop offset="1" stop-color="#53E6DD"/>
</linearGradient>
<linearGradient id="paint14_linear" x1="91.5356" y1="128.521" x2="96.8531" y2="143.707" gradientUnits="userSpaceOnUse">
<stop offset="1" stop-color="#53E6DD"/>
</linearGradient>
<linearGradient id="paint15_linear" x1="92.8524" y1="105.262" x2="92.8524" y2="144.083" gradientUnits="userSpaceOnUse">
<stop offset="1" stop-color="#53E6DD"/>
</linearGradient>
<linearGradient id="paint16_linear" x1="94.935" y1="114.377" x2="94.935" y2="141.365" gradientUnits="userSpaceOnUse">
<stop offset="1" stop-color="#53E6DD"/>
</linearGradient>
<linearGradient id="paint17_linear" x1="96.0211" y1="133.792" x2="96.2502" y2="133.946" gradientUnits="userSpaceOnUse">
<stop offset="1" stop-color="#53E6DD"/>
</linearGradient>
<linearGradient id="paint18_linear" x1="97.5636" y1="147.496" x2="100.716" y2="180.088" gradientUnits="userSpaceOnUse">
<stop offset="1" stop-color="#53E6DD"/>
</linearGradient>
<linearGradient id="paint19_linear" x1="97.3167" y1="146.811" x2="97.3167" y2="165.591" gradientUnits="userSpaceOnUse">
<stop offset="1" stop-color="#53E6DD"/>
</linearGradient>
<linearGradient id="paint20_linear" x1="95.1766" y1="147.832" x2="95.1766" y2="180.816" gradientUnits="userSpaceOnUse">
<stop offset="1" stop-color="#53E6DD"/>
</linearGradient>
<linearGradient id="paint21_linear" x1="93.3901" y1="160.198" x2="93.6561" y2="160.272" gradientUnits="userSpaceOnUse">
<stop offset="1" stop-color="#53E6DD"/>
</linearGradient>
<linearGradient id="paint22_linear" x1="92.1966" y1="146.593" x2="92.1966" y2="164.272" gradientUnits="userSpaceOnUse">
<stop offset="1" stop-color="#53E6DD"/>
</linearGradient>
<linearGradient id="paint23_linear" x1="91.8687" y1="105.171" x2="91.8687" y2="155.777" gradientUnits="userSpaceOnUse">
<stop offset="1" stop-color="#53E6DD"/>
</linearGradient>
<linearGradient id="paint24_linear" x1="89.5217" y1="147.379" x2="101.692" y2="174.911" gradientUnits="userSpaceOnUse">
<stop offset="1" stop-color="#53E6DD"/>
</linearGradient>
<linearGradient id="paint25_linear" x1="88.7055" y1="147.851" x2="99.223" y2="184.027" gradientUnits="userSpaceOnUse">
<stop offset="1" stop-color="#53E6DD"/>
</linearGradient>
<linearGradient id="paint26_linear" x1="91.7249" y1="146.639" x2="91.7249" y2="183.075" gradientUnits="userSpaceOnUse">
<stop offset="1" stop-color="#53E6DD"/>
</linearGradient>
<linearGradient id="paint27_linear" x1="89.6423" y1="147.018" x2="89.6423" y2="170.727" gradientUnits="userSpaceOnUse">
<stop offset="1" stop-color="#53E6DD"/>
</linearGradient>
<linearGradient id="paint28_linear" x1="87.9007" y1="153.273" x2="88.1732" y2="153.318" gradientUnits="userSpaceOnUse">
<stop offset="1" stop-color="#53E6DD"/>
</linearGradient>
<linearGradient id="paint29_linear" x1="87.3872" y1="147.786" x2="87.3872" y2="152.888" gradientUnits="userSpaceOnUse">
<stop offset="1" stop-color="#53E6DD"/>
</linearGradient>
<linearGradient id="paint30_linear" x1="6.02277" y1="142.027" x2="18.3831" y2="145.855" gradientUnits="userSpaceOnUse">
<stop offset="1" stop-color="#53E6DD"/>
</linearGradient>
<linearGradient id="paint31_linear" x1="10.6377" y1="148.485" x2="23.9377" y2="160.46" gradientUnits="userSpaceOnUse">
<stop offset="1" stop-color="#53E6DD"/>
</linearGradient>
<linearGradient id="paint32_linear" x1="5.30411" y1="133.393" x2="9.80169" y2="148.1" gradientUnits="userSpaceOnUse">
<stop offset="1" stop-color="#53E6DD"/>
</linearGradient>
<linearGradient id="paint33_linear" x1="9.99769" y1="135.623" x2="10.2728" y2="135.646" gradientUnits="userSpaceOnUse">
<stop offset="1" stop-color="#53E6DD"/>
</linearGradient>
<linearGradient id="paint34_linear" x1="15.8272" y1="149.677" x2="15.8272" y2="168.893" gradientUnits="userSpaceOnUse">
<stop offset="1" stop-color="#53E6DD"/>
</linearGradient>
<linearGradient id="paint35_linear" x1="11.1138" y1="151.651" x2="19.1812" y2="174.771" gradientUnits="userSpaceOnUse">
<stop offset="1" stop-color="#53E6DD"/>
</linearGradient>
<linearGradient id="paint36_linear" x1="13.7504" y1="149.826" x2="13.7504" y2="187.317" gradientUnits="userSpaceOnUse">
<stop offset="1" stop-color="#53E6DD"/>
</linearGradient>
<linearGradient id="paint37_linear" x1="10.1779" y1="150.457" x2="10.1779" y2="183.293" gradientUnits="userSpaceOnUse">
<stop offset="1" stop-color="#53E6DD"/>
</linearGradient>
<linearGradient id="paint38_linear" x1="8.87196" y1="149.001" x2="8.87196" y2="168.858" gradientUnits="userSpaceOnUse">
<stop offset="1" stop-color="#53E6DD"/>
</linearGradient>
<linearGradient id="paint39_linear" x1="8.57258" y1="154.724" x2="8.82354" y2="154.839" gradientUnits="userSpaceOnUse">
<stop offset="1" stop-color="#53E6DD"/>
</linearGradient>
<linearGradient id="paint40_linear" x1="7.58024" y1="151.602" x2="7.78634" y2="151.785" gradientUnits="userSpaceOnUse">
<stop offset="1" stop-color="#53E6DD"/>
</linearGradient>
<linearGradient id="paint41_linear" x1="5.55009" y1="147.257" x2="10.0671" y2="148.573" gradientUnits="userSpaceOnUse">
<stop offset="1" stop-color="#53E6DD"/>
</linearGradient>
<linearGradient id="paint42_linear" x1="7.61209" y1="125.074" x2="7.61209" y2="148.187" gradientUnits="userSpaceOnUse">
<stop offset="1" stop-color="#53E6DD"/>
</linearGradient>
<linearGradient id="paint43_linear" x1="16.0113" y1="137.914" x2="16.0113" y2="147.476" gradientUnits="userSpaceOnUse">
<stop offset="1" stop-color="#53E6DD"/>
</linearGradient>
<linearGradient id="paint44_linear" x1="15.8903" y1="136.815" x2="16.1341" y2="136.944" gradientUnits="userSpaceOnUse">
<stop offset="1" stop-color="#53E6DD"/>
</linearGradient>
<linearGradient id="paint45_linear" x1="13.5145" y1="123.159" x2="13.5145" y2="147.293" gradientUnits="userSpaceOnUse">
<stop offset="1" stop-color="#53E6DD"/>
</linearGradient>
<linearGradient id="paint46_linear" x1="19.1493" y1="137.7" x2="19.4247" y2="137.72" gradientUnits="userSpaceOnUse">
<stop offset="1" stop-color="#53E6DD"/>
</linearGradient>
<linearGradient id="paint47_linear" x1="16.1321" y1="124.707" x2="16.1321" y2="144.438" gradientUnits="userSpaceOnUse">
<stop offset="1" stop-color="#53E6DD"/>
</linearGradient>
<linearGradient id="paint48_linear" x1="17.9385" y1="122.838" x2="17.9385" y2="146.066" gradientUnits="userSpaceOnUse">
<stop offset="1" stop-color="#53E6DD"/>
</linearGradient>
<linearGradient id="paint49_linear" x1="14.8205" y1="124.81" x2="14.8205" y2="146.238" gradientUnits="userSpaceOnUse">
<stop offset="1" stop-color="#53E6DD"/>
</linearGradient>
<linearGradient id="paint50_linear" x1="8.28708" y1="132.559" x2="18.351" y2="145.876" gradientUnits="userSpaceOnUse">
<stop offset="1" stop-color="#53E6DD"/>
</linearGradient>
<linearGradient id="paint51_linear" x1="12.3237" y1="149.551" x2="12.3237" y2="167.242" gradientUnits="userSpaceOnUse">
<stop offset="1" stop-color="#53E6DD"/>
</linearGradient>
<linearGradient id="paint52_linear" x1="13.273" y1="149.345" x2="13.273" y2="177.411" gradientUnits="userSpaceOnUse">
<stop offset="1" stop-color="#53E6DD"/>
</linearGradient>
<linearGradient id="paint53_linear" x1="14.8838" y1="149.953" x2="14.8838" y2="185.563" gradientUnits="userSpaceOnUse">
<stop offset="1" stop-color="#53E6DD"/>
</linearGradient>
<linearGradient id="paint54_linear" x1="16.2403" y1="167.875" x2="16.5158" y2="167.893" gradientUnits="userSpaceOnUse">
<stop offset="1" stop-color="#53E6DD"/>
</linearGradient>
<linearGradient id="paint55_linear" x1="18.6328" y1="148.687" x2="20.7506" y2="162.677" gradientUnits="userSpaceOnUse">
<stop offset="1" stop-color="#53E6DD"/>
</linearGradient>
<linearGradient id="paint56_linear" x1="19.5896" y1="148.474" x2="19.5896" y2="154.642" gradientUnits="userSpaceOnUse">
<stop offset="1" stop-color="#53E6DD"/>
</linearGradient>
<linearGradient id="paint57_linear" x1="17.8638" y1="150.916" x2="17.8638" y2="184.359" gradientUnits="userSpaceOnUse">
<stop offset="1" stop-color="#53E6DD"/>
</linearGradient>
<linearGradient id="paint58_linear" x1="60.9815" y1="-11.4731" x2="35.8448" y2="165.111" gradientUnits="userSpaceOnUse">
<stop stop-color="#93E0F1"/>
<stop offset="1" stop-color="#50E6DC"/>
</linearGradient>
</defs>
</svg>
