<svg width="68" height="243" viewBox="0 0 68 243" fill="none" xmlns="http://www.w3.org/2000/svg">
<path d="M10.8063 62.296C10.8063 62.296 9.78443 73.4599 9.78443 76.3259C9.78443 79.1918 8.96252 87.3787 8.7626 92.5997C8.56268 97.8206 7.42978 104.375 7.42978 106.73C7.42978 109.085 8.04065 110.929 9.5845 110.418C11.1172 109.907 11.7281 107.863 11.7281 106.019C11.7281 104.175 11.7281 103.053 11.7281 103.053L11.0173 102.853C11.0173 102.853 10.8174 109.096 9.37347 109.407C7.94069 109.718 8.25168 105.408 8.66264 102.953C9.07359 100.498 9.99546 95.7878 10.2953 92.6108C10.6063 89.4338 12.1391 77.2479 11.928 73.26C11.717 69.2498 10.8063 62.296 10.8063 62.296Z" fill="#22DDBE"/>
<path d="M58.2991 68.4944C58.2991 68.4944 60.6649 65.7729 61.2313 65.4841C61.8089 65.1952 62.4531 65.5507 64.0969 65.9173C65.7407 66.2728 65.9628 66.5616 65.2409 67.5613C64.53 68.5611 63.1639 69.783 63.1639 69.783L55.7112 72.0047L58.2991 68.4944Z" fill="#22DDBE"/>
<path d="M58.6545 68.6389L61.3757 65.8395L64.0969 66.5505L62.0199 68.7722C62.031 68.7833 58.4435 68.6389 58.6545 68.6389Z" fill="#22DDBE"/>
<path d="M44.2601 73.0156C44.4711 72.8046 47.4144 71.005 48.2696 69.5054C49.1249 68.0057 50.0578 65.784 51.1352 65.2731C52.2126 64.7732 53.3566 64.6288 54.7894 64.6288C56.2221 64.6288 57.0774 64.1955 57.5883 65.3508C58.0881 66.495 58.0881 66.495 58.0881 66.495L52.2126 71.4382L44.982 77.459L44.2601 73.0156Z" fill="url(#paint0_linear)"/>
<path d="M13.4608 118.193C13.4608 118.193 11.5171 118.093 10.7952 117.682C10.0732 117.271 10.0732 117.271 10.0732 117.271L9.97326 115.838C9.97326 115.838 8.32945 115.128 8.12952 115.427C7.9296 115.738 7.9296 116.96 7.9296 116.96C7.9296 116.96 6.49682 116.649 5.164 116.96C3.83118 117.271 3.42023 119.415 3.63126 120.537C3.83118 121.659 3.2203 124.836 3.2203 125.758C3.2203 126.68 3.2203 127.091 3.2203 127.091C3.2203 127.091 1.47653 130.157 1.47653 132.112C1.47653 134.056 1.37657 139.588 1.06558 141.332C0.754587 143.076 1.47653 143.687 1.47653 143.687C1.47653 143.687 0.965617 145.22 2.90931 145.631C4.85301 146.042 7.9296 144.909 11.717 144.909C15.5045 144.909 17.0372 144.398 19.2919 144.598C21.5466 144.798 22.4684 143.476 21.7465 140.088C21.0357 136.711 14.7825 122.27 14.7825 122.27L13.4608 118.193Z" fill="#22DDBE"/>
<path d="M21.6576 28.6597C21.6576 28.6597 22.6572 33.5696 20.5136 37.3242C18.37 41.09 16.8595 42.9118 16.8595 42.9118C16.8595 42.9118 14.2827 43.345 13.8495 44.6336C13.4164 45.9221 12.239 50.1211 11.3838 52.4761C10.5286 54.8422 10.3064 57.5304 10.7396 58.1747C11.1728 58.819 11.3838 59.3633 11.3838 59.3633C11.3838 59.3633 9.98434 59.3633 10.8507 67.528C11.717 75.6927 11.1728 81.6134 10.4175 88.2674C9.66224 94.9324 8.59598 102.453 10.4175 105.041C12.239 107.618 13.6385 107.829 13.8606 108.585C14.0717 109.34 13.9717 110.195 13.4275 111.806C12.8943 113.417 11.1728 120.082 12.9943 126.314C14.8158 132.545 18.9031 135.556 20.6247 142.221C22.3462 148.886 23.3125 161.672 24.1678 166.515C25.023 171.347 24.1678 178.556 23.0904 184.577C22.013 190.598 20.7246 195.752 21.1578 204.895C21.591 214.026 21.3688 221.657 22.4462 223.923C23.5236 226.178 23.8457 226.934 22.7683 227.789C21.6909 228.644 21.9131 229.722 22.4462 230.155C22.9793 230.588 22.9793 229.944 22.9793 230.588C22.9793 231.233 22.3351 232.41 22.2241 233.054C22.113 233.699 22.7572 233.921 22.7572 233.921C22.7572 233.921 21.4688 236.82 21.4688 238.864C21.4688 240.908 21.6798 241.874 23.1904 242.197C24.6898 242.519 30.8208 242.952 32.4312 242.519C34.0417 242.085 37.1628 242.519 39.5174 242.841C41.8832 243.163 48.5473 243.052 51.8793 241.985C55.2114 240.908 55.7445 239.73 55.4224 238.764C55.1003 237.798 54.6671 237.687 54.6671 237.687C54.6671 237.687 57.2439 237.253 59.3986 236.509C61.5423 235.754 62.2975 233.388 61.1202 232.532C59.9429 231.677 58.8655 231.999 55.7445 230.71C52.6235 229.422 48.6472 227.7 47.4699 227.378C46.2815 227.056 45.3152 226.623 45.3152 226.623C45.3152 226.623 45.1041 225.445 44.46 225.012C43.8158 224.579 41.3389 222.546 41.0168 221.79C40.6947 221.035 41.9831 220.18 40.3726 215.981C38.7621 211.793 37.3627 203.406 37.3627 199.962C37.3627 196.519 37.1517 189.109 38.329 185.877C39.5063 182.655 42.5163 177.49 42.5163 174.38C42.5163 171.258 44.1267 160.728 45.2041 155.895C46.2815 151.063 47.0256 136.867 47.1367 130.846C47.2367 124.825 45.6262 117.305 45.6262 117.305C45.6262 117.305 46.3814 115.694 46.3814 115.05C46.3814 114.405 45.7372 110.962 45.6262 110.64C45.5151 110.318 49.1693 106.23 48.203 101.72C47.2367 97.2096 46.5925 90.3335 46.2704 84.0906C45.9483 77.8588 45.6262 75.2706 45.7372 71.727C45.8483 68.1834 45.4151 65.5951 42.9383 61.1962C40.4726 56.7862 38.1068 52.0651 36.7074 49.9101C35.3079 47.755 31.9759 44.9668 31.9759 44.9668L32.409 43.8893C32.409 43.8893 33.9085 45.8222 35.8411 45.8222C37.7736 45.8222 37.5626 44.0004 38.2068 44.0004C38.851 44.0004 39.0287 44.2115 39.5285 44.2115C40.0283 44.2115 40.206 43.6338 40.1727 43.2784C40.1394 42.9229 40.0616 42.7785 40.0616 42.7785C40.0616 42.7785 41.2057 42.9562 41.3834 42.6007C41.5611 42.2453 41.5277 41.7454 41.6721 41.4899C41.8165 41.2344 42.0276 40.99 42.0276 40.99C42.0276 40.99 42.8828 41.5232 43.638 41.4232C44.3933 41.3122 44.4933 40.5679 44.46 39.8792C44.4266 39.2016 44.4266 37.5464 44.671 36.6577C44.9264 35.758 45.6373 35.2248 46.4259 35.047C47.2145 34.8693 47.7476 34.4027 48.1474 33.1808C48.5362 31.97 49.036 30.7481 49.1804 28.4486C49.3247 26.1603 48.5695 24.2608 48.5695 24.2608C48.5695 24.2608 48.314 19.4953 44.7376 15.2296C41.1501 10.964 37.5071 10.3864 36.1076 10.2086C34.7082 10.0309 31.8759 10.1642 31.8759 10.1642C31.8759 10.1642 32.4424 9.45326 32.6201 8.77564C32.7978 8.09803 32.3313 6.48731 31.9759 5.76527C31.6205 5.05433 30.6542 4.68775 29.6434 3.39918C28.6438 2.1106 27.8552 1.99952 26.4225 1.53296C24.9897 1.06641 22.3351 0.710943 21.5466 1.3219C20.758 1.93287 20.7913 2.25501 19.825 2.46607C18.8587 2.67713 17.4592 2.96595 17.0261 3.39918C16.5929 3.8324 15.3045 4.86549 14.8713 4.89881C14.4382 4.93214 13.4386 5.47645 13.1165 6.44288C12.7944 7.40931 11.1839 7.87586 10.9284 8.9867C10.673 10.0975 11.1395 10.5974 11.1395 10.5974C11.1395 10.5974 10.984 9.38661 11.6615 8.84229C12.339 8.30909 12.6278 8.40907 12.6278 8.40907C12.6278 8.40907 11.9169 9.3755 12.0946 10.2753C12.2723 11.1751 12.3057 11.5305 12.3057 11.5305C12.3057 11.5305 11.5948 11.6749 11.1617 12.8969C10.7285 14.1188 11.4504 14.6187 11.4838 15.0852C11.5171 15.5518 10.8729 16.3071 11.0506 16.7737C11.2283 17.2402 11.2283 17.2402 11.2283 17.2402C11.2283 17.2402 10.4397 18.3844 10.473 19.2842C10.5064 20.184 10.6507 20.6061 10.5064 20.8616C10.362 21.106 10.362 21.106 10.362 21.106C10.362 21.106 10.8951 20.8949 10.8618 20.1395C10.8285 19.3842 11.0062 18.7399 11.2949 18.6732C11.5837 18.6066 11.7948 18.6066 11.7948 18.6066C11.7948 18.6066 11.4727 19.6508 11.6837 20.6505C11.8947 21.6503 11.3616 22.2946 11.3616 22.2946C11.3616 22.2946 12.0835 21.5059 12.0391 20.7172C12.0058 19.9285 12.2946 19.7507 12.2946 19.7507C12.2946 19.7507 12.8277 21.5392 12.6833 22.3279C12.5389 23.1166 12.7944 23.5831 12.9721 24.083C13.1498 24.5829 12.861 24.905 12.861 24.905C12.861 24.905 13.5718 24.7606 13.2942 23.9053C13.0054 23.0499 13.4719 22.65 13.4719 22.65C13.4719 22.65 13.794 24.2274 14.4049 24.905C15.0157 25.5827 15.5822 25.4383 15.8376 26.0936C16.0931 26.7379 16.1931 27.8488 17.2371 28.4264C18.2811 29.004 19.3918 29.8261 20.1693 29.6817C20.7913 29.5484 21.6576 28.6597 21.6576 28.6597Z" fill="url(#paint1_linear)"/>
<path d="M10.8396 114.905C10.5286 114.372 10.0288 113.85 10.0288 113.85C10.0288 113.85 10.0399 113.261 10.1177 112.917C10.1954 112.573 10.1843 112.45 10.1843 111.773C10.1843 111.095 10.1177 110.051 10.0954 109.829C10.0621 109.607 9.44014 109.751 9.27354 109.918C9.10693 110.084 8.99587 110.673 8.98476 111.162C8.97365 111.64 8.91812 112.539 8.90701 112.928C8.8959 113.317 8.95144 113.939 8.95144 113.939C8.95144 113.939 8.05179 114.65 7.80744 115.039C7.56308 115.427 7.78522 116.016 8.12953 116.161C8.47385 116.305 9.91773 116.505 10.3176 116.327C10.7174 116.161 11.1506 115.427 10.8396 114.905ZM10.2398 115.494C10.151 115.716 9.76224 115.827 9.22911 115.794C8.69598 115.761 8.12953 115.527 8.29614 115.372C8.46274 115.216 9.04029 114.661 9.04029 114.661C9.04029 114.661 9.218 114.939 9.47346 114.883C9.74002 114.817 9.79556 114.772 9.79556 114.772C9.79556 114.772 10.3287 115.272 10.2398 115.494Z" fill="#22DDBE"/>
<path d="M47.1256 73.0822C47.7698 71.9381 49.9912 70.5717 50.9908 69.3609C51.9904 68.139 54.9337 65.7729 55.8667 65.5618C56.7997 65.3508 58.7323 65.3508 59.2321 65.3508C59.7319 65.3508 61.098 65.784 60.165 66.7838C59.2321 67.7835 59.2321 67.7835 59.2321 67.7835C59.2321 67.7835 60.3761 67.8502 62.3864 67.9946C64.3967 68.139 66.5404 68.139 67.0402 68.6389C67.54 69.1387 67.8288 69.783 67.54 70.2829C67.2512 70.7828 67.2512 70.7828 67.2512 70.7828C67.2512 70.7828 67.8288 71.2827 67.6066 72.0714C67.3845 72.8601 66.9624 73.3599 66.2405 73.4377C65.5296 73.5043 62.8085 73.3599 62.4419 73.7932C62.0865 74.2264 62.0088 75.0817 61.2979 75.4372C60.576 75.7927 60.2983 76.8702 59.432 77.3034C58.5768 77.7366 56.2777 78.4476 54.4117 78.3809C52.5458 78.3143 51.0463 78.6697 50.1911 80.2471C49.3359 81.8245 42.2386 89.4116 40.6614 91.5666C39.0843 93.7216 36.1521 95.2879 36.8629 94.788C37.5737 94.2882 39.2953 92.2109 38.5845 88.5562C37.8736 84.9016 36.5741 83.7574 36.5741 83.7574C36.5741 83.7574 41.3056 80.0361 42.8051 78.2365C44.3267 76.4481 47.1256 73.0822 47.1256 73.0822Z" fill="url(#paint2_linear)"/>
<defs>
<linearGradient id="paint0_linear" x1="51.1741" y1="64.5492" x2="51.1741" y2="77.459" gradientUnits="userSpaceOnUse">
<stop stop-color="#AF9FDC"/>
<stop offset="1" stop-color="#77A7E1"/>
</linearGradient>
<linearGradient id="paint1_linear" x1="35.5437" y1="0.997131" x2="35.5437" y2="243" gradientUnits="userSpaceOnUse">
<stop stop-color="#CEBEFB"/>
<stop offset="1" stop-color="#50CBC3"/>
</linearGradient>
<linearGradient id="paint2_linear" x1="52.1158" y1="65.3508" x2="52.1158" y2="94.8815" gradientUnits="userSpaceOnUse">
<stop stop-color="#AF9FDC"/>
<stop offset="1" stop-color="#77A7E1"/>
</linearGradient>
</defs>
</svg>
