<svg width="45" height="167" viewBox="0 0 45 167" fill="none" xmlns="http://www.w3.org/2000/svg">
<g clip-path="url(#clip0)">
<path d="M11.8556 52.6456C11.8556 52.6456 6.35556 57.8547 4.95556 60.0649C3.54445 62.2751 2.24445 62.1418 2.21112 63.0526C2.15556 63.9633 3.70001 66.64 3.93334 67.7396C4.17778 68.8392 4.12223 71.2937 3.8889 72.5932C3.64445 73.8816 3.4889 74.237 3.75556 74.548C4.03334 74.8479 4.97778 75.5809 5.12223 75.592C5.26667 75.6031 5.01112 78.7685 6.16667 79.5127C7.32223 80.2568 10.4222 81.3009 12.9778 81.7562C15.5333 82.2005 18.0889 82.5004 18.0889 82.5004C18.0889 82.5004 19.6222 66.8955 19.6556 66.2402C19.6889 65.5849 17.6556 55.7222 17.6556 55.7222L11.8556 52.6456Z" fill="url(#paint0_linear)"/>
<path d="M33.8111 10.2514C33.8111 10.2514 35.2778 10.3847 35.5667 10.7179C35.8556 11.04 35.7111 12.7393 35.3334 12.8615C34.9556 12.9836 34.1556 13.1169 34.1556 13.1169C34.1556 13.1169 34.8778 13.7722 34.7778 14.3831C34.6778 14.994 33.9445 15.3716 33.9445 15.3716C33.9445 15.3716 33.9889 16.6044 33.9223 17.2375C33.8445 17.8817 33.5445 18.7702 33.4334 19.1145C33.3111 19.4477 33.2667 19.792 33.2556 20.0586C33.2445 20.3363 33.7445 21.2803 33.1889 22.1467C32.6334 23.013 31.9556 22.8464 31.3889 23.2573C30.8223 23.6794 29.9334 24.3902 29.9334 24.3902L29.9445 26.3117C29.9445 26.3117 30.6778 26.6893 30.8667 27.0336C31.0556 27.389 32.7445 27.7777 34.1223 27.6667C35.5 27.5667 38.3889 28.0776 39.2223 29.8658C40.0667 31.654 40.4667 35.3747 40.3667 37.6294C40.2667 39.884 41.3223 40.6948 41.2889 42.0276C41.2556 43.3604 41.1556 44.7598 41.4223 45.6595C41.6889 46.5591 42.1223 48.9137 42.1111 49.2247C42.1 49.5357 41.3778 50.291 41.3778 50.291C41.3778 50.291 42.2445 54.4116 42.7223 56.6884C43.2 58.9764 39.9556 65.1406 40.4889 70.1164C40.7111 72.26 42.2111 75.281 42.5778 78.091C42.7556 79.5126 43.3889 85.9656 43.3778 85.899C43.2667 85.2992 43.1445 100.638 42.5111 105.791C42.1222 108.99 39.8445 124.439 39.6111 125.217C39.3667 125.994 36.9 125.95 35.5334 125.916C34.1667 125.883 33.7556 125.861 33.7556 125.861C33.7556 125.861 33.6889 129.348 32.5667 133.713C31.4334 138.078 30.0778 143.598 30 144.653C29.9111 145.708 29.7667 147.019 29.7667 147.019C29.7667 147.019 30.8445 147.697 31.3 148.063C31.7556 148.43 33.2 149.773 34.3556 151.439C35.5111 153.105 36.7334 153.283 37.9445 153.783C39.1556 154.283 42.0223 154.983 42.1556 156.46C42.2889 157.937 41.8889 159.081 39.2111 159.958C36.5334 160.825 34 160.047 31.9223 159.614C29.8556 159.17 28.8 158.881 27.9778 158.881C27.1556 158.881 21.8223 158.481 21.4223 157.504C21.0223 156.526 21.4889 154.705 21.4889 154.705C21.4889 154.705 21.4223 152.428 21.4778 151.34C21.5334 150.251 21.6 148.652 22.2778 147.996C22.9556 147.341 22.9334 147.452 22.9334 147.452C22.9334 147.452 23.6334 143.465 23.8 139.267C23.9223 135.912 23.1334 132.247 22.9778 130.559C22.8111 128.871 22.7667 127.705 22.7667 127.705C22.7667 127.705 21.3223 127.904 20.4889 127.971C19.6667 128.027 19.4556 128.027 19.4556 128.027C19.4556 128.027 19.2889 130.792 18.1334 134.302C16.9778 137.812 16.2556 140.722 15.7 144.564C15.1445 148.407 14.7111 152.439 14.7111 152.439C14.7111 152.439 15.9111 152.461 16.1667 152.917C16.4223 153.372 16.6556 154.205 16.6223 155.571C16.5889 156.937 16.9556 158.637 16.9556 158.637C16.9556 158.637 17.3556 161.124 17.0889 161.524C16.8334 161.924 15.4223 162.846 14.0889 163.268C12.7667 163.679 11.7889 164.123 11.4556 164.545C11.1334 164.979 9.43336 166.711 6.72225 166.922C4.01114 167.133 1.10003 167.033 0.388919 165.967C-0.311081 164.912 0.0444749 163.868 0.555586 163.235C1.0667 162.613 2.41114 161.025 2.67781 160.391C2.94448 159.758 5.27781 156.238 5.73336 155.305C6.18892 154.372 6.71114 152.117 7.82225 151.717C8.93336 151.328 9.11114 151.984 9.11114 151.984C9.11114 151.984 8.68892 141.932 8.51114 137.678C8.33336 133.424 8.6667 127.105 8.6667 127.105C8.6667 127.105 7.61114 126.916 7.81114 126.283C8.01114 125.639 8.82225 123.106 8.81114 121.874C8.80003 120.641 8.77781 117.453 9.42225 115.398C10.0667 113.344 10.4778 107.435 10.3778 104.625C10.2667 101.815 10.3223 98.5606 10.6778 96.1393C11.0334 93.7181 10.4334 90.4083 11.1889 87.465C11.9445 84.5218 12.1 81.2009 12.1 81.2009L12.3334 78.5353C12.3334 78.5353 11.2223 74.548 11.5 72.882C11.7778 71.216 12.2223 67.0621 12.3445 64.3187C12.4778 61.5865 11.1556 58.1989 11.1 55.8332C11.0445 53.4675 11.4334 49.4469 11.4334 49.4469C11.4334 49.4469 9.34447 48.8027 7.50003 48.6472C5.65559 48.4917 3.98892 48.3473 3.9667 47.381C3.94447 46.4258 4.50003 44.8043 4.91114 42.694C5.32225 40.5948 5.67781 36.5964 6.82225 34.8749C7.9667 33.1534 10.0111 30.3656 11.7111 29.3549C13.4 28.3442 17.1 26.3228 18.0223 25.6453C18.9445 24.9678 19.4667 24.8567 19.4667 24.8567C19.4667 24.8567 20.5889 23.5683 20.4334 22.4021C20.2778 21.2248 19.3889 19.8809 19.3889 19.8809C19.3889 19.8809 18.1889 19.5366 17.9889 18.7036C17.7889 17.8706 16.5556 16.7488 16.2334 15.9158C15.8334 14.8718 14.2 12.8504 14.2667 11.4065C14.3334 9.97374 14.7 9.44062 14.4667 8.60762C14.2334 7.77461 14.9334 5.95312 15.7556 5.24229C16.5778 4.53146 17.9667 3.32084 18.1889 2.37677C18.4111 1.4216 20.2334 1.17725 20.8334 0.721875C21.4334 0.266501 24.2667 -0.177766 25.3889 0.0443676C26.5111 0.266501 27.4111 0.788515 28.3223 1.06618C29.2334 1.34385 30 1.14393 30.8889 1.91029C31.7778 2.67665 32.5111 3.73178 32.4889 4.17605C32.4667 4.62032 32.1889 5.49775 32.1889 5.49775C32.1889 5.49775 32.8111 6.17525 32.8889 7.30813C32.9667 8.44102 33.5223 9.0852 33.6778 9.5739C33.8111 10.0848 33.8111 10.2514 33.8111 10.2514Z" fill="url(#paint1_linear)"/>
<path d="M31.1556 27.3002C31.1556 27.3002 31.5111 26.6338 33.1334 26.8115C34.7556 27.0003 38.2556 27.2336 39.4334 29.2772C40.6 31.3208 40.9111 34.0864 40.9778 36.3744C41.0556 38.6623 41 39.673 40.7334 40.8503C40.4556 42.0277 39.9334 43.2383 39.8556 43.3382C39.7778 43.4382 39.7222 43.9491 39.7222 43.9491C39.7222 43.9491 39.9667 44.9709 40.0111 45.4485C40.0667 45.9261 39.7667 47.4699 39.7222 47.7476C39.6667 48.0364 38.5556 48.6694 38.5556 48.6694C38.5556 48.6694 38.0889 47.8142 38.2778 46.7702C38.4667 45.7262 39.0556 44.0602 38.9889 42.4608C38.9222 40.8615 38.0889 39.3398 37.6667 36.7853C37.2445 34.2308 36.0111 31.0987 35.0334 29.7437C34.0445 28.422 31.1556 27.3002 31.1556 27.3002Z" fill="url(#paint2_linear)"/>
<path d="M11.4667 29.4215C11.4667 29.4215 11.3445 28.2553 12.0445 27.9332C12.7445 27.6112 14.2445 26.7337 15.0111 26.5116C15.7778 26.3006 17.0778 26.4672 18.0445 28.3886C19 30.3212 20.1556 32.7647 19.9889 35.6524C19.8111 38.5401 19.4 40.3283 18.8 41.6833C18.1889 43.0272 17.8556 44.0268 17.8556 44.0268C17.8556 44.0268 18.6445 45.6595 18.4778 46.2593C18.3 46.8701 18.3 46.8701 18.3 46.8701C18.3 46.8701 18.7222 47.9364 18.5889 48.3362C18.4667 48.7249 17.4333 49.8356 17.4333 49.8356C17.4333 49.8356 16.1889 52.4235 15.3667 57.6658C14.5445 62.9082 12.9889 66.9843 12.6778 67.3619C12.3667 67.7507 11.9889 64.6408 12.0667 63.7745C12.1445 62.9082 13.2667 58.3655 13.5 55.7333C13.7334 53.101 14.9778 48.9582 14.9778 48.9582C14.9778 48.9582 14.8667 47.4699 15.0334 47.1145C15.1889 46.7591 15.3222 45.5373 15.3222 45.5373C15.3222 45.5373 15.1334 44.049 15.1778 43.2494C15.2222 42.4608 14.4556 40.2061 14.8445 36.4632C15.2445 32.7202 14.4889 30.1768 13.6778 29.677C12.8556 29.155 11.4667 29.4215 11.4667 29.4215Z" fill="url(#paint3_linear)"/>
<path d="M19.2778 76.8581C19.2778 76.8581 16.0667 71.849 15.3778 69.4722C14.7001 67.1064 12.1112 61.131 11.5001 60.0981C10.8889 59.0652 11.2556 58.943 11.5778 57.7768C11.9112 56.6106 12.9112 52.279 13.0778 50.713C13.2556 49.1469 13.3223 49.0026 13.3223 49.0026C13.3223 49.0026 10.5889 48.5028 8.60005 48.3362C6.60005 48.1807 5.01117 48.1807 5.01117 48.1807C5.01117 48.1807 4.78894 54.5559 4.50006 57.3548C4.22228 60.1537 3.7445 61.3976 4.47783 62.9636C5.21117 64.5408 7.18894 69.4388 9.36672 72.16C11.5445 74.8811 13.4778 78.2686 14.0112 79.0461C14.5445 79.8236 15.2445 80.6011 15.2445 80.6011C15.2445 80.6011 17.0889 79.4237 17.9001 78.4241C18.7112 77.4579 19.2778 76.8581 19.2778 76.8581Z" fill="url(#paint4_linear)"/>
<path d="M38.9112 51.335C38.9112 51.335 39.9001 51.2128 40.5778 50.7574C41.2556 50.3021 41.6667 49.8467 41.6667 49.8467C41.6667 49.8467 44.2445 59.8205 44.8778 67.5285C45.1889 71.3159 44.8778 70.9716 44.2334 77.8355C44.0223 80.0235 43.0445 82.9113 43.0445 82.9113C43.0445 82.9113 41.7445 77.9466 41.4667 76.947C41.1889 75.9474 40.4667 70.5384 40.3889 65.5182C40.3223 61.5864 39.0334 55.9442 38.9445 54.4671C38.8334 52.9677 38.9112 51.335 38.9112 51.335Z" fill="url(#paint5_linear)"/>
</g>
<defs>
<linearGradient id="paint0_linear" x1="10.9328" y1="52.6456" x2="10.9328" y2="82.5004" gradientUnits="userSpaceOnUse">
<stop stop-color="#92BEF4"/>
<stop offset="1" stop-color="#82B0E9"/>
</linearGradient>
<linearGradient id="paint1_linear" x1="21.688" y1="-0.0146484" x2="21.688" y2="167.012" gradientUnits="userSpaceOnUse">
<stop stop-color="#56EFDD"/>
<stop offset="0.520833" stop-color="#7CE5FB"/>
</linearGradient>
<linearGradient id="paint2_linear" x1="36.0828" y1="26.7814" x2="36.0828" y2="48.6694" gradientUnits="userSpaceOnUse">
<stop stop-color="#92BEF4"/>
<stop offset="1" stop-color="#82B0E9"/>
</linearGradient>
<linearGradient id="paint3_linear" x1="15.7318" y1="26.4413" x2="15.7318" y2="67.3954" gradientUnits="userSpaceOnUse">
<stop stop-color="#92BEF4"/>
<stop offset="1" stop-color="#82B0E9"/>
</linearGradient>
<linearGradient id="paint4_linear" x1="11.6833" y1="48.1807" x2="11.6833" y2="80.6011" gradientUnits="userSpaceOnUse">
<stop stop-color="#22DDBE"/>
<stop offset="1" stop-color="#44EBCF"/>
</linearGradient>
<linearGradient id="paint5_linear" x1="41.9421" y1="49.8467" x2="41.9421" y2="82.9113" gradientUnits="userSpaceOnUse">
<stop stop-color="#22DDBE"/>
<stop offset="1" stop-color="#44EBCF"/>
</linearGradient>
<clipPath id="clip0">
<rect width="45" height="167" fill="white"/>
</clipPath>
</defs>
</svg>
