<svg width="731" height="373" viewBox="0 0 731 373" fill="none" xmlns="http://www.w3.org/2000/svg">
<mask id="mask0" mask-type="alpha" maskUnits="userSpaceOnUse" x="0" y="0" width="731" height="373">
<path d="M182.967 318C-115.034 267 34.695 130.333 63.695 2L636.695 0C699.695 133.667 790.273 275.815 675.967 294C569.237 310.98 485.967 310 374.967 373L182.967 318Z" fill="white"/>
</mask>
<g mask="url(#mask0)">
<path d="M156.329 179.411C156.329 179.411 155.911 182.417 156.329 185.256C156.746 188.095 167.434 204.293 170.272 208.133C173.111 211.974 175.95 218.236 175.95 218.236L174.698 228.924C174.698 228.924 169.605 238.859 167.434 245.539C165.179 252.219 166.849 255.892 165.847 262.739C164.845 269.585 166.682 275.514 164.261 282.193C161.84 288.873 163.426 289.875 163.426 293.131C163.426 296.387 161.84 298.391 161.84 299.644C161.84 300.896 166.265 301.898 171.107 302.232C175.95 302.649 183.465 301.647 183.465 301.647C183.465 301.647 182.63 309.496 180.876 318.012C179.039 326.529 178.037 329.535 179.039 337.216C180.041 344.898 181.878 360.511 181.878 360.511C181.878 360.511 181.043 360.929 180.459 361.513C179.874 362.098 180.459 365.771 181.878 369.779C183.298 373.787 182.713 375.874 181.711 378.295C180.709 380.717 180.292 380.55 178.037 385.81C175.783 391.07 175.783 396.163 175.783 396.163C175.783 396.163 174.197 400.422 174.197 402.425C174.197 404.429 182.296 405.264 188.975 405.097C195.655 404.93 197.241 403.678 197.241 403.678C197.241 403.678 200.665 402.258 200.915 399.67C201.082 397.082 199.329 393.575 199.329 393.575C199.329 393.575 198.744 387.73 199.162 386.06C199.579 384.474 198.744 380.383 198.744 380.383C198.744 380.383 199.579 378.379 198.744 373.954C197.909 369.529 196.907 367.692 197.742 365.02C198.577 362.431 196.156 361.346 196.156 361.346C196.156 361.346 197.575 353.247 199.83 347.402C202.084 341.558 201.249 336.047 201.082 327.781C200.915 319.515 202.084 319.515 204.923 314.255C207.762 308.995 207.177 301.898 207.177 301.898C207.177 301.898 207.177 301.898 208.597 300.896C210.016 299.894 208.179 293.799 209.598 289.123C211.018 284.447 210.6 280.189 210.433 276.349C210.266 272.508 211.686 265.828 211.686 265.828C211.686 265.828 213.272 272.508 215.109 282.861C216.946 293.214 217.948 294.216 219.785 297.807C221.622 301.48 221.037 303.067 221.371 304.904C221.789 306.741 226.047 306.49 226.047 306.49C226.047 306.49 224.627 312.752 222.373 319.014C220.119 325.276 221.538 335.797 221.371 336.799C221.204 337.801 220.954 340.222 218.95 342.476C216.946 344.731 217.948 347.319 217.948 347.319C217.948 347.319 217.948 347.319 216.529 349.156C215.109 350.993 212.855 355.418 212.855 355.418C212.855 355.418 211.018 357.422 208.847 363.266C206.593 369.111 210.433 370.363 211.435 373.787C212.437 377.21 210.6 382.053 208.847 386.895C207.01 391.738 208.68 395.412 212.103 399.42C215.527 403.427 223.876 404.095 228.886 400.422C233.979 396.748 233.144 388.482 231.892 384.224C230.639 379.965 231.725 381.385 231.725 373.703C231.725 366.022 231.558 368.276 232.726 364.185C233.979 360.177 230.89 355.251 230.89 355.251C230.89 355.251 230.89 355.251 233.144 351.577C235.398 347.903 233.311 347.569 234.73 345.482C236.15 343.478 236.317 340.806 236.317 340.806C236.317 340.806 241.159 330.119 245 321.352C248.841 312.669 247.255 304.403 247.255 304.403C247.255 304.403 251.262 303.985 252.515 302.399C253.767 300.812 251.68 296.554 252.682 290.877C253.684 285.199 252.264 279.521 251.262 273.092C250.26 266.58 250.427 260.735 252.097 252.052C253.684 243.368 248.841 231.011 248.841 231.011C248.841 231.011 248.841 231.011 250.26 229.174C251.68 227.337 246.837 215.23 244.833 210.555C242.829 205.879 247.422 189.514 247.672 179.578C247.839 169.642 244.833 152.443 244.833 152.443C244.833 152.443 246.253 154.029 250.678 157.285C255.103 160.541 257.19 163.38 259.779 164.967C262.451 166.553 264.621 162.963 264.621 162.963C264.621 162.963 268.295 166.637 271.301 171.062C274.307 175.487 278.982 178.743 284.827 180.998C290.672 183.252 293.093 185.005 295.932 187.844C298.771 190.683 303.446 192.937 305.617 191.685C307.872 190.433 307.454 187.009 307.872 185.423C308.289 183.836 308.289 180.998 307.872 178.743C307.454 176.489 308.456 176.322 309.458 174.736C310.46 173.149 308.623 172.732 306.452 172.314C304.198 171.897 303.446 175.571 302.611 174.986C301.777 174.402 293.093 165.885 288.835 160.458C284.577 155.031 277.73 152.943 277.73 152.943L279.984 150.94C279.984 150.94 280.151 149.938 275.559 144.677C270.884 139.417 266.458 134.575 264.037 130.734C261.616 126.893 255.354 120.381 252.682 118.377C250.093 116.373 238.154 112.95 238.154 112.95C238.154 112.95 238.237 110.862 239.156 109.693C240.408 108.274 241.41 107.856 241.994 106.854C242.579 105.853 240.992 104.6 240.742 104.433C240.658 104.35 242.161 103.598 242.746 103.431C243.664 103.097 244.249 101.678 243.581 100.175C243.163 99.3399 243.748 98.171 243.748 98.171C243.748 98.171 245.752 98.171 247.171 96.7516C248.59 95.3322 246.587 92.9108 245.334 90.4895C244.082 88.0682 244.082 86.2313 245.167 84.6449C246.169 83.0585 248.423 78.9672 248.423 78.9672C248.423 78.9672 253.099 79.5517 256.94 73.8741C260.781 68.1964 259.361 65.6081 257.942 63.3538C256.522 61.0994 246.002 61.5169 246.002 61.5169C246.002 61.5169 233.478 50.1616 227.633 47.1558C221.789 44.15 208.012 45.9034 199.496 52.8334C190.979 59.68 186.387 72.0372 186.971 77.2974C187.556 82.5575 198.494 99.7574 198.494 99.7574C198.494 99.7574 197.074 103.181 195.237 106.27C193.4 109.276 190.812 114.786 190.812 114.786C190.812 114.786 190.812 114.786 188.808 114.786C186.804 114.786 184.801 115.621 182.129 118.043C179.54 120.464 177.704 123.136 174.865 127.144C172.026 131.151 169.605 134.992 165.346 143.091C160.754 151.357 157.748 155.532 156.078 161.209C154.492 166.887 150.234 171.563 150.234 173.149C150.234 174.819 156.329 179.411 156.329 179.411ZM172.527 181.666C172.527 181.666 173.946 181.833 175.115 180.246C176.368 178.66 177.954 173.984 177.954 173.984C177.954 173.984 179.206 179.244 178.789 183.502C178.371 187.761 178.371 190.015 178.371 192.019C178.371 194.023 178.538 195.025 178.538 195.025C178.538 195.025 176.117 187.928 174.865 185.506C173.696 183.085 172.527 181.666 172.527 181.666Z" fill="white"/>
<path d="M225.796 121.549C225.796 121.549 230.639 126.643 231.474 127.227C232.309 127.812 234.062 128.813 234.396 128.646C234.73 128.563 238.321 127.06 237.653 125.307C236.985 123.553 231.307 115.204 227.717 112.449C224.127 109.61 213.439 101.678 205.507 102.847C197.575 104.016 188.474 108.524 184.383 115.287C180.292 122.05 180.626 124.472 180.96 125.14C181.294 125.808 183.381 127.06 184.3 126.977C185.135 126.977 187.055 126.643 187.806 124.138C188.558 121.633 192.733 111.196 200.832 108.274C208.93 105.435 215.861 111.113 218.365 113.45C220.954 115.788 225.796 121.549 225.796 121.549Z" fill="#D9F9F3"/>
<path d="M239.406 126.058C242.328 127.895 246.921 131.068 247.588 135.076C248.256 139.083 249.342 146.264 251.596 153.945C253.851 161.543 258.526 179.745 259.194 187.176C259.779 194.607 261.031 199.617 261.031 199.617C261.031 199.617 264.872 210.722 263.87 219.906C262.868 229.091 260.697 239.945 256.522 245.205C252.348 250.549 234.48 257.646 221.204 258.23C207.845 258.731 190.395 257.98 180.876 252.052C171.358 246.123 164.762 240.863 163.426 236.772C162.09 232.681 165.68 228.59 165.513 221.576C165.346 214.479 166.181 209.553 164.595 203.708C163.008 197.947 158.75 186.425 161.506 175.57C164.344 164.716 170.272 154.78 170.857 145.011C171.441 135.243 177.787 125.891 180.208 123.553C182.63 121.215 191.647 118.043 200.832 118.377C210.016 118.711 211.268 121.215 216.278 121.048C221.288 120.881 224.961 119.796 230.222 121.048C235.315 122.384 239.406 126.058 239.406 126.058Z" fill="#D9F9F3"/>
<path d="M228.719 138.332C228.719 138.332 228.802 141.254 225.963 144.26C223.125 147.266 222.54 149.103 223.125 153.444C223.626 157.786 225.045 162.545 225.379 166.219C225.713 169.976 227.633 178.576 222.791 185.59C218.031 192.603 217.864 196.361 218.699 201.871C219.451 207.465 216.695 218.32 221.872 225.25C227.049 232.18 227.717 233.599 227.717 233.599C227.717 233.599 215.527 237.022 201.583 236.02C187.639 234.935 181.795 233.683 181.795 233.683C181.795 233.683 187.472 228.339 187.89 220.657C188.307 212.976 190.645 199.366 188.975 192.77C187.305 186.174 179.707 180.33 180.292 172.648C180.876 164.967 186.554 157.703 186.387 153.361C186.303 149.019 186.136 144.427 186.136 144.427C186.136 144.427 183.632 143.425 181.878 141.421C180.125 139.417 179.874 137.914 179.874 137.914L228.719 138.332Z" fill="#CEF4EC"/>
<path d="M241.493 211.056C241.577 210.722 242.996 202.873 240.742 196.027C238.655 189.765 237.987 176.99 237.569 168.557L237.486 166.804C236.985 157.369 233.895 150.773 228.552 147.85C223.125 144.845 214.525 143.342 206.76 142.34C201.165 141.588 185.135 141.171 178.371 148.101C172.276 154.363 168.686 164.048 168.352 175.404C168.102 184.588 167.183 192.102 166.348 198.615L165.931 201.788C165.096 208.885 166.933 214.479 167.016 214.646V211.39C167.016 211.306 166.348 208.801 167.183 201.955L167.601 198.782C168.436 192.186 169.354 184.755 169.605 175.487C169.939 164.466 173.362 155.114 179.29 149.019C184.968 143.175 199.078 142.674 206.676 143.676C214.274 144.678 222.707 146.097 227.967 149.019C234.229 152.526 235.899 160.709 236.233 166.971L236.317 168.724C236.734 177.24 237.402 190.099 239.573 196.528C241.744 203.124 240.742 208.217 240.658 208.3L241.493 211.056Z" fill="#9EEFD9"/>
<path d="M267.46 210.722C267.46 210.722 277.897 206.798 282.74 206.798C287.582 206.798 304.198 205.796 311.378 205.796C318.559 205.796 325.656 205.462 329.914 206.798C334.172 208.134 333.838 209.386 333.838 209.386L333.17 211.641C333.17 211.641 335.425 210.054 313.633 209.72C291.841 209.386 282.072 211.641 276.895 211.974C271.718 212.308 267.794 213.31 267.794 213.31L267.46 210.722Z" fill="black"/>
<path opacity="0.7" d="M257.691 147.015C257.691 147.015 256.355 158.037 254.769 172.398C253.183 186.675 256.105 197.446 256.105 197.446L273.305 172.398L271.05 150.94L257.691 147.015Z" fill="#E6E7E8"/>
<path d="M289.252 96.3343C288.918 95.3324 284.994 90.4897 284.076 86.8994C283.074 83.3091 283.074 83.3091 283.074 83.3091C283.074 83.3091 280.151 81.9732 278.482 80.0529C276.895 78.1325 274.891 72.8723 275.225 71.6199C275.559 70.284 276.227 69.0316 276.227 69.0316C276.227 69.0316 272.637 62.853 272.303 56.6744C271.969 50.4958 280.068 39.8084 289.837 36.8861C299.606 33.9638 307.037 34.6318 314.885 37.5541C322.65 40.4764 324.32 47.6569 324.32 47.6569C324.32 47.6569 332.085 51.9152 331.835 54.1695C331.501 56.4239 324.654 56.0899 324.654 56.0899C324.654 56.0899 324.654 59.0122 324.654 61.2666C324.654 63.5209 326.908 72.9558 325.656 78.4665C324.32 83.9771 320.813 87.2334 320.813 87.2334C320.813 87.2334 319.477 94.4139 319.811 95.3324C320.145 96.3343 320.145 96.3343 320.145 96.3343C320.145 96.3343 326.658 97.9207 331.501 101.511C336.343 105.101 342.856 107.022 347.114 112.532C351.372 118.043 355.547 123.22 358.803 130.734C362.06 138.249 365.316 144.427 365.65 145.68C365.984 147.016 363.062 150.856 359.471 152.526C355.881 154.113 355.881 154.113 355.881 154.113C355.881 154.113 356.549 166.136 356.883 171.646C357.217 177.157 360.473 184.672 356.883 194.691C353.293 204.794 351.372 212.225 350.704 217.402C350.036 222.578 348.116 230.427 348.116 234.601C348.116 238.86 349.118 239.444 346.196 241.782C343.273 244.036 341.937 244.036 341.937 244.036C341.937 244.036 342.605 251.467 342.271 254.139C341.937 256.727 340.685 258.397 340.685 258.397C340.685 258.397 340.351 266.83 340.351 269.085C340.351 271.339 338.765 275.597 338.765 275.597C338.765 275.597 341.353 281.108 340.101 284.364C338.765 287.62 337.846 290.543 338.514 295.052C339.182 299.56 341.102 300.562 338.848 305.739C336.594 310.915 338.18 321.686 338.848 324.609C339.516 327.531 339.516 329.451 339.516 329.451L336.26 331.372C336.26 331.372 334.924 350.575 333.671 356.42C332.336 362.265 333.004 368.777 334.339 369.779C335.675 370.781 338.848 368.193 343.44 369.445C347.949 370.781 351.205 374.037 350.621 379.548C349.953 385.059 342.522 388.983 339.266 392.573C336.009 396.163 327.91 398.418 322.4 397.75C316.889 397.082 315.219 395.496 315.219 392.907C315.219 390.319 315.887 388.315 315.887 388.315C315.887 388.315 315.887 383.138 316.221 380.216C316.555 377.294 316.555 377.294 316.555 377.294C316.555 377.294 318.141 369.779 316.555 363.35C314.969 356.838 317.223 352.913 315.887 347.403C314.551 341.892 314.301 339.888 314.301 339.888C314.301 339.888 311.044 340.222 308.122 338.302C305.2 336.381 302.277 336.381 303.279 332.791C304.281 329.201 306.202 319.181 305.868 309.747C305.534 300.312 304.281 288.288 304.281 288.288C304.281 288.288 302.945 307.158 300.357 311.333C297.769 315.591 299.355 319.432 299.689 323.022C300.023 326.612 299.689 333.125 296.767 334.377C293.845 335.713 293.845 335.713 293.845 335.713C293.845 335.713 290.505 348.906 290.505 352.746C290.505 356.671 289.503 363.434 291.507 369.028C293.427 374.538 293.761 378.129 294.095 382.387C294.429 386.645 295.097 389.233 295.097 389.233C295.097 389.233 300.942 391.822 301.61 395.078C302.277 398.334 301.276 401.257 297.101 401.925C292.843 402.593 282.489 401.591 276.311 400.923C270.132 400.255 268.546 401.257 268.546 394.744C268.546 388.232 271.468 385.643 271.802 383.389C272.136 381.134 273.722 379.799 273.722 379.799C273.722 379.799 276.311 371.7 273.388 356.42C270.466 341.141 270.8 333.376 270.8 333.376C270.8 333.376 268.88 333.71 267.878 329.785C266.876 325.861 267.544 319.348 265.957 313.253C264.371 307.075 261.699 297.974 261.115 287.537C260.447 277.1 262.117 265.411 262.117 265.411C262.117 265.411 259.528 238.442 262.785 227.671C266.041 216.984 268.629 198.448 268.295 189.932C267.961 181.499 266.959 156.784 266.959 156.784C266.959 156.784 259.445 156.45 257.19 153.528C254.936 150.606 253.6 147.35 251.346 145.095C249.091 142.841 252.682 138.583 253.266 136.328C253.934 134.074 257.858 125.641 260.113 119.713C262.367 113.868 269.548 110.278 273.138 107.022C276.561 103.849 289.252 96.3343 289.252 96.3343Z" fill="white"/>
<path d="M325.072 119.379C329.163 114.954 338.932 106.187 338.932 106.187L342.104 108.191C342.104 108.191 342.104 105.185 340.184 103.265C338.264 101.344 327.075 97.5869 324.905 97.5869C322.65 97.5869 312.714 105.853 308.874 110.863C305.116 115.956 304.114 116.874 299.439 118.795C294.679 120.715 292.843 122.552 292.843 122.552C292.843 122.552 290.672 115.956 287.749 112.449C284.911 108.942 280.485 104.266 278.565 102.68C276.645 101.094 274.975 102.179 272.052 103.682C268.128 105.769 265.79 108.024 263.619 109.944C261.365 111.864 267.627 118.461 269.548 121.55C271.301 124.556 274.724 130.15 275.476 131.319C277.062 130.651 279.4 127.561 281.07 127.061C288.334 124.89 285.245 121.55 291.59 123.136C297.936 124.723 297.936 125.641 301.359 124.389C304.866 123.136 310.293 120.548 313.8 124.138C315.47 125.892 316.472 128.313 318.392 129.732C317.557 128.647 320.062 125.641 320.062 125.641C320.062 125.641 320.98 123.804 325.072 119.379Z" fill="#CAF0F9"/>
<path d="M339.099 158.955C339.099 158.955 339.516 171.563 340.351 179.328C341.186 187.093 339.934 189.514 339.934 199.701C339.934 209.887 336.26 229.007 335.091 234.267C333.838 239.527 329.33 247.209 331.334 248.044C333.337 248.879 331.668 252.887 335.007 252.636C338.264 252.386 345.194 246.04 345.361 243.201C345.695 238.609 350.12 233.098 350.12 227.421C350.12 221.743 352.541 209.135 354.629 202.205C356.632 195.275 359.471 190.433 358.72 182.25C357.885 174.151 355.881 167.973 356.716 160.709C357.551 153.361 355.464 150.105 355.464 150.105C355.464 150.105 349.368 151.691 345.695 153.779C341.937 155.699 339.099 158.955 339.099 158.955Z" fill="#CAF0F9"/>
<path d="M343.19 186.675C342.522 176.573 338.013 169.81 336.343 165.885C334.757 161.961 332.753 156.45 329.831 145.429C326.908 134.408 317.474 127.478 314.551 123.637C312.297 120.715 308.373 115.872 302.528 115.872C296.683 115.872 294.095 116.54 288.584 118.126C283.074 119.713 279.483 122.385 276.895 125.891C276.561 126.392 276.06 126.893 275.476 127.394C274.14 129.064 270.132 134.408 268.713 137.915C267.126 142.173 263.202 149.27 260.948 157.118C258.693 164.883 255.103 168.808 252.849 175.654C250.594 182.501 248.34 204.293 247.338 216.901C246.336 229.592 252.515 233.766 252.515 234.768C252.515 235.77 252.515 238.025 252.515 244.203C252.515 250.382 252.181 259.149 255.771 262.405C259.361 265.661 263.87 263.073 263.87 263.073C263.87 263.073 269.381 265.327 282.74 266.329C296.099 267.331 324.988 263.741 329.58 262.405C334.172 261.069 338.013 255.225 338.347 249.046C338.681 242.867 340.602 236.355 341.937 226.586C343.19 216.901 343.858 196.778 343.19 186.675Z" fill="#B6EBFC"/>
<path d="M337.262 171.062C336.343 169.559 335.258 167.639 329.413 156.033C327.409 151.942 324.738 149.437 321.565 148.435C317.307 147.099 313.132 148.936 311.545 149.771C308.039 151.691 303.196 152.025 298.186 152.443C296.85 152.526 295.514 152.693 294.179 152.777C291.173 153.111 288.668 152.025 286.08 150.856C282.823 149.437 279.233 147.85 273.305 148.184C267.46 148.518 262.451 154.614 258.526 166.303C258.276 166.971 258.192 167.472 257.775 167.639L256.522 167.472L256.689 166.804C256.689 166.804 257.274 164.382 257.441 163.881C259.027 159.122 262.618 146.348 273.138 145.763C279.65 145.346 283.742 147.182 286.998 148.602C289.503 149.687 291.507 150.522 293.845 150.272C295.18 150.105 296.516 150.021 297.852 149.938C302.611 149.52 307.204 149.186 310.293 147.516C312.13 146.515 317.056 144.344 322.233 146.014C326.073 147.266 329.163 150.188 331.501 154.864C337.262 166.386 338.765 170.394 338.765 170.394C338.848 170.477 337.596 171.646 337.262 171.062Z" fill="white"/>
<path d="M288.167 171.73C288.167 171.73 288 175.988 288.167 178.41C288.334 180.831 288.334 180.831 288.334 180.831C288.334 180.831 291.757 182.668 295.681 181.833C299.522 180.998 302.778 181.248 306.452 182.417C310.126 183.67 313.967 183.419 313.967 183.419L313.382 175.237C313.382 175.237 310.293 174.402 305.617 173.65C300.942 172.815 298.938 174.485 294.429 173.233C290.004 172.147 288.167 171.73 288.167 171.73Z" fill="white"/>
<path d="M428.688 374.288C431.277 374.288 432.446 376.459 432.863 379.715C433.281 382.888 432.112 383.639 425.516 386.478C418.919 389.317 418.084 387.814 415.58 390.402C413.075 392.907 405.978 392.907 400.968 392.824C396.042 392.74 394.706 392.406 394.873 389.484C394.956 386.645 395.207 386.144 395.207 386.144C395.207 386.144 394.539 379.965 395.207 376.626C395.875 373.286 395.541 370.698 397.378 371.366C399.215 372.033 401.135 372.367 403.723 371.616C406.312 370.781 408.065 370.614 409.318 372.868C410.486 375.123 412.156 377.127 414.995 375.123C417.834 373.202 417.083 369.195 417.834 369.278C418.585 369.362 419.253 371.532 421.591 372.284C423.846 372.868 428.688 374.288 428.688 374.288Z" fill="#D9F9F3"/>
<path d="M412.073 98.5886C412.323 98.0876 416.164 92.3265 415.413 89.0702C414.745 85.8139 414.912 85.3964 414.327 84.3945C413.826 83.3926 411.822 82.3906 410.737 77.7149C409.568 73.0392 407.731 67.6121 411.405 56.4238C415.079 45.2355 426.183 41.0608 433.948 41.1443C441.713 41.2278 453.737 47.9908 457.828 54.086C461.919 60.1811 459.999 63.3539 459.498 65.2742C458.997 67.1946 459.581 70.9519 459.581 74.2082C459.581 77.4645 458.997 78.7169 457.828 79.7188C456.659 80.8042 455.156 82.6411 454.989 84.0605C454.822 85.4799 455.574 87.6508 456.409 89.3207C457.243 90.9906 456.743 91.2411 455.908 91.9925C454.989 92.6605 453.319 92.3265 453.319 92.3265C453.319 92.3265 452.735 94.6643 452.985 95.8333C453.236 97.0022 451.566 97.1692 451.566 97.1692C451.566 97.1692 452.234 98.8391 451.232 99.4235C450.146 100.008 449.478 100.342 449.061 101.928C448.644 103.515 447.725 105.352 445.471 105.268C443.216 105.185 438.541 103.097 438.541 103.097L437.205 104.433C437.205 104.433 444.469 106.604 447.642 108.608C450.814 110.528 450.814 110.361 450.564 111.53C450.313 112.699 447.725 114.62 447.725 114.62C447.725 114.62 453.486 119.546 453.904 122.635C454.321 125.724 455.156 127.645 456.492 130.567C457.828 133.489 458.162 136.495 458.329 140.169C458.496 143.843 458.162 149.771 459.331 151.524C460.5 153.278 465.342 158.872 465.843 160.208C466.344 161.627 465.593 163.464 457.494 165.718C449.395 167.973 455.323 166.72 455.323 166.72C455.323 166.72 459.832 172.231 462.086 174.569C464.341 176.823 464.841 179.662 464.758 180.58C464.674 181.499 463.339 183.252 463.339 183.252C463.339 183.252 458.245 187.677 462.921 198.031C467.597 208.468 467.179 260.652 471.187 278.603C475.195 296.554 472.272 305.572 470.686 306.49C468.432 307.743 461.084 305.906 452.067 308.745C442.465 311.75 432.028 309.913 425.098 310.164C422.593 310.247 422.76 305.655 422.76 305.655C422.76 305.655 422.844 309.997 420.84 310.164C414.995 310.498 398.38 311.667 397.545 309.413C396.209 305.822 398.463 296.053 400.217 287.537C402.054 279.02 400.217 279.438 402.888 259.232C405.56 239.027 409.151 175.654 408.733 172.064C408.316 168.474 402.888 166.219 401.553 165.802C400.217 165.384 388.527 165.802 387.609 161.293C386.69 156.784 389.863 134.825 391.617 124.889C393.454 115.037 398.38 110.027 401.97 107.356C405.56 104.684 405.56 104.684 405.56 104.684C405.56 104.684 402.387 104.266 405.56 102.429C408.733 100.592 405.978 100.175 407.397 97.5032C408.566 94.8313 412.073 98.5886 412.073 98.5886Z" fill="white"/>
<path d="M468.849 126.977C467.931 127.394 465.175 131.402 463.673 133.823C462.17 136.245 458.83 140.252 459.331 141.087C459.832 141.922 463.673 144.928 464.925 144.845C466.177 144.761 470.185 137.664 472.105 135.159C474.026 132.654 475.028 130.4 475.696 130.066C476.28 129.649 469.768 126.476 468.849 126.977Z" fill="#CEF4EC"/>
<path d="M479.37 230.26C478.451 223.329 481.373 219.572 478.535 212.141C475.779 204.71 478.451 199.2 475.278 192.102C472.105 185.005 469.517 183.002 467.096 182.417C464.674 181.749 465.259 182.918 463.84 183.419C462.42 183.837 461.752 183.753 461.502 184.087C461.251 184.338 459.581 181.165 451.399 177.407C443.133 173.734 430.024 172.147 423.011 172.732C415.997 173.4 409.485 175.571 407.648 176.489C405.894 177.407 406.562 179.411 407.397 181.165C408.232 182.835 407.147 183.503 406.646 186.759C406.228 190.015 407.815 191.602 405.56 195.025C403.306 198.448 402.304 202.205 400.467 203.708C398.547 205.211 392.869 231.094 393.203 242.032C393.537 252.97 391.617 257.98 396.71 260.485C401.803 262.989 401.803 264.826 401.803 264.826C401.803 264.826 401.803 270.754 400.551 273.343C399.298 275.931 399.298 276.098 400.3 276.683C401.302 277.184 404.308 277.434 409.318 276.265C414.244 275.096 424.681 273.76 432.195 274.428C439.71 275.18 455.657 275.347 459.748 276.015C463.84 276.766 464.925 277.1 465.593 275.263C466.261 273.426 466.094 270.17 467.263 268.083C468.432 265.995 467.263 265.661 467.263 265.661C467.263 265.661 469.434 262.238 469.768 257.061C470.102 251.885 470.436 247.96 470.436 247.96C470.436 247.96 472.106 250.465 474.777 250.465C477.449 250.465 478.535 251.3 478.451 249.463C478.368 247.626 477.366 245.372 477.199 243.285C477.032 241.197 477.199 240.613 477.199 240.613C477.199 240.613 480.288 237.19 479.37 230.26ZM465.175 196.611C465.76 198.532 465.342 205.044 465.342 204.71C465.342 204.376 464.257 202.706 464.09 199.617C463.923 196.444 463.422 196.528 462.504 195.609C461.502 194.607 462.587 195.275 463.589 194.273C464.591 193.271 465.676 191.435 465.676 191.435C465.676 191.435 464.424 194.357 465.175 196.611Z" fill="#CEF4EC"/>
<path d="M444.051 369.445C443.717 372.2 440.127 378.546 435.201 379.715C430.191 380.884 428.772 377.377 426.434 375.791C424.096 374.288 423.679 374.037 422.259 374.956C420.84 375.874 418.836 376.626 418.919 378.713C419.003 380.884 419.253 384.641 418.418 387.48C417.584 390.319 419.003 392.824 419.003 392.824C419.003 392.824 417.5 398.585 420.422 399.253C423.345 399.837 435.201 399.587 439.042 399.002C442.799 398.418 452.985 398.668 459.247 398.334C465.509 398 474.026 395.829 475.946 393.241C478.284 390.152 475.779 386.395 474.026 385.977C469.434 384.808 467.513 382.554 459.915 379.965C452.317 377.377 453.319 377.21 449.228 373.369C445.304 369.362 444.469 366.773 444.051 369.445Z" fill="#D9F9F3"/>
<path d="M409.234 70.6178C408.65 70.5343 408.984 72.1207 409.234 74.041C409.485 75.9614 410.403 78.4663 411.154 78.6333C411.906 78.8002 419.754 78.0488 421.09 78.3828C422.426 78.6333 432.279 78.2993 441.797 78.2993C451.315 78.2993 458.997 75.21 461.752 76.1284C464.508 77.0469 476.197 80.0527 476.614 78.6333C477.032 77.1304 470.185 73.3731 466.762 69.3654C463.339 65.4411 458.913 63.2702 456.826 64.1052C454.739 64.9401 454.071 66.777 450.23 67.5285C446.389 68.3634 437.539 69.4488 429.022 70.3673C420.339 71.2022 409.234 70.6178 409.234 70.6178Z" fill="#CEF4EC"/>
<path d="M552.845 181.833C552.845 181.833 551.759 180.747 552.845 178.994C553.93 177.241 553.93 177.241 553.93 177.241C553.93 177.241 552.678 174.402 554.097 171.73C555.517 169.058 555.433 165.551 555.433 165.551C555.433 165.551 553.095 163.13 555.35 159.79C557.604 156.45 559.107 154.196 561.111 152.192C563.115 150.188 566.371 147.266 566.371 147.266C566.371 147.266 567.874 143.926 566.955 141.254C566.037 138.583 566.037 138.583 566.037 138.583C566.037 138.583 563.282 139.918 559.19 139.584C555.099 139.167 555.016 134.992 555.016 134.992C555.016 134.992 552.093 137.664 549.171 137.748C546.332 137.748 536.981 136.996 537.231 135.66C537.398 134.324 541.156 129.231 540.989 120.381C540.905 111.53 537.565 95.6663 544.996 88.3188C552.427 80.9713 560.944 77.715 566.538 77.4645C572.049 77.214 572.967 77.7985 572.967 77.7985C572.967 77.7985 580.482 75.2936 587.245 85.981C594.008 96.7518 598.85 114.787 599.852 121.633C600.854 128.48 601.272 127.144 600.854 128.48C600.437 129.816 599.351 130.484 598.266 131.819C597.18 133.155 595.678 135.577 593.423 135.827C591.252 136.078 591.252 136.078 591.252 136.078C591.252 136.078 597.848 136.662 599.769 143.258C601.606 149.854 604.528 155.532 604.528 155.532C604.528 155.532 608.285 154.363 608.285 155.949C608.285 157.452 606.782 162.379 606.448 166.553C606.031 170.728 605.697 177.825 605.697 177.825C605.697 177.825 608.202 180.914 609.371 187.928C610.54 194.941 610.623 198.031 610.623 198.031C610.623 198.031 612.794 198.198 615.132 205.295C617.47 212.308 617.47 212.308 617.47 212.308C617.47 212.308 615.549 214.563 613.963 215.231C612.46 215.899 612.46 215.899 612.46 215.899C612.46 215.899 614.965 223.998 615.716 230.009C616.468 235.937 617.386 237.524 616.468 237.941C615.549 238.359 614.046 237.941 614.046 237.941C614.046 237.941 615.883 241.698 617.303 248.294C618.722 254.891 619.39 257.312 619.39 257.312C619.39 257.312 617.386 257.98 616.718 257.98C616.05 257.98 617.219 265.077 617.553 270.588C617.804 276.098 618.054 277.852 616.969 278.52C615.883 279.188 613.879 279.188 613.879 279.188C613.879 279.188 616.551 297.055 613.712 297.974C610.874 298.892 601.773 300.145 599.351 299.059C596.93 297.974 597.514 295.552 597.514 295.552C597.514 295.552 594.843 294.884 591.753 294.717C588.664 294.551 582.903 294.384 581.15 293.966C579.396 293.549 578.311 293.382 578.311 293.382C578.311 293.382 574.386 299.644 574.136 309.079C573.802 318.597 578.478 322.688 580.649 331.539C582.736 340.306 582.652 349.406 582.569 358.674C582.485 367.942 583.738 378.964 583.738 378.964C583.738 378.964 587.245 378.713 587.078 380.466C586.911 382.22 588.998 390.402 587.662 394.577C586.41 398.752 583.988 399.002 579.981 399.086C575.973 399.169 574.887 398.919 574.887 398.919C574.887 398.919 575.639 403.511 572.299 404.262C568.959 404.93 565.286 406.767 556.018 406.934C546.75 407.018 538.15 408.02 537.649 405.181C537.148 402.342 538.901 400.756 540.905 399.169C542.909 397.583 543.076 396.497 543.076 396.497C543.076 396.497 537.148 396.33 537.064 394.327C537.064 392.323 537.231 389.651 540.989 388.983C544.746 388.231 549.589 387.146 550.674 385.56C551.759 383.973 554.097 377.544 554.181 367.608C554.264 357.672 551.425 339.387 549.088 331.038C546.75 322.688 542.241 313.003 544.161 307.91C546.082 302.816 547.251 291.712 547.251 291.712C547.251 291.712 543.076 294.884 536.48 293.799C529.8 292.797 529.55 290.125 529.967 288.539C530.385 286.953 531.387 279.688 532.723 277.434C534.059 275.18 534.894 274.512 534.894 274.512C534.894 274.512 532.639 273.426 532.89 271.923C533.057 270.337 535.895 264.158 537.816 260.151C539.736 256.143 540.404 253.054 540.404 253.054C540.404 253.054 542.659 240.696 542.575 234.685C542.492 228.757 544.996 218.737 544.996 218.737C544.996 218.737 540.989 216.567 540.989 215.231C540.989 213.895 544.579 202.79 546.583 201.037C548.587 199.283 548.587 199.283 548.587 199.283C548.587 199.283 546.332 196.194 549.171 191.101C551.509 186.258 552.845 181.833 552.845 181.833Z" fill="white"/>
<path d="M571.882 172.064C571.882 172.064 571.798 165.885 581.066 164.883C590.334 163.881 593.924 169.81 593.507 171.312C593.089 172.899 593.089 189.013 591.837 194.273C590.584 199.617 591.252 203.124 588.497 207.382C585.658 211.64 577.643 224.081 570.045 231.011C562.363 237.941 555.6 242.199 554.932 243.535C554.264 244.871 551.091 252.386 549.088 255.726C547.167 259.065 544.495 260.401 543.66 259.984C542.742 259.566 542.992 258.481 542.992 258.481C542.992 258.481 541.657 259.566 540.321 259.399C538.985 259.232 539.653 257.896 539.653 257.896C539.653 257.896 537.649 258.815 536.313 258.147C534.977 257.479 536.062 255.308 536.062 255.308C536.062 255.308 533.391 255.809 532.305 254.056C531.136 252.302 534.476 248.962 534.476 248.962C534.476 248.962 529.383 250.799 529.383 248.128C529.383 246.959 531.303 245.957 533.725 244.287C535.728 242.951 537.899 240.029 541.406 237.524C544.913 235.019 546.666 234.351 548.837 231.429C551.008 228.506 559.441 217.151 563.783 211.557C568.124 205.963 574.47 199.951 574.386 197.53C574.386 195.108 572.049 186.091 571.965 180.58C571.965 175.153 571.882 172.064 571.882 172.064Z" fill="#D9F4F9"/>
<path d="M538.233 379.715C538.651 374.372 539.486 367.275 540.154 359.092C540.571 354.333 540.989 349.323 541.239 343.896C541.657 336.632 541.824 328.951 541.657 321.019C541.072 296.972 529.299 290.627 529.299 290.627C529.299 290.627 519.28 284.448 514.187 284.615C509.01 284.782 502.331 284.782 495.15 290.46C489.138 295.219 488.387 303.735 488.387 303.735C488.387 303.735 486.717 305.238 484.463 307.743C483.377 308.995 483.461 311.918 482.292 313.588C481.039 315.341 478.368 315.842 477.282 317.929C475.863 320.685 474.694 323.607 474.193 326.613C472.774 335.547 475.529 338.385 475.529 338.385C475.529 338.385 474.443 343.061 473.525 349.657C473.107 352.58 470.436 355.836 470.102 359.343C469.851 362.348 472.022 365.438 472.022 368.527C472.022 370.03 472.022 371.533 472.106 373.036C472.356 377.377 468.849 383.64 469.935 386.729C471.855 392.156 479.119 393.074 483.294 394.828C486.049 395.997 489.723 396.665 493.981 397.082C499.826 397.583 506.923 397.583 514.771 397.416C528.548 396.999 537.231 392.406 538.233 379.715Z" fill="#B6EBFC"/>
<path d="M525.208 289.374C525.208 289.374 525.626 281.692 520.866 279.856C516.107 278.019 506.171 286.368 506.171 286.368L510.931 286.034C510.931 286.034 516.107 280.524 519.364 282.026C522.62 283.529 521.868 289.374 521.868 289.374H525.208Z" fill="#B6EBFC"/>
<path d="M531.721 294.801C531.721 294.801 540.905 300.479 543.493 313.337C546.082 326.112 546.082 334.795 546.082 339.22C546.082 343.646 551.676 353.832 549.839 362.181C549.589 363.35 556.602 372.952 552.761 378.88C548.837 384.808 546.75 385.727 544.662 387.731C542.575 389.818 535.478 388.566 535.478 388.566L535.812 385.894C535.812 385.894 539.402 386.812 542.659 385.643C545.915 384.474 546.833 381.051 548.336 378.797C551.342 374.372 550.424 371.366 548.086 368.694C545.748 366.022 541.824 364.519 539.82 357.005C537.816 349.574 536.647 336.465 536.062 333.209C535.478 329.953 537.064 315.341 531.721 309.079C526.294 302.817 531.721 294.801 531.721 294.801Z" fill="#B6EBFC"/>
<path d="M538.484 306.407C538.484 306.407 544.996 309.413 544.746 315.925C544.412 322.438 548.837 330.787 549.756 331.706C550.674 332.624 548.253 334.043 548.253 334.043C548.253 334.043 546.499 331.956 544.662 327.531C542.909 323.022 542.575 321.269 541.74 318.263C540.822 315.341 538.484 306.407 538.484 306.407Z" fill="#B6EBFC"/>
<path d="M527.713 322.521C527.713 322.521 522.119 310.665 513.018 307.91C503.917 305.154 495.651 305.488 491.81 305.488C487.97 305.488 484.88 307.158 484.88 307.158C484.88 307.158 484.546 307.409 484.129 307.993C483.711 308.578 483.628 309.162 483.628 309.162C483.628 309.162 485.632 307.325 492.395 307.325C499.158 307.325 506.589 307.993 512.934 309.997C519.28 311.917 521.367 316.844 522.87 319.348C524.206 321.603 524.958 322.104 524.958 322.104L527.713 322.521Z" fill="#F1F2F2"/>
<path d="M509.762 322.521C509.762 322.521 503.834 317.846 495.234 316.927C487.302 316.092 482.125 316.259 479.871 316.927C477.616 317.595 477.199 318.013 477.199 318.013L476.447 319.599C476.447 319.599 479.787 317.178 489.723 317.846C500.076 318.514 502.999 320.935 505.503 322.187C506.505 322.605 509.762 322.521 509.762 322.521Z" fill="#F1F2F2"/>
<path d="M509.094 372.201C509.094 372.201 511.599 359.259 504.334 357.088C498.156 355.252 480.121 352.079 475.779 353.749C471.438 355.335 470.937 356.17 470.937 356.17L471.521 354.25C471.521 354.25 475.028 351.578 480.956 352.162C486.884 352.747 498.156 354.417 503.249 355.502C508.342 356.587 510.346 360.679 510.764 363.35C511.515 368.193 510.68 371.95 510.68 371.95L509.094 372.201Z" fill="#575757"/>
</g>
</svg>
