<svg width="331" height="475" viewBox="0 0 331 475" fill="none" xmlns="http://www.w3.org/2000/svg">
<g clip-path="url(#clip0)">
<mask id="mask0" mask-type="alpha" maskUnits="userSpaceOnUse" x="58" y="80" width="244" height="417">
<path d="M136.33 207.767C133.275 205.649 129.949 205.103 128.862 201.277C127.708 197.246 125.739 193.42 124.517 189.389C123.838 187.135 123.702 184.743 123.567 182.352C123.431 178.731 123.159 175.042 123.635 171.421C124.11 167.732 125.196 164.111 126.214 160.49C127.029 157.484 128.115 154.615 128.998 151.609C130.424 147.168 131.782 142.727 133.14 138.286C134.158 135.144 135.176 132.001 136.33 128.927C137.96 124.486 139.657 120.045 141.422 115.605C142.237 113.555 143.12 111.505 144.274 109.592C146.107 106.381 147.94 103.034 150.249 100.233C153.507 96.2019 157.038 92.3077 160.976 88.8917C164.37 85.954 168.444 83.6995 172.925 82.743C177.202 81.7866 181.547 80.8984 185.892 80.6251C190.305 80.2835 194.515 81.24 197.57 84.9976C198.045 85.6124 199.199 86.159 199.946 86.0907C203.544 85.8174 206.532 87.3887 209.519 88.9601C214.815 91.7611 218.413 96.0652 220.789 101.531C222.215 104.878 224.252 108.089 225.542 111.505C227.171 115.946 228.189 120.66 229.683 125.169C231.448 130.566 231.72 136.169 232.059 141.771C232.535 149.286 232.942 156.869 233.281 164.384C233.485 169.303 233.689 174.222 233.485 179.141C233.281 184.675 232.535 190.141 232.127 195.674C231.924 198.339 231.924 201.072 232.059 203.736C232.263 208.177 231.313 212.481 230.023 216.648C229.072 219.791 228.461 223.002 226.288 225.598C225.134 227.033 224.048 228.536 222.69 230.449C223.912 230.995 224.931 231.61 226.017 231.815C228.054 232.294 230.158 232.499 232.195 232.908C235.182 233.523 238.17 234.206 241.157 234.89C241.429 234.958 241.768 235.026 242.04 235.095C243.805 235.846 245.57 236.529 247.267 237.349C250.255 238.921 253.242 240.492 256.161 242.268C258.809 243.839 261.457 245.547 263.969 247.324C265.598 248.485 266.82 249.852 267.432 251.901C268.11 254.087 269.4 256.069 270.283 258.255C271.166 260.441 271.912 262.627 272.659 264.882C273.61 267.888 274.764 270.894 275.307 273.968C275.918 277.521 276.733 281.142 275.103 284.694C274.968 285.036 274.764 285.514 274.9 285.719C276.801 288.725 276.461 292.278 277.208 295.557C277.548 296.992 277.819 298.563 277.683 300.066C277.344 302.867 278.566 305.19 279.449 307.65C280.467 310.587 281.35 313.593 282.232 316.531C282.572 317.761 283.386 318.444 284.608 318.307C286.102 318.102 286.849 318.854 287.256 320.152C287.731 321.792 288.343 323.431 288.614 325.071C288.886 326.506 288.478 327.804 286.917 328.487C284.948 329.375 284.201 330.81 284.948 332.654C286.306 336.139 287.731 339.555 289.429 342.834C291.262 346.25 292.28 349.597 291.533 353.423C291.194 355.268 292.552 356.429 293.774 357.044C296.693 358.479 297.304 360.87 297.304 363.74C297.304 365.857 297.236 367.975 297.169 370.093C297.169 370.435 296.761 370.776 296.558 371.118C296.082 371.869 294.046 372.689 296.693 373.236C296.761 373.236 296.829 373.372 296.761 373.372C296.218 375.559 298.051 376.31 299.205 377.608C300.631 379.248 299.952 382.117 298.119 383.415C296.218 384.782 296.014 386.968 297.236 389.018C298.73 391.409 300.02 393.868 301.038 396.533C301.446 397.626 300.903 399.129 300.699 400.495C300.631 400.768 300.292 401.178 299.952 401.247C298.187 401.588 296.422 401.862 294.657 402.067C292.959 402.271 292.416 403.023 293.095 404.594C293.842 406.302 294.521 408.01 295.335 409.718C295.811 410.743 295.947 411.495 294.724 412.109C294.317 412.314 293.978 413.066 293.91 413.612C293.638 417.097 293.434 420.513 293.231 423.997C293.027 427.345 292.552 430.761 290.787 433.562C289.089 436.294 286.577 438.549 283.047 438.891C279.584 439.232 276.19 439.574 272.727 439.847C271.437 439.984 270.555 440.462 270.079 441.692C268.45 445.927 265.259 448.592 261.05 450.232C259.013 451.051 256.908 451.939 255.007 453.033C254.328 453.442 253.921 454.672 253.853 455.492C253.785 456.995 253.921 458.635 254.26 460.138C255.007 463.554 255.89 466.901 256.772 470.317C256.84 470.659 257.112 471.001 257.112 471.342C257.248 472.845 257.859 473.802 259.624 473.87C259.149 474.007 258.673 474.075 258.198 474.211C258.13 474.348 257.994 474.485 258.062 474.553C258.877 478.584 258.266 482.888 260.371 486.714C261.729 489.173 261.05 491.906 260.574 494.571C260.439 495.185 260.303 495.732 260.099 496.415C199.946 496.415 139.793 496.415 79.5721 496.415C79.1647 495.117 78.7574 493.819 78.35 492.521C78.4179 492.453 78.4858 492.453 78.6216 492.384C78.8253 492.589 78.9611 492.794 79.4363 493.477C79.3684 492.453 79.3005 491.838 79.2326 490.813C80.0473 491.36 80.5905 491.77 81.2694 492.248C81.4731 491.974 81.6768 491.36 82.0841 491.291C83.9851 490.676 83.6457 489.31 83.442 487.875C82.8988 483.503 81.6768 479.199 83.3062 474.826C84.1888 472.504 83.8493 471.752 82.3557 470.864C84.4604 470.249 86.6329 465.33 85.4109 463.485C88.2624 461.914 88.9413 459.181 89.0771 456.175C88.8734 455.97 88.1945 455.629 88.2624 455.355C88.6697 452.554 89.0771 449.685 89.6881 446.952C90.0955 445.039 90.7744 443.195 91.1818 441.282C91.5212 439.779 90.3671 438.549 88.6697 438.344C88.4661 438.344 88.0587 438.276 87.9908 438.071C87.1082 435.953 84.3246 434.928 84.5962 432.195C84.6641 431.785 84.3925 431.307 84.5283 430.965C85.6146 428.096 83.8493 426.32 82.4236 424.065C81.4731 422.494 81.8126 420.103 81.6089 418.053C81.4731 416.755 81.6089 415.389 81.4052 414.091C80.93 411.016 82.5594 407.737 85.2072 406.234C86.2935 405.619 87.1761 404.663 88.1266 403.911C88.6018 403.57 89.0771 403.296 89.4166 403.091C89.145 402.545 88.9413 401.998 88.6697 401.52C88.5339 401.315 88.2624 401.11 88.1266 401.178C86.2935 401.383 85.5467 399.812 84.4604 398.787C82.4236 396.874 80.0473 395.098 78.5537 392.843C77.6711 391.545 76.0417 390.521 76.1775 388.266C76.3132 386.626 74.8875 384.85 74.2765 383.142C74.0049 382.391 73.5975 381.434 73.8012 380.751C74.4801 378.701 72.9186 378.291 71.7644 377.813C69.6597 376.925 69.1845 376.379 69.2524 374.192C69.3882 370.776 69.7955 367.292 69.6597 363.876C69.4561 359.23 69.3882 354.448 68.3698 349.939C67.0119 343.722 66.1972 337.505 65.2467 331.22C64.6357 326.984 63.6173 322.885 62.8705 318.649C62.2594 315.233 61.8521 311.749 61.3089 308.264C61.241 307.65 60.9016 306.966 60.8337 306.351C60.63 304.712 60.2226 303.004 61.92 301.706C63.2778 300.681 63.4815 299.178 63.142 297.402C62.6668 294.806 62.531 292.141 62.3273 289.477C62.2594 289.067 62.3952 288.588 62.5989 288.247C64.1604 285.446 62.8705 283.328 61.1731 281.21C60.9695 281.005 60.7658 280.732 60.6979 280.459C60.0869 277.316 58.6611 274.446 59.0006 271.03C59.34 267.546 58.729 263.925 59.2721 260.441C59.8832 256.752 60.63 253.131 63.0741 249.783C65.5183 246.504 68.1661 243.976 71.5607 241.858C74.548 239.945 77.6032 238.442 81.0657 237.417C84.1209 236.529 86.9045 234.616 89.8239 233.455C91.1818 232.908 92.7433 232.908 94.2369 232.703C96.6132 232.294 98.9216 231.884 101.298 231.474C103.538 231.064 105.779 230.927 107.883 230.176C109.309 229.697 110.599 228.468 111.618 227.306C113.383 225.257 115.963 224.573 117.999 223.002C120.104 221.431 122.345 220.064 124.246 218.425C125.671 217.195 126.622 215.555 127.912 214.189C128.591 213.506 129.473 212.959 130.356 212.413C132.121 211.251 133.954 210.226 135.652 209.065C136.195 208.928 136.195 208.04 136.33 207.767Z" fill="white"/>
</mask>
<g mask="url(#mask0)">
<path d="M301.106 463.421H59.0006V476.294H301.106V463.421Z" fill="#0B899D"/>
<path d="M301.276 450.024H58.8853V463.212H301.276V450.024Z" fill="#0C8A9D"/>
<path d="M301.276 436.836H58.8853V450.024H301.276V436.836Z" fill="#0D8B9C"/>
<path d="M301.276 423.649H58.8853V436.836H301.276V423.649Z" fill="#0E8C9C"/>
<path d="M301.276 410.455H58.8853V423.642H301.276V410.455Z" fill="#0F8D9C"/>
<path d="M301.276 397.267H58.8853V410.455H301.276V397.267Z" fill="#108E9C"/>
<path d="M301.276 384.08H58.8853V397.267H301.276V384.08Z" fill="#118F9C"/>
<path d="M301.276 370.892H58.8853V384.08H301.276V370.892Z" fill="#12909C"/>
<path d="M301.276 357.697H58.8853V370.885H301.276V357.697Z" fill="#13919C"/>
<path d="M301.276 344.51H58.8853V357.697H301.276V344.51Z" fill="#14929C"/>
<path d="M301.276 331.323H58.8853V344.51H301.276V331.323Z" fill="#15939C"/>
<path d="M301.276 318.128H58.8853V331.315H301.276V318.128Z" fill="#16949C"/>
<path d="M301.276 304.94H58.8853V318.128H301.276V304.94Z" fill="#17969C"/>
<path d="M301.276 291.753H58.8853V304.94H301.276V291.753Z" fill="#17979B"/>
<path d="M301.276 278.565H58.8853V291.753H301.276V278.565Z" fill="#18989B"/>
<path d="M301.276 265.371H58.8853V278.559H301.276V265.371Z" fill="#19999B"/>
<path d="M301.276 252.184H58.8853V265.371H301.276V252.184Z" fill="#1A9A9B"/>
<path d="M301.276 238.996H58.8853V252.184H301.276V238.996Z" fill="#1B9B9B"/>
<path d="M301.276 225.801H58.8853V238.989H301.276V225.801Z" fill="#1C9C9B"/>
<path d="M301.276 212.614H58.8853V225.801H301.276V212.614Z" fill="#1D9D9B"/>
<path d="M301.276 199.426H58.8853V212.614H301.276V199.426Z" fill="#1E9E9B"/>
<path d="M301.276 186.239H58.8853V199.426H301.276V186.239Z" fill="#1F9F9B"/>
<path d="M301.276 173.044H58.8853V186.232H301.276V173.044Z" fill="#20A09B"/>
<path d="M301.276 159.857H58.8853V173.044H301.276V159.857Z" fill="#21A19A"/>
<path d="M301.276 146.669H58.8853V159.857H301.276V146.669Z" fill="#22A29A"/>
<path d="M301.276 133.475H58.8853V146.662H301.276V133.475Z" fill="#23A39A"/>
<path d="M301.276 120.287H58.8853V133.475H301.276V120.287Z" fill="#24A49A"/>
<path d="M301.276 107.1H58.8853V120.287H301.276V107.1Z" fill="#25A59A"/>
<path d="M301.276 93.9121H58.8853V107.1H301.276V93.9121Z" fill="#26A69A"/>
<path d="M301.106 100.273H59.0006V80.6247H301.106V100.273Z" fill="#26A69A"/>
</g>
<path d="M176.12 211.202C176.568 215.823 173.835 216.182 169.481 215.267C167.819 214.922 166.199 214.346 164.523 214.17C163.455 214.174 162.397 214.379 161.404 214.773C161.2 214.834 160.943 215.633 161.078 215.789C161.662 216.466 162.435 217.666 163.045 217.639C166.605 217.469 168.64 219.515 170.417 222.13C170.699 222.597 171.046 223.021 171.448 223.391C175.517 226.738 177.599 231.446 179.918 235.979C180.152 236.604 180.263 237.269 180.243 237.937C180.501 242.259 180.488 246.528 178.399 250.539C177.94 251.599 177.645 252.723 177.524 253.872C177.07 256.65 176.507 257.26 174.133 257.097C171.61 256.948 170.369 255.681 170.335 253.174C170.335 251.304 170.43 249.421 170.261 247.564C170.074 246.373 169.737 245.209 169.257 244.102C169.051 243.666 168.738 243.289 168.348 243.005C167.541 242.327 162.74 242.327 161.845 242.883C160.224 243.94 159.213 246.772 159.81 248.777C161.167 253.167 162.794 257.49 163.879 261.948C164.801 265.83 166.3 269.868 163.879 273.818C163.752 274.021 163.684 274.256 163.683 274.496C163.967 278.459 161.987 281.806 160.861 285.404C160.394 287.212 160.19 289.079 160.258 290.946C160.19 298.961 160.36 306.983 160.163 314.991C160 321.854 159.322 328.704 159.118 335.574C158.888 343.148 158.935 350.737 158.874 358.318C158.84 362.085 158.983 365.859 158.793 369.619C158.508 375.242 157.925 380.859 157.606 386.482C157.267 392.438 155.714 398.136 154.215 403.847C154.081 404.314 154.017 404.798 154.025 405.283C154.168 407.858 152.961 409.816 151.313 411.612C148.071 415.08 146.444 419.423 144.972 423.807C144.531 425.114 145.65 425.65 146.81 425.568C148.505 425.446 150.201 425.202 151.882 424.972C157.233 424.234 162.557 423.373 167.921 422.763C173.136 422.174 178.385 421.849 183.614 421.408C188.951 420.948 194.309 420.697 199.605 419.952C206.021 419.044 212.355 417.594 218.757 416.564C225.816 415.467 232.476 413.177 239.068 410.575C241.007 409.809 242.96 408.915 244.988 408.61C247.109 408.274 249.273 408.322 251.376 408.752C255.156 409.524 258.862 410.624 262.451 412.038C266.371 413.671 270.433 413.109 274.414 413.658C276.692 413.969 279.052 413.495 280.436 411.916C282.002 410.134 283.678 410.507 285.454 410.473C287.346 410.433 289.238 410.399 291.124 410.473C292.365 410.527 293.341 410.988 293.294 412.574C293.294 413.177 293.769 413.773 293.972 414.396C294.488 416.164 295.871 418.393 295.261 419.627C294.074 422.038 294.745 424.369 294.359 426.693C293.748 430.392 293.477 434.146 292.772 437.831C291.829 442.709 289.442 445.542 284.708 446.68C281.996 447.323 279.195 447.52 276.441 447.947C274.292 448.279 271.891 447.716 270.175 449.668C270.053 449.81 269.721 449.762 269.497 449.83C265.591 450.887 261.698 452.032 257.772 452.994C254.123 453.889 250.42 454.566 246.758 455.393C240.302 456.849 233.873 458.353 227.403 459.837C226.931 459.956 226.45 460.035 225.965 460.074C219.753 460.406 213.487 460.318 207.363 461.219C204.264 461.673 201.565 460.305 198.595 460.725C194.708 461.32 190.787 461.666 186.856 461.761C181.776 461.815 176.683 461.605 171.617 461.185C167.589 460.86 163.608 459.946 159.58 459.485C157.287 459.227 154.955 459.404 152.642 459.282C151.57 459.227 150.519 458.801 149.448 458.74C145.108 458.496 140.767 458.177 136.434 458.17C131.91 458.17 127.618 457.737 123.237 456.138C120.226 455.061 117.811 453.042 114.834 452.073C114.047 451.809 113.43 450.948 112.8 450.298C111.491 448.943 110.087 447.804 108.052 448.184C107.634 448.207 107.229 448.34 106.879 448.57C105.593 449.886 103.85 450.658 102.01 450.725C100.281 450.819 98.5717 451.321 96.8423 451.402C95.7978 451.483 94.7505 451.284 93.8087 450.825C92.8669 450.367 92.0647 449.665 91.4848 448.794C90.2031 447.107 88.3042 445.907 86.8258 444.342C86.2636 443.672 85.933 442.838 85.8831 441.964C85.7746 440.352 86.0798 438.705 85.9238 437.1C85.854 436.082 85.4264 435.122 84.7167 434.39C82.8043 432.804 82.5059 430.684 82.3295 428.502C82.1939 426.734 82.3295 424.952 82.1939 423.19C81.9362 419.837 83.7401 417.621 86.1544 415.738C87.2802 414.857 88.5619 414.152 89.6198 413.197C90.9762 411.991 91.8985 412.607 92.8683 413.624C95.7233 416.612 98.5717 419.613 101.44 422.594C102.885 424.105 104.329 425.629 105.869 427.045C106.221 427.364 106.974 427.249 107.544 427.337C107.456 426.808 107.544 426.11 107.259 425.772C104.641 422.865 102.037 419.938 99.2634 417.187C97.1746 415.114 96.3608 412.601 97.1611 410.019C99.1956 403.407 99.9822 396.537 101.474 389.816C102.43 385.514 103.421 381.198 103.977 376.828C104.655 371.618 107.483 367.431 109.972 363.128C113.81 356.482 117.866 349.978 120.253 342.627C120.748 341.102 120.931 339.476 121.419 337.952C122.036 336.041 123.026 334.239 123.515 332.308C125.481 324.422 127.306 316.502 129.211 308.595C130.771 302.125 132.426 295.675 133.958 289.191C135.003 284.713 136.522 280.214 136.671 275.688C136.834 269.862 135.851 263.987 135.274 258.147C134.935 254.719 134.515 251.291 133.992 247.883C133.201 242.743 132.338 237.612 131.402 232.49C131.222 231.598 131.232 230.678 131.433 229.79C131.635 228.903 132.021 228.068 132.568 227.341C135.043 223.838 137.478 220.294 139.987 216.819C142.365 213.526 144.8 210.274 147.291 207.062C147.786 206.378 148.532 205.917 149.366 205.782C154.656 205.782 159.987 205.606 165.215 206.256C168.097 206.615 170.803 208.458 173.57 209.644C174.343 210.166 175.171 210.708 176.12 211.202Z" fill="#1AC6AD"/>
<path d="M177.971 60.9766C178.616 56.3695 182.278 53.612 186.693 54.2014C191.108 54.7909 193.766 58.463 193.217 63.0904C192.593 67.5011 189.107 70.4821 184.489 69.8317C179.979 69.2423 177.348 65.394 177.971 60.9766ZM182.427 47.4263L182.59 44.7907C182.827 39.5129 185.411 34.2553 190.931 29.2078C195.373 25.2376 198.391 22.0804 198.934 18.1711C199.524 13.9637 197.313 10.7929 191.704 9.89863C188.198 9.40404 184.028 9.94605 181.254 11.4976L179.497 2.22914C183.438 0.426949 189.507 -0.555449 195.828 0.332097C208.265 2.08009 212.945 10.1019 211.839 18.1237C210.822 25.3392 205.702 29.7295 200.697 34.0318C196.133 38.0969 193.949 41.9723 193.468 46.8097L193.278 48.9303L182.427 47.4263Z" fill="#07859D"/>
<path d="M132.168 58.8357L131.015 57.0402C128.648 53.4833 127.828 48.8287 129.015 42.9072C130.018 38.1985 130.473 34.7161 128.967 31.9044C127.346 28.8759 124.39 27.8393 120.314 29.9531C117.791 31.3082 115.329 33.6388 114.258 35.9695L108.697 30.7865C110.406 27.7377 113.898 24.2078 118.442 21.7755C127.387 17.0329 134.277 19.9869 137.363 25.7525C140.137 30.9423 138.896 36.2405 137.688 41.4235C136.651 46.2474 137.078 49.8179 139.045 53.1987L139.926 54.6757L132.168 58.8357ZM135.728 69.8182C133.952 66.5051 135.05 62.9617 138.197 61.2679C141.344 59.5742 144.843 60.6785 146.688 63.978C148.39 67.1488 147.535 70.7532 144.219 72.5283C140.903 74.3034 137.424 72.989 135.728 69.8182Z" fill="#26A69A"/>
</g>
<defs>
<clipPath id="clip0">
<rect width="331" height="475" fill="white"/>
</clipPath>
</defs>
</svg>
