<?xml version="1.0" encoding="utf-8"?>
<!-- Generator: Adobe Illustrator 25.1.0, SVG Export Plug-In . SVG Version: 6.00 Build 0)  -->
<svg version="1.1" id="Layer_1" xmlns="http://www.w3.org/2000/svg" xmlns:xlink="http://www.w3.org/1999/xlink" x="0px" y="0px"
	 viewBox="0 0 375 685" style="enable-background:new 0 0 375 685;" xml:space="preserve">
<style type="text/css">
	.st0{opacity:5.000000e-02;fill:url(#SVGID_1_);enable-background:new    ;}
	.st1{fill:none;}
	.st2{opacity:0.1;}
	.st3{fill:url(#SVGID_2_);}
	.st4{fill:url(#SVGID_3_);}
	.st5{fill:url(#SVGID_4_);}
	.st6{fill:url(#SVGID_5_);}
	.st7{fill:url(#SVGID_6_);}
	.st8{fill:url(#SVGID_7_);}
	.st9{fill:url(#SVGID_8_);}
	.st10{fill:url(#SVGID_9_);}
	.st11{fill:url(#SVGID_10_);}
	.st12{fill:url(#SVGID_11_);}
	.st13{fill:url(#SVGID_12_);}
	.st14{fill:url(#SVGID_13_);}
	.st15{fill:url(#SVGID_14_);}
	.st16{fill:url(#SVGID_15_);}
	.st17{fill:url(#SVGID_16_);}
	.st18{fill:url(#SVGID_17_);}
	.st19{fill:url(#SVGID_18_);}
	.st20{fill:url(#SVGID_19_);}
	.st21{fill:url(#SVGID_20_);}
	.st22{fill:url(#SVGID_21_);}
	.st23{fill:url(#SVGID_22_);}
	.st24{fill:url(#SVGID_23_);}
	.st25{fill:url(#SVGID_24_);}
	.st26{fill:url(#SVGID_25_);}
	.st27{fill:url(#SVGID_26_);}
	.st28{fill:url(#SVGID_27_);}
	.st29{fill:url(#SVGID_28_);}
	.st30{fill:url(#SVGID_29_);}
	.st31{fill:url(#SVGID_30_);}
	.st32{fill:url(#SVGID_31_);}
	.st33{fill:url(#SVGID_32_);}
	.st34{fill:url(#SVGID_33_);}
	.st35{fill:url(#SVGID_34_);}
	.st36{fill:url(#SVGID_35_);}
	.st37{opacity:0.8;}
	.st38{fill:url(#SVGID_36_);}
	.st39{fill:url(#SVGID_37_);}
	.st40{opacity:0.2;fill:#72C4B8;enable-background:new    ;}
	.st41{fill:url(#SVGID_38_);}
	.st42{fill:url(#SVGID_39_);}
	.st43{opacity:0.1;fill:url(#SVGID_40_);enable-background:new    ;}
	.st44{fill:#959595;}
	.st45{display:none;}
</style>
<g id="background">
</g>
<g id="content">
	
		<linearGradient id="SVGID_1_" gradientUnits="userSpaceOnUse" x1="0.3" y1="406.4499" x2="375.3" y2="406.4499" gradientTransform="matrix(1 0 0 -1 0 755.2501)">
		<stop  offset="0" style="stop-color:#26A69A"/>
		<stop  offset="7.500758e-02" style="stop-color:#1F8E91"/>
		<stop  offset="0.1681" style="stop-color:#187888"/>
		<stop  offset="0.2569" style="stop-color:#136B83"/>
		<stop  offset="0.3362" style="stop-color:#126681"/>
		<stop  offset="1" style="stop-color:#002F6C"/>
	</linearGradient>
	<path class="st0" d="M375.3,620.3V131.1C266.2,98.9,156,43.5,0.3,12.9v613c65.4,8.5,129.2,25.8,187.5,58.8
		C251.3,652.1,314.3,632.1,375.3,620.3z"/>
	<path class="st1" d="M187.8,684.7c63.6-32.5,126.5-52.5,187.5-64.3V-80.7H188.4h-1.3H0.3v706.6C65.7,634.3,129.5,651.7,187.8,684.7
		z"/>
	<path class="st1" d="M187.8,684.7c63.6-32.5,126.5-52.5,187.5-64.3V-80.7H188.4h-1.3H0.3v706.6C65.7,634.3,129.5,651.7,187.8,684.7
		z"/>
	<path class="st1" d="M187.8,684.7c63.6-32.5,126.5-52.5,187.5-64.3V-80.7H188.4h-1.3H0.3v706.6C65.7,634.3,129.5,651.7,187.8,684.7
		z"/>
	<g class="st2">
		
			<linearGradient id="SVGID_2_" gradientUnits="userSpaceOnUse" x1="147.7189" y1="509.8177" x2="166.1932" y2="509.8177" gradientTransform="matrix(1 0 0 -1 0 755.2501)">
			<stop  offset="0" style="stop-color:#26A69A"/>
			<stop  offset="7.500758e-02" style="stop-color:#1F8E91"/>
			<stop  offset="0.1681" style="stop-color:#187888"/>
			<stop  offset="0.2569" style="stop-color:#136B83"/>
			<stop  offset="0.3362" style="stop-color:#126681"/>
			<stop  offset="1" style="stop-color:#002F6C"/>
		</linearGradient>
		<path class="st3" d="M164.6,231c0,0,0.2-0.7,0.3-1c0.1-0.4,0.7-1.1,0.8-2.2c0.1-1,0.3-2.3,0.4-2.8c0.1-0.6,0-1.1-0.2-1.7
			s-0.7-1.1-1.1-1c-0.4,0-0.4-0.1-0.5,0.2c-0.1,0.3,0,1,0.3,1.6c0.2,0.7,0.3,1.1,0.2,1.9s-0.9,2-1.1,2.7c-0.2,0.7-0.2,1-0.2,1
			s-1.7-0.9-2.8-0.7c-1.1,0.2-1.7,1-1.8,1.8s-0.1,0.8-0.1,0.8s-0.7,1.1-0.8,1.3c-0.1,0.2,0.2-0.5-0.7-1.4s-1.7-3.2-1.7-3.5
			s-0.8-2.4-1.2-3.4s-0.9-2.4-1.6-2.6c-0.7-0.2-1.3-0.9-1.5-0.7c-0.2,0.2-0.7,0.7-0.9,1s0.3,0.5,0.7,0.7s1.1-0.3,1.4,0.7
			c0.3,1,0.6,2.6,0.8,3.9c0.1,1.2,0.5,1.9,0.8,2.5s0.7,1.9,1.4,3.3s0.7,1.8,0.7,1.8s-0.6,1.4-0.7,2.5c-0.1,1.1-1.2,1.8-1.3,2.7
			c-0.1,0.9-0.4,1.6-0.4,3c0,1.5,0.1,1.8,0.1,1.8s-0.4,0.7-0.5,1.1c-0.1,0.5-1.8,2.1-2.2,2.7s-0.9,1.3-0.9,1.3l0.2,0.6
			c0,0-1.2,1.3-1.6,2.2c-0.4,0.9-1,1.4-1,2.4s0.4,1.3,1,2.3c0.6,0.9,1.9,1.7,2,2.7s0.3,2.6,0.3,3.4s0.5,0.8,0.5,0.8s0.1,0.6,0.4,0.5
			c0.3-0.1,0.7-0.3,0.8-0.8s0.2-0.9,0.3-1.8s0.6-3,0.3-3.1c-0.4,0-0.6,0.2-0.6,0.2s-0.2-0.2-0.7-0.6s-0.7-0.5-0.9-1.3
			s-0.8-2.4-0.8-2.4s0.9-0.7,1.3-1.2c0.3-0.5,1-1,1.6-1.4c0.6-0.3,1.6-1.2,1.6-1.2s0.5,0.5,1.1,0.9s1.5,0.6,1.5,0.6s0.1,1.9,0.4,3.2
			c0.3,1.4,0.4,2.4,0.8,2.9c0.4,0.6,0.8,0.5,1.5,1.3s2.4,2.1,2.7,3.2s0.3,2.2,0.3,2.4c0,0.2-0.4,0.8-0.4,1.8c-0.1,1,0.5,1.7,1,1.7
			c0.5-0.1,1.1-0.4,1.3-1.2c0.2-0.8,0.4-1.7,0.6-2.6c0.2-0.9,0.7-2.5,0.2-3c-0.6-0.5-1.2-0.1-1.2-0.1s-0.3-0.1-0.9-1.6
			c-0.6-1.5-0.9-2.3-1.7-2.9c-0.7-0.7-0.8-0.8-0.8-1.1c0-0.4-0.2-1.9-0.3-2.9s-0.3-1.7-0.3-1.7s0.6-0.2,0.9-0.6
			c0.2-0.3,0.5,0.4,0.5-0.4c-0.1-0.9-0.4-0.9-0.4-1.5s0-0.9-0.4-1.8s-0.7-0.7-0.7-1.3c-0.1-0.6-0.1-0.6-0.1-0.8s0.1-0.2-0.1-1.1
			c-0.1-0.9-0.4-0.7-0.2-1.5s0.1-2.1,0.1-2.1s1.2,0.7,1.7,1.2s1.3,0.4,1.8,0.4c0.5,0.1,0.7,0.3,0.7-0.2c-0.1-0.5-0.6-0.7-0.4-2.3
			c0.2-1.7,0.5-4.4,0.6-5.8c0-1.4,0.1-2.2,0.1-2.9C164.8,231.1,164.6,231,164.6,231z"/>
		
			<linearGradient id="SVGID_3_" gradientUnits="userSpaceOnUse" x1="192.7221" y1="507.7652" x2="199.6992" y2="507.7652" gradientTransform="matrix(1 0 0 -1 0 755.2501)">
			<stop  offset="0" style="stop-color:#26A69A"/>
			<stop  offset="7.500758e-02" style="stop-color:#1F8E91"/>
			<stop  offset="0.1681" style="stop-color:#187888"/>
			<stop  offset="0.2569" style="stop-color:#136B83"/>
			<stop  offset="0.3362" style="stop-color:#126681"/>
			<stop  offset="1" style="stop-color:#002F6C"/>
		</linearGradient>
		<path class="st4" d="M198.4,211.5c-0.1-2.5-1.9-2.5-2.3-2.4c-0.4,0-2.1-0.3-2.1,2.3c0,2.6,0,2.6,0,2.6s-0.8,0.1-1,0.1
			s-0.4,1.1,0.2,1.1c0.6,0,0.9,0,0.9,0s1.2,69.4,1.2,70.2c0,0.8,0.9,0.4,1.1,0.4c0.2-0.1,0.9,0.1,1.2,0.1s1-0.5,1.4-0.3
			s0.8,0.2,0.7-0.1c0-0.3-1.2-69.4-1.2-69.4s0.5,0.2,0.5-0.4s0-1.2-0.3-1.2c-0.3-0.1-0.3-0.1-0.3-0.1L198.4,211.5z"/>
		
			<linearGradient id="SVGID_4_" gradientUnits="userSpaceOnUse" x1="196.6513" y1="506.7652" x2="203.6284" y2="506.7652" gradientTransform="matrix(1 0 0 -1 0 755.2501)">
			<stop  offset="0" style="stop-color:#26A69A"/>
			<stop  offset="7.500758e-02" style="stop-color:#1F8E91"/>
			<stop  offset="0.1681" style="stop-color:#187888"/>
			<stop  offset="0.2569" style="stop-color:#136B83"/>
			<stop  offset="0.3362" style="stop-color:#126681"/>
			<stop  offset="1" style="stop-color:#002F6C"/>
		</linearGradient>
		<path class="st5" d="M202.3,212.5c-0.1-2.5-1.9-2.5-2.3-2.4c-0.4,0-2.1-0.3-2.1,2.3c0,2.6,0,2.6,0,2.6s-0.8,0.1-1,0.1
			s-0.4,1.1,0.2,1.1c0.6,0,0.9,0,0.9,0s1.2,69.4,1.2,70.2c0,0.8,0.9,0.4,1.1,0.4c0.2-0.1,0.9,0.1,1.2,0.1s1-0.5,1.4-0.3
			s0.8,0.2,0.7-0.1c0-0.3-1.2-69.4-1.2-69.4s0.5,0.2,0.5-0.4s0-1.2-0.3-1.2c-0.3-0.1-0.3-0.1-0.3-0.1L202.3,212.5z"/>
		
			<linearGradient id="SVGID_5_" gradientUnits="userSpaceOnUse" x1="191.7693" y1="540.0999" x2="193.5878" y2="540.0999" gradientTransform="matrix(1 0 0 -1 0 755.2501)">
			<stop  offset="0" style="stop-color:#26A69A"/>
			<stop  offset="7.500758e-02" style="stop-color:#1F8E91"/>
			<stop  offset="0.1681" style="stop-color:#187888"/>
			<stop  offset="0.2569" style="stop-color:#136B83"/>
			<stop  offset="0.3362" style="stop-color:#126681"/>
			<stop  offset="1" style="stop-color:#002F6C"/>
		</linearGradient>
		<path class="st6" d="M191.8,215.2c0,0.5,0.4,0.8,0.9,0.8s0.9-0.4,0.9-0.9s-0.4-0.8-0.9-0.8S191.8,214.8,191.8,215.2z"/>
		
			<linearGradient id="SVGID_6_" gradientUnits="userSpaceOnUse" x1="85.5" y1="533.6801" x2="195" y2="533.6801" gradientTransform="matrix(1 0 0 -1 0 755.2501)">
			<stop  offset="0" style="stop-color:#26A69A"/>
			<stop  offset="7.500758e-02" style="stop-color:#1F8E91"/>
			<stop  offset="0.1681" style="stop-color:#187888"/>
			<stop  offset="0.2569" style="stop-color:#136B83"/>
			<stop  offset="0.3362" style="stop-color:#126681"/>
			<stop  offset="1" style="stop-color:#002F6C"/>
		</linearGradient>
		<path class="st7" d="M192.2,215.4c0,0-1.2-0.1-2.6,0.7c-1.4,0.7-7.1,4.5-21,6c-13.8,1.4-22.7-1.1-28.2-2.9
			c-5.4-1.8-12.1-4.9-25.7-4c-13.6,0.8-21,4.1-24.9,6s-4.3,2.2-4.3,2.2l0.6,0.8c0,0,8.1-3.8,13.6-5.3s8.9-1.5,8.9-1.5
			s-5.8,1.2-11.6,3.8c-5.8,2.6-8.7,5.6-8.7,5.6l-0.1,1.3c0,0,4.3-4,12.2-7s14.6-3.9,18.9-3.9s10.8,0.7,18.3,3s12.6,4.6,23.7,5
			c11.1,0.5,20.1-2.2,24.8-3.9c4.6-1.7,8.9-4,8.9-4l-0.1-1.1c0,0-7.1,3.2-10.1,4.1s-3,0.9-3,0.9s9.2-3.9,10.5-4.9
			S192.2,215.4,192.2,215.4z"/>
		
			<linearGradient id="SVGID_7_" gradientUnits="userSpaceOnUse" x1="184.351" y1="535.7499" x2="188.8438" y2="535.7499" gradientTransform="matrix(1 0 0 -1 0 755.2501)">
			<stop  offset="0" style="stop-color:#26A69A"/>
			<stop  offset="7.500758e-02" style="stop-color:#1F8E91"/>
			<stop  offset="0.1681" style="stop-color:#187888"/>
			<stop  offset="0.2569" style="stop-color:#136B83"/>
			<stop  offset="0.3362" style="stop-color:#126681"/>
			<stop  offset="1" style="stop-color:#002F6C"/>
		</linearGradient>
		<polygon class="st8" points="188.8,219.4 186.2,218.7 184.4,219.6 187.4,220.3 		"/>
		
			<linearGradient id="SVGID_8_" gradientUnits="userSpaceOnUse" x1="91.8" y1="534.5999" x2="100.1" y2="534.5999" gradientTransform="matrix(1 0 0 -1 0 755.2501)">
			<stop  offset="0" style="stop-color:#26A69A"/>
			<stop  offset="7.500758e-02" style="stop-color:#1F8E91"/>
			<stop  offset="0.1681" style="stop-color:#187888"/>
			<stop  offset="0.2569" style="stop-color:#136B83"/>
			<stop  offset="0.3362" style="stop-color:#126681"/>
			<stop  offset="1" style="stop-color:#002F6C"/>
		</linearGradient>
		<polygon class="st9" points="100.1,220.2 94.4,220.1 91.8,221.1 98.3,221.2 		"/>
		
			<linearGradient id="SVGID_9_" gradientUnits="userSpaceOnUse" x1="78.3027" y1="506.605" x2="83.4725" y2="506.605" gradientTransform="matrix(1 0 0 -1 0 755.2501)">
			<stop  offset="0" style="stop-color:#26A69A"/>
			<stop  offset="7.500758e-02" style="stop-color:#1F8E91"/>
			<stop  offset="0.1681" style="stop-color:#187888"/>
			<stop  offset="0.2569" style="stop-color:#136B83"/>
			<stop  offset="0.3362" style="stop-color:#126681"/>
			<stop  offset="1" style="stop-color:#002F6C"/>
		</linearGradient>
		<path class="st10" d="M82.8,213c-0.1-2.5-1.5-2.5-1.8-2.4c-0.3,0-1.7-0.3-1.7,2.2c0,2.6,0,2.6,0,2.6s-0.6,0-0.8,0.1
			c-0.2,0-0.3,1.1,0.1,1.1c0.5,0,0.7,0,0.7,0s0.5,68.7,0.5,69.5c0,0.7,0.6,0.6,0.8,0.6c0.5,0.1,0.9-0.2,1.1-0.2s0.2,0,1.1-0.1
			c0.4,0,0.6,0,0.6-0.3s-0.5-68.7-0.5-68.7s0.4,0.2,0.4-0.4s0-1.2-0.2-1.2c-0.2-0.1-0.2-0.1-0.2-0.1L82.8,213z"/>
		
			<linearGradient id="SVGID_10_" gradientUnits="userSpaceOnUse" x1="54.2676" y1="505.8059" x2="61.1503" y2="505.8059" gradientTransform="matrix(1 0 0 -1 0 755.2501)">
			<stop  offset="0" style="stop-color:#26A69A"/>
			<stop  offset="7.500758e-02" style="stop-color:#1F8E91"/>
			<stop  offset="0.1681" style="stop-color:#187888"/>
			<stop  offset="0.2569" style="stop-color:#136B83"/>
			<stop  offset="0.3362" style="stop-color:#126681"/>
			<stop  offset="1" style="stop-color:#002F6C"/>
		</linearGradient>
		<path class="st11" d="M60.4,210c-0.1-2.8-2.1-2.7-2.5-2.7c-0.4,0.1-2.3-0.3-2.3,2.5s0,2.8,0,2.8s-0.9,0.1-1.1,0.1
			c-0.2,0-0.4,1.2,0.2,1.2c0.6,0,0.9,0,0.9,0s0.4,76.4,0.4,77.2s1.3,0.4,1.5,0.3s1,0.1,1.3,0.1s1.7-0.2,1.7-0.5s0-76.2,0-76.2
			s0.6,0.2,0.6-0.4s0-1.3-0.3-1.4s-0.3-0.1-0.3-0.1L60.4,210z"/>
		
			<linearGradient id="SVGID_11_" gradientUnits="userSpaceOnUse" x1="44.9739" y1="506.4192" x2="51.288" y2="506.4192" gradientTransform="matrix(1 0 0 -1 0 755.2501)">
			<stop  offset="0" style="stop-color:#26A69A"/>
			<stop  offset="7.500758e-02" style="stop-color:#1F8E91"/>
			<stop  offset="0.1681" style="stop-color:#187888"/>
			<stop  offset="0.2569" style="stop-color:#136B83"/>
			<stop  offset="0.3362" style="stop-color:#126681"/>
			<stop  offset="1" style="stop-color:#002F6C"/>
		</linearGradient>
		<path class="st12" d="M50.6,213.6c-0.1-2.6-1.9-2.5-2.3-2.4c-0.4,0-2.1-0.3-2.1,2.3c0,2.6,0,2.6,0,2.6s-0.8,0.1-1,0.1
			s-0.4,1.1,0.2,1.1c0.6,0,0.9,0,0.9,0s0.4,67.9,0.4,68.6c0,0.8,0.7,0.5,0.9,0.5c0.2-0.1,0.9,0.1,1.2,0.1s1-0.5,1.4-0.3
			s0.7,0.1,0.7-0.2c0-0.3-0.1-67.9-0.1-67.9s0.5,0.2,0.5-0.4s0-1.2-0.3-1.3c-0.3-0.1-0.3-0.1-0.3-0.1L50.6,213.6z"/>
		
			<linearGradient id="SVGID_12_" gradientUnits="userSpaceOnUse" x1="18.7723" y1="506.0645" x2="25.09" y2="506.0645" gradientTransform="matrix(1 0 0 -1 0 755.2501)">
			<stop  offset="0" style="stop-color:#26A69A"/>
			<stop  offset="7.500758e-02" style="stop-color:#1F8E91"/>
			<stop  offset="0.1681" style="stop-color:#187888"/>
			<stop  offset="0.2569" style="stop-color:#136B83"/>
			<stop  offset="0.3362" style="stop-color:#126681"/>
			<stop  offset="1" style="stop-color:#002F6C"/>
		</linearGradient>
		<path class="st13" d="M24.4,210.1c-0.1-2.8-1.9-2.8-2.3-2.7c-0.4,0.1-2.1-0.3-2.1,2.6s0,2.9,0,2.9s-0.8,0.1-1,0.1
			s-0.4,1.2,0.2,1.2s0.9,0,0.9,0s0.7,75.3,0.7,76.2c0,0.8,0.7,0.6,0.9,0.5c0.2-0.1,0.9,0.1,1.2,0.1c0.3,0,1-0.6,1.4-0.3
			c0.4,0.2,0.7,0.1,0.7-0.2c0-0.3-0.4-75.3-0.4-75.3s0.5,0.2,0.5-0.5c0-0.6,0-1.3-0.3-1.4s-0.3-0.1-0.3-0.1L24.4,210.1z"/>
		
			<linearGradient id="SVGID_13_" gradientUnits="userSpaceOnUse" x1="24.222" y1="530.8434" x2="82.0368" y2="530.8434" gradientTransform="matrix(1 0 0 -1 0 755.2501)">
			<stop  offset="0" style="stop-color:#26A69A"/>
			<stop  offset="7.500758e-02" style="stop-color:#1F8E91"/>
			<stop  offset="0.1681" style="stop-color:#187888"/>
			<stop  offset="0.2569" style="stop-color:#136B83"/>
			<stop  offset="0.3362" style="stop-color:#126681"/>
			<stop  offset="1" style="stop-color:#002F6C"/>
		</linearGradient>
		<path class="st14" d="M82,224.3l-20.8-0.2l-0.2-2.4l-36.9,0.6v2.9l19-0.5l2.3,0.8c0,0-0.6,1.6,0.3,1.6c1,0.1,18-0.4,18-0.4
			l18.1,0.4L82,224.3z"/>
		
			<linearGradient id="SVGID_14_" gradientUnits="userSpaceOnUse" x1="48.2202" y1="524.9999" x2="56.3593" y2="524.9999" gradientTransform="matrix(1 0 0 -1 0 755.2501)">
			<stop  offset="0" style="stop-color:#26A69A"/>
			<stop  offset="7.500758e-02" style="stop-color:#1F8E91"/>
			<stop  offset="0.1681" style="stop-color:#187888"/>
			<stop  offset="0.2569" style="stop-color:#136B83"/>
			<stop  offset="0.3362" style="stop-color:#126681"/>
			<stop  offset="1" style="stop-color:#002F6C"/>
		</linearGradient>
		<path class="st15" d="M50.4,225.7c0,0,0.9,3.5,1.3,4.1c0.4,0.6,5,1.7,4.7,2c-0.4,0.4-0.3,0.4-0.8,0.5c-0.6,0.1-0.6,0.1-0.6,0.1
			l-2.7,2.4v-1.4l1.5-1.2c0,0-2.1-1-2.4-1c-0.3,0-2.1,1.5-2.1,1.5l-1.1-0.3c0,0,2.2-1.4,2.1-2.2c0-0.8-1.1-4-1.1-4L50.4,225.7z"/>
		
			<linearGradient id="SVGID_15_" gradientUnits="userSpaceOnUse" x1="86.1891" y1="507.524" x2="91.2634" y2="507.524" gradientTransform="matrix(1 0 0 -1 0 755.2501)">
			<stop  offset="0" style="stop-color:#26A69A"/>
			<stop  offset="7.500758e-02" style="stop-color:#1F8E91"/>
			<stop  offset="0.1681" style="stop-color:#187888"/>
			<stop  offset="0.2569" style="stop-color:#136B83"/>
			<stop  offset="0.3362" style="stop-color:#126681"/>
			<stop  offset="1" style="stop-color:#002F6C"/>
		</linearGradient>
		<path class="st16" d="M90.7,214.5c0-2.4-1.5-2.3-1.8-2.3s-1.7-0.3-1.7,2.1s0,2.4,0,2.4s-0.6,0-0.8,0.1c-0.2,0-0.3,1,0.1,1
			c0.5,0,0.7,0,0.7,0s0.4,64.3,0.5,65c0,0.7,1.6,0.4,1.9,0.4c1,0,1.8-0.1,1.7-0.3c0-0.3-0.4-64.3-0.4-64.3s0.4,0.2,0.4-0.4
			c0-0.5,0-1.1-0.2-1.2s-0.2-0.1-0.2-0.1L90.7,214.5z"/>
		
			<linearGradient id="SVGID_16_" gradientUnits="userSpaceOnUse" x1="81.7631" y1="498.3999" x2="93.5871" y2="498.3999" gradientTransform="matrix(1 0 0 -1 0 755.2501)">
			<stop  offset="0" style="stop-color:#26A69A"/>
			<stop  offset="7.500758e-02" style="stop-color:#1F8E91"/>
			<stop  offset="0.1681" style="stop-color:#187888"/>
			<stop  offset="0.2569" style="stop-color:#136B83"/>
			<stop  offset="0.3362" style="stop-color:#126681"/>
			<stop  offset="1" style="stop-color:#002F6C"/>
		</linearGradient>
		<path class="st17" d="M81.8,256c0,0,11-0.3,11.3-0.3c0.8,0.2,0.6,1.6,0.1,1.7C92.5,257.6,82,258,82,258L81.8,256z"/>
		
			<linearGradient id="SVGID_17_" gradientUnits="userSpaceOnUse" x1="82.1" y1="484.7034" x2="92.9724" y2="484.7034" gradientTransform="matrix(1 0 0 -1 0 755.2501)">
			<stop  offset="0" style="stop-color:#26A69A"/>
			<stop  offset="7.500758e-02" style="stop-color:#1F8E91"/>
			<stop  offset="0.1681" style="stop-color:#187888"/>
			<stop  offset="0.2569" style="stop-color:#136B83"/>
			<stop  offset="0.3362" style="stop-color:#126681"/>
			<stop  offset="1" style="stop-color:#002F6C"/>
		</linearGradient>
		<path class="st18" d="M82.3,270c0,0,9.8-1,10.1-0.9c0.8,0.2,0.6,1.6,0.1,1.7c-0.6,0.1-10.4,1.2-10.4,1.2L82.3,270z"/>
		
			<linearGradient id="SVGID_18_" gradientUnits="userSpaceOnUse" x1="69.5728" y1="524.446" x2="93.9553" y2="524.446" gradientTransform="matrix(1 0 0 -1 0 755.2501)">
			<stop  offset="0" style="stop-color:#26A69A"/>
			<stop  offset="7.500758e-02" style="stop-color:#1F8E91"/>
			<stop  offset="0.1681" style="stop-color:#187888"/>
			<stop  offset="0.2569" style="stop-color:#136B83"/>
			<stop  offset="0.3362" style="stop-color:#126681"/>
			<stop  offset="1" style="stop-color:#002F6C"/>
		</linearGradient>
		<path class="st19" d="M82.9,209c0.5-0.1,0.7-0.3,0.7-0.3s-0.3-0.9,0.5-1.7c0.8-0.8,2.8-1.1,2.8-1.1s1.6-0.3,2.5,1
			c1,1.4,1.2,2.4,1.3,3.4c0.1,1,0.3,2.1,0.3,2.1s1.3,0.7,1.6,2.1c0.3,1.4,1.1,2.4,1.1,4.2c0,1.8,0.1,2.4,0,3.5
			c-0.2,1.1-0.1,1.7-0.1,2.5s-0.1,1.1,0.1,2.2s0.4,1.4,0.2,1.6c-0.2,0.2-0.4,0.5-0.4,0.5s-0.2,1.4-1.1,2.2c-0.9,0.8-0.8,1.4-1.7,3.3
			c-0.8,1.8-1.8,4-1.8,4.6s0.2,0.7,0.5,1.8c0.3,1.1,0.8,1.8,0.7,2.1c-0.1,0.3-0.3,0.3-0.3,0.3s0.4,1.2,0.3,3.9
			c-0.1,2.7-0.1,4.3,0,5.7c0.1,1.3,0.3,2.3,0,2.4c-0.2,0.1-0.8-0.1-1.8,0.3c-1,0.3-3.3,0.1-3.2-0.5c0.1-0.6,0.1-0.3,0.9-0.8
			s1.8-1,1.9-1.3s0.4-0.9,0.1-1.6c-0.2-0.7-1.5-5-1.7-6.4s-0.4-1.9-0.4-1.9s-0.9-0.2-1-0.6s-0.1-3-0.1-4.3c0-1.2,0.1-3-0.2-5.2
			s-0.7-4.9-0.6-5.3c0.2-0.4-0.6-6.5-0.6-7.1c0-0.5-1.3-3.7-1.3-3.6s-1.4,1.3-2,1.5c-0.5,0.2-3,1.5-4.2,2c-1.2,0.4-2.2,1.5-2.3,1.8
			c-0.2,0.2-0.2,0.9-0.2,1.1c-0.1,0.2-0.3,0.3-0.5-0.4c-0.2-0.7-0.6-0.2-0.9,0.4c-0.3,0.5-1.4,1.5-1.6,1.4s0.4-0.8,0.4-0.8
			s-0.6,0.7-0.8,0.6c-0.2-0.1,0.1-0.8,0.1-0.8s-0.4,0.4-0.5,0.3c-0.1-0.2,0.1-0.5,0.2-0.9c0.1-0.3,0.5-1.1,0.6-1.4s0.4-0.6,1.3-0.8
			c0.9-0.2,1.3-0.3,1.5-0.5c0.1-0.2,0.4-0.3,1.3-1c0.8-0.7,4.1-2.5,4.7-3.1s1.9-1.4,1.9-1.4l1,0.2l-0.6-3.5c0,0-1.2-0.2-1.2-0.3
			c0-0.2,0.1-0.6,0.1-0.6s-0.3-0.6,0-0.8c0.3-0.2,0.3-0.2,0.3-0.2s0,0,0.2-0.3s0.5-0.2,0.5-0.2s-0.2-0.6,0.4-0.4
			C82.2,208.6,82.9,209,82.9,209z"/>
		
			<linearGradient id="SVGID_19_" gradientUnits="userSpaceOnUse" x1="33.8121" y1="511.7847" x2="67.1952" y2="511.7847" gradientTransform="matrix(1 0 0 -1 0 755.2501)">
			<stop  offset="0" style="stop-color:#26A69A"/>
			<stop  offset="7.500758e-02" style="stop-color:#1F8E91"/>
			<stop  offset="0.1681" style="stop-color:#187888"/>
			<stop  offset="0.2569" style="stop-color:#136B83"/>
			<stop  offset="0.3362" style="stop-color:#126681"/>
			<stop  offset="1" style="stop-color:#002F6C"/>
		</linearGradient>
		<path class="st20" d="M60.4,231.7c0,0,0.4-0.4,0.7,0.3c0.3,0.7,0.3,0.8,0.2,1.4c-0.1,0.7,0.4,1.3,0.2,1.8s-0.2,2-0.1,2.9
			c0.1,0.9,0.1,2.2,0,2.9c-0.2,0.7-0.4,1.2-0.5,2s0,1.5,0,1.5s0.5-0.1,1-0.2c0.6-0.1,1,0.1,1,0.1s0.7-0.3,1.1,0.2
			c0.4,0.4,1,0.5,1.4,1.1s1,1.3,1.4,2.1c0.3,0.9,0.6,3.5,0.3,4.3c-0.3,0.9-0.5,2.2-1.4,2.7s-1.1-0.2-1.6,0.3
			c-0.5,0.4-2.7,0.4-3.4-0.7c-0.8-1.1-0.8-1.3-0.8-1.4c-0.1-0.1-3.2-0.4-3.2-0.4s-1.3,0.6-3.4,0.3c-2.1-0.3-2.7-0.9-3.4-1
			c-0.7-0.2-2.4-0.7-3-1.7c-0.7-0.9,0.2-1.6,0.2-1.6s-1.5-0.7-2-2.3c-0.5-1.6-0.4-2.7-0.1-3.5c0.3-0.8,0.1-1.1,0.5-1.8
			c0.4-0.7,0.6-0.9,0.7-1.5c0.1-0.6,0.5-0.6,0.5-0.6l0.7-2.2c0,0-0.9,1.3-2.1,1.6c-1.2,0.3-1.2,0.3-1.2,0.3s-0.1,0.7-0.4,1.4
			c-0.3,0.7-0.3,0.7-0.3,0.7s-0.2,1.3-0.6,1.1c-0.4-0.2-1.1-0.4-1.6-1c-0.5-0.5-0.5-0.5-0.5-0.5s0,0.5-0.4,0.5s-1.9-0.2-2.4-0.7
			c-0.4-0.5-0.8-1.1-1.7-1.4s-2.1-1.3-2.2-2c-0.1-0.7,0.1-1.2,0.5-1.3c0.5-0.2,0.8,0,1.4,0.1c0.6,0.2,0.8,0.1,1.6,0.2
			c0.9,0.1,1.1,0.1,1.2,0c0.1-0.1,0.2-0.2,0.5-0.2s0.4,0.5,0.4,0.5s1.3-0.5,1.8-0.8s0.9,0,0.9,0s1.3-0.8,2.8-1.5
			c1.5-0.8,2.1-1.2,2.6-1.4c0.5-0.3,1.4-0.2,1.8-0.1c0.3,0.1,0.7,0.4,0.7,0.4s0.7-0.4,1.2-0.2c0.5,0.2,1.4,0.4,1.5,1.3
			s0.1,3.3-0.3,4.7c-0.3,1.4-0.8,2.8-0.8,2.8s0.9,0.9,0.9,1.1s0.1,0.2-0.3,0.8c-0.3,0.6-0.3,1.1-0.3,1.1s0.2,0.4,0.8,1
			c0.7,0.6,0.8,0.4,1.2,0.7c0.4,0.3,0.9,0.4,1.5,0.6c0.6,0.1,3.3-0.4,3.3-0.4s0.4-7,0.4-7.1C59.3,238.7,60.4,231.7,60.4,231.7z"/>
	</g>
	<g class="st2">
		
			<linearGradient id="SVGID_20_" gradientUnits="userSpaceOnUse" x1="248.7999" y1="500.3534" x2="295.5154" y2="500.3534" gradientTransform="matrix(1 0 0 -1 0 755.2501)">
			<stop  offset="0" style="stop-color:#26A69A"/>
			<stop  offset="7.500758e-02" style="stop-color:#1F8E91"/>
			<stop  offset="0.1681" style="stop-color:#187888"/>
			<stop  offset="0.2569" style="stop-color:#136B83"/>
			<stop  offset="0.3362" style="stop-color:#126681"/>
			<stop  offset="1" style="stop-color:#002F6C"/>
		</linearGradient>
		<path class="st21" d="M249.8,286.3c0.5,0,0.9-0.4,0.9-0.9c0-0.2,1.3-15.4,4.7-30.4c2-8.8,4.2-15.7,6.8-20.7c3-5.9,6.3-8.9,9.8-8.8
			s6.8,2.8,9.9,8.2c2.5,4.5,4.8,10.7,6.9,18.5c3.5,13.4,4.9,26.9,4.9,27c0.1,0.5,0.5,0.9,1,0.8s0.9-0.5,0.8-1
			c0-0.1-1.4-13.8-4.9-27.3c-2.1-8-4.4-14.3-7.1-19c-1.6-2.8-3.3-5-5.1-6.5c-2-1.7-4.2-2.6-6.4-2.7c-2.3-0.1-4.5,0.9-6.5,2.7
			c-1.8,1.6-3.4,4-5,7.1c-2.6,5.1-4.9,12.2-6.9,21.1c-3.4,15.1-4.7,30.5-4.8,30.7c0,0.5,0.3,1,0.9,1
			C249.7,286.3,249.7,286.3,249.8,286.3L249.8,286.3z"/>
		
			<linearGradient id="SVGID_21_" gradientUnits="userSpaceOnUse" x1="229.3652" y1="500.7499" x2="278.2806" y2="500.7499" gradientTransform="matrix(1 0 0 -1 0 755.2501)">
			<stop  offset="0" style="stop-color:#26A69A"/>
			<stop  offset="7.500758e-02" style="stop-color:#1F8E91"/>
			<stop  offset="0.1681" style="stop-color:#187888"/>
			<stop  offset="0.2569" style="stop-color:#136B83"/>
			<stop  offset="0.3362" style="stop-color:#126681"/>
			<stop  offset="1" style="stop-color:#002F6C"/>
		</linearGradient>
		<path class="st22" d="M230.3,285.8c0.5,0,0.9-0.4,0.9-0.9c0-0.2,1.4-15.4,5-30.4c2.1-8.8,4.5-15.7,7.1-20.7
			c3.2-5.9,6.6-8.9,10.3-8.8c8.6,0.2,14.3,14.6,17.6,26.7c3.6,13.3,5.1,26.8,5.1,27c0.1,0.5,0.5,0.9,1,0.8s0.9-0.5,0.8-1
			c0-0.1-1.5-13.8-5.1-27.3c-2.2-8-4.6-14.3-7.4-18.9c-3.5-6-7.6-9-12-9.1c-2.4,0-4.6,0.9-6.8,2.7c-1.8,1.6-3.6,4-5.3,7.1
			c-2.7,5.1-5.2,12.2-7.3,21.1c-3.6,15.1-5,30.5-5,30.7c0,0.5,0.3,1,0.9,1C230.3,285.8,230.3,285.8,230.3,285.8L230.3,285.8z"/>
		
			<linearGradient id="SVGID_22_" gradientUnits="userSpaceOnUse" x1="270.65" y1="507.5999" x2="288.8317" y2="507.5999" gradientTransform="matrix(1 0 0 -1 0 755.2501)">
			<stop  offset="0" style="stop-color:#26A69A"/>
			<stop  offset="7.500758e-02" style="stop-color:#1F8E91"/>
			<stop  offset="0.1681" style="stop-color:#187888"/>
			<stop  offset="0.2569" style="stop-color:#136B83"/>
			<stop  offset="0.3362" style="stop-color:#126681"/>
			<stop  offset="1" style="stop-color:#002F6C"/>
		</linearGradient>
		<path class="st23" d="M288.2,248.2c0.2,0,0.3,0,0.3,0c0.2-0.1,0.4-0.4,0.3-0.6s-0.3-0.3-0.5-0.3c-0.7,0.1-10.6-0.2-17.1-0.3
			c-0.3,0-0.5,0.2-0.5,0.5s0.2,0.5,0.5,0.5c0,0,4.3,0.1,8.5,0.2c2.5,0.1,4.5,0.1,5.9,0.1C287.2,248.2,287.9,248.2,288.2,248.2
			L288.2,248.2z"/>
		
			<linearGradient id="SVGID_23_" gradientUnits="userSpaceOnUse" x1="267.4811" y1="515.5999" x2="285.6629" y2="515.5999" gradientTransform="matrix(1 0 0 -1 0 755.2501)">
			<stop  offset="0" style="stop-color:#26A69A"/>
			<stop  offset="7.500758e-02" style="stop-color:#1F8E91"/>
			<stop  offset="0.1681" style="stop-color:#187888"/>
			<stop  offset="0.2569" style="stop-color:#136B83"/>
			<stop  offset="0.3362" style="stop-color:#126681"/>
			<stop  offset="1" style="stop-color:#002F6C"/>
		</linearGradient>
		<path class="st24" d="M285,240.2c0.2,0,0.3,0,0.3,0c0.2-0.1,0.4-0.4,0.3-0.6s-0.3-0.3-0.5-0.3c-0.7,0.1-10.6-0.2-17.1-0.3
			c-0.3,0-0.5,0.2-0.5,0.5s0.2,0.5,0.5,0.5c0,0,4.3,0.1,8.5,0.2c2.5,0.1,4.5,0.1,5.9,0.1C284,240.2,284.7,240.2,285,240.2L285,240.2
			z"/>
		
			<linearGradient id="SVGID_24_" gradientUnits="userSpaceOnUse" x1="264.7956" y1="522.2999" x2="282.9774" y2="522.2999" gradientTransform="matrix(1 0 0 -1 0 755.2501)">
			<stop  offset="0" style="stop-color:#26A69A"/>
			<stop  offset="7.500758e-02" style="stop-color:#1F8E91"/>
			<stop  offset="0.1681" style="stop-color:#187888"/>
			<stop  offset="0.2569" style="stop-color:#136B83"/>
			<stop  offset="0.3362" style="stop-color:#126681"/>
			<stop  offset="1" style="stop-color:#002F6C"/>
		</linearGradient>
		<path class="st25" d="M282.4,233.5c0.2,0,0.3,0,0.3,0c0.2-0.1,0.4-0.4,0.3-0.6s-0.3-0.3-0.5-0.3c-0.7,0.1-10.6-0.2-17.1-0.3
			c-0.3,0-0.5,0.2-0.5,0.5s0.2,0.5,0.5,0.5c0,0,4.3,0.1,8.5,0.2c2.5,0.1,4.5,0.1,5.9,0.1C281.3,233.5,282,233.5,282.4,233.5
			L282.4,233.5z"/>
		
			<linearGradient id="SVGID_25_" gradientUnits="userSpaceOnUse" x1="260.3226" y1="527.1999" x2="278.5044" y2="527.1999" gradientTransform="matrix(1 0 0 -1 0 755.2501)">
			<stop  offset="0" style="stop-color:#26A69A"/>
			<stop  offset="7.500758e-02" style="stop-color:#1F8E91"/>
			<stop  offset="0.1681" style="stop-color:#187888"/>
			<stop  offset="0.2569" style="stop-color:#136B83"/>
			<stop  offset="0.3362" style="stop-color:#126681"/>
			<stop  offset="1" style="stop-color:#002F6C"/>
		</linearGradient>
		<path class="st26" d="M277.9,228.6c0.2,0,0.3,0,0.3,0c0.2-0.1,0.4-0.4,0.3-0.6s-0.3-0.3-0.5-0.3c-0.7,0.1-10.6-0.2-17.1-0.3
			c-0.3,0-0.5,0.2-0.5,0.5s0.2,0.5,0.5,0.5c0,0,4.3,0.1,8.5,0.2c2.5,0.1,4.5,0.1,5.9,0.1C276.9,228.6,277.6,228.6,277.9,228.6
			L277.9,228.6z"/>
		
			<linearGradient id="SVGID_26_" gradientUnits="userSpaceOnUse" x1="254.7557" y1="530.6999" x2="272.9374" y2="530.6999" gradientTransform="matrix(1 0 0 -1 0 755.2501)">
			<stop  offset="0" style="stop-color:#26A69A"/>
			<stop  offset="7.500758e-02" style="stop-color:#1F8E91"/>
			<stop  offset="0.1681" style="stop-color:#187888"/>
			<stop  offset="0.2569" style="stop-color:#136B83"/>
			<stop  offset="0.3362" style="stop-color:#126681"/>
			<stop  offset="1" style="stop-color:#002F6C"/>
		</linearGradient>
		<path class="st27" d="M272.3,225.1c0.2,0,0.3,0,0.3,0c0.2-0.1,0.4-0.4,0.3-0.6s-0.3-0.3-0.5-0.3c-0.7,0.1-10.6-0.2-17.1-0.3
			c-0.3,0-0.5,0.2-0.5,0.5s0.2,0.5,0.5,0.5c0,0,4.3,0.1,8.5,0.2c2.5,0.1,4.5,0.1,5.9,0.1C271.3,225.1,272,225.1,272.3,225.1
			L272.3,225.1z"/>
		
			<linearGradient id="SVGID_27_" gradientUnits="userSpaceOnUse" x1="242.3" y1="521.85" x2="262.3266" y2="521.85" gradientTransform="matrix(1 0 0 -1 0 755.2501)">
			<stop  offset="0" style="stop-color:#26A69A"/>
			<stop  offset="7.500758e-02" style="stop-color:#1F8E91"/>
			<stop  offset="0.1681" style="stop-color:#187888"/>
			<stop  offset="0.2569" style="stop-color:#136B83"/>
			<stop  offset="0.3362" style="stop-color:#126681"/>
			<stop  offset="1" style="stop-color:#002F6C"/>
		</linearGradient>
		<path class="st28" d="M261.7,233.9c0.2,0,0.3,0,0.3,0c0.2-0.1,0.4-0.4,0.3-0.6s-0.3-0.4-0.5-0.3c-0.7,0.1-11.7-0.1-19-0.2
			c-0.3,0-0.5,0.2-0.5,0.5s0.2,0.5,0.5,0.5c0,0,4.8,0.1,9.4,0.2C259.1,234,261.1,234,261.7,233.9L261.7,233.9z"/>
		
			<linearGradient id="SVGID_28_" gradientUnits="userSpaceOnUse" x1="238.2" y1="513.35" x2="258.2266" y2="513.35" gradientTransform="matrix(1 0 0 -1 0 755.2501)">
			<stop  offset="0" style="stop-color:#26A69A"/>
			<stop  offset="7.500758e-02" style="stop-color:#1F8E91"/>
			<stop  offset="0.1681" style="stop-color:#187888"/>
			<stop  offset="0.2569" style="stop-color:#136B83"/>
			<stop  offset="0.3362" style="stop-color:#126681"/>
			<stop  offset="1" style="stop-color:#002F6C"/>
		</linearGradient>
		<path class="st29" d="M257.6,242.4c0.2,0,0.3,0,0.3,0c0.2-0.1,0.4-0.4,0.3-0.6s-0.3-0.4-0.5-0.3c-0.7,0.1-11.7-0.1-19-0.2
			c-0.3,0-0.5,0.2-0.5,0.5s0.2,0.5,0.5,0.5c0,0,4.8,0.1,9.4,0.2C255,242.5,257,242.5,257.6,242.4L257.6,242.4z"/>
		
			<linearGradient id="SVGID_29_" gradientUnits="userSpaceOnUse" x1="235.3745" y1="503.3499" x2="255.4011" y2="503.3499" gradientTransform="matrix(1 0 0 -1 0 755.2501)">
			<stop  offset="0" style="stop-color:#26A69A"/>
			<stop  offset="7.500758e-02" style="stop-color:#1F8E91"/>
			<stop  offset="0.1681" style="stop-color:#187888"/>
			<stop  offset="0.2569" style="stop-color:#136B83"/>
			<stop  offset="0.3362" style="stop-color:#126681"/>
			<stop  offset="1" style="stop-color:#002F6C"/>
		</linearGradient>
		<path class="st30" d="M254.8,252.4c0.2,0,0.3,0,0.3,0c0.2-0.1,0.4-0.4,0.3-0.6c-0.1-0.2-0.3-0.4-0.5-0.3c-0.7,0.1-11.7-0.1-19-0.2
			c-0.3,0-0.5,0.2-0.5,0.5s0.2,0.5,0.5,0.5c0,0,4.8,0.1,9.4,0.2C252.2,252.4,254.1,252.4,254.8,252.4L254.8,252.4z"/>
		
			<linearGradient id="SVGID_30_" gradientUnits="userSpaceOnUse" x1="233.1515" y1="491.0499" x2="253.1781" y2="491.0499" gradientTransform="matrix(1 0 0 -1 0 755.2501)">
			<stop  offset="0" style="stop-color:#26A69A"/>
			<stop  offset="7.500758e-02" style="stop-color:#1F8E91"/>
			<stop  offset="0.1681" style="stop-color:#187888"/>
			<stop  offset="0.2569" style="stop-color:#136B83"/>
			<stop  offset="0.3362" style="stop-color:#126681"/>
			<stop  offset="1" style="stop-color:#002F6C"/>
		</linearGradient>
		<path class="st31" d="M252.5,264.7c0.2,0,0.3,0,0.3,0c0.2-0.1,0.4-0.4,0.3-0.6c-0.1-0.2-0.3-0.4-0.5-0.3c-0.7,0.1-11.7-0.1-19-0.2
			c-0.3,0-0.5,0.2-0.5,0.5s0.2,0.5,0.5,0.5c0,0,4.8,0.1,9.4,0.2C249.9,264.7,251.9,264.7,252.5,264.7L252.5,264.7z"/>
		
			<linearGradient id="SVGID_31_" gradientUnits="userSpaceOnUse" x1="231" y1="478.7499" x2="251.0266" y2="478.7499" gradientTransform="matrix(1 0 0 -1 0 755.2501)">
			<stop  offset="0" style="stop-color:#26A69A"/>
			<stop  offset="7.500758e-02" style="stop-color:#1F8E91"/>
			<stop  offset="0.1681" style="stop-color:#187888"/>
			<stop  offset="0.2569" style="stop-color:#136B83"/>
			<stop  offset="0.3362" style="stop-color:#126681"/>
			<stop  offset="1" style="stop-color:#002F6C"/>
		</linearGradient>
		<path class="st32" d="M250.4,277c0.2,0,0.3,0,0.3,0c0.2-0.1,0.4-0.4,0.3-0.6c-0.1-0.2-0.3-0.4-0.5-0.3c-0.7,0.1-11.7-0.1-19-0.2
			c-0.3,0-0.5,0.2-0.5,0.5s0.2,0.5,0.5,0.5c0,0,4.8,0.1,9.4,0.2C247.8,277.1,249.8,277.1,250.4,277L250.4,277z"/>
		
			<linearGradient id="SVGID_32_" gradientUnits="userSpaceOnUse" x1="272.7" y1="498.6999" x2="291.4962" y2="498.6999" gradientTransform="matrix(1 0 0 -1 0 755.2501)">
			<stop  offset="0" style="stop-color:#26A69A"/>
			<stop  offset="7.500758e-02" style="stop-color:#1F8E91"/>
			<stop  offset="0.1681" style="stop-color:#187888"/>
			<stop  offset="0.2569" style="stop-color:#136B83"/>
			<stop  offset="0.3362" style="stop-color:#126681"/>
			<stop  offset="1" style="stop-color:#002F6C"/>
		</linearGradient>
		<path class="st33" d="M290.9,257.1c0.2,0,0.3,0,0.3,0c0.2-0.1,0.4-0.4,0.3-0.6s-0.3-0.3-0.5-0.3c-0.7,0.1-11-0.1-17.8-0.3
			c-0.3,0-0.5,0.2-0.5,0.5s0.2,0.5,0.5,0.5c0,0,4.4,0.1,8.8,0.2c2.6,0,4.6,0.1,6.1,0.1C289.8,257.1,290.6,257.1,290.9,257.1
			L290.9,257.1z"/>
		
			<linearGradient id="SVGID_33_" gradientUnits="userSpaceOnUse" x1="275" y1="488.3999" x2="293.3574" y2="488.3999" gradientTransform="matrix(1 0 0 -1 0 755.2501)">
			<stop  offset="0" style="stop-color:#26A69A"/>
			<stop  offset="7.500758e-02" style="stop-color:#1F8E91"/>
			<stop  offset="0.1681" style="stop-color:#187888"/>
			<stop  offset="0.2569" style="stop-color:#136B83"/>
			<stop  offset="0.3362" style="stop-color:#126681"/>
			<stop  offset="1" style="stop-color:#002F6C"/>
		</linearGradient>
		<path class="st34" d="M292.7,267.4c0.2,0,0.3,0,0.3,0c0.2-0.1,0.4-0.4,0.3-0.6s-0.3-0.3-0.5-0.3c-0.7,0.1-10.7-0.2-17.3-0.3
			c-0.3,0-0.5,0.2-0.5,0.5s0.2,0.5,0.5,0.5c0,0,4.3,0.1,8.6,0.2c2.5,0,4.5,0.1,6,0.1C291.7,267.4,292.4,267.4,292.7,267.4
			L292.7,267.4z"/>
		
			<linearGradient id="SVGID_34_" gradientUnits="userSpaceOnUse" x1="276.3" y1="477.6999" x2="294.6573" y2="477.6999" gradientTransform="matrix(1 0 0 -1 0 755.2501)">
			<stop  offset="0" style="stop-color:#26A69A"/>
			<stop  offset="7.500758e-02" style="stop-color:#1F8E91"/>
			<stop  offset="0.1681" style="stop-color:#187888"/>
			<stop  offset="0.2569" style="stop-color:#136B83"/>
			<stop  offset="0.3362" style="stop-color:#126681"/>
			<stop  offset="1" style="stop-color:#002F6C"/>
		</linearGradient>
		<path class="st35" d="M294,278.1c0.2,0,0.3,0,0.3,0c0.2-0.1,0.4-0.4,0.3-0.6s-0.3-0.3-0.5-0.3c-0.7,0.1-10.7-0.2-17.3-0.3
			c-0.3,0-0.5,0.2-0.5,0.5s0.2,0.5,0.5,0.5c0,0,4.3,0.1,8.6,0.2c2.5,0,4.5,0.1,6,0.1C293,278.1,293.7,278.1,294,278.1L294,278.1z"/>
		
			<linearGradient id="SVGID_35_" gradientUnits="userSpaceOnUse" x1="236.6402" y1="515.7692" x2="268.7892" y2="515.7692" gradientTransform="matrix(1 0 0 -1 0 755.2501)">
			<stop  offset="0" style="stop-color:#26A69A"/>
			<stop  offset="7.500758e-02" style="stop-color:#1F8E91"/>
			<stop  offset="0.1681" style="stop-color:#187888"/>
			<stop  offset="0.2569" style="stop-color:#136B83"/>
			<stop  offset="0.3362" style="stop-color:#126681"/>
			<stop  offset="1" style="stop-color:#002F6C"/>
		</linearGradient>
		<path class="st36" d="M246,228.6c0,1.1,0.8,1.7,1.3,3.2s0.8,1.6,1.7,2.2s1.7,1.3,2.2,2.1c0.5,0.8,1,0.4,1,0.4s0-0.7,0.5-1.7
			s0.9-0.6,1.1-2.1c0.2-1.4,1.3-2.6,2.3-2.5s1.7-0.2,2.8,0.5c1.1,0.8,1.8,2.9,1.8,4.2c0,1.2,1.7-2,2.3-3.6c0.6-1.6,3.8-4.6,4.4-5.6
			s1.5-0.8,1.5-0.8s-0.2,2.1-0.4,2.7c-0.2,0.5-1.3,1.8-2.2,3.8c-0.8,2-2,2.5-3.1,3.9s-1.4,1.9-1.4,1.9s0.3,0.5,1.3,1.5
			c1,0.9,1.5,1.4,1.5,1.4s-0.1,0.1-1,0.1s-0.9,0-0.9,0s0.6,0.2,0.9,0.4c0.3,0.2,0.3,0.2,0.3,0.2s-1.3,0.1-1.6,0.3
			c-0.3,0.2-1.2,0-1.2,0s-0.1,0.6-0.1,1.1c-0.1,0.5-0.1,1-0.1,1s-0.4-0.6-0.8-0.9c-0.5-0.3-1.5-1.1-1.5-1.1s-0.3,2-0.2,4.2
			c0.1,2.2,0.4,5.4,0.2,5.8c-0.2,0.4-0.9,0.5-1.7,0.3c-0.9-0.1-1.3-0.7-1.3-0.7s-0.7-1.9-1.4-2.5s-0.3-0.3-0.7-0.6
			c-0.4-0.2-1.4,1.5-2.3,2c-0.9,0.5-0.9,0.5-0.9,0.5s-0.1,1.1-0.8,1.9c-0.7,0.7-2.3,1.6-2.7,0.7s0.4-1,0.5-2.4s0.5-2,0.5-2
			s-0.8,0.6-2.1,0.6s-2.3-1.3-2.3-1.3s0,0.4-1.4,1.5c-1.4,1.2-1.5,0.7-1.8,1.6c-0.3,1-0.3,2.4-0.6,2.9s-1,0.6-1.7-0.3
			c-0.6-0.9-1.3-3.2-0.7-3.9c0.5-0.7,0.9-0.6,1.3-0.3c0.4,0.3,0.7-0.1,1.4-1.3c0.7-1.2,2.2-3.9,2.8-4.8s1.6-1.5,2.1-1.7
			c0.5-0.1,0.9,0.1,1.6,0.4c0.7,0.2,1.3,0.6,1.3,0.6l1.4-1.1c0,0,0.3-0.5,0.6-1.2c0.2-0.8,0.7-1.1,0.7-1.1s-3.2-3.4-3.6-3.9
			c-0.4-0.5-1.7-4.1-2-4.9s-0.4-2-0.6-2.4c-0.2-0.3-0.1-0.7,0.2-1.2s0.6-1.1,1.2-1c0.6,0.1,0.8,0,1.2,0.1c0.4,0.2,0.1,0.9-0.1,1.4
			c0,0,18.8,0.3,19.1,0.2"/>
	</g>
	<g class="st37">
		
			<linearGradient id="SVGID_36_" gradientUnits="userSpaceOnUse" x1="0.6593" y1="479.692" x2="0.6593" y2="476.4174" gradientTransform="matrix(1 0 0 -1 0 755.2501)">
			<stop  offset="0" style="stop-color:#26A69A"/>
			<stop  offset="5.686187e-02" style="stop-color:#1F8E91"/>
			<stop  offset="0.1274" style="stop-color:#187888"/>
			<stop  offset="0.1947" style="stop-color:#136B83"/>
			<stop  offset="0.2548" style="stop-color:#126681"/>
			<stop  offset="0.4428" style="stop-color:#10617F"/>
			<stop  offset="0.663" style="stop-color:#0C537A"/>
			<stop  offset="0.8984" style="stop-color:#043B71"/>
			<stop  offset="1" style="stop-color:#002F6C"/>
		</linearGradient>
		<path class="st38" d="M0.3,278.8c0.5-1,1.1-2,0.4-3.3c-0.1,0.2-0.3,0.4-0.4,0.5C0.3,276,0.3,278.8,0.3,278.8z"/>
		
			<linearGradient id="SVGID_37_" gradientUnits="userSpaceOnUse" x1="187.95" y1="484.3969" x2="187.95" y2="164.3673" gradientTransform="matrix(1 0 0 -1 0 755.2501)">
			<stop  offset="0" style="stop-color:#26A69A"/>
			<stop  offset="5.686187e-02" style="stop-color:#1F8E91"/>
			<stop  offset="0.1274" style="stop-color:#187888"/>
			<stop  offset="0.1947" style="stop-color:#136B83"/>
			<stop  offset="0.2548" style="stop-color:#126681"/>
			<stop  offset="0.4428" style="stop-color:#10617F"/>
			<stop  offset="0.663" style="stop-color:#0C537A"/>
			<stop  offset="0.8984" style="stop-color:#043B71"/>
			<stop  offset="1" style="stop-color:#002F6C"/>
		</linearGradient>
		<path class="st39" d="M375.3,590.9V280.1c-0.1,0.1-0.2,0.2-0.3,0.3c-0.9-1.6-1.6-3-2.4-4.4c0.4,2.6-1.7,3.4-3.7,4.7
			c0.4-1.4,0.7-2.3,0.9-3.3c-0.1-0.1-0.3-0.1-0.4-0.2c-0.7,0.7-1.4,1.3-2,1.9c-3.1-1.1,0.5-3-1.2-4.4c-1,1.3-1.9,2.5-2.8,3.8
			c-0.1,0.1-0.3,0.1-0.5,0.2c-0.2-0.4-0.3-0.7-0.4-1c-1.2,0.3-1.3,1.2-1.4,2.2c-0.1,0.4-0.5,0.8-0.9,1.3c-1.1-1.6,0.2-3.5-1.8-4.5
			c-0.2,0.6-0.4,1.3-0.6,1.9c-0.6-0.2-0.6-1.6-1.7-0.7c-0.6-0.8-1.2-1.6-2-2.5c-1.8,3.5-0.9,3.1-3.6,2.6c-0.2,1.7-1.7,2.4-3.6,3.7
			c0.7-3.2,1.2-5.6,1.7-8.1c-0.2-0.1-0.3-0.1-0.5-0.2c-1,1.6-2,3.1-3.2,4.9c-1-0.2-2.1-0.5-3.2-0.7c-1,1.1,2,3.4-1.3,4
			c-1-0.8-2-1.6-3.2-2.6c-0.4,1.3-0.6,2.2-1.1,3.9c-0.8-1.4-1.2-2.2-1.7-2.9c-0.5-0.8-1.2-1.5-1.7-2.2c-0.2,1.2-0.1,2.4-0.9,3.3
			s-1.8,1.6-2.7,2.4c-1-0.5-1.7-1-2.8-1.5c0.4-1,0.7-1.9,1-2.9c0.1-0.2-0.1-0.4-0.2-0.7c-0.9,0.6-1.7,1.2-2.4,1.8
			c-0.8-1.3-1.5-2.4-2.3-3.6c-0.9,2.3-1.7,4.3-2.7,7c-0.3-2.9-0.2-5.2,1-7.9c-2.7,1.7-2.7,4.2-4.2,6c-1.5-2.1-2.7-4-4.1-5.9
			c-0.3-0.4-1.1-0.6-1.8-1c1.4,4.6,4.1,8.4,4.8,13.2c-3.3-2.8-2.4-6.9-5.4-9.9c-0.3,0.9-0.3,1.6-0.6,2.1c-0.4,0.7-1,1.4-2.1,0.8
			c-0.1-1.1-0.2-2.1-0.4-3.6c-1,1.2-1.7,2.1-2.5,3.1c-0.8-1.1-1.5-2-2.8-3.6c0.3,2.1,0.5,3.4,0.7,4.7c-0.2,0-0.3,0.1-0.5,0.1
			c-0.7-1.2-1.4-2.3-2.3-3.8c-0.7,2.2,0,4.1-0.8,6c-0.8-1.6-1.5-3-2.2-4.3c-0.8-0.1-1.6-0.2-2.3-0.2c-0.5-0.9-1.1-1.7-2-3.2
			c0,2-0.1,3.2-0.1,4.8c-0.8-0.9-1.3-1.6-2-2.3c-1.1,2.4,0.9,5.1-1.7,7c-1.1-1.7,1.6-3.1,0.2-4.7c-0.5,0.6-1.1,1.2-1.9,2.1
			c-0.1-2-0.1-3.6-0.2-5.4c-1,0.9-1.9,1.5-2.7,2.2c-0.6-0.5-1.1-1-1.6-1.4c-0.2,0.7-0.4,1.3-0.6,1.9c-2-1.4-3.8-2.8-6.2-4.5
			c0.5,1.3,0.7,2,1,2.9c-0.7-0.1-1.1-0.2-1.4-0.3c-0.6,0.8,0.7,2.4-1.7,2.5c0.1-1,0.2-1.9,0.3-2.8c-1.6,0.7-3.2,1.3-4.7,1.9
			c-0.6-0.5-1.1-1-1.7-1.5c-1.2,0.5-2.3,0.9-3.5,1.4c-0.9-0.7-1.7-1.4-2.7-2.2c-0.2,0.8-0.3,1.3-0.4,2c-0.6-0.7-1.2-1.3-2-2.2
			c0.2,1.5,0.4,2.6,0.7,4.2c-1.1-0.7-1.7-1.1-2.2-1.4c0.3-0.7,0.5-1.2,0.8-2c-1.1,0.5-1.7,0.9-3,1.5c1-1.5,1.6-2.4,2.2-3.2
			c-0.1-0.1-0.3-0.2-0.4-0.3c-2.1,1.2-4.1,2.4-6.2,3.6c-0.4-0.7-0.6-1.1-0.8-1.5c-0.5,0.4-0.9,0.9-1.4,1.3c-0.9-1.1-1.7-2-2.8-3.3
			c-0.1,2-0.3,3.6-0.4,5.3c-0.5-0.3-0.8-0.5-1.4-0.8c0.1,1.3,0.1,2.4,0.2,4.1c-2.3-2.4-1.9-4.6-0.7-7.3c-1.2,0.8-1.7,1.2-2.5,1.8
			c-0.1-1.3-0.2-2.3-0.3-3.9c-1.1,1.3-1.8,2.1-2.4,2.8c-0.7-0.2-1.2-0.4-1.8-0.5c-0.8,1.6-1.6,3.2-2.8,5.5c0-2.6,0-4.4,0-6.1
			c-0.2,0-0.3-0.1-0.5-0.1c-0.7,1.2-1.5,2.3-2.6,4.1c0.1-2,0.2-3.4,0.3-5.2c-0.8,0.9-1.2,1.6-1.8,2.1c-0.2,0.2-0.6,0.3-1.1,0.5
			c-0.6-0.8-1.2-1.5-1.9-2.4c-0.1,1.3-0.2,2.5-0.4,3.7c-2-0.4-2.6-1.7-3.3-3c-0.6,0.7-1.1,1.4-1.7,2.2c-0.8-2.2,2-3.6,1-6.1
			c-2,2.4-3.8,4.5-5.5,6.7c-1.1-1.9-2-3.7-3.1-5.7c-1.3,2.8,1.3,5.2,0,8c-0.8-2.5-1.6-4.8-2.4-7.3c-0.9,1-1.8,1.9-2.8,3.1
			c-0.4-0.4-0.8-0.7-1.2-0.9c-0.5-0.3-1-0.5-1.7-0.9c0.5,1.5,0.9,2.5,1.3,3.6c-1,0.7-1.7,1.9-3.4,1.3c-1-1.5-2.1-3.1-3.3-4.9
			c-0.7,1.2-1.3,2.3-2,3.4c-0.1,0.1-0.4,0.1-0.8,0.2c-0.4-0.7-0.7-1.5-1.1-2.3c-2.2,0.9-1.5,3.2-2.9,4.3c-2.6-1.9-1.7-4.6-2-7.1
			c-3.3,2.2-3.5,5.9-5.3,8.8c-1.9-2.3,0.1-3.9,0.9-5.7c-0.7,0.1-1.1,0.2-1.5,0.3c-0.1-0.7-0.3-1.2-0.4-2.1c-1,1-1.8,1.9-2.9,3.1
			c0.3-1.6,0.6-2.9,0.8-4.2c-0.2-0.1-0.3-0.1-0.5-0.2c-1.3,1.4-2.5,2.8-3.8,4.2c-0.1,0-0.3-0.1-0.4-0.1c0.5-2,1-4,1.5-6.4
			c-3.2,2.2-3.3,5.7-5.8,7.9c-1.4-1.8-0.4-4.2-2.2-5.4c-2.3,1.6-3.9,3.6-4.8,6.2c-1.3-1-1.4-1.8-0.9-3c0.4-0.8,1.7-1.6,0.6-2.9
			c-2.2,1.5-4.2,2.9-6.4,4.4c0.3-2,0.5-4.1,0.8-6.4c-1.9,1.3-2.8,3.2-5.3,2.9c-1-1.3-2-2.7-3.2-4.4c-0.7,3.2,2,5.8,1.1,9.2
			c-1-1-1.8-1.7-2.3-2.5c-0.4-0.6-0.5-1.3-0.8-1.9c-1,0.6-1.5,0-2.2-0.6c-0.6-0.6-1.4-1-2-1.6c-0.1,0.1-0.2,0.2-0.3,0.3
			c0.8,1.6,1.6,3.1,2.4,4.6c-0.4,0.7-0.8,1.3-1.3,2.1c-1-2-2-3.8-3.1-6c-0.3,1-0.4,1.6-0.6,2.2c-1.1-0.7,0.5-2.6-1.9-2.8
			c-0.4,1.9-0.9,3.7-1.4,5.9c-2-3.1-3.7-5.8-5.4-8.6c-0.2,0.1-0.4,0.2-0.7,0.2c0.6,2.2,1.3,4.3,2.1,7.2c-1.8-1.9-3-3.2-4.3-4.4
			c-0.1-0.1-0.4,0-0.5,0c-0.1,0.7-0.3,1.3-0.5,2.1c-0.8-0.3-1.2-0.6-1.7-0.8c-0.2,0.4-0.3,0.8-0.6,1.1c-0.3,0.3-0.7,0.3-1.1,0.5
			c1.8,3.2,1.8,3.2,0.5,4.7c-1.8-3.1-2.7-6.6-6.5-9.5c1.6,3.6,1.8,6.4-0.8,8.7c-0.8-1.6-1.6-3.2-2.6-5.2c-0.8,1.4-1.3,2.4-1.8,3.4
			c-1.2-1.8-2.2-3.4-3.4-5.2c-0.2,0.7-0.3,0.9-0.3,1.1c0.1,0.3,0.3,0.6,0.5,0.9c-1,1.5-1.4,3.5-3.4,4.5c-0.9-0.6-1.9-1.2-2.7-1.7
			c0.3-1.3,0.6-2.4,1-4.3c-1.3,1.3-2,2-2.7,2.7c-0.9-1.3-1.7-2.4-2.5-3.6c-0.8,2.3-1.4,4.3-2.1,6.3c-0.2,0-0.5-0.1-0.7-0.1
			c0.2-2,0.4-4,0.6-6c-0.2-0.1-0.4-0.1-0.5-0.2c-0.9,1.6-1.8,3.3-2.8,5.2c-1.6-1.9-3.1-3.8-4.7-5.6c-0.4-0.4-1.1-0.6-1.9-1
			c1.6,4,3.7,7.4,4.6,11.2c-2.3-2.1-2.2-5.2-4.4-7.4c-0.3,0.5-0.7,1.1-1,1.7c-0.4,0.5-0.7,1.1-1.1,1.6c-2.2-0.8-0.6-2.8-1.6-3.8
			c-0.8,0.9-1.6,1.8-2.4,2.7c-0.9-1.1-1.6-1.9-2.4-2.7c0.1,1.7,1,3.2,0.1,4.9c-0.9-1.5-1.6-2.8-2.9-5c0.1,2.9,0.2,5,0.2,7.7
			c-1.1-2.3-1.9-3.8-2.8-5.4c-0.9,0-1.6,0-2.5-0.1c-0.2-0.4-0.4-0.8-0.7-1.2c-0.3-0.3-0.6-0.5-1.3-1.1c0.1,1.5,0.1,2.6,0.1,4.1
			c-1-1-1.5-1.6-2.4-2.4c0,1.1-0.2,2,0.2,2.7c0.4,0.9,0.3,1.7,0.1,2.6c-0.2,0.8-0.5,1.4-1.2,1.7c-1.1-1.4,1.2-2.7-0.1-4
			c-0.6,0.4-1,0.8-1.6,1.3c-0.1-1.7-0.1-3.3-0.2-5.5c-1.1,1.2-1.7,1.9-2.5,2.8c-0.4-0.2-0.8-0.4-1.3-0.6c-0.4,0.4-0.9,0.8-1.4,1.2
			c-1.7-1.4-3.5-2.5-5.9-3.5c0.4,0.9,0.6,1.4,0.7,1.8c-0.1,0.7-2.1,0.3-0.9,1.7c0.2,0.2-0.9,1.2-1.4,1.9c-0.2-0.1-0.4-0.2-0.7-0.4
			c0.2-1,0.4-2.1,0.5-3.2c-1.7,0.9-3.3,1.8-4.9,2.6c-0.5-0.5-1-1.2-1.9-2.1c-0.1,1.7-0.1,3.1-0.2,4.4c-0.2,0-0.4,0.1-0.6,0.1
			c-0.4-1.1-0.8-2.2-1.3-3.4c-1.7,2-2.5-1.1-4-0.5c-0.2,0.4-0.4,0.8-0.6,1.2c-0.6-0.4-1.2-0.8-2-1.4c0.3,1.3,0.5,2.3,0.9,3.9
			c-0.9-0.8-1.6-1.1-1.9-1.5c-0.3-0.4-0.3-1-0.4-1.6c-0.7,0.2-1.2,0.4-2.2,0.7c0.7-1.1,1.2-1.9,1.7-2.6c-0.1-0.1-0.2-0.2-0.4-0.3
			c-1.6,1.1-3.3,2.1-5.1,3.3c-0.9-2.3-2,0.2-3.1-0.2c-0.7-0.7-0.8-2.1-2.4-1.9c0.2,1.6,0.3,3.1,0.5,5c-0.9-0.6-1.5-1-2.4-1.5
			c0.4,1.6,0.6,2.8,1,4.5c-3.3-2-1.3-4.8-2.2-7.3c-0.7,0.9-1.2,1.5-2,2.7c-0.1-1.7-0.1-2.7-0.2-4.2c-0.9,1.1-1.5,1.8-2.1,2.6
			c-0.5-0.2-0.9-0.3-1.3-0.5c-2.1,1.3-1.9,3.6-3.1,6.1c-0.1-2.7-0.2-4.8-0.3-6.9c-0.2,0-0.4,0-0.6-0.1c-0.6,1.4-1.2,2.8-1.8,4.2
			c-0.2,0-0.4-0.1-0.5-0.1c0.1-1.5,0.2-3,0.4-5c-0.9,1.3-1.6,2.3-2.4,3.4c-1-1-1.8-1.8-2.6-2.7c-0.1,1.2-0.2,2.3-0.3,3.5
			c-0.7,0-1.2-0.1-1.8-0.1c-0.3-1-0.6-1.9-1.1-3.3c-0.8,1-1.3,1.6-1.8,2.3V589C124.8,583,249.9,583.8,375.3,590.9z"/>
	</g>
	<path class="st40" d="M-1.4,309c0-0.2-0.1-0.6-0.1-0.9c-0.1-3.1,0-3.2,3.1-3.3c2.1-0.1,4.2,0,6.3,0.7c-1.5,1.3-1.5,1.3-1.7,3.5
		C3.8,309,1.3,309-1.4,309z"/>
	<path class="st40" d="M-1.3,313.7c2.5,0,4.9,0,7.4,0c0,0.5,0,1,0,1.6c-2.4,0.1-4.8,0.3-7.4,0.5C-1.3,315-1.3,314.5-1.3,313.7z"/>
	<path class="st40" d="M15.5,310.7c-0.1,0.2-0.3,0.6-0.4,0.5c-0.9-0.2-1,0.7-1.6,1.2c-0.5-0.3-1.1-0.7-1.6-1c0.8-0.6,1.9-1,2.3-1.8
		c0.4-0.8,0.1-1.9,0.1-3c0.3,0,0.7,0,1.4,0c-0.2,1.2-0.4,2.2-0.5,3.3C15.2,310.2,15.4,310.5,15.5,310.7L15.5,310.7z"/>
	<path class="st40" d="M15.5,310.7c1.8-0.6,3.6,0.4,3.4,2c-0.1,0.7-0.5,1.5-1,1.9c-0.7,0.5-1.7,0.3-2.3-0.5c0.4-0.1,0.9-0.1,1.2-0.3
		c0.4-0.3,0.8-0.9,0.8-1.3s-0.4-1-0.8-1.3C16.5,310.8,16,310.8,15.5,310.7L15.5,310.7z"/>
	<path class="st40" d="M7.6,306.7c1.1-0.9,2-0.9,2.8-0.1c0.7,0.6,0.7,1.9,0,3c-0.4,0.6-0.8,0.9-1.4,0.3
		C10.3,307.9,9.5,306.7,7.6,306.7z"/>
	<path class="st40" d="M23.8,308.6c-1,0-1.8,0-3,0c1.1-0.6,0.9-2.2,2.3-1.8C24,307,24,307.7,23.8,308.6z"/>
	<path class="st40" d="M7.1,313.8c1.2-0.4,2.1,0,2.7,1C7.8,315.4,7.7,315.4,7.1,313.8z"/>
	
		<linearGradient id="SVGID_38_" gradientUnits="userSpaceOnUse" x1="333.55" y1="306.0499" x2="333.55" y2="187.8499" gradientTransform="matrix(1 0 0 -1 0 755.2501)">
		<stop  offset="0" style="stop-color:#26A69A"/>
		<stop  offset="4.310038e-02" style="stop-color:#1F8E91"/>
		<stop  offset="9.656724e-02" style="stop-color:#187888"/>
		<stop  offset="0.1476" style="stop-color:#136B83"/>
		<stop  offset="0.1932" style="stop-color:#126681"/>
		<stop  offset="0.3967" style="stop-color:#10617F"/>
		<stop  offset="0.6351" style="stop-color:#0C537A"/>
		<stop  offset="0.89" style="stop-color:#043B71"/>
		<stop  offset="1" style="stop-color:#002F6C"/>
	</linearGradient>
	<path class="st41" d="M375.3,567.4V449.2c-53.2,62.9-83.5,113-83.5,113L375.3,567.4z"/>
	
		<linearGradient id="SVGID_39_" gradientUnits="userSpaceOnUse" x1="187.65" y1="261.8004" x2="187.65" y2="70.5004" gradientTransform="matrix(1 0 0 -1 0 755.2501)">
		<stop  offset="0" style="stop-color:#126681"/>
		<stop  offset="0.8243" style="stop-color:#002F6C"/>
	</linearGradient>
	<path class="st42" d="M375.3,620.3V515.7c-0.1,1-0.2,2-0.3,3c-0.4,0-0.7,0.1-1.1,0.1c-0.6-2.1-1.2-4.2-1.8-6.4
		c-3.3,3.4-4.5-2.3-7.2-1.3c-0.4,0.7-0.8,1.5-1.2,2.2c-1-0.8-2-1.6-3.4-2.7c0.4,2.4,0.7,4.4,1.1,7.3c-1.6-1.5-2.7-2.1-3.2-3
		c-0.5-0.8-0.3-1.9-0.5-2.9c-1.3,0.3-2.2,0.6-4.1,1c1.5-2,2.4-3.3,3.3-4.6c-0.2-0.2-0.4-0.4-0.6-0.6c-3.1,1.8-6.1,3.6-9.6,5.6
		c-1.4-4.3-3.7,0.2-5.6-0.6c-1.3-1.4-1.3-3.9-4.1-3.8c0.1,2.9,0.2,5.8,0.3,9.3c-1.6-1.2-2.6-1.9-4.2-3.1c0.5,2.9,0.8,5.3,1.3,8.3
		c-5.8-4-1.8-9.1-3-13.8c-1.3,1.5-2.3,2.7-4,4.7c0.1-3.1,0.1-5,0.2-7.8c-1.7,1.9-2.9,3.2-4.1,4.6c-0.8-0.3-1.6-0.7-2.4-1
		c-4,2.2-3.8,6.5-6.4,11c0.1-5,0.2-8.9,0.2-12.7c-0.4-0.1-0.7-0.1-1.1-0.2c-1.3,2.5-2.5,5-3.8,7.6c-0.3-0.1-0.6-0.2-0.9-0.2
		c0.4-2.8,0.8-5.6,1.2-9.2c-1.9,2.4-3.2,4-4.7,6c-1.6-1.9-3-3.5-4.4-5.2c-0.3,2.2-0.6,4.2-0.9,6.4c-1.3-0.1-2.2-0.2-3.2-0.4
		c-0.5-1.8-0.9-3.5-1.6-6.1c-1.8,2-3,3.3-4.2,4.7c-1.4-4,3.9-6.3,2-10.7c-3.5,4.2-6.7,8-10.1,12.1c-0.9-1.9-1.6-3.7-2.7-5.2
		c-1.1-1.6-0.2-4.3-3.3-5.1c-0.9,4.3,2.7,8.4,0,13.4c-1.4-4.5-2.6-8.4-4-12.8c-1.3,2.2-2.3,4.1-3.5,5.9c-0.2,0.3-0.6,0.4-0.9,0.5
		c-1.4-1.1-2.7-2.2-4.9-3.9c0.7,3.2,1.2,5.4,1.7,7.8c-2.2,0.8-4.1,1.4-6.4,2.2c-2-3.3-3.8-6.4-5.8-9.8c-1.8,2.8-3.4,5.3-5.3,8.2
		c-0.7-2.3-1.2-4-2.1-7c-2.1,3.9-3.5,6.5-5,9.2c-5.9-3.9-3.3-9.1-2.9-14.4c-1.4,0.9-2.5,2-3.2,3.3c-2.1,4.1-4,8.2-6.1,12.3
		c-0.3,0.6-1,1.1-2.3,2.4c-0.1-2.5-0.5-4.1-0.2-5.4c0.4-1.5,1.5-2.9,2.4-4.6c-3.5,0.2-2.2-2.4-3.2-3.7c-1.1,0.7-2.1,1.4-3.4,2.3
		c-0.2-1.8-0.4-3.4-0.7-5.7c-2.8,3.6-5,6.6-8.1,10.7c0.1-5.7,3.1-9.6,2.5-15.4c-3.7,6.4-6.7,11.6-10.5,18.2
		c-0.6-5.6-0.2-9.9-4.2-13.4c-0.3,2.5-0.5,4.6-0.9,8.1c-0.7-2.6-1-3.9-1.4-5.3c-3.6,2.8-3.4,7.2-5.8,10.5c-0.7-1.4-1.4-2.6-2.1-3.8
		c1.5-3,2.9-5.9,4.3-8.7c-0.3-0.2-0.5-0.3-0.8-0.5c-1.9,1.7-3.8,3.3-5.6,4.9c-0.8-0.5-1.2-0.7-1.8-1c-0.1,4.5-3.8,6.4-7.3,9.4
		c1.5-6.6,2.8-12.3,4.5-19.4c-4.2,4.6-4.8,9.9-9.7,11.8l0,0c0-0.2,0-0.3,0.1-0.5c0.1-1.9,0-3.9,0-5.9c0-0.2-0.1-0.4-0.2-0.6
		c-0.1-0.1-0.3-0.2-0.4-0.4c-0.5,0.8-1.1,1.7-1.9,2.9c-1.1-2.3-3.4-2.3-4.3-3.7c-1.2-2-2.1-4.1-3.7-7.4c-1.4,6.9,3,11.9,1.8,18
		c-0.1,0-0.1-0.1-0.2-0.1c0,0.2,0,0.3,0,0.5c-3.8-4.9-6.5-10.2-13.2-12.1c3,7.7,3,7.7,1.5,12c-0.9-2.1-1.5-4-2.5-5.5
		c-0.8-1.2-0.4-4.5-3.8-2.7c-0.8-1.6-1.6-3.1-3-5.6c-1.2,4.5-2.1,7.9-3.3,12.4c-3.8-6-6.1-11.4-10.8-16.2c0.4,5.3,3.9,8.9,3.4,14.1
		c-2.7-3.1-5-5.7-7.5-8.5c-0.6,1.7-1,3-1.6,5c-1.3-1.4-2-2.1-2.9-3c-0.3,1.4-0.5,2.4-0.7,3.5c-1.1-0.4-2-0.8-3.8-1.5
		c1.7,3.2,2.9,5.6,4.2,8.2c-0.7,1.2-1.3,2.4-2.2,3.9c-2.1-6.8-4.6-12.9-10.3-18.2c1.8,11,1.6,11.8-3.9,14.4c-0.4-3-0.4-6.2-4-7.4
		c-0.8,1.5-1.7,3.1-2.5,4.6c-2.2-2.5-2.5-5.8-5.1-7.5c-1.6,3.3-3.1,6.3-4.4,9.2c-6.8-0.3-7.5-1.1-5.9-6.4c0.2-0.7,0.3-1.5,0.6-3
		c-2.1,1.8-3.4,3-4.8,4.2c-1.4-2.1-2.8-4.1-4.4-6.5c-1.4,4.8-2.6,8.9-3.8,13c-0.4-0.1-0.7-0.1-1.1-0.2c0.3-4.5,0.7-9,1-13.5
		c-0.3-0.1-0.6-0.2-0.9-0.2c-1.7,3.5-3.3,7.1-5.4,11.5c-3.4-5.5-6.5-10-11.2-13.3c1.2,3.7,3,7.1,4.3,10.7c1.3,3.5,4.1,6.5,4.1,11.3
		c-5.8-4.4-4.1-11.8-9.5-15.9c-0.3,2.3-0.6,4.3-0.9,6.6c-1.5-0.1-2.5-0.2-3.9-0.3c0-2.3-0.1-4.2-0.1-6.2c-2.7,0.6-2.1,5-5.8,3.9
		c-1-1.2-2-2.4-4-4.8c0.4,2.9,0.2,4.5,0.8,5.7c1,1.8-0.2,2.2-1.4,2.7c-1.1-2.1-0.7-5.2-4.3-6.4c-0.7,3.3,2.9,6.6-0.5,9.6
		c-1.6-2.9-3-5.4-4.3-7.9c-1.3,0.6-2.1,1-2.8,1.3c-1.2-1.4-2.3-2.6-3.8-4.1c-0.3,2.6-0.5,4.5-0.7,6.6c-1.2-1.4-2.2-2.5-3.3-3.7
		c-1.7,4.4,1.7,9.2-3.1,12.6c0.4-2.3,0.8-4.6,1.3-7.6c-1.7,1.3-2.6,2-4.2,3.2c-0.1-3.5-0.1-6.3-0.2-9c-0.4-0.3-0.9-0.5-1.3-0.8
		c-0.9,1.7-1.8,3.4-2.7,5.1c-1.8-1.5-2.8-2.2-3.9-3.1c-0.3,1.6-0.4,2.6-0.6,3.8c-0.9-0.6-1.7-1.2-2.6-1.8v117.9
		c65.4,8.5,129.2,25.8,187.5,58.8C251.3,652.1,314.3,632.1,375.3,620.3z"/>
	
		<linearGradient id="SVGID_40_" gradientUnits="userSpaceOnUse" x1="331.867" y1="515.6499" x2="381.5803" y2="515.6499" gradientTransform="matrix(1 0 0 -1 0 755.2501)">
		<stop  offset="0" style="stop-color:#26A69A"/>
		<stop  offset="7.500758e-02" style="stop-color:#1F8E91"/>
		<stop  offset="0.1681" style="stop-color:#187888"/>
		<stop  offset="0.2569" style="stop-color:#136B83"/>
		<stop  offset="0.3362" style="stop-color:#126681"/>
		<stop  offset="1" style="stop-color:#002F6C"/>
	</linearGradient>
	<path class="st43" d="M339.1,232.1c0.1-0.2,0.2-0.5,0.3-0.7c2.2,0,4,1.3,6.2,1.1c0.1,0,0.3,0,0.4,0.1c0.8,0.6,1.6,0.3,2.4,0
		c0-0.1,0-0.2,0-0.4c-0.6-0.1-1.2-0.2-1.9-0.3c-0.1-1.2-1.2-0.1-1.9-0.6c0.1-0.4,0.1-0.9,0.2-1.4c-0.8-0.5-1.5-0.3-2.2,0.2
		c-0.6,0.4-1,0.3-1.4-0.3c-0.3-0.5-0.8-0.8-1.4-1.5c0.1-0.4,0.4-1.1,0.7-1.9c0.9,0.3,1.7,0.6,2.8,1c-0.5-1-0.9-1.8-1.3-2.5
		c0.1-0.1,0.2-0.3,0.3-0.4c0.7,0.1,1.5,0.3,2.2,0.4c0.8,0.2,1.7,0.4,2.5,0.5c0.2,0,0.5-0.3,0.7-0.4c-1.8,0.2-2.8-0.5-2.8-2.1
		c0.7-0.1,1.4-0.2,2.2-0.3c-0.3-0.6-0.5-1-0.6-1.5c-0.4-1.2-1.2-2.1-2.3-2.8c-0.8-0.6-0.4-1,0.3-1.4c1.6,1.1,3,2.4,5,1.8
		c-0.2-0.4-0.4-0.9-0.7-1.5c1.4,0,2.9,0.3,3.2-1.7c-0.7,0.1-1.2,0.2-1.6,0.3c-0.5,0-1,0.2-1.4,0c-0.6-0.4-1.1-1-1.9-1.8
		c1.4-0.6,2.4-1,3.5-1.4c1.1,0.9,1.1,0.9,2.3,0.7c0,0,0.1-0.2,0.1-0.3c-0.2,0-0.4-0.1-0.5-0.1c-0.2,0-0.5,0-0.7,0
		c0.1-0.1,0.1-0.2,0.2-0.3c-0.5-0.4-1-0.8-1.5-1.1c0.4-0.1,0.7-0.1,1.1-0.2c-0.2-0.9-0.4-1.8-0.6-2.6c0.1-0.1,0.2-0.1,0.3-0.2
		c0.1,0.3,0.3,0.7,0.4,1c0.1-0.1,0.3-0.1,0.4-0.2c0.1-0.5,0.2-1,0.3-1.4c0.6-0.2,1-0.4,1.5-0.6c0-0.1,0-0.3,0-0.4
		c-0.5-0.1-1-0.3-1.4-0.3c-0.9-0.2-1.7-1.8-1.1-2.5c0.2-0.3,0.8-0.2,1.3-0.3c-0.1,1.1,1.2,0.8,1.6,1.9c0.2-0.8,0.2-1.2,0.3-1.6
		c0.4-0.1,0.9-0.2,1.6-0.3c-1-0.4-1.8-0.6-2.5-0.9c0-0.1,0.1-0.2,0.1-0.3c0.4,0,0.8,0,1.2,0c-0.4-1.2-0.7-2.2-1.1-3.2
		c0.1,0,0.1-0.1,0.2-0.1c0.6,0.8,1.3,1.6,1.9,2.4c0-1.6,0-3.1,0-4.6c0.3,0.6,0.4,1.3,0.5,1.9s0.3,1.2,0.4,1.9c0.1,0,0.2,0,0.3-0.1
		c0.2-0.3,0.4-0.6,0.5-0.9c-0.1,0.2-0.2,0.3-0.3,0.5c0.7,0.7,1.4,1.5,2,2.2c0.2-0.1,0.3-0.3,0.5-0.4c-0.2,0.7-0.5,1.4-0.8,2.3
		c1-0.1,1.9-1.2,2.5,0.4c-0.4,0.4-0.9,0.8-1.3,1.2c0.1,0.6,0.4,1.2,0.3,1.6c-0.4,0.8,0,1.3,0.3,1.9c0.3,0.5,0.8,0.9,1.3,1.3
		c-0.6,0.5-1.2,1.1-1.9,1.7c0.8,0,0.3,1.8,1.4,1.2c0.7-0.3,1-1.3,1.5-1.9c0.4,0.2,0.8,0.4,1.2,0.7c-0.1,0-0.2,0.1-0.3,0.1
		c0.1,0.3,0.1,0.6,0.3,1c-0.2,0.3-0.5,0.9-0.9,1.5c-1.7,0.1-1.9,0.5-1.1,1.8c0.6-0.6,1.1-1.2,1.6-1.7c0.9,0.5,1.6,1,2.4,1.4
		c-0.3,0.5-0.5,0.8-0.6,1c0.6,0.4,1.1,0.7,1.9,1.1c-1.2,1.3-2.2,2.5-3.2,3.6c0.2,0.5,0.3,0.9,0.4,1.3c0.8-0.4,1.6-0.7,2.6-1.1
		c0.3,0.9,0.5,1.7,0.7,2.3c1,0.2,1.9,0.4,2.6,0.5c0.3,0.9,0.5,1.4,0.7,2.2c-0.7,0.3-1.3,0.5-2.1,0.8c1.1,0.6,1,1.5,0.7,2.4
		c-0.3,0.7-0.8,1.3-1.3,2.1c1.4-0.3,2.4-0.5,3.5-0.7c0.1,0.1,0.1,0.3,0.2,0.4c-0.5,0.4-1,0.9-1.6,1.4c0.3,1.5,1.7,0.5,2.6,1
		c-0.5,0.9-1,1.7-1.3,2.2c1,0.8,1.8,1.2,2.2,1.8c0.3,0.6,0.7,1.1,1.2,1.6c-1.5,1.4-3,2.8-4.4,4.1c0,0.3,0,0.5-0.1,0.8
		c1.5-1.9,1.3,0.8,2.4,0.2c-0.2,0.2-0.5,0.4-0.7,0.6c0.1,0,0.2,0.1,0.3,0.1c-0.1,0.6-0.3,1.3-0.4,1.9c0.1,0,0.2,0.1,0.3,0.1
		c0.2-0.2,0.3-0.4,0.5-0.7c0.4,0.3,0.7,0.6,0.8,0.8c1-0.2,1.7-0.3,2.5-0.4c-0.8,1-1.4,2.1-2.7,2.1c-0.1,0-0.2,0.1-0.2,0.2
		c-0.6,1.3-1.4,0.9-2.3,0.3c-0.4-0.2-0.7-0.4-1-0.5c-0.6,0.5-1,0.8-1.5,1.2c0,0.1,0,0.2,0,0.3c1.9,0,3.7,0,5.6,0c0-0.2,0-0.6,0-1.2
		c0.6,0.4,1,0.6,1.5,0.9c0.6-0.3,1.3-0.6,1.9-0.9c0.1,0.1,0.1,0.2,0.2,0.2c-0.3,0.4-0.6,0.8-1,1.4c1.2,0.2,2.2,0.4,3.3,0.7
		c0.3,0.1,0.7,0.4,0.6,0.6c0,0.3-0.3,0.8-0.5,0.9c-0.9,0.3-1.8,0.5-2.8,0.8c0,0.3-0.1,0.7-0.1,1.2c-1-0.5-1.6-1.7-2.9-0.9
		c-0.8,0.5-2.2-0.8-2.7,0.9c-0.4-0.2-0.7-0.4-1.1-0.6c-0.1,0.3-0.1,0.5-0.2,0.7c-0.6,1.1-0.7,1.4,0.6,1.7c0.9,0.2,2,0,3,0
		c0.6,0,1.4-0.1,1.7,0.3c0.6,0.7-0.3,1-0.6,1.5c-0.2,0.3-0.5,0.5-0.6,0.8s-0.2,0.7-0.1,1c0.1,0.2,0.5,0.4,0.8,0.4s0.7-0.1,1-0.1
		c1.1-0.1,2.3-0.2,3.4-0.2c0.2,1.3-0.4,1.7-1.3,1.9c-1.1,0.2-2.2,0.4-3.2,0.6c-0.4,0.1-0.8,0.5-0.9,0.8c0,0.3,0.4,0.7,0.7,0.9
		c0.2,0.2,0.5,0.2,0.8,0.3c1.7,0.2,2,0.8,0.9,2.1c-0.4,0.5-1.1,0.9-1.7,1.2c-0.4,0.3-0.9,0.5-1.3,0.7c0.3,0.5,0.5,1,0.8,1.4
		c0.1,0.2,0.5,0.2,0.6,0.4c0.2,0.6,0.6,1.3,0.5,1.8s-0.7,1-1.2,1.2c-0.8,0.3-1.7,0.4-2.5,0.5c-0.6,0.1-1.3,0.2-2,0.3
		c0,0.2-0.1,0.6-0.2,1c-1.3-0.3-2.5-0.6-3.7-0.8c-0.4-0.1-0.9-0.1-1.1,0.1c-0.6,0.6-1.2,0.8-1.8,0.1c-0.3-0.3-0.8-0.5-1-0.6
		c-0.6,0.4-1.1,0.7-1.6,1.1c-0.3-0.4-0.5-0.8-0.8-1.3c-0.1,0-0.3,0.1-0.5,0.2c-2.2,0.4-2.2,0.4-1.8,2.7c0.2,1.2,0.3,2.4,0.4,3.7
		c-1.1,0-2,0-2.8,0c-1,0-1.3-0.5-1.2-1.5c0.1-1.3,0.1-2.7,0.1-4.1c0-0.8-0.5-1.3-1.3-1.1c-1,0.2-2.1,0.4-3,0.8
		c-1.9,0.8-3.9,0.4-5.8,0.3c-0.4,0-0.7-0.4-1.1-0.7c0.3-0.4,0.4-0.6,0.6-0.9c0-0.1-0.1-0.1-0.1-0.2c-0.4,0.2-0.8,0.4-1.3,0.6
		c-0.4-0.3-0.8-0.7-1.3-1c-1.2,0.5-2.4,1-3.7,1.6c-0.3-0.7-0.6-1.2-0.8-1.7c2-1.4,2-1.4,0.5-2.8c0.4-0.4,1.1-0.8,1.2-1.3
		c0.2-0.9,0.7-1.4,1.4-1.9c0.8-0.6,0.9-1.2,0.2-1.9c-1.1-1.2-2.4-1.6-4-0.9c-0.7,0.3-1.3,0.3-1.6-0.5c1.8-1.6,1.8-1.6,4-1.6
		c0.8,0,1.6,0.1,2.3,0c0.4,0,0.9-0.3,1-0.6c0.1-0.3-0.2-0.8-0.4-1.1c-0.2-0.2-0.6-0.4-0.9-0.5c-1.9-0.5-3.8-1.1-5.7-1.6
		c-1.2-0.3-2.1-0.9-2.5-2.2c-0.2-0.9,0.3-1.3,0.9-1.3c0.6-0.1,1.6,0.1,1.9,0.5c0.8,1.1,2,0.4,3.2,1.2c-1.5-2-2-2.3-3.7-2.4
		c0-0.4-0.1-0.8-0.1-1.3c1,0.4,2,0.7,2.4,0.1c-0.5-0.6-1-1.1-1.4-1.5c0.1-0.1,0.2-0.2,0.4-0.3c0.6-0.1,1.3-0.2,1.9-0.3
		c0-0.1,0-0.3,0.1-0.4c-0.8-0.6-1.6-1.2-2.5-2c1-0.2,1.7-0.3,2.4-0.5c0-0.1,0-0.2,0-0.3c-0.8-0.2-1.7-0.4-2.2-0.5
		c0.1-0.9,0.1-1.6,0.1-2c2.6-0.3,5.2-0.5,7.7-0.8c-0.7-0.8-1.4-1.7-2.1-1.7c-1.6,0-2.7-0.6-3.1-2c0.5-0.4,0.8-0.8,1.3-1.3
		c1.4,0.6,3-0.7,4.6,0.1c0.2-0.6,0.3-1,0.4-1.1c-0.5-0.6-0.9-1-1.3-1.4c-0.2-0.2-0.4-0.4-0.6-0.6c-1.5-0.8-1.7-1.7-0.8-2.9
		C340.5,233.6,339.9,232.9,339.1,232.1z M345.3,248.3c-0.6-0.8-1.4-0.9-2.4-0.6c-1.2,0.4-2.4,0.5-3.7,0.7c-0.1-0.1-0.2-0.3-0.5-0.6
		c-0.3,0.4-0.6,0.8-0.9,1.2c2.6,0.8,3.1,0.7,4.7-0.3C343.5,249,344.5,249.3,345.3,248.3z"/>
	<path class="st44" d="M151.1,400.7c0.9,0,1.7,0,2.6,0c0.3,0,0.5,0.2,0.8,0.3c-1.1,0-2.2,0-3.3,0C151.1,401,151.1,400.9,151.1,400.7
		z"/>
	<path class="st1" d="M187.8,684.7L187.8,684.7L187.8,684.7z"/>
	<path class="st1" d="M187.8,684.7L187.8,684.7L187.8,684.7z"/>
	<path class="st1" d="M187.8,684.7C187.9,684.6,187.8,684.7,187.8,684.7L187.8,684.7z"/>
	<path class="st1" d="M187.8,684.7C187.8,684.7,187.7,684.7,187.8,684.7C187.7,684.7,187.8,684.7,187.8,684.7z"/>
	<path class="st1" d="M187.8,684.7C187.7,684.7,187.7,684.6,187.8,684.7L187.8,684.7z"/>
	<path class="st1" d="M187.7,684.7L187.7,684.7L187.7,684.7z"/>
	<path class="st1" d="M187.8,684.7L187.8,684.7L187.8,684.7z"/>
	<path class="st1" d="M187.8,684.7L187.8,684.7L187.8,684.7z"/>
	<path class="st1" d="M187.8,684.7C187.9,684.6,187.8,684.7,187.8,684.7L187.8,684.7z"/>
	<path class="st1" d="M187.8,684.7C187.8,684.7,187.7,684.7,187.8,684.7C187.7,684.7,187.8,684.7,187.8,684.7z"/>
	<path class="st1" d="M187.8,684.7C187.7,684.7,187.7,684.6,187.8,684.7L187.8,684.7z"/>
	<path class="st1" d="M187.7,684.7L187.7,684.7L187.7,684.7z"/>
	<path class="st1" d="M187.8,684.7L187.8,684.7L187.8,684.7z"/>
	<path class="st1" d="M187.8,684.7L187.8,684.7L187.8,684.7z"/>
	<path class="st1" d="M187.8,684.7C187.9,684.6,187.8,684.7,187.8,684.7L187.8,684.7z"/>
	<path class="st1" d="M187.8,684.7C187.8,684.7,187.7,684.7,187.8,684.7C187.7,684.7,187.8,684.7,187.8,684.7z"/>
	<path class="st1" d="M187.8,684.7C187.7,684.7,187.7,684.6,187.8,684.7L187.8,684.7z"/>
	<path class="st1" d="M187.7,684.7L187.7,684.7L187.7,684.7z"/>
	<path class="st1" d="M187.8,684.7L187.8,684.7L187.8,684.7z"/>
	<path class="st1" d="M187.8,684.7L187.8,684.7L187.8,684.7z"/>
	<path class="st1" d="M187.8,684.7C187.9,684.6,187.8,684.7,187.8,684.7L187.8,684.7z"/>
	<path class="st1" d="M187.8,684.7C187.8,684.7,187.7,684.7,187.8,684.7C187.7,684.7,187.8,684.7,187.8,684.7z"/>
	<path class="st1" d="M187.8,684.7C187.7,684.7,187.7,684.6,187.8,684.7L187.8,684.7z"/>
	<path class="st1" d="M187.7,684.7L187.7,684.7L187.7,684.7z"/>
	<path class="st1" d="M187.8,684.7L187.8,684.7L187.8,684.7z"/>
	<path class="st1" d="M187.8,684.7L187.8,684.7L187.8,684.7z"/>
	<path class="st1" d="M187.8,684.7C187.9,684.6,187.8,684.7,187.8,684.7L187.8,684.7z"/>
	<path class="st1" d="M187.8,684.7C187.8,684.7,187.7,684.7,187.8,684.7C187.7,684.7,187.8,684.7,187.8,684.7z"/>
	<path class="st1" d="M187.8,684.7C187.7,684.7,187.7,684.6,187.8,684.7L187.8,684.7z"/>
	<path class="st1" d="M187.7,684.7L187.7,684.7L187.7,684.7z"/>
	<path class="st1" d="M187.8,684.7L187.8,684.7L187.8,684.7z"/>
	<path class="st1" d="M187.8,684.7L187.8,684.7L187.8,684.7z"/>
	<path class="st1" d="M187.8,684.7C187.9,684.6,187.8,684.7,187.8,684.7L187.8,684.7z"/>
	<path class="st1" d="M187.8,684.7C187.8,684.7,187.7,684.7,187.8,684.7C187.7,684.7,187.8,684.7,187.8,684.7z"/>
	<path class="st1" d="M187.8,684.7C187.7,684.7,187.7,684.6,187.8,684.7L187.8,684.7z"/>
	<path class="st1" d="M187.7,684.7L187.7,684.7L187.7,684.7z"/>
	<path class="st1" d="M187.8,684.7L187.8,684.7L187.8,684.7z"/>
	<path class="st1" d="M187.8,684.7L187.8,684.7L187.8,684.7z"/>
	<path class="st1" d="M187.8,684.7C187.9,684.6,187.8,684.7,187.8,684.7L187.8,684.7z"/>
	<path class="st1" d="M187.8,684.7C187.8,684.7,187.7,684.7,187.8,684.7C187.7,684.7,187.8,684.7,187.8,684.7z"/>
	<path class="st1" d="M187.8,684.7C187.7,684.7,187.7,684.6,187.8,684.7L187.8,684.7z"/>
	<path class="st1" d="M187.7,684.7L187.7,684.7L187.7,684.7z"/>
</g>
<g id="screen">
</g>
<g id="modal">
</g>
<g id="grid" class="st45">
</g>
<g id="Layer_1_1_">
</g>
</svg>
