<svg xmlns="http://www.w3.org/2000/svg" width="274.35" height="227.33" viewBox="0 0 274.35 227.33"><title>Next-Back</title><g id="Layer_2" data-name="Layer 2"><g id="Layer_1-2" data-name="Layer 1"><rect x="64.98" width="204.13" height="135.84" rx="9.48" style="fill:#0069aa"/><circle cx="167.04" cy="127.77" r="4.41" style="fill:#00559b"/><polygon points="178.24 150.43 178.24 135.84 167.04 135.84 155.84 135.84 155.84 150.43 178.24 150.43" style="fill:#0069aa"/><rect x="73.64" y="11.72" width="187.09" height="107.46" style="fill:#f2f2f2"/><line x1="103.23" y1="29.93" x2="219.4" y2="29.93" style="fill:none;stroke:#00559b;stroke-miterlimit:10;stroke-width:1.46858697993617px"/><line x1="103.23" y1="35.81" x2="160.5" y2="35.81" style="fill:none;stroke:#00559b;stroke-miterlimit:10;stroke-width:1.46858697993617px"/><line x1="122.2" y1="45.72" x2="186.09" y2="45.72" style="fill:none;stroke:#666;stroke-miterlimit:10;stroke-width:1.46858697993617px"/><line x1="122.2" y1="56" x2="201.12" y2="56" style="fill:none;stroke:#666;stroke-miterlimit:10;stroke-width:1.46858697993617px"/><rect x="112.66" y="42.78" width="5.87" height="5.87" rx="2.94" style="fill:none;stroke:#0069aa;stroke-miterlimit:10;stroke-width:1.46858697993617px"/><rect x="112.66" y="53.06" width="5.87" height="5.87" rx="2.94" style="fill:#0069aa;stroke:#0069aa;stroke-miterlimit:10;stroke-width:1.46858697993617px"/><line x1="122.2" y1="65.9" x2="179.31" y2="65.9" style="fill:none;stroke:#666;stroke-miterlimit:10;stroke-width:1.46858697993617px"/><line x1="122.2" y1="76.18" x2="194.05" y2="76.18" style="fill:none;stroke:#666;stroke-miterlimit:10;stroke-width:1.46858697993617px"/><rect x="112.66" y="62.96" width="5.87" height="5.87" rx="2.94" style="fill:none;stroke:#0069aa;stroke-miterlimit:10;stroke-width:1.46858697993617px"/><rect x="112.66" y="73.24" width="5.87" height="5.87" rx="2.94" style="fill:none;stroke:#0069aa;stroke-miterlimit:10;stroke-width:1.46858697993617px"/><rect x="205.86" y="99.6" width="22.03" height="7.34" style="fill:#7ac142"/><path d="M130.56,101.07v4.41h-19.1v-4.41h19.1M132,99.6H110v7.34h22V99.6Z" style="fill:#7ac142"/><circle cx="220.75" cy="106.61" r="12.39" style="fill:#005caa;opacity:0.2"/><path d="M229.26,120.2l-3.67-11.67c-.83-2.61-5.59-1.11-4.76,1.5l5.83,18.52a.24.24,0,0,1-.33.28,36.36,36.36,0,0,1-4.86-2.87,1.75,1.75,0,0,0-2.37,2.57c1.63,1.88,13.64,12.3,13.64,12.3l13.9-4.38s.7-11,.36-12.3-2-6.39-2.55-8.09c-.76-2.41-3.5-1.54-5.85-.81" style="fill:#fff;stroke:#7ac142;stroke-miterlimit:10;stroke-width:1.46858697993617px"/><path d="M227.68,115.18l3.64-1.14a1.45,1.45,0,0,1,1.82.95l1.33,4.22" style="fill:#fff;stroke:#7ac142;stroke-miterlimit:10;stroke-width:1.46858697993617px"/><path d="M233.14,115l3.09-1a1.88,1.88,0,0,1,2.37,1.23l1.18,3.75" style="fill:#fff;stroke:#7ac142;stroke-miterlimit:10;stroke-width:1.46858697993617px"/><rect x="73.32" y="11.58" width="186.93" height="9.43" style="fill:#fff"/><rect x="143.6" y="147.19" width="46.96" height="10.91" rx="4.8" style="fill:#0069aa"/><path d="M16.37,166.3H33.22a16.19,16.19,0,0,1-1.54-6.87h0a16.42,16.42,0,0,1,16.37-16.37H233.93a16.42,16.42,0,0,1,16.37,16.37h0a16.42,16.42,0,0,1-16.37,16.37H217.08A16.31,16.31,0,0,1,202.25,199H16.37a16.37,16.37,0,1,1,0-32.73Z" style="fill:#0069aa;opacity:0.1"/><circle cx="240.5" cy="197.87" r="13.83" style="fill:#0069aa;opacity:0.1"/><circle cx="265.54" cy="218.52" r="8.81" style="fill:#0069aa;opacity:0.1"/><circle cx="14.53" cy="143.22" r="9.8" style="fill:#0069aa;opacity:0.1"/></g></g></svg>