<svg xmlns="http://www.w3.org/2000/svg" width="140.96" height="124.44" viewBox="0 0 140.96 124.44"><title>Next-back-mobile</title><g id="Layer_2" data-name="Layer 2"><g id="Layer_1-2" data-name="Layer 1"><rect width="140.96" height="93.81" rx="6.55" style="fill:#0069aa"/><circle cx="70.48" cy="88.23" r="3.04" style="fill:#00559b"/><polygon points="78.22 103.88 78.22 93.81 70.48 93.81 62.75 93.81 62.75 103.88 78.22 103.88" style="fill:#0069aa"/><rect x="5.99" y="8.1" width="129.19" height="74.2" style="fill:#f2f2f2"/><line x1="26.41" y1="20.67" x2="106.64" y2="20.67" style="fill:none;stroke:#00559b;stroke-miterlimit:10;stroke-width:1.01413211118px"/><line x1="26.41" y1="24.73" x2="65.97" y2="24.73" style="fill:none;stroke:#00559b;stroke-miterlimit:10;stroke-width:1.01413211118px"/><line x1="39.52" y1="31.57" x2="83.63" y2="31.57" style="fill:none;stroke:#666;stroke-miterlimit:10;stroke-width:1.01413211118px"/><line x1="39.52" y1="38.67" x2="94.01" y2="38.67" style="fill:none;stroke:#666;stroke-miterlimit:10;stroke-width:1.01413211118px"/><rect x="32.93" y="29.54" width="4.06" height="4.06" rx="2.03" style="fill:none;stroke:#0069aa;stroke-miterlimit:10;stroke-width:1.01413211118px"/><rect x="32.93" y="36.64" width="4.06" height="4.06" rx="2.03" style="fill:#0069aa;stroke:#0069aa;stroke-miterlimit:10;stroke-width:1.01413211118px"/><line x1="39.52" y1="45.51" x2="78.95" y2="45.51" style="fill:none;stroke:#666;stroke-miterlimit:10;stroke-width:1.01413211118px"/><line x1="39.52" y1="52.61" x2="89.13" y2="52.61" style="fill:none;stroke:#666;stroke-miterlimit:10;stroke-width:1.01413211118px"/><rect x="32.93" y="43.48" width="4.06" height="4.06" rx="2.03" style="fill:none;stroke:#0069aa;stroke-miterlimit:10;stroke-width:1.01413211118px"/><rect x="32.93" y="50.58" width="4.06" height="4.06" rx="2.03" style="fill:none;stroke:#0069aa;stroke-miterlimit:10;stroke-width:1.01413211118px"/><rect x="97.29" y="68.78" width="15.21" height="5.07" style="fill:#7ac142"/><path d="M45.29,69.79v3H32.1v-3H45.29m1-1H31.09v5.07H46.3V68.78Z" style="fill:#7ac142"/><circle cx="107.57" cy="73.62" r="8.56" style="fill:#005caa;opacity:0.2"/><path d="M113.45,83,110.91,75c-.57-1.8-3.86-.77-3.29,1l4,12.79a.16.16,0,0,1-.22.19,24.23,24.23,0,0,1-3.36-2,1.21,1.21,0,0,0-1.64,1.78c1.13,1.29,9.42,8.49,9.42,8.49l9.6-3s.48-7.57.24-8.49-1.39-4.41-1.76-5.58c-.52-1.67-2.41-1.07-4-.56" style="fill:#fff;stroke:#7ac142;stroke-miterlimit:10;stroke-width:1.01413211118px"/><path d="M112.36,79.54l2.51-.79a1,1,0,0,1,1.26.65l.91,2.92" style="fill:#fff;stroke:#7ac142;stroke-miterlimit:10;stroke-width:1.01413211118px"/><path d="M116.13,79.4l2.13-.67a1.32,1.32,0,0,1,1.64.86l.81,2.59" style="fill:#fff;stroke:#7ac142;stroke-miterlimit:10;stroke-width:1.01413211118px"/><rect x="5.76" y="7.99" width="129.09" height="6.51" style="fill:#fff"/><rect x="54.3" y="101.64" width="32.43" height="7.53" rx="3.31" style="fill:#0069aa"/><path d="M20.77,109.44h7.72a7.53,7.53,0,0,1-.7-3.15h0a7.53,7.53,0,0,1,7.5-7.5h85.18a7.52,7.52,0,0,1,7.5,7.5h0a7.52,7.52,0,0,1-7.5,7.5h-7.72a7.41,7.41,0,0,1,.7,3.15,7.52,7.52,0,0,1-7.5,7.5H20.77a7.5,7.5,0,0,1,0-15Z" style="fill:#0069aa;opacity:0.1"/></g></g></svg>