<svg width="126" height="84" viewBox="0 0 126 84" fill="none" xmlns="http://www.w3.org/2000/svg">
<path d="M125.5 81.6H1.6V83.4H125.5V81.6Z" fill="#22DDBE"/>
<path d="M41.1 5.5L4.4 27.6V79.3H44.4H67.7H76H77.8H82.9H114.7H121.5V36.1H77.8V27.6L41.1 5.5ZM46.2 77.6V43.3H66V77.6H46.2ZM76 77.6H67.7V41.5H44.4V77.6H6.2V28.6L41.1 7.6L76 28.6V77.6ZM84.6 77.6V44.7H112.9V77.5H84.6V77.6ZM77.8 37.9H119.7V77.6H114.7V42.9H82.9V77.5H77.8V37.9Z" fill="#22DDBE"/>
<path d="M81.1 26L82 24.5L75.4 20.6V5.7H63.6V13.5L41.1 0L0 24.4L0.9 26L41.1 2.1L81.1 26ZM65.4 7.5H73.6V19.5L65.4 14.6V7.5Z" fill="#22DDBE"/>
<path d="M15.2 61.2H35V41.5H15.2V61.2ZM17 43.3H33.2V59.5H17V43.3Z" fill="#22DDBE"/>
<path d="M35.7 21C35.7 24 38.1 26.4 41.1 26.4C44.1 26.4 46.5 24 46.5 21C46.5 18 44.1 15.6 41.1 15.6C38.1 15.6 35.7 18 35.7 21ZM44.7 21C44.7 23 43.1 24.6 41.1 24.6C39.1 24.6 37.5 23 37.5 21C37.5 19 39.1 17.4 41.1 17.4C43.1 17.4 44.7 19 44.7 21Z" fill="#22DDBE"/>
</svg>
