<?xml version="1.0" encoding="utf-8"?>
<!-- Generator: Adobe Illustrator 23.1.1, SVG Export Plug-In . SVG Version: 6.00 Build 0)  -->
<svg version="1.1" xmlns="http://www.w3.org/2000/svg" xmlns:xlink="http://www.w3.org/1999/xlink" x="0px" y="0px"
	 viewBox="0 0 372.3 69.7" style="enable-background:new 0 0 372.3 69.7;" xml:space="preserve">
<style type="text/css">
	.st0{fill:#F2F2F2;stroke:#0069AA;stroke-miterlimit:10;}
	.st1{opacity:8.000000e-02;fill:#0069AA;}
	.st2{opacity:5.000000e-02;fill:#0069AA;}
	.st3{opacity:0.15;fill:#0069AA;}
	.st4{fill:#00559B;}
	.st5{fill:url(#XMLID_75_);}
	.st6{fill:#FFFFFF;}
	.st7{fill:#7BC043;}
	.st8{fill:#0069AA;}
	.st9{fill:none;stroke:#7AC142;stroke-width:0.8327;stroke-miterlimit:10;}
	.st10{display:none;fill:none;stroke:#00559B;stroke-miterlimit:10;}
	.st11{display:none;fill:#1A1A1A;}
	.st12{fill:none;stroke:#00559B;stroke-width:1.5238;stroke-miterlimit:10;}
	.st13{fill:#7AC142;}
	.st14{fill:none;stroke:#7AC142;stroke-width:1.7148;stroke-miterlimit:10;}
	.st15{fill:#CCCCCC;}
	.st16{fill:url(#XMLID_78_);}
	.st17{fill:none;stroke:#00559B;stroke-width:1.7143;stroke-miterlimit:10;}
	.st18{fill:url(#XMLID_79_);}
	.st19{fill:url(#XMLID_80_);}
	.st20{fill:url(#XMLID_81_);}
	.st21{fill:none;stroke:#000000;stroke-width:1.2991;stroke-miterlimit:10;}
	.st22{fill:#FFFFFF;stroke:#00559B;stroke-width:0.9269;stroke-miterlimit:10;}
	.st23{fill:url(#XMLID_82_);}
	.st24{fill:none;stroke:#00559B;stroke-width:0.8879;stroke-miterlimit:10;}
	.st25{fill:#FFFFFF;stroke:#00559B;stroke-width:1.7143;stroke-miterlimit:10;}
	.st26{fill:url(#XMLID_83_);}
	.st27{fill:url(#XMLID_84_);}
	.st28{opacity:0.1;fill:#0069AA;}
	.st29{fill:#FFFFFF;stroke:#00559B;stroke-width:0.9751;stroke-miterlimit:10;}
	.st30{fill:url(#XMLID_85_);}
	.st31{fill:#B3B3B3;}
	.st32{fill:none;stroke:#00559B;stroke-width:0.885;stroke-miterlimit:10;}
	.st33{fill:none;stroke:#00559B;stroke-width:1.0596;stroke-miterlimit:10;}
	.st34{fill:url(#XMLID_86_);}
	.st35{fill:none;stroke:#00559B;stroke-width:0.8847;stroke-miterlimit:10;}
	.st36{fill:none;stroke:#00559B;stroke-width:1.0592;stroke-miterlimit:10;}
	.st37{fill:url(#XMLID_87_);}
	.st38{fill:url(#XMLID_88_);}
	.st39{fill:url(#XMLID_89_);}
	.st40{fill:url(#XMLID_90_);}
	.st41{fill:url(#XMLID_91_);}
	.st42{fill:url(#XMLID_92_);}
	.st43{fill:#0069AA;stroke:#00559B;stroke-width:1.7143;stroke-miterlimit:10;}
	.st44{fill:url(#XMLID_93_);}
	.st45{fill:url(#XMLID_94_);}
	.st46{fill:url(#XMLID_95_);}
	.st47{fill:url(#XMLID_96_);}
	.st48{fill:url(#XMLID_97_);}
	.st49{fill:none;stroke:#ED1C24;stroke-width:2;stroke-miterlimit:10;}
	.st50{fill:none;stroke:#0069AA;stroke-miterlimit:10;}
	.st51{fill:#F2F2F2;}
	.st52{display:none;}
	.st53{display:inline;opacity:0.5;}
</style>
<g id="BACKGROUND">
</g>
<g id="Layer_1">
	<g>
		<g>
			<g>
				<path class="st7" d="M33.3,66.5c-0.2-1.9,1.2-3.7,3.2-3.9c1.9-0.2,3.7,1.2,3.9,3.2c0.2,1.9-1.2,3.7-3.2,3.9
					C35.3,69.9,33.5,68.5,33.3,66.5z"/>
				<path class="st7" d="M33.2,58c-0.2-1.6,1-2.9,2.5-3.1c1.6-0.1,2.9,1,3.1,2.5c0.1,1.6-1,2.9-2.5,3.1C34.8,60.7,33.4,59.6,33.2,58
					z"/>
				<path class="st7" d="M33.4,50.6c-0.1-1.1,0.7-2,1.7-2.1c1.1-0.1,2,0.7,2.1,1.7c0.1,1.1-0.7,2-1.7,2.1
					C34.5,52.4,33.5,51.6,33.4,50.6z"/>
			</g>
			<g>
				<path class="st7" d="M19.2,62.7c0.7-1.8,2.8-2.7,4.6-2c1.8,0.7,2.7,2.8,2,4.6c-0.7,1.8-2.8,2.7-4.6,2
					C19.4,66.6,18.5,64.6,19.2,62.7z"/>
				<path class="st7" d="M22.9,55.1c0.6-1.5,2.2-2.2,3.7-1.6c1.5,0.6,2.2,2.2,1.6,3.7c-0.6,1.5-2.2,2.2-3.7,1.6
					C23.1,58.2,22.4,56.5,22.9,55.1z"/>
				<path class="st7" d="M26.4,48.5c0.4-1,1.5-1.5,2.5-1.1c1,0.4,1.5,1.5,1.1,2.5c-0.4,1-1.5,1.5-2.5,1.1
					C26.5,50.6,26,49.5,26.4,48.5z"/>
			</g>
			<g>
				<path class="st7" d="M8.3,53c1.4-1.3,3.7-1.2,5,0.3c1.3,1.4,1.2,3.7-0.3,5c-1.5,1.3-3.7,1.2-5-0.3C6.7,56.5,6.8,54.3,8.3,53z"/>
				<path class="st7" d="M15,47.8c1.2-1,2.9-0.9,4,0.2c1,1.2,0.9,2.9-0.2,4c-1.2,1-2.9,0.9-4-0.2C13.8,50.7,13.9,48.9,15,47.8z"/>
				<path class="st7" d="M21.1,43.5c0.8-0.7,2-0.7,2.7,0.1c0.7,0.8,0.7,2-0.1,2.7c-0.8,0.7-2,0.7-2.7-0.1
					C20.3,45.5,20.3,44.3,21.1,43.5z"/>
			</g>
			<g>
				<path class="st7" d="M2.9,39.4c1.9-0.5,3.8,0.6,4.3,2.5c0.5,1.9-0.6,3.8-2.5,4.3c-1.9,0.5-3.8-0.6-4.3-2.5
					C-0.1,41.8,1,39.9,2.9,39.4z"/>
				<path class="st7" d="M11.3,37.8c1.5-0.4,3.1,0.5,3.5,2c0.4,1.5-0.5,3.1-2,3.5c-1.5,0.4-3.1-0.5-3.5-2
					C8.9,39.8,9.7,38.2,11.3,37.8z"/>
				<path class="st7" d="M18.6,36.7c1-0.3,2.1,0.3,2.4,1.4c0.3,1-0.3,2.1-1.4,2.4c-1,0.3-2.1-0.3-2.4-1.4C17,38.1,17.6,37,18.6,36.7
					z"/>
			</g>
			<g>
				<path class="st7" d="M4.2,24.8C6.2,25.2,7.4,27,7,28.9c-0.4,1.9-2.3,3.1-4.2,2.7c-1.9-0.4-3.1-2.3-2.7-4.2
					C0.5,25.6,2.3,24.4,4.2,24.8z"/>
				<path class="st7" d="M12.4,27.2c1.5,0.3,2.5,1.8,2.2,3.3c-0.3,1.5-1.8,2.5-3.3,2.2c-1.5-0.3-2.5-1.8-2.2-3.3
					C9.4,27.8,10.9,26.8,12.4,27.2z"/>
				<path class="st7" d="M19.5,29.5c1.1,0.2,1.7,1.2,1.5,2.3c-0.2,1-1.2,1.7-2.3,1.5c-1-0.2-1.7-1.2-1.5-2.3
					C17.4,30,18.4,29.3,19.5,29.5z"/>
			</g>
			<g>
				<path class="st7" d="M12,12.3c1.5,1.2,1.8,3.4,0.6,5c-1.2,1.5-3.4,1.8-5,0.6c-1.5-1.2-1.8-3.4-0.6-5C8.3,11.4,10.5,11.1,12,12.3
					z"/>
				<path class="st7" d="M18.2,18.2c1.2,1,1.4,2.7,0.5,4c-1,1.2-2.7,1.4-4,0.5c-1.2-1-1.4-2.7-0.5-4C15.2,17.4,17,17.2,18.2,18.2z"
					/>
				<path class="st7" d="M23.5,23.5c0.8,0.7,1,1.9,0.3,2.7c-0.7,0.8-1.9,1-2.7,0.3c-0.8-0.7-1-1.9-0.3-2.7
					C21.4,22.9,22.7,22.8,23.5,23.5z"/>
			</g>
			<g>
				<path class="st7" d="M24.6,4.8c0.8,1.8,0,3.9-1.7,4.7c-1.8,0.8-3.9,0-4.7-1.7c-0.8-1.8,0-3.9,1.7-4.7C21.6,2.2,23.7,3,24.6,4.8z
					"/>
				<path class="st7" d="M27.5,12.8c0.7,1.4,0,3.1-1.4,3.7c-1.4,0.7-3.1,0-3.8-1.4c-0.7-1.4,0-3.1,1.4-3.8
					C25.1,10.7,26.8,11.3,27.5,12.8z"/>
				<path class="st7" d="M29.8,19.9c0.4,1,0,2.1-0.9,2.6c-1,0.5-2.1,0-2.6-0.9c-0.5-1,0-2.1,0.9-2.6C28.2,18.5,29.3,18.9,29.8,19.9z
					"/>
			</g>
			<g>
				<path class="st7" d="M39.2,3.6c-0.1,1.9-1.7,3.5-3.6,3.4C33.6,7,32,5.4,32.1,3.4c0.1-1.9,1.7-3.5,3.6-3.4
					C37.7,0.1,39.2,1.7,39.2,3.6z"/>
				<path class="st7" d="M38.2,12.1c-0.1,1.6-1.4,2.8-2.9,2.7c-1.6-0.1-2.8-1.4-2.7-2.9c0.1-1.6,1.4-2.8,2.9-2.7
					C37,9.2,38.2,10.5,38.2,12.1z"/>
				<path class="st7" d="M37,19.5c0,1.1-0.9,1.9-2,1.9c-1.1,0-1.9-0.9-1.9-2c0-1.1,0.9-1.9,2-1.9C36.2,17.5,37.1,18.4,37,19.5z"/>
			</g>
		</g>
		<g>
			<path class="st8" d="M51.7,52.8c0.2-3,0.3-5.3,0.3-9.5V26.3c0-4.1-0.4-7.4-1-10.5h4.2c2.2,0,3.9-0.2,5.3-0.3
				c1.5-0.2,2.6-0.3,3.6-0.3c8.1,0,12.9,3.9,12.9,11.1c0,11.6-13.8,13-17.3,13v3.8c0,4.2,0.2,6.8,0.3,9.5H51.7z M59.8,33.7
				c2,0,9.5-0.7,9.5-7.1c0-3.7-2.4-5.6-5.8-5.6c-1.2,0-2.4,0.1-3.7,0.3V33.7z"/>
			<path class="st8" d="M75.3,52.8c1.6-4,3.2-7.9,4.9-12.4l2.5-6.9c1.7-4.9,3.9-10.9,4.5-16.5l10-1.9c0.7,3.8,2.9,10.9,5,17.1
				l2.4,6.9c1.8,5.1,3.9,9.9,5.9,13.8h-9.1c-1.2-3.3-2.8-8.3-3.5-10.4H86.5c-0.8,2.6-2.1,7.7-2.7,10.4H75.3z M96.6,37.5
				c-1-3.4-3-10.1-4-15.5h-0.1c-1.2,5.3-3.3,11.5-4.5,15.5H96.6z"/>
			<path class="st8" d="M115.3,52.8c0.2-3.4,0.3-5.4,0.3-11.2v-20h-2.5c-1.8,0-5.1,0.1-8,0.5l0.4-6.2h20.5c3,0,5.7-0.2,7.9-0.5
				l-0.4,6.2h-10.1v20c0,5.8,0.2,8.7,0.3,11.2H115.3z"/>
			<path class="st8" d="M139.2,52.8c0.2-3,0.3-5.3,0.3-9.5V26.3c0-4.1-0.4-7.4-1-10.5h9.1c-0.1,2.6-0.3,6.3-0.3,10.5v3.8h13.9v-3.8
				c0-4.1-0.4-7.4-1-10.5h9.1c-0.1,2.6-0.3,6.3-0.3,10.5v16.9c0,2.9,0.2,6.8,0.3,9.5h-8.3c0.2-3,0.3-5.3,0.3-9.5v-7.4h-13.9v7.4
				c0,2.9,0.2,6.8,0.3,9.5H139.2z"/>
		</g>
		<g>
			<path class="st8" d="M183.5,17.3h3.8c2.4,0,4,1.2,4,3.5c0,2.7-2.4,3.7-4.4,3.7H185l-0.1,5.1h-1.6L183.5,17.3z M185,23.3h2
				c1.3,0,2.7-0.7,2.7-2.5c0-1.3-0.8-2.5-2.8-2.5H185L185,23.3z"/>
			<path class="st8" d="M197.2,20.5c2.6,0,4.2,1.8,4.2,4.7c0,2.3-1.5,4.7-4.4,4.7c-2.6,0-4.2-1.8-4.2-4.7
				C192.8,22.9,194.3,20.5,197.2,20.5z M197,28.8c1.4,0,2.8-1.2,2.8-3.6c0-2.5-1.2-3.6-2.7-3.6c-1.4,0-2.8,1.2-2.8,3.6
				C194.4,27.6,195.6,28.8,197,28.8z"/>
			<path class="st8" d="M204,20.7h1.4v1.2h0c0.5-0.8,1.5-1.4,2.8-1.4c1.5,0,3.6,1.1,3.6,4.6c0,2.4-1.6,4.7-3.9,4.7
				c-1.2,0-2.1-0.5-2.5-1.2h0l0,5.4h-1.4L204,20.7z M205.4,27.2c0.6,1,1.4,1.4,2.3,1.4c1.6,0,2.7-1.7,2.7-3.5c0-2.4-1.1-3.5-2.4-3.5
				c-1.2,0-2.1,0.9-2.5,1.6L205.4,27.2z"/>
			<path class="st8" d="M214.7,20.7h1.4l0,4c0,0.8,0,1.6,0,2.4c0,1,0.6,1.4,1.6,1.4c0.9,0,1.8-0.5,2.7-1.6l0.1-6.2h1.4l-0.1,8.9
				h-1.4l0.1-1.4h0c-0.8,1.1-2,1.7-3,1.7c-2.1,0-2.7-1.1-2.7-2.7c0-0.7,0-1.4,0-2L214.7,20.7z"/>
			<path class="st8" d="M225.1,16.2h1.4l-0.1,13.4H225L225.1,16.2z"/>
			<path class="st8" d="M237.5,29.2c-0.5,0.4-1,0.6-1.7,0.6c-0.8,0-1.3-0.7-1.3-1.5c-0.7,0.8-1.6,1.5-2.7,1.5
				c-1.6,0-2.6-1.1-2.6-2.6c0-2.5,3.3-3.1,5.2-3.2c0-0.4,0-0.7,0-1.1c0-0.8-0.4-1.3-1.4-1.3c-0.7,0-1.3,0.2-2.6,1.2l-0.6-0.9
				c1.8-1.2,2.4-1.5,3.7-1.5c1.5,0,2.3,0.9,2.3,2.2c0,1.7-0.1,3.2-0.1,4.8c0,0.6,0.1,1.3,0.6,1.3c0.3,0,0.5-0.1,0.8-0.3L237.5,29.2z
				 M234.5,25c-2.5,0.3-3.8,0.8-3.8,2.3c0,1,0.6,1.5,1.6,1.5c0.9,0,1.6-0.6,2.1-1.3L234.5,25z"/>
			<path class="st8" d="M240.2,20.7l0-3.3h1.4l0,3.3h2.5v1.1h-2.5l0,3.6c0,1,0,1.7,0,2.1c0,0.7,0.2,1.1,0.8,1.1
				c0.5,0,1.1-0.3,1.4-0.5l0.5,0.9c-0.6,0.4-1.5,0.8-2.3,0.8c-1.4,0-1.9-0.9-1.9-2.3c0-0.6,0-1.3,0-2.5l0-3.2h-1.5v-1.1H240.2z"/>
			<path class="st8" d="M246.2,17.3h1.6v1.6h-1.6V17.3z M246.3,20.7h1.4l-0.1,8.9h-1.4L246.3,20.7z"/>
			<path class="st8" d="M254.8,20.5c2.6,0,4.2,1.8,4.2,4.7c0,2.3-1.5,4.7-4.4,4.7c-2.6,0-4.2-1.8-4.2-4.7
				C250.4,22.9,251.9,20.5,254.8,20.5z M254.6,28.8c1.4,0,2.8-1.2,2.8-3.6c0-2.5-1.2-3.6-2.7-3.6c-1.4,0-2.8,1.2-2.8,3.6
				C252,27.6,253.2,28.8,254.6,28.8z"/>
			<path class="st8" d="M261.3,20.7h1.4l-0.1,1.4h0c0.8-1.1,2-1.7,3-1.7c2.1,0,2.7,1.1,2.7,2.7c0,0.7,0,1.4,0,2l0,4.4h-1.4l0-4
				c0-0.8,0-1.6,0-2.4c0-1-0.6-1.4-1.6-1.4c-0.9,0-1.8,0.5-2.7,1.6l-0.1,6.2h-1.4L261.3,20.7z"/>
			<path class="st8" d="M281.8,17.3h1.5l5,12.1l-1.6,0.5l-1.7-4.4h-5.2l-1.8,4.4l-1.4-0.4L281.8,17.3z M282.5,18.6L282.5,18.6
				l-2.1,5.6h4.1L282.5,18.6z"/>
			<path class="st8" d="M290.3,28c0.5,0.3,1.2,0.7,2,0.7c0.8,0,1.7-0.4,1.7-1.4c0-2.2-4.2-1.2-4.2-4.2c0-1.7,1.4-2.7,3-2.7
				c1,0,1.9,0.3,2.6,0.7l-0.7,0.9c-0.5-0.3-1.1-0.6-1.7-0.6c-1,0-1.8,0.4-1.8,1.5c0,1.9,4.2,1.1,4.2,4.1c0,1.7-1.5,2.7-3,2.7
				c-1,0-2-0.4-2.8-0.9L290.3,28z"/>
			<path class="st8" d="M298.1,28c0.5,0.3,1.2,0.7,2,0.7c0.8,0,1.7-0.4,1.7-1.4c0-2.2-4.2-1.2-4.2-4.2c0-1.7,1.4-2.7,3-2.7
				c1,0,1.9,0.3,2.6,0.7l-0.7,0.9c-0.5-0.3-1.1-0.6-1.7-0.6c-1,0-1.8,0.4-1.8,1.5c0,1.9,4.2,1.1,4.2,4.1c0,1.7-1.5,2.7-3,2.7
				c-1,0-2-0.4-2.8-0.9L298.1,28z"/>
			<path class="st8" d="M306.9,25v0.3c0,1.9,0.7,3.5,2.5,3.5c1,0,1.8-0.6,2.6-1.3l0.7,0.8c-0.9,0.9-2.1,1.6-3.4,1.6
				c-2.5,0-3.9-1.8-3.9-4.7c0-2.4,1.7-4.7,4.1-4.7c2.4,0,3.5,1.8,3.5,4.2V25H306.9z M311.5,24c0-1.3-0.5-2.5-2-2.5
				c-1.4,0-2.2,1.2-2.5,2.5H311.5z"/>
			<path class="st8" d="M315.6,28c0.5,0.3,1.2,0.7,2,0.7c0.8,0,1.7-0.4,1.7-1.4c0-2.2-4.2-1.2-4.2-4.2c0-1.7,1.4-2.7,3-2.7
				c1,0,1.9,0.3,2.6,0.7l-0.7,0.9c-0.5-0.3-1.1-0.6-1.7-0.6c-1,0-1.8,0.4-1.8,1.5c0,1.9,4.2,1.1,4.2,4.1c0,1.7-1.5,2.7-3,2.7
				c-1,0-2-0.4-2.8-0.9L315.6,28z"/>
			<path class="st8" d="M323.4,28c0.5,0.3,1.2,0.7,2,0.7c0.8,0,1.7-0.4,1.7-1.4c0-2.2-4.2-1.2-4.2-4.2c0-1.7,1.4-2.7,3-2.7
				c1,0,1.9,0.3,2.6,0.7l-0.7,0.9c-0.5-0.3-1.1-0.6-1.7-0.6c-1,0-1.8,0.4-1.8,1.5c0,1.9,4.2,1.1,4.2,4.1c0,1.7-1.5,2.7-3,2.7
				c-1,0-2-0.4-2.8-0.9L323.4,28z"/>
			<path class="st8" d="M331.4,20.7h1.5l0,1.3h0c0.7-0.9,1.7-1.6,3-1.6c1.1,0,2,0.6,2.3,1.6c0.8-0.8,2-1.6,3.1-1.6
				c1.9,0,2.5,1.1,2.5,2.7c0,0.7,0,1.4,0,2l0,4.4h-1.4l0-4c0-0.8,0-1.6,0-2.4c0-1-0.6-1.4-1.4-1.4c-1.1,0-1.8,0.6-2.6,1.5l-0.1,6.4
				h-1.4l0-4c0-0.8,0-1.6,0-2.4c0-1-0.6-1.4-1.4-1.4c-1.1,0-1.8,0.6-2.6,1.5l-0.1,6.4h-1.4L331.4,20.7z"/>
			<path class="st8" d="M348,25v0.3c0,1.9,0.7,3.5,2.5,3.5c1,0,1.8-0.6,2.6-1.3l0.7,0.8c-0.9,0.9-2.1,1.6-3.4,1.6
				c-2.5,0-3.9-1.8-3.9-4.7c0-2.4,1.7-4.7,4.1-4.7c2.4,0,3.5,1.8,3.5,4.2V25H348z M352.6,24c0-1.3-0.5-2.5-2-2.5
				c-1.4,0-2.2,1.2-2.5,2.5H352.6z"/>
			<path class="st8" d="M357,20.7h1.4l-0.1,1.4h0c0.8-1.1,2-1.7,3-1.7c2.1,0,2.7,1.1,2.7,2.7c0,0.7,0,1.4,0,2l0,4.4h-1.4l0-4
				c0-0.8,0-1.6,0-2.4c0-1-0.6-1.4-1.6-1.4c-0.9,0-1.8,0.5-2.7,1.6l-0.1,6.2h-1.4L357,20.7z"/>
			<path class="st8" d="M368.1,20.7l0-3.3h1.4l0,3.3h2.5v1.1h-2.5l0,3.6c0,1,0,1.7,0,2.1c0,0.7,0.2,1.1,0.8,1.1
				c0.5,0,1.1-0.3,1.4-0.5l0.5,0.9c-0.6,0.4-1.5,0.8-2.3,0.8c-1.4,0-1.9-0.9-1.9-2.3c0-0.6,0-1.3,0-2.5l0-3.2h-1.5v-1.1H368.1z"/>
			<path class="st8" d="M187.5,41.3c2.6,0,4.2,1.8,4.2,4.7c0,2.3-1.5,4.7-4.4,4.7c-2.6,0-4.2-1.8-4.2-4.7
				C183.1,43.7,184.7,41.3,187.5,41.3z M187.3,49.6c1.4,0,2.8-1.2,2.8-3.6c0-2.5-1.2-3.6-2.7-3.6c-1.4,0-2.8,1.2-2.8,3.6
				C184.7,48.4,185.9,49.6,187.3,49.6z"/>
			<path class="st8" d="M193.5,41.5h1.7c0-0.5,0-1.1,0.1-1.7c0.2-2.2,1.7-2.9,3.8-2.9v1.2h-0.6c-1.2,0-1.7,1-1.8,2l-0.1,1.4h2.5v1.1
				h-2.4l-0.1,7.8h-1.4l0.1-7.8h-1.7V41.5z"/>
			<path class="st8" d="M205.9,38.1h9.4v1.3h-3.9l-0.1,11.1h-1.6l0.1-11.1h-3.9V38.1z"/>
			<path class="st8" d="M220.6,41.3c2.6,0,4.2,1.8,4.2,4.7c0,2.3-1.5,4.7-4.4,4.7c-2.6,0-4.2-1.8-4.2-4.7
				C216.2,43.7,217.7,41.3,220.6,41.3z M220.4,49.6c1.4,0,2.8-1.2,2.8-3.6c0-2.5-1.2-3.6-2.7-3.6c-1.4,0-2.8,1.2-2.8,3.6
				C217.7,48.4,218.9,49.6,220.4,49.6z"/>
			<path class="st8" d="M227.7,37h1.4l0,5.7h0c0.5-0.8,1.5-1.4,2.8-1.4c1.5,0,3.6,1.1,3.6,4.6c0,2.4-1.6,4.7-3.9,4.7
				c-1.2,0-2.1-0.5-2.6-1.2h0l-0.1,0.9h-1.4L227.7,37z M229,48.1c0.6,1,1.4,1.4,2.3,1.4c1.6,0,2.7-1.7,2.7-3.5
				c0-2.4-1.1-3.5-2.4-3.5c-1.2,0-2.1,0.9-2.5,1.6L229,48.1z"/>
			<path class="st8" d="M245.7,50c-0.5,0.4-1,0.6-1.7,0.6c-0.8,0-1.3-0.7-1.3-1.5c-0.7,0.8-1.6,1.5-2.7,1.5c-1.6,0-2.6-1.1-2.6-2.6
				c0-2.5,3.3-3.1,5.2-3.2c0-0.4,0-0.7,0-1.1c0-0.8-0.4-1.3-1.4-1.3c-0.7,0-1.3,0.2-2.6,1.2l-0.6-0.9c1.8-1.2,2.4-1.5,3.7-1.5
				c1.5,0,2.3,0.9,2.3,2.2c0,1.7-0.1,3.2-0.1,4.8c0,0.6,0.1,1.3,0.6,1.3c0.3,0,0.5-0.1,0.8-0.3L245.7,50z M242.6,45.8
				c-2.5,0.3-3.8,0.8-3.8,2.3c0,1,0.6,1.5,1.6,1.5c0.9,0,1.6-0.6,2.1-1.3L242.6,45.8z"/>
			<path class="st8" d="M253.2,43.5c-0.6-0.7-1.2-1-1.9-1c-1.3,0-2.7,1.3-2.7,3.8c0,2,1.3,3.2,2.7,3.2c0.8,0,1.6-0.6,2-1.1l0.7,0.8
				c-0.9,1-1.8,1.5-3,1.5c-2.2,0-4-1.7-4-4.7c0-2.4,1.7-4.7,4.2-4.7c1.2,0,2.2,0.6,2.9,1.5L253.2,43.5z"/>
			<path class="st8" d="M261.7,43.5c-0.6-0.7-1.2-1-1.9-1c-1.3,0-2.7,1.3-2.7,3.8c0,2,1.3,3.2,2.7,3.2c0.8,0,1.6-0.6,2-1.1l0.7,0.8
				c-0.9,1-1.8,1.5-3,1.5c-2.2,0-4-1.7-4-4.7c0-2.4,1.7-4.7,4.2-4.7c1.2,0,2.2,0.6,2.9,1.5L261.7,43.5z"/>
			<path class="st8" d="M268.4,41.3c2.6,0,4.2,1.8,4.2,4.7c0,2.3-1.5,4.7-4.4,4.7c-2.6,0-4.2-1.8-4.2-4.7
				C264,43.7,265.6,41.3,268.4,41.3z M268.3,49.6c1.4,0,2.8-1.2,2.8-3.6c0-2.5-1.2-3.6-2.7-3.6c-1.4,0-2.8,1.2-2.8,3.6
				C265.6,48.4,266.8,49.6,268.3,49.6z"/>
			<path class="st8" d="M288.7,50c-0.5,0.4-1,0.6-1.7,0.6c-0.8,0-1.3-0.7-1.3-1.5c-0.7,0.8-1.6,1.5-2.7,1.5c-1.6,0-2.6-1.1-2.6-2.6
				c0-2.5,3.3-3.1,5.2-3.2c0-0.4,0-0.7,0-1.1c0-0.8-0.4-1.3-1.4-1.3c-0.7,0-1.3,0.2-2.6,1.2l-0.6-0.9c1.8-1.2,2.4-1.5,3.7-1.5
				c1.5,0,2.3,0.9,2.3,2.2c0,1.7-0.1,3.2-0.1,4.8c0,0.6,0.1,1.3,0.6,1.3c0.3,0,0.5-0.1,0.8-0.3L288.7,50z M285.6,45.8
				c-2.5,0.3-3.8,0.8-3.8,2.3c0,1,0.6,1.5,1.6,1.5c0.9,0,1.6-0.6,2.1-1.3L285.6,45.8z"/>
			<path class="st8" d="M290.5,41.5h1.4l-0.1,1.4h0c0.8-1.1,2-1.7,3-1.7c2.1,0,2.7,1.1,2.7,2.7c0,0.7,0,1.4,0,2l0,4.4h-1.4l0-4
				c0-0.8,0-1.6,0-2.4c0-1-0.6-1.4-1.6-1.4c-0.9,0-1.8,0.5-2.7,1.6l-0.1,6.2h-1.4L290.5,41.5z"/>
			<path class="st8" d="M306.8,37h1.5l-0.1,13.4h-1.5l0-1.2h0c-0.4,0.8-1.5,1.4-2.7,1.4c-1.5,0-3.6-1.1-3.6-4.6c0-2.7,2-4.7,4.1-4.7
				c1.1,0,2,0.5,2.3,1.2h0L306.8,37z M306.7,43.9c-0.6-1.1-1.3-1.4-2.2-1.4c-1.6,0-2.7,1.7-2.7,3.5c0,2.4,1.2,3.5,2.4,3.5
				c1.2,0,2.1-0.9,2.4-1.6L306.7,43.9z"/>
			<path class="st8" d="M317.4,38.1h1.6l-0.1,5.5h6.7l0.1-5.5h1.6l-0.1,12.3h-1.6l0.1-5.6h-6.7l-0.1,5.6h-1.6L317.4,38.1z"/>
			<path class="st8" d="M331.5,45.8v0.3c0,1.9,0.7,3.5,2.5,3.5c1,0,1.8-0.6,2.6-1.3l0.7,0.8c-0.9,0.9-2.1,1.6-3.4,1.6
				c-2.5,0-3.9-1.8-3.9-4.7c0-2.4,1.7-4.7,4.1-4.7c2.4,0,3.5,1.8,3.5,4.2v0.3H331.5z M336.1,44.8c0-1.3-0.5-2.5-2-2.5
				c-1.4,0-2.2,1.2-2.5,2.5H336.1z"/>
			<path class="st8" d="M347.9,50c-0.5,0.4-1,0.6-1.7,0.6c-0.8,0-1.3-0.7-1.3-1.5c-0.7,0.8-1.6,1.5-2.7,1.5c-1.6,0-2.6-1.1-2.6-2.6
				c0-2.5,3.3-3.1,5.2-3.2c0-0.4,0-0.7,0-1.1c0-0.8-0.4-1.3-1.4-1.3c-0.7,0-1.3,0.2-2.6,1.2l-0.6-0.9c1.8-1.2,2.4-1.5,3.7-1.5
				c1.5,0,2.3,0.9,2.3,2.2c0,1.7-0.1,3.2-0.1,4.8c0,0.6,0.1,1.3,0.6,1.3c0.3,0,0.5-0.1,0.8-0.3L347.9,50z M344.8,45.8
				c-2.5,0.3-3.8,0.8-3.8,2.3c0,1,0.6,1.5,1.6,1.5c0.9,0,1.6-0.6,2.1-1.3L344.8,45.8z"/>
			<path class="st8" d="M349.9,37h1.4l-0.1,13.4h-1.4L349.9,37z"/>
			<path class="st8" d="M355.1,41.5l0-3.3h1.4l0,3.3h2.5v1.1h-2.5l0,3.6c0,1,0,1.7,0,2.1c0,0.7,0.2,1.1,0.8,1.1
				c0.5,0,1.1-0.3,1.4-0.5l0.5,0.9c-0.6,0.4-1.5,0.8-2.3,0.8c-1.4,0-1.9-0.9-1.9-2.3c0-0.6,0-1.3,0-2.5l0-3.2h-1.5v-1.1H355.1z"/>
			<path class="st8" d="M361.2,37h1.5l-0.1,5.9h0c0.7-1,1.9-1.6,3-1.6c2.1,0,2.7,1.1,2.7,2.7c0,0.7,0,1.4,0,2l0,4.4H367l0-4
				c0-0.8,0-1.6,0-2.4c0-1-0.6-1.4-1.6-1.4c-0.9,0-1.8,0.5-2.7,1.6l-0.1,6.2h-1.4L361.2,37z"/>
		</g>
	</g>
</g>
<g id="modal">
</g>
<g id="GRID" class="st52">
</g>
</svg>
