<svg xmlns="http://www.w3.org/2000/svg" viewBox="0 0 372.18 229.13"><defs><style>.cls-1{fill:#00559b;}.cls-2,.cls-7{fill:#0069aa;}.cls-3{fill:#e6e6e6;}.cls-4{fill:none;stroke:#0069aa;stroke-linecap:round;stroke-miterlimit:10;stroke-width:1.82px;opacity:0.76;}.cls-5{fill:#005caa;}.cls-5,.cls-7{opacity:0.1;}.cls-6{fill:#a8000d;}</style></defs><title>pin-desktop</title><g id="Layer_2" data-name="Layer 2"><g id="Layer_1-2" data-name="Layer 1"><polygon class="cls-1" points="144.19 94.7 144.19 183.69 306.6 183.69 306.6 95.18 224.49 42.26 144.19 94.7"/><polygon class="cls-2" points="143.66 94.7 143.66 183.69 306.07 183.69 306.07 95.18 224.75 134.35 143.66 94.7"/><polygon class="cls-3" points="162.97 103.95 162.97 0 284.95 0 284.95 105.24 224.73 134.14 162.97 103.95"/><polygon class="cls-1" points="155 183.69 188.41 150.27 259.24 150.27 292.93 183.97 155 183.69"/><line class="cls-4" x1="172.77" y1="17.04" x2="192.6" y2="17.04"/><line class="cls-4" x1="242.13" y1="11.83" x2="261.96" y2="11.83"/><line class="cls-4" x1="172.77" y1="25.49" x2="200.45" y2="25.49"/><line class="cls-4" x1="172.77" y1="33.88" x2="269.95" y2="33.88"/><line class="cls-4" x1="172.77" y1="42.26" x2="277.35" y2="42.26"/><line class="cls-4" x1="190.75" y1="110.83" x2="259.37" y2="110.83"/><line class="cls-4" x1="203.98" y1="118.04" x2="246.14" y2="118.04"/><line class="cls-4" x1="172.77" y1="50.65" x2="273.88" y2="50.65"/><rect class="cls-5" x="156.72" y="71.85" width="140.07" height="27.56"/><path class="cls-1" d="M171.35,72.16V62.6H175a7.74,7.74,0,0,1,1.46.1,2.77,2.77,0,0,1,1.18.44,2.36,2.36,0,0,1,.76.93,2.82,2.82,0,0,1,.29,1.3,3,3,0,0,1-.77,2.06,3.72,3.72,0,0,1-2.81.85h-2.45v3.88Zm1.26-5h2.47a2.57,2.57,0,0,0,1.74-.46,1.6,1.6,0,0,0,.52-1.28,1.76,1.76,0,0,0-.3-1,1.46,1.46,0,0,0-.8-.56,5.16,5.16,0,0,0-1.18-.09h-2.45Z"/><path class="cls-1" d="M180.47,72.16V62.6h1.26v9.56Z"/><path class="cls-1" d="M184,72.16V62.6h1.3l5,7.51V62.6h1.21v9.56h-1.3l-5-7.51v7.51Z"/><path class="cls-6" d="M179.64,93h-1.81V81.47a8.91,8.91,0,0,1-1.71,1.25,12.31,12.31,0,0,1-1.91.94V81.91a11.4,11.4,0,0,0,2.66-1.73,7,7,0,0,0,1.61-2h1.16Z"/><path class="cls-6" d="M193.8,91.28V93h-9.75a3.34,3.34,0,0,1,.21-1.26,6.82,6.82,0,0,1,1.19-2,19,19,0,0,1,2.37-2.24,19.4,19.4,0,0,0,3.25-3.12,3.73,3.73,0,0,0,.85-2.18,2.45,2.45,0,0,0-.77-1.82,2.78,2.78,0,0,0-2-.74,2.84,2.84,0,0,0-2.09.79,3,3,0,0,0-.8,2.17l-1.86-.19a4.57,4.57,0,0,1,1.44-3.17,4.9,4.9,0,0,1,3.35-1.1,4.68,4.68,0,0,1,3.36,1.18,3.86,3.86,0,0,1,1.24,2.92,4.45,4.45,0,0,1-.36,1.74,6.7,6.7,0,0,1-1.2,1.8,28.51,28.51,0,0,1-2.8,2.6c-1.08.91-1.78,1.53-2.09,1.86a5.52,5.52,0,0,0-.76,1Z"/><path class="cls-6" d="M195.75,89.12l1.82-.24a3.92,3.92,0,0,0,1.06,2.22,2.63,2.63,0,0,0,1.82.68,2.91,2.91,0,0,0,2.16-.89,3,3,0,0,0,.88-2.19,2.8,2.8,0,0,0-.81-2.06,2.84,2.84,0,0,0-2.08-.81,5.36,5.36,0,0,0-1.27.2l.2-1.59a1.68,1.68,0,0,0,.29,0,3.72,3.72,0,0,0,2.08-.6,2.06,2.06,0,0,0,.93-1.86,2.19,2.19,0,0,0-.68-1.65,2.38,2.38,0,0,0-1.74-.66,2.45,2.45,0,0,0-1.76.67,3.28,3.28,0,0,0-.9,2L195.94,82a4.62,4.62,0,0,1,1.5-2.82,4.38,4.38,0,0,1,2.93-1,4.91,4.91,0,0,1,2.23.52,3.81,3.81,0,0,1,1.55,1.42,3.6,3.6,0,0,1,.54,1.9,3.11,3.11,0,0,1-.51,1.74A3.59,3.59,0,0,1,202.66,85a3.42,3.42,0,0,1,2,1.25,3.83,3.83,0,0,1,.72,2.38,4.39,4.39,0,0,1-1.4,3.28,5,5,0,0,1-3.57,1.34,4.63,4.63,0,0,1-3.22-1.16A4.45,4.45,0,0,1,195.75,89.12Z"/><path class="cls-6" d="M206.32,93,212,78.26h2.1l6,14.76H217.9l-1.72-4.47H210L208.39,93ZM210.58,87h5L214,82.87q-.71-1.86-1-3.06a19.11,19.11,0,0,1-.79,2.82Z"/><path class="cls-6" d="M221.61,93V78.26h5.53a6.8,6.8,0,0,1,2.71.45,3.48,3.48,0,0,1,1.6,1.38,3.6,3.6,0,0,1,.58,2,3.37,3.37,0,0,1-.51,1.78A3.63,3.63,0,0,1,230,85.17,3.87,3.87,0,0,1,232,86.51a3.57,3.57,0,0,1,.72,2.23,4.37,4.37,0,0,1-.44,1.93A3.7,3.7,0,0,1,231.23,92a4.48,4.48,0,0,1-1.62.73,9.54,9.54,0,0,1-2.38.25Zm1.95-8.56h3.19a6.86,6.86,0,0,0,1.86-.17,2,2,0,0,0,1.12-.73,2.12,2.12,0,0,0,.38-1.29,2.4,2.4,0,0,0-.35-1.29,1.78,1.78,0,0,0-1-.77,8.3,8.3,0,0,0-2.24-.2h-2.95Zm0,6.82h3.67a9.43,9.43,0,0,0,1.33-.07,3.13,3.13,0,0,0,1.13-.41,2,2,0,0,0,.74-.82,2.5,2.5,0,0,0,.29-1.24,2.44,2.44,0,0,0-.42-1.43,2.23,2.23,0,0,0-1.17-.86A7.41,7.41,0,0,0,227,86.2h-3.41Z"/><path class="cls-6" d="M246,87.84l1.95.5A6.59,6.59,0,0,1,245.7,92a6.08,6.08,0,0,1-3.9,1.26,7,7,0,0,1-3.88-1,6.14,6.14,0,0,1-2.27-2.81,10.06,10.06,0,0,1-.78-4,8.63,8.63,0,0,1,.88-4,6.09,6.09,0,0,1,2.51-2.61,7.33,7.33,0,0,1,3.57-.89,6.08,6.08,0,0,1,3.73,1.13,5.91,5.91,0,0,1,2.1,3.17l-1.92.45a4.55,4.55,0,0,0-1.49-2.34,4,4,0,0,0-2.46-.74,4.79,4.79,0,0,0-2.84.82,4.23,4.23,0,0,0-1.6,2.19,8.75,8.75,0,0,0-.47,2.83,9.14,9.14,0,0,0,.55,3.29,4.11,4.11,0,0,0,1.71,2.09,4.7,4.7,0,0,0,2.5.7,4.2,4.2,0,0,0,2.78-.95A4.82,4.82,0,0,0,246,87.84Z"/><path class="cls-6" d="M255.39,93V89.49H249V87.82l6.73-9.56h1.48v9.56h2v1.67h-2V93Zm0-5.2V81.17l-4.62,6.65Z"/><path class="cls-6" d="M261,89.15,263,89a3.37,3.37,0,0,0,1,2.09,2.63,2.63,0,0,0,1.85.7,2.9,2.9,0,0,0,2.22-1,3.71,3.71,0,0,0,.9-2.61,3.37,3.37,0,0,0-.87-2.45,3,3,0,0,0-2.28-.89,3.22,3.22,0,0,0-1.58.39,3.06,3.06,0,0,0-1.1,1l-1.7-.23,1.43-7.57h7.33V80.2h-5.89l-.79,4a4.77,4.77,0,0,1,2.79-.92,4.42,4.42,0,0,1,3.26,1.33A4.72,4.72,0,0,1,270.83,88a5.36,5.36,0,0,1-1.17,3.46,4.7,4.7,0,0,1-3.88,1.79,4.77,4.77,0,0,1-3.28-1.13A4.44,4.44,0,0,1,261,89.15Z"/><path class="cls-7" d="M351.26,155.2H101.72A21,21,0,0,0,80.8,176.12v3.07a21,21,0,0,0,20.92,20.93h38.35V212a17.2,17.2,0,0,0,17.15,17.15H295.76A17.2,17.2,0,0,0,312.91,212V200.12h38.35a21,21,0,0,0,20.92-20.93v-3.07A21,21,0,0,0,351.26,155.2Z"/><circle class="cls-7" cx="47.85" cy="177.36" r="14.98"/><circle class="cls-7" cx="10.86" cy="177.36" r="10.86"/></g></g></svg>