<svg xmlns="http://www.w3.org/2000/svg" width="155.79" height="144.2" viewBox="0 0 155.79 144.2"><title>Reward-mobile</title><g id="Layer_2" data-name="Layer 2"><g id="Layer_1-2" data-name="Layer 1"><polygon points="21.56 69.41 21.56 134.03 139.49 134.03 139.49 69.77 79.86 31.34 21.56 69.41" style="fill:#bfd3dd"/><rect x="7.66" y="121.49" width="147.31" height="22.71" rx="10.58" style="fill:#0069aa;opacity:0.1"/><text transform="translate(26.33 91.68) rotate(-20.59)" style="font-size:88.08924865722656px;fill:#7ac142;font-family:Montserrat-SemiBold, Montserrat;font-weight:600">$</text><text transform="translate(89.81 75.82) rotate(17.3)" style="font-size:71.21965789794922px;fill:#7ac142;font-family:Montserrat-SemiBold, Montserrat;font-weight:600">$</text><rect x="61.1" y="31.92" width="45" height="68.91" rx="5.68" transform="translate(20.41 -19.65) rotate(15.25)" style="fill:#00559b"/><path d="M85,55.55c.15,6.43-4.24,11.89-8.82,9.56-6.22-3.16-.55-11.94,2.83-11S85,55.55,85,55.55Z" style="fill:none;stroke:#7ac142;stroke-linecap:round;stroke-miterlimit:10;stroke-width:3.02776023936181px"/><path d="M84.9,55.78c3.39-5.47,2.37-12.4-2.75-12.71-7-.43-6.53,10-3.15,10.93S84.9,55.78,84.9,55.78Z" style="fill:none;stroke:#7ac142;stroke-linecap:round;stroke-miterlimit:10;stroke-width:3.02776023936181px"/><line x1="86.58" y1="56.55" x2="90.41" y2="62.87" style="fill:none;stroke:#7ac142;stroke-linecap:round;stroke-miterlimit:10;stroke-width:3.02776023936181px"/><line x1="86.74" y1="55.99" x2="93.23" y2="52.49" style="fill:none;stroke:#7ac142;stroke-linecap:round;stroke-miterlimit:10;stroke-width:3.02776023936181px"/><line x1="72.55" y1="52.27" x2="67.08" y2="50.78" style="fill:none;stroke:#7ac142;stroke-linecap:round;stroke-miterlimit:10;stroke-width:3.02776023936181px"/><line x1="105.17" y1="61.17" x2="92.17" y2="57.62" style="fill:none;stroke:#7ac142;stroke-linecap:round;stroke-miterlimit:10;stroke-width:3.02776023936181px"/><line x1="83.32" y1="38.91" x2="84.7" y2="33.87" style="fill:none;stroke:#7ac142;stroke-linecap:round;stroke-miterlimit:10;stroke-width:3.02776023936181px"/><line x1="68.17" y1="94.49" x2="74.93" y2="69.69" style="fill:none;stroke:#7ac142;stroke-linecap:round;stroke-miterlimit:10;stroke-width:3.02776023936181px"/><circle cx="90.75" cy="95.29" r="1.33" style="fill:#7ac142"/><circle cx="92.27" cy="89.72" r="1.33" style="fill:#7ac142"/><circle cx="93.79" cy="84.14" r="1.33" style="fill:#7ac142"/><circle cx="95.31" cy="78.57" r="1.33" style="fill:#7ac142"/><circle cx="96.83" cy="72.99" r="1.33" style="fill:#7ac142"/><path d="M21.17,69.41V134H139.1V69.77l-53,25.51a13.87,13.87,0,0,1-12.11,0Z" style="fill:#027dba"/><path d="M29.41,134,67.25,99.61a11.64,11.64,0,0,1,9-4.32H86.46a11.63,11.63,0,0,1,9,4.28l34.08,34.66Z" style="fill:#0069aa"/><rect x="8.24" y="48.91" width="3.88" height="12.81" rx="1.94" transform="translate(-21.38 8.76) rotate(-23.71)" style="fill:#0069aa;opacity:0.1"/><rect x="72.29" y="15.52" width="3.88" height="12.81" rx="1.94" transform="matrix(1, 0.07, -0.07, 1, 1.72, -5.16)" style="fill:#0069aa;opacity:0.1"/><rect x="98.57" y="21.53" width="2.87" height="9.48" rx="1.44" transform="translate(2.09 -6.96) rotate(4.03)" style="fill:#0069aa;opacity:0.1"/><rect x="150.59" y="43.66" width="2.87" height="9.48" rx="1.44" transform="translate(78.75 -93.32) rotate(45)" style="fill:#0069aa;opacity:0.1"/><rect x="50.17" y="-0.38" width="2.87" height="9.48" rx="1.44" transform="translate(3.95 24.64) rotate(-27.88)" style="fill:#0069aa;opacity:0.1"/><rect x="114.21" y="5.04" width="3.88" height="12.81" rx="1.94" transform="matrix(0.94, -0.34, 0.34, 0.94, 3.11, 40.48)" style="fill:#0069aa;opacity:0.1"/><rect x="133.24" y="16.3" width="3.88" height="12.81" rx="1.94" transform="translate(55.65 -88.93) rotate(45)" style="fill:#0069aa;opacity:0.1"/></g></g></svg>