<svg xmlns="http://www.w3.org/2000/svg" viewBox="0 0 351.86 195.94"><defs><style>.cls-1{fill:#bfd3dd;}.cls-2,.cls-7{fill:#0069aa;}.cls-2{opacity:0.1;}.cls-3{fill:#7ac142;}.cls-4{fill:#00559b;}.cls-5{fill:none;stroke:#7ac142;stroke-linecap:round;stroke-miterlimit:10;stroke-width:4.33px;}.cls-6{fill:#027dba;}</style></defs><title>reward-desktop</title><g id="Layer_2" data-name="Layer 2"><g id="Layer_1-2" data-name="Layer 1"><polygon class="cls-1" points="87.7 91.32 87.7 176.33 242.85 176.33 242.85 91.79 164.4 41.23 87.7 91.32"/><rect class="cls-2" y="153.62" width="274.51" height="42.32" rx="19.71"/><path class="cls-3" d="M149.5,92.27q-4.16,8.57-15.92,14.46l4.56,12.15-8.89,3.35-4.53-12A64.77,64.77,0,0,1,108.43,113a35.39,35.39,0,0,1-13.67-1.8l.77-12.79a38.19,38.19,0,0,0,11.82,1.81,46.37,46.37,0,0,0,13-1.71l-8.15-21.7a85.46,85.46,0,0,1-14.38.76,23.78,23.78,0,0,1-11.07-3.27q-5.09-3-7.73-10a21.42,21.42,0,0,1,.78-17.38q4.07-8.6,15.78-14.35L90.94,20.24l8.9-3.34,4.52,12A54.66,54.66,0,0,1,117,26.54a42,42,0,0,1,11.85.75l-.33,12.63a48.25,48.25,0,0,0-19.78.74L117,62.58a89.54,89.54,0,0,1,14.48-.86,23.75,23.75,0,0,1,11.1,3.2q5.13,3,7.79,10A21.14,21.14,0,0,1,149.5,92.27ZM97.72,63a26.12,26.12,0,0,0,9.52.63L100,44.33q-5.2,2.94-6.94,6.57a9.1,9.1,0,0,0-.31,7.42A7.4,7.4,0,0,0,97.72,63Zm38.67,25.34a8.57,8.57,0,0,0,.45-7.23,7.56,7.56,0,0,0-5.16-4.81,26.88,26.88,0,0,0-9.76-.61l7.22,19.21Q134.56,91.88,136.39,88.35Z"/><path class="cls-3" d="M227,109.23q-6.9,3.4-17.34,1.33l-3.12,10-7.34-2.29,3.1-9.93a52.83,52.83,0,0,1-11.78-6.31,28.83,28.83,0,0,1-7.83-7.94l6.84-7.78a30.89,30.89,0,0,0,6.65,7,37.46,37.46,0,0,0,9.13,5.35l5.57-17.89a69.06,69.06,0,0,1-9.56-6.66,19.18,19.18,0,0,1-5.44-7.58q-1.77-4.42,0-10.24A17.28,17.28,0,0,1,205,45.63q6.87-3.47,17.19-1.32l3.15-10.11,7.34,2.28-3.09,9.93a44.26,44.26,0,0,1,9.26,4.75,34.16,34.16,0,0,1,7.2,6.36l-6.49,7.9a39,39,0,0,0-13-9.35L221,74.15a72.24,72.24,0,0,1,9.66,6.63,19.35,19.35,0,0,1,5.5,7.56q1.8,4.44,0,10.25A17.06,17.06,0,0,1,227,109.23ZM208.48,64.85A20.88,20.88,0,0,0,214.24,70l5-15.92c-3.19-.47-5.76-.22-7.69.74a7.37,7.37,0,0,0-3.88,4.59A5.92,5.92,0,0,0,208.48,64.85Zm12.09,35.37a6.9,6.9,0,0,0,3.87-4.39,6.13,6.13,0,0,0-.89-5.63A21.73,21.73,0,0,0,217.62,85l-4.93,15.83Q217.66,101.57,220.57,100.22Z"/><rect class="cls-4" x="132.26" y="39.43" width="64.32" height="98.5" rx="8.12" transform="translate(29.12 -40.13) rotate(15.25)"/><path class="cls-5" d="M166.36,73.21c.21,9.19-6.07,17-12.61,13.66-8.89-4.52-.78-17.07,4.05-15.75S166.36,73.21,166.36,73.21Z"/><path class="cls-5" d="M166.27,73.54c4.85-7.82,3.39-17.72-3.93-18.18-10-.61-9.33,14.31-4.51,15.63S166.27,73.54,166.27,73.54Z"/><line class="cls-5" x1="168.68" y1="74.64" x2="174.14" y2="83.66"/><line class="cls-5" x1="168.9" y1="73.84" x2="178.18" y2="68.84"/><line class="cls-5" x1="148.61" y1="68.52" x2="140.8" y2="66.39"/><line class="cls-5" x1="195.25" y1="81.23" x2="176.67" y2="76.17"/><line class="cls-5" x1="164.02" y1="49.41" x2="165.98" y2="42.21"/><line class="cls-5" x1="142.35" y1="128.86" x2="152.02" y2="93.41"/><circle class="cls-3" cx="174.64" cy="130.01" r="1.91"/><circle class="cls-3" cx="176.81" cy="122.04" r="1.91"/><circle class="cls-3" cx="178.98" cy="114.07" r="1.91"/><circle class="cls-3" cx="181.15" cy="106.1" r="1.91"/><circle class="cls-3" cx="183.33" cy="98.14" r="1.91"/><path class="cls-6" d="M87.19,91.32v85H242.34V91.79l-69.7,33.57a18.25,18.25,0,0,1-15.93,0Z"/><path class="cls-7" d="M98,176.33l49.78-45.28a15.33,15.33,0,0,1,11.91-5.68h13.37A15.32,15.32,0,0,1,185,131l44.84,45.6Z"/><rect class="cls-2" x="70.18" y="64.34" width="5.11" height="16.85" rx="2.55" transform="translate(-23.12 35.39) rotate(-23.71)"/><rect class="cls-2" x="154.45" y="20.42" width="5.11" height="16.85" rx="2.55" transform="translate(2.41 -10.95) rotate(4.03)"/><rect class="cls-2" x="189.02" y="28.33" width="3.78" height="12.47" rx="1.89" transform="translate(2.9 -13.32) rotate(4.03)"/><rect class="cls-2" x="257.45" y="57.44" width="3.78" height="12.47" rx="1.89" transform="translate(120.98 -164.73) rotate(45)"/><rect class="cls-2" x="125.34" y="-0.51" width="3.78" height="12.47" rx="1.89" transform="translate(12.09 60.15) rotate(-27.88)"/><rect class="cls-2" x="209.6" y="6.63" width="5.11" height="16.85" rx="2.55" transform="translate(7.68 73.59) rotate(-20.03)"/><rect class="cls-2" x="234.63" y="21.44" width="5.11" height="16.85" rx="2.55" transform="translate(90.59 -158.96) rotate(45)"/><circle class="cls-2" cx="304" cy="174.92" r="14.98"/><circle class="cls-2" cx="341" cy="174.92" r="10.86"/></g></g></svg>