<svg xmlns="http://www.w3.org/2000/svg" width="273.12" height="205.14" viewBox="0 0 273.12 205.14"><title>Select-answer</title><g id="Layer_2" data-name="Layer 2"><g id="Layer_1-2" data-name="Layer 1"><rect width="203.08" height="135.15" rx="9.43" style="fill:#0069aa"/><circle cx="101.54" cy="127.11" r="4.38" style="fill:#00559b"/><polygon points="112.68 149.66 112.68 135.15 101.54 135.15 90.4 135.15 90.4 149.66 112.68 149.66" style="fill:#0069aa"/><rect x="8.62" y="11.66" width="186.12" height="106.91" style="fill:#f2f2f2"/><line x1="38.06" y1="29.78" x2="153.63" y2="29.78" style="fill:none;stroke:#00559b;stroke-miterlimit:10;stroke-width:1.46104098194955px"/><line x1="38.06" y1="35.62" x2="95.04" y2="35.62" style="fill:none;stroke:#00559b;stroke-miterlimit:10;stroke-width:1.46104098194955px"/><line x1="56.93" y1="45.48" x2="120.49" y2="45.48" style="fill:none;stroke:#666;stroke-miterlimit:10;stroke-width:1.46104098194955px"/><line x1="56.93" y1="55.71" x2="135.45" y2="55.71" style="fill:none;stroke:#666;stroke-miterlimit:10;stroke-width:1.46104098194955px"/><rect x="47.44" y="42.56" width="5.84" height="5.84" rx="2.92" style="fill:none;stroke:#0069aa;stroke-miterlimit:10;stroke-width:1.46104098194955px"/><rect x="47.44" y="52.79" width="5.84" height="5.84" rx="2.92" style="fill:none;stroke:#0069aa;stroke-miterlimit:10;stroke-width:1.46104098194955px"/><line x1="56.93" y1="65.56" x2="113.74" y2="65.56" style="fill:none;stroke:#666;stroke-miterlimit:10;stroke-width:1.46104098194955px"/><line x1="56.93" y1="75.79" x2="128.41" y2="75.79" style="fill:none;stroke:#666;stroke-miterlimit:10;stroke-width:1.46104098194955px"/><rect x="47.44" y="62.64" width="5.84" height="5.84" rx="2.92" style="fill:none;stroke:#0069aa;stroke-miterlimit:10;stroke-width:1.46104098194955px"/><rect x="47.44" y="72.87" width="5.84" height="5.84" rx="2.92" style="fill:none;stroke:#0069aa;stroke-miterlimit:10;stroke-width:1.46104098194955px"/><rect x="140.16" y="99.09" width="21.92" height="7.31" style="fill:#7ac142"/><path d="M65.24,100.55v4.38h-19v-4.38h19m1.46-1.46H44.79v7.31H66.7V99.09Z" style="fill:#7ac142"/><circle cx="50.27" cy="56.21" r="12.33" style="fill:#005caa;opacity:0.2"/><path d="M58.74,69.73,55.08,58.11c-.82-2.59-5.55-1.1-4.74,1.5L56.15,78a.23.23,0,0,1-.33.27A34.85,34.85,0,0,1,51,75.45,1.75,1.75,0,0,0,48.62,78C50.25,79.88,62.2,90.25,62.2,90.25L76,85.89s.69-10.92.35-12.24-2-6.35-2.54-8c-.75-2.4-3.48-1.54-5.81-.81" style="fill:#fff;stroke:#7ac142;stroke-miterlimit:10;stroke-width:1.46104098194955px"/><path d="M57.16,64.73l3.62-1.14a1.45,1.45,0,0,1,1.81,1l1.33,4.2" style="fill:#fff;stroke:#7ac142;stroke-miterlimit:10;stroke-width:1.46104098194955px"/><path d="M62.59,64.54l3.07-1A1.9,1.9,0,0,1,68,64.8l1.17,3.73" style="fill:#fff;stroke:#7ac142;stroke-miterlimit:10;stroke-width:1.46104098194955px"/><rect x="8.6" y="11.52" width="185.97" height="9.39" style="fill:#fff"/><rect x="78.22" y="146.43" width="46.72" height="10.85" rx="4.77" style="fill:#0069aa"/><path d="M252.43,165.1H235.91a15.8,15.8,0,0,0,1.51-6.73h0a16.09,16.09,0,0,0-16-16H39.16a16.1,16.1,0,0,0-16,16h0a16.1,16.1,0,0,0,16,16H55.68a15.84,15.84,0,0,0-1.51,6.73,16.09,16.09,0,0,0,16,16H252.43a16.05,16.05,0,1,0,0-32.1Z" style="fill:#0069aa;opacity:0.1"/><circle cx="259.29" cy="138.26" r="13.83" style="fill:#0069aa;opacity:0.1"/><circle cx="32.79" cy="195.34" r="9.8" style="fill:#0069aa;opacity:0.1"/></g></g></svg>