<svg xmlns="http://www.w3.org/2000/svg" width="141.62" height="125.02" viewBox="0 0 141.62 125.02"><title>Select-answer-mobile</title><g id="Layer_2" data-name="Layer 2"><g id="Layer_1-2" data-name="Layer 1"><rect width="141.62" height="94.25" rx="6.58" style="fill:#0069aa"/><circle cx="70.81" cy="88.64" r="3.06" style="fill:#00559b"/><polygon points="78.58 104.37 78.58 94.25 70.81 94.25 63.04 94.25 63.04 104.37 78.58 104.37" style="fill:#0069aa"/><rect x="6.01" y="8.13" width="129.8" height="74.55" style="fill:#f2f2f2"/><line x1="26.54" y1="20.77" x2="107.14" y2="20.77" style="fill:none;stroke:#00559b;stroke-miterlimit:10;stroke-width:1.01888424426942px"/><line x1="26.54" y1="24.84" x2="66.27" y2="24.84" style="fill:none;stroke:#00559b;stroke-miterlimit:10;stroke-width:1.01888424426942px"/><line x1="39.7" y1="31.72" x2="84.02" y2="31.72" style="fill:none;stroke:#666;stroke-miterlimit:10;stroke-width:1.01888424426942px"/><line x1="39.7" y1="38.85" x2="94.46" y2="38.85" style="fill:none;stroke:#666;stroke-miterlimit:10;stroke-width:1.01888424426942px"/><rect x="33.08" y="29.68" width="4.08" height="4.08" rx="2.04" style="fill:none;stroke:#0069aa;stroke-miterlimit:10;stroke-width:1.01888424426942px"/><rect x="33.08" y="36.81" width="4.08" height="4.08" rx="2.04" style="fill:none;stroke:#0069aa;stroke-miterlimit:10;stroke-width:1.01888424426942px"/><line x1="39.7" y1="45.72" x2="79.32" y2="45.72" style="fill:none;stroke:#666;stroke-miterlimit:10;stroke-width:1.01888424426942px"/><line x1="39.7" y1="52.85" x2="89.55" y2="52.85" style="fill:none;stroke:#666;stroke-miterlimit:10;stroke-width:1.01888424426942px"/><rect x="33.08" y="43.68" width="4.08" height="4.08" rx="2.04" style="fill:none;stroke:#0069aa;stroke-miterlimit:10;stroke-width:1.01888424426942px"/><rect x="33.08" y="50.81" width="4.08" height="4.08" rx="2.04" style="fill:none;stroke:#0069aa;stroke-miterlimit:10;stroke-width:1.01888424426942px"/><rect x="97.74" y="69.1" width="15.28" height="5.09" style="fill:#7ac142"/><path d="M45.5,70.12v3.06H32.25V70.12H45.5m1-1H31.23v5.1H46.52V69.1Z" style="fill:#7ac142"/><circle cx="35.06" cy="39.2" r="8.6" style="fill:#005caa;opacity:0.2"/><path d="M41,48.63l-2.55-8.1c-.57-1.81-3.87-.77-3.3,1l4,12.84a.17.17,0,0,1-.23.2,25.47,25.47,0,0,1-3.37-2,1.21,1.21,0,0,0-1.65,1.78c1.13,1.3,9.46,8.54,9.46,8.54l9.65-3s.48-7.62.24-8.54-1.39-4.43-1.76-5.61c-.53-1.67-2.43-1.07-4.06-.56" style="fill:#fff;stroke:#7ac142;stroke-miterlimit:10;stroke-width:1.01888424426942px"/><path d="M39.86,45.14l2.53-.79a1,1,0,0,1,1.26.66l.92,2.92" style="fill:#fff;stroke:#7ac142;stroke-miterlimit:10;stroke-width:1.01888424426942px"/><path d="M43.65,45l2.14-.68a1.32,1.32,0,0,1,1.65.86l.82,2.6" style="fill:#fff;stroke:#7ac142;stroke-miterlimit:10;stroke-width:1.01888424426942px"/><rect x="5.99" y="8.03" width="129.69" height="6.55" style="fill:#fff"/><rect x="54.55" y="102.12" width="32.58" height="7.57" rx="3.33" style="fill:#0069aa"/><path d="M123.82,110h-7.75a7.57,7.57,0,0,0,.7-3.16h0a7.56,7.56,0,0,0-7.53-7.54H23.66a7.56,7.56,0,0,0-7.54,7.54h0a7.56,7.56,0,0,0,7.54,7.54h7.75A7.52,7.52,0,0,0,38.24,125h85.58a7.54,7.54,0,1,0,0-15.07Z" style="fill:#0069aa;opacity:0.1"/></g></g></svg>