<svg xmlns="http://www.w3.org/2000/svg" width="140.58" height="124.1" viewBox="0 0 140.58 124.1"><title>Submit-mobile</title><g id="Layer_2" data-name="Layer 2"><g id="Layer_1-2" data-name="Layer 1"><rect width="140.58" height="93.55" rx="6.53" style="fill:#0069aa"/><circle cx="70.29" cy="87.99" r="3.03" style="fill:#00559b"/><polygon points="78 103.6 78 93.55 70.29 93.55 62.58 93.55 62.58 103.6 78 103.6" style="fill:#0069aa"/><rect x="5.97" y="8.07" width="128.84" height="74" style="fill:#f2f2f2"/><line x1="51.52" y1="48.92" x2="90.96" y2="48.92" style="fill:none;stroke:#00559b;stroke-miterlimit:10;stroke-width:1.01136902567348px"/><line x1="48.75" y1="54" x2="93.73" y2="54" style="fill:none;stroke:#00559b;stroke-miterlimit:10;stroke-width:1.01136902567348px"/><line x1="53.36" y1="59.28" x2="89.12" y2="59.28" style="fill:none;stroke:#00559b;stroke-miterlimit:10;stroke-width:1.01136902567348px"/><rect x="97.02" y="68.59" width="15.17" height="5.06" style="fill:#7ac142"/><path d="M45.16,69.6v3H32v-3H45.16m1-1H31v5.06H46.17V68.59Z" style="fill:#7ac142"/><circle cx="105.45" cy="71.8" r="8.53" style="fill:#005caa;opacity:0.2"/><path d="M111.31,81.16l-2.53-8c-.57-1.8-3.84-.76-3.28,1l4,12.75a.16.16,0,0,1-.22.19,24.46,24.46,0,0,1-3.35-2,1.21,1.21,0,0,0-1.64,1.77c1.13,1.29,9.4,8.47,9.4,8.47l9.57-3s.48-7.55.24-8.47-1.38-4.4-1.75-5.56c-.52-1.67-2.41-1.07-4-.56" style="fill:#fff;stroke:#7ac142;stroke-miterlimit:10;stroke-width:1.01136902567348px"/><path d="M110.22,77.7l2.51-.79a1,1,0,0,1,1.25.65l.92,2.91" style="fill:#fff;stroke:#7ac142;stroke-miterlimit:10;stroke-width:1.01136902567348px"/><path d="M114,77.56l2.13-.67a1.31,1.31,0,0,1,1.63.86l.82,2.58" style="fill:#fff;stroke:#7ac142;stroke-miterlimit:10;stroke-width:1.01136902567348px"/><rect x="5.95" y="7.97" width="128.74" height="6.5" style="fill:#fff"/><rect x="54.15" y="101.36" width="32.34" height="7.51" rx="3.3" style="fill:#0069aa"/><path d="M122.91,109.14h-7.7a7.37,7.37,0,0,0,.7-3.14h0a7.5,7.5,0,0,0-7.48-7.48H23.48A7.51,7.51,0,0,0,16,106h0a7.5,7.5,0,0,0,7.48,7.48h7.7A7.46,7.46,0,0,0,38,124.1h84.95a7.48,7.48,0,0,0,0-15Z" style="fill:#0069aa;opacity:0.1"/><circle cx="70" cy="30.61" r="12.28" style="fill:#7ac142;opacity:0.7000000000000001"/><polyline points="61.35 30.89 67.33 36.87 77.74 26.46" style="fill:none;stroke:#fff;stroke-linecap:round;stroke-linejoin:round;stroke-width:2.76621969974183px"/></g></g></svg>