<svg xmlns="http://www.w3.org/2000/svg" width="280.88" height="204.38" viewBox="0 0 280.88 204.38"><title>Submit</title><g id="Layer_2" data-name="Layer 2"><g id="Layer_1-2" data-name="Layer 1"><rect width="205.69" height="136.88" rx="9.55" style="fill:#0069aa"/><circle cx="102.85" cy="128.74" r="4.44" style="fill:#00559b"/><polygon points="114.13 151.58 114.13 136.88 102.85 136.88 91.56 136.88 91.56 151.58 114.13 151.58" style="fill:#0069aa"/><rect x="8.73" y="11.81" width="188.51" height="108.28" style="fill:#f2f2f2"/><line x1="75.38" y1="71.58" x2="133.09" y2="71.58" style="fill:none;stroke:#00559b;stroke-miterlimit:10;stroke-width:1.47980379936646px"/><line x1="71.33" y1="79.01" x2="137.14" y2="79.01" style="fill:none;stroke:#00559b;stroke-miterlimit:10;stroke-width:1.47980379936646px"/><line x1="78.08" y1="86.73" x2="130.39" y2="86.73" style="fill:none;stroke:#00559b;stroke-miterlimit:10;stroke-width:1.47980379936646px"/><rect x="141.96" y="100.36" width="22.2" height="7.4" style="fill:#7ac142"/><path d="M66.08,101.84v4.44H46.84v-4.44H66.08m1.48-1.48H45.36v7.4h22.2v-7.4Z" style="fill:#7ac142"/><circle cx="154.29" cy="105.05" r="12.48" style="fill:#005caa;opacity:0.2"/><path d="M162.87,118.75,159.16,107c-.83-2.62-5.62-1.11-4.79,1.52l5.88,18.65a.23.23,0,0,1-.33.28,35.27,35.27,0,0,1-4.9-2.89,1.77,1.77,0,0,0-2.4,2.59c1.65,1.9,13.75,12.4,13.75,12.4l14-4.42s.71-11.05.36-12.39-2-6.44-2.57-8.15c-.77-2.43-3.53-1.56-5.89-.81" style="fill:#fff;stroke:#7ac142;stroke-miterlimit:10;stroke-width:1.47980379936646px"/><path d="M161.28,113.69l3.66-1.16a1.48,1.48,0,0,1,1.84,1l1.34,4.25" style="fill:#fff;stroke:#7ac142;stroke-miterlimit:10;stroke-width:1.47980379936646px"/><path d="M166.78,113.49l3.1-1a1.91,1.91,0,0,1,2.4,1.25l1.19,3.78" style="fill:#fff;stroke:#7ac142;stroke-miterlimit:10;stroke-width:1.47980379936646px"/><rect x="8.71" y="10.67" width="188.36" height="9.51" style="fill:#fff"/><rect x="79.23" y="148.31" width="47.32" height="10.99" rx="4.83" style="fill:#0069aa"/><path d="M261.74,167.82H244.57a16.38,16.38,0,0,0,1.57-7h0a16.73,16.73,0,0,0-16.68-16.68H40.09a16.73,16.73,0,0,0-16.68,16.68h0a16.73,16.73,0,0,0,16.68,16.68H57.26a16.42,16.42,0,0,0-1.57,7,16.73,16.73,0,0,0,16.68,16.68H261.74a16.68,16.68,0,0,0,0-33.36Z" style="fill:#0069aa;opacity:0.1"/><circle cx="102.43" cy="44.79" r="17.97" style="fill:#7ac142;opacity:0.7000000000000001"/><polyline points="89.76 45.19 98.51 53.94 113.75 38.71" style="fill:none;stroke:#fff;stroke-linecap:round;stroke-linejoin:round;stroke-width:4.04744689391137px"/><circle cx="267.04" cy="145.69" r="13.83" style="fill:#0069aa;opacity:0.1"/><circle cx="35.09" cy="194.57" r="9.8" style="fill:#0069aa;opacity:0.1"/></g></g></svg>