<?xml version="1.0" encoding="utf-8"?>
<!-- Generator: Adobe Illustrator 24.3.0, SVG Export Plug-In . SVG Version: 6.00 Build 0)  -->
<svg version="1.1" xmlns="http://www.w3.org/2000/svg" xmlns:xlink="http://www.w3.org/1999/xlink" x="0px" y="0px" width="390px"
	 height="701.1px" viewBox="0 0 390 701.1" style="enable-background:new 0 0 390 701.1;" xml:space="preserve">
<style type="text/css">
	.st0{opacity:0.1;fill:url(#SVGID_1_);}
	.st1{fill:url(#SVGID_2_);}
	.st2{opacity:0.1;fill:url(#SVGID_3_);}
	.st3{fill:url(#SVGID_4_);}
	.st4{opacity:0.1;fill:url(#SVGID_5_);}
	.st5{fill:url(#SVGID_6_);}
	.st6{opacity:0.1;fill:#07859D;}
	.st7{fill:url(#SVGID_7_);}
	.st8{fill:url(#SVGID_8_);}
	.st9{fill:#002F6C;}
	.st10{opacity:0.1;fill:#24EACE;}
	.st11{opacity:0.15;fill:#66D2FD;}
	.st12{opacity:0.7;}
	.st13{clip-path:url(#SVGID_10_);}
	.st14{fill:#FFFFFF;}
	.st15{fill:#BAF4E6;}
	.st16{fill:#D9F9F3;}
	.st17{fill:#CEF4EC;}
	.st18{fill:#9EEFD9;}
	.st19{opacity:0.7;fill:#E6E7E8;}
	.st20{fill:#CAF0F9;}
	.st21{fill:#B6EBFC;}
	.st22{fill:#D9F4F9;}
	.st23{fill:#F1F2F2;}
	.st24{fill:#575757;}
	.st25{clip-path:url(#SVGID_12_);}
	.st26{clip-path:url(#SVGID_14_);}
	.st27{fill:url(#SVGID_15_);}
	.st28{opacity:5.000000e-02;clip-path:url(#SVGID_17_);fill:url(#SVGID_18_);}
	.st29{opacity:5.000000e-02;clip-path:url(#SVGID_17_);fill:url(#SVGID_19_);}
	.st30{clip-path:url(#SVGID_17_);}
	.st31{fill:#ADBDC4;}
	.st32{fill:none;}
	.st33{fill:#BACAD3;}
	.st34{fill:#F2F2F4;}
	.st35{fill:#D9E6ED;}
	.st36{fill:#BBBDBF;}
	.st37{fill:#B3B3B3;}
	.st38{opacity:0.12;clip-path:url(#SVGID_17_);}
	.st39{fill:url(#SVGID_20_);}
	.st40{fill:url(#SVGID_21_);}
	.st41{fill:url(#SVGID_22_);}
	.st42{fill:url(#SVGID_23_);}
	.st43{fill:url(#SVGID_24_);}
	.st44{fill:url(#SVGID_25_);}
	.st45{fill:url(#SVGID_26_);}
	.st46{fill:url(#SVGID_27_);}
	.st47{fill:url(#SVGID_28_);}
	.st48{fill:url(#SVGID_29_);}
	.st49{fill:url(#SVGID_30_);}
	.st50{fill:url(#SVGID_31_);}
	.st51{fill:url(#SVGID_32_);}
	.st52{fill:url(#SVGID_33_);}
	.st53{fill:url(#SVGID_34_);}
	.st54{fill:url(#SVGID_35_);}
	.st55{fill:url(#SVGID_36_);}
	.st56{fill:url(#SVGID_37_);}
	.st57{fill:url(#SVGID_38_);}
	.st58{fill:url(#SVGID_39_);}
	.st59{fill:url(#SVGID_40_);}
	.st60{fill:url(#SVGID_41_);}
	.st61{fill:url(#SVGID_42_);}
	.st62{fill:url(#SVGID_43_);}
	.st63{fill:url(#SVGID_44_);}
	.st64{fill:url(#SVGID_45_);}
	.st65{fill:url(#SVGID_46_);}
	.st66{fill:url(#SVGID_47_);}
	.st67{fill:url(#SVGID_48_);}
	.st68{fill:url(#SVGID_49_);}
	.st69{fill:url(#SVGID_50_);}
	.st70{fill:url(#SVGID_51_);}
	.st71{fill:url(#SVGID_52_);}
	.st72{fill:url(#SVGID_53_);}
	.st73{opacity:0.8;clip-path:url(#SVGID_17_);}
	.st74{fill:url(#SVGID_54_);}
	.st75{opacity:0.2;clip-path:url(#SVGID_17_);fill:#72C4B8;}
	.st76{clip-path:url(#SVGID_17_);fill:url(#SVGID_55_);}
	.st77{fill:url(#SVGID_56_);}
	.st78{clip-path:url(#SVGID_17_);fill:#72C4B8;}
	.st79{clip-path:url(#SVGID_17_);fill:#26A69A;}
	.st80{fill:#24EACE;}
	.st81{fill:#1CD3BD;}
	.st82{fill:#013A77;}
	.st83{fill:#001956;}
	.st84{fill:#033872;}
	.st85{opacity:0.9;fill:#001956;}
	.st86{opacity:0.8;fill:#001956;}
	.st87{fill:#22DDBE;}
	.st88{fill:#1AC6AD;}
	.st89{fill:#001744;}
	.st90{fill:#075C9B;}
	.st91{clip-path:url(#SVGID_17_);fill:#959595;}
	.st92{clip-path:url(#SVGID_17_);fill:#040404;}
	.st93{clip-path:url(#SVGID_17_);fill:#030303;}
	.st94{clip-path:url(#SVGID_17_);fill:#838383;}
	.st95{fill-rule:evenodd;clip-rule:evenodd;fill:#001956;}
	.st96{fill-rule:evenodd;clip-rule:evenodd;fill:#033872;}
	.st97{fill-rule:evenodd;clip-rule:evenodd;fill:#002F6C;}
	.st98{fill-rule:evenodd;clip-rule:evenodd;}
	.st99{fill:#0B509B;}
	.st100{opacity:0.5;fill:#2B72B2;}
	.st101{fill:#012160;}
	.st102{fill:none;stroke:#EC008C;stroke-width:9.064973e-02;stroke-miterlimit:10;}
	.st103{fill:#033E7F;}
	.st104{fill:#012F60;}
	.st105{fill:#034987;}
	.st106{fill:#26A69A;}
	.st107{fill:#BFF7EC;}
	.st108{fill:#63F7DE;}
	.st109{opacity:0.3;}
	.st110{fill:none;stroke:#92BEF4;stroke-width:1.0929;stroke-miterlimit:10;}
	.st111{fill:none;stroke:#E8E858;stroke-width:1.0929;stroke-miterlimit:10;}
	.st112{fill:none;stroke:#F4AE3D;stroke-width:1.0929;stroke-miterlimit:10;}
	.st113{fill:none;stroke:#F28481;stroke-width:1.0929;stroke-miterlimit:10;}
	.st114{fill:none;stroke:#D5D5D5;stroke-width:2.6167;stroke-miterlimit:10;}
	.st115{fill:none;stroke:#26A69A;stroke-width:2.6167;stroke-miterlimit:10;}
	.st116{clip-path:url(#SVGID_58_);}
	.st117{display:none;fill:#F1F2F2;}
	.st118{fill:none;stroke:#D5D5D5;stroke-width:3;stroke-miterlimit:10;}
	.st119{clip-path:url(#SVGID_62_);fill:#26A69A;}
	.st120{fill:none;stroke:#22DDBE;stroke-width:1.7853;stroke-miterlimit:10;}
	.st121{clip-path:url(#SVGID_64_);}
	.st122{fill:none;stroke:#26A69A;stroke-width:2.5;stroke-miterlimit:10;}
	.st123{fill:none;stroke:#26A69A;stroke-width:1.7853;stroke-miterlimit:10;}
	.st124{fill:none;stroke:#26A69A;stroke-width:2;stroke-miterlimit:10;}
	.st125{fill:none;stroke:#22DDBE;stroke-width:1.5869;stroke-miterlimit:10;}
	.st126{fill:none;stroke:#22DDBE;stroke-width:1.7778;stroke-miterlimit:10;}
	.st127{fill:#3D3D3D;}
	.st128{opacity:5.000000e-02;clip-path:url(#SVGID_66_);fill:url(#SVGID_67_);}
	.st129{opacity:5.000000e-02;clip-path:url(#SVGID_66_);fill:url(#SVGID_68_);}
	.st130{clip-path:url(#SVGID_66_);}
	.st131{opacity:0.12;clip-path:url(#SVGID_66_);}
	.st132{fill:url(#SVGID_69_);}
	.st133{fill:url(#SVGID_70_);}
	.st134{fill:url(#SVGID_71_);}
	.st135{fill:url(#SVGID_72_);}
	.st136{fill:url(#SVGID_73_);}
	.st137{fill:url(#SVGID_74_);}
	.st138{fill:url(#SVGID_75_);}
	.st139{fill:url(#SVGID_76_);}
	.st140{fill:url(#SVGID_77_);}
	.st141{fill:url(#SVGID_78_);}
	.st142{fill:url(#SVGID_79_);}
	.st143{fill:url(#SVGID_80_);}
	.st144{fill:url(#SVGID_81_);}
	.st145{fill:url(#SVGID_82_);}
	.st146{fill:url(#SVGID_83_);}
	.st147{fill:url(#SVGID_84_);}
	.st148{fill:url(#SVGID_85_);}
	.st149{fill:url(#SVGID_86_);}
	.st150{fill:url(#SVGID_87_);}
	.st151{fill:url(#SVGID_88_);}
	.st152{fill:url(#SVGID_89_);}
	.st153{fill:url(#SVGID_90_);}
	.st154{fill:url(#SVGID_91_);}
	.st155{fill:url(#SVGID_92_);}
	.st156{fill:url(#SVGID_93_);}
	.st157{fill:url(#SVGID_94_);}
	.st158{fill:url(#SVGID_95_);}
	.st159{fill:url(#SVGID_96_);}
	.st160{fill:url(#SVGID_97_);}
	.st161{fill:url(#SVGID_98_);}
	.st162{fill:url(#SVGID_99_);}
	.st163{fill:url(#SVGID_100_);}
	.st164{fill:url(#SVGID_101_);}
	.st165{fill:url(#SVGID_102_);}
	.st166{opacity:0.8;clip-path:url(#SVGID_66_);}
	.st167{fill:url(#SVGID_103_);}
	.st168{opacity:0.2;clip-path:url(#SVGID_66_);fill:#72C4B8;}
	.st169{clip-path:url(#SVGID_66_);fill:url(#SVGID_104_);}
	.st170{fill:url(#SVGID_105_);}
	.st171{clip-path:url(#SVGID_66_);fill:#72C4B8;}
	.st172{clip-path:url(#SVGID_66_);fill:#26A69A;}
	.st173{clip-path:url(#SVGID_66_);fill:#959595;}
	.st174{clip-path:url(#SVGID_66_);fill:#030303;}
	.st175{clip-path:url(#SVGID_66_);fill:#040404;}
	.st176{clip-path:url(#SVGID_66_);fill:#838383;}
	.st177{fill:#01579B;}
	.st178{fill:url(#SVGID_106_);}
	.st179{clip-path:url(#SVGID_66_);fill:#001744;}
	.st180{clip-path:url(#SVGID_66_);fill:#013A77;}
	.st181{clip-path:url(#SVGID_66_);fill:#002F6C;}
	.st182{clip-path:url(#SVGID_66_);fill:#012F60;}
	.st183{opacity:5.000000e-02;clip-path:url(#SVGID_108_);fill:url(#SVGID_109_);}
	.st184{opacity:5.000000e-02;clip-path:url(#SVGID_108_);fill:url(#SVGID_110_);}
	.st185{clip-path:url(#SVGID_108_);}
	.st186{opacity:0.12;clip-path:url(#SVGID_108_);}
	.st187{fill:url(#SVGID_111_);}
	.st188{fill:url(#SVGID_112_);}
	.st189{fill:url(#SVGID_113_);}
	.st190{fill:url(#SVGID_114_);}
	.st191{fill:url(#SVGID_115_);}
	.st192{fill:url(#SVGID_116_);}
	.st193{fill:url(#SVGID_117_);}
	.st194{fill:url(#SVGID_118_);}
	.st195{fill:url(#SVGID_119_);}
	.st196{fill:url(#SVGID_120_);}
	.st197{fill:url(#SVGID_121_);}
	.st198{fill:url(#SVGID_122_);}
	.st199{fill:url(#SVGID_123_);}
	.st200{fill:url(#SVGID_124_);}
	.st201{fill:url(#SVGID_125_);}
	.st202{fill:url(#SVGID_126_);}
	.st203{fill:url(#SVGID_127_);}
	.st204{fill:url(#SVGID_128_);}
	.st205{fill:url(#SVGID_129_);}
	.st206{fill:url(#SVGID_130_);}
	.st207{fill:url(#SVGID_131_);}
	.st208{fill:url(#SVGID_132_);}
	.st209{fill:url(#SVGID_133_);}
	.st210{fill:url(#SVGID_134_);}
	.st211{fill:url(#SVGID_135_);}
	.st212{fill:url(#SVGID_136_);}
	.st213{fill:url(#SVGID_137_);}
	.st214{fill:url(#SVGID_138_);}
	.st215{fill:url(#SVGID_139_);}
	.st216{fill:url(#SVGID_140_);}
	.st217{fill:url(#SVGID_141_);}
	.st218{fill:url(#SVGID_142_);}
	.st219{fill:url(#SVGID_143_);}
	.st220{fill:url(#SVGID_144_);}
	.st221{opacity:0.8;clip-path:url(#SVGID_108_);}
	.st222{fill:url(#SVGID_145_);}
	.st223{opacity:0.2;clip-path:url(#SVGID_108_);fill:#72C4B8;}
	.st224{clip-path:url(#SVGID_108_);fill:url(#SVGID_146_);}
	.st225{fill:url(#SVGID_147_);}
	.st226{clip-path:url(#SVGID_108_);fill:#72C4B8;}
	.st227{clip-path:url(#SVGID_108_);fill:#26A69A;}
	.st228{fill:#03E24D;}
	.st229{fill:#00CE4A;}
	.st230{clip-path:url(#SVGID_108_);fill:#959595;}
	.st231{clip-path:url(#SVGID_108_);fill:#030303;}
	.st232{clip-path:url(#SVGID_108_);fill:#040404;}
	.st233{clip-path:url(#SVGID_108_);fill:#838383;}
	.st234{fill:#0CC433;}
	.st235{fill:#0CC143;}
	.st236{fill:#09B536;}
	.st237{clip-path:url(#SVGID_108_);fill:#001744;}
	.st238{clip-path:url(#SVGID_108_);fill:#013A77;}
	.st239{clip-path:url(#SVGID_108_);fill:#002F6C;}
	.st240{clip-path:url(#SVGID_108_);fill:#012F60;}
	.st241{opacity:5.000000e-02;clip-path:url(#SVGID_149_);fill:url(#SVGID_150_);}
	.st242{opacity:5.000000e-02;clip-path:url(#SVGID_149_);fill:url(#SVGID_151_);}
	.st243{clip-path:url(#SVGID_149_);}
	.st244{opacity:0.12;clip-path:url(#SVGID_149_);}
	.st245{fill:url(#SVGID_152_);}
	.st246{fill:url(#SVGID_153_);}
	.st247{fill:url(#SVGID_154_);}
	.st248{fill:url(#SVGID_155_);}
	.st249{fill:url(#SVGID_156_);}
	.st250{fill:url(#SVGID_157_);}
	.st251{fill:url(#SVGID_158_);}
	.st252{fill:url(#SVGID_159_);}
	.st253{fill:url(#SVGID_160_);}
	.st254{fill:url(#SVGID_161_);}
	.st255{fill:url(#SVGID_162_);}
	.st256{fill:url(#SVGID_163_);}
	.st257{fill:url(#SVGID_164_);}
	.st258{fill:url(#SVGID_165_);}
	.st259{fill:url(#SVGID_166_);}
	.st260{fill:url(#SVGID_167_);}
	.st261{fill:url(#SVGID_168_);}
	.st262{fill:url(#SVGID_169_);}
	.st263{fill:url(#SVGID_170_);}
	.st264{fill:url(#SVGID_171_);}
	.st265{fill:url(#SVGID_172_);}
	.st266{fill:url(#SVGID_173_);}
	.st267{fill:url(#SVGID_174_);}
	.st268{fill:url(#SVGID_175_);}
	.st269{fill:url(#SVGID_176_);}
	.st270{fill:url(#SVGID_177_);}
	.st271{fill:url(#SVGID_178_);}
	.st272{fill:url(#SVGID_179_);}
	.st273{fill:url(#SVGID_180_);}
	.st274{fill:url(#SVGID_181_);}
	.st275{fill:url(#SVGID_182_);}
	.st276{fill:url(#SVGID_183_);}
	.st277{fill:url(#SVGID_184_);}
	.st278{fill:url(#SVGID_185_);}
	.st279{opacity:0.8;clip-path:url(#SVGID_149_);}
	.st280{fill:url(#SVGID_186_);}
	.st281{opacity:0.2;clip-path:url(#SVGID_149_);fill:#72C4B8;}
	.st282{clip-path:url(#SVGID_149_);fill:url(#SVGID_187_);}
	.st283{fill:url(#SVGID_188_);}
	.st284{clip-path:url(#SVGID_149_);fill:#72C4B8;}
	.st285{clip-path:url(#SVGID_149_);fill:#26A69A;}
	.st286{clip-path:url(#SVGID_149_);fill:#959595;}
	.st287{clip-path:url(#SVGID_149_);fill:#030303;}
	.st288{clip-path:url(#SVGID_149_);fill:#040404;}
	.st289{clip-path:url(#SVGID_149_);fill:#838383;}
	.st290{clip-path:url(#SVGID_149_);fill:#001744;}
	.st291{clip-path:url(#SVGID_149_);fill:#013A77;}
	.st292{clip-path:url(#SVGID_149_);fill:#002F6C;}
	.st293{clip-path:url(#SVGID_149_);fill:#012F60;}
	.st294{fill:none;stroke:#26A69A;stroke-width:4.3715;stroke-miterlimit:10;}
	.st295{fill:#E8E858;}
	.st296{fill:#92BEF4;}
	.st297{fill:#F4AE3D;}
	.st298{fill:#F28481;}
	.st299{fill:none;stroke:#26A69A;stroke-width:3;stroke-miterlimit:10;}
	.st300{fill:none;stroke:#07859D;stroke-width:3;stroke-miterlimit:10;}
	.st301{opacity:5.000000e-02;fill:url(#SVGID_189_);}
	.st302{opacity:5.000000e-02;fill:url(#SVGID_190_);}
	.st303{fill:none;stroke:#6729A3;stroke-miterlimit:10;}
	.st304{fill:none;stroke:#01579B;stroke-miterlimit:10;}
	.st305{fill:none;stroke:#26A69A;stroke-miterlimit:10;}
	.st306{opacity:5.000000e-02;fill:url(#SVGID_191_);}
	.st307{fill:none;stroke:#A528A2;stroke-miterlimit:10;}
	.st308{opacity:5.000000e-02;fill:url(#SVGID_192_);}
	.st309{opacity:5.000000e-02;fill:url(#SVGID_193_);}
	.st310{opacity:5.000000e-02;fill:url(#SVGID_194_);}
	.st311{opacity:5.000000e-02;fill:url(#SVGID_195_);}
	.st312{fill:none;stroke:#26A69A;stroke-width:3.3753;stroke-miterlimit:10;}
	.st313{clip-path:url(#SVGID_197_);}
	.st314{fill:url(#SVGID_198_);}
	.st315{fill:#ECF2F7;}
	.st316{fill:#E6E7E8;}
	.st317{fill:#F1F1F1;}
	.st318{fill:#F7F8F8;}
	.st319{fill:#F2F2F3;}
	.st320{opacity:0.1;fill:url(#SVGID_199_);}
	.st321{opacity:0.1;fill:url(#SVGID_200_);}
	.st322{opacity:0.1;fill:url(#SVGID_201_);}
	.st323{opacity:0.1;fill:url(#SVGID_202_);}
	.st324{clip-path:url(#SVGID_203_);}
	.st325{fill:url(#SVGID_204_);}
	.st326{opacity:0.1;fill:url(#SVGID_205_);}
	.st327{opacity:0.1;fill:url(#SVGID_206_);}
	.st328{opacity:0.1;fill:url(#SVGID_207_);}
	.st329{opacity:0.1;fill:url(#SVGID_208_);}
	.st330{clip-path:url(#SVGID_209_);}
	.st331{fill:url(#SVGID_210_);}
	.st332{opacity:0.1;fill:url(#SVGID_211_);}
	.st333{opacity:0.1;fill:url(#SVGID_212_);}
	.st334{opacity:0.1;fill:url(#SVGID_213_);}
	.st335{opacity:0.1;fill:url(#SVGID_214_);}
	.st336{clip-path:url(#SVGID_215_);}
	.st337{clip-path:url(#SVGID_217_);}
	.st338{clip-path:url(#SVGID_218_);}
	.st339{fill:url(#SVGID_219_);}
	.st340{fill:#07859D;}
	.st341{fill:#E1FCF8;}
	.st342{fill:#E9F8FF;}
	.st343{opacity:5.000000e-02;clip-path:url(#SVGID_221_);fill:url(#SVGID_222_);}
	.st344{opacity:5.000000e-02;clip-path:url(#SVGID_221_);fill:url(#SVGID_223_);}
	.st345{clip-path:url(#SVGID_221_);}
	.st346{opacity:0.12;clip-path:url(#SVGID_221_);}
	.st347{fill:url(#SVGID_224_);}
	.st348{fill:url(#SVGID_225_);}
	.st349{fill:url(#SVGID_226_);}
	.st350{fill:url(#SVGID_227_);}
	.st351{fill:url(#SVGID_228_);}
	.st352{fill:url(#SVGID_229_);}
	.st353{fill:url(#SVGID_230_);}
	.st354{fill:url(#SVGID_231_);}
	.st355{fill:url(#SVGID_232_);}
	.st356{fill:url(#SVGID_233_);}
	.st357{fill:url(#SVGID_234_);}
	.st358{fill:url(#SVGID_235_);}
	.st359{fill:url(#SVGID_236_);}
	.st360{fill:url(#SVGID_237_);}
	.st361{fill:url(#SVGID_238_);}
	.st362{fill:url(#SVGID_239_);}
	.st363{fill:url(#SVGID_240_);}
	.st364{fill:url(#SVGID_241_);}
	.st365{fill:url(#SVGID_242_);}
	.st366{fill:url(#SVGID_243_);}
	.st367{fill:url(#SVGID_244_);}
	.st368{fill:url(#SVGID_245_);}
	.st369{fill:url(#SVGID_246_);}
	.st370{fill:url(#SVGID_247_);}
	.st371{fill:url(#SVGID_248_);}
	.st372{fill:url(#SVGID_249_);}
	.st373{fill:url(#SVGID_250_);}
	.st374{fill:url(#SVGID_251_);}
	.st375{fill:url(#SVGID_252_);}
	.st376{fill:url(#SVGID_253_);}
	.st377{fill:url(#SVGID_254_);}
	.st378{fill:url(#SVGID_255_);}
	.st379{fill:url(#SVGID_256_);}
	.st380{fill:url(#SVGID_257_);}
	.st381{opacity:0.8;clip-path:url(#SVGID_221_);}
	.st382{fill:url(#SVGID_258_);}
	.st383{opacity:0.2;clip-path:url(#SVGID_221_);fill:#72C4B8;}
	.st384{clip-path:url(#SVGID_221_);fill:url(#SVGID_259_);}
	.st385{fill:url(#SVGID_260_);}
	.st386{clip-path:url(#SVGID_221_);fill:#72C4B8;}
	.st387{clip-path:url(#SVGID_221_);fill:#26A69A;}
	.st388{clip-path:url(#SVGID_221_);fill:#959595;}
	.st389{clip-path:url(#SVGID_221_);fill:#040404;}
	.st390{clip-path:url(#SVGID_221_);fill:#030303;}
	.st391{clip-path:url(#SVGID_221_);fill:#838383;}
	.st392{opacity:0.1;fill:url(#SVGID_261_);}
	.st393{opacity:0.1;fill:url(#SVGID_262_);}
	.st394{opacity:0.1;fill:url(#SVGID_263_);}
	.st395{opacity:0.1;fill:url(#SVGID_264_);}
	.st396{fill:#E4F9F5;}
	.st397{clip-path:url(#SVGID_265_);}
	.st398{clip-path:url(#SVGID_267_);}
	.st399{clip-path:url(#SVGID_268_);}
	.st400{fill:url(#SVGID_269_);}
	.st401{opacity:0.8;}
	.st402{fill:none;stroke:#1CD3BD;stroke-width:2;stroke-miterlimit:10;}
	.st403{fill:#ECF214;}
	.st404{fill:#FCB10B;}
	.st405{fill:#FF866E;}
	.st406{fill:url(#SVGID_270_);}
	.st407{fill:none;stroke:#24EACE;stroke-miterlimit:10;}
	.st408{fill:none;stroke:#ECF214;stroke-miterlimit:10;}
	.st409{fill:none;stroke:#FCB10B;stroke-miterlimit:10;}
	.st410{fill:none;stroke:#FF866E;stroke-miterlimit:10;}
	.st411{fill:none;stroke:#26A69A;stroke-width:4;stroke-miterlimit:10;}
	.st412{opacity:0.1;fill:#F28481;}
	.st413{fill:none;stroke:#FF866E;stroke-width:1.0929;stroke-miterlimit:10;}
	.st414{clip-path:url(#SVGID_272_);}
	.st415{fill:#2B2B2B;}
	.st416{fill:#525252;}
	.st417{fill:#363636;}
	.st418{fill:#4E4E4E;}
	.st419{fill:#4C4C4C;}
	.st420{fill:#4A4A4A;}
	.st421{fill:#141414;}
	.st422{fill:#606060;}
	.st423{fill:#3F3F3F;}
	.st424{fill:#464646;}
	.st425{fill:#404040;}
	.st426{opacity:5.000000e-02;clip-path:url(#SVGID_274_);fill:url(#SVGID_275_);}
	.st427{opacity:5.000000e-02;clip-path:url(#SVGID_274_);fill:url(#SVGID_276_);}
	.st428{clip-path:url(#SVGID_274_);}
	.st429{opacity:0.12;clip-path:url(#SVGID_274_);}
	.st430{fill:url(#SVGID_277_);}
	.st431{fill:url(#SVGID_278_);}
	.st432{fill:url(#SVGID_279_);}
	.st433{fill:url(#SVGID_280_);}
	.st434{fill:url(#SVGID_281_);}
	.st435{fill:url(#SVGID_282_);}
	.st436{fill:url(#SVGID_283_);}
	.st437{fill:url(#SVGID_284_);}
	.st438{fill:url(#SVGID_285_);}
	.st439{fill:url(#SVGID_286_);}
	.st440{fill:url(#SVGID_287_);}
	.st441{fill:url(#SVGID_288_);}
	.st442{fill:url(#SVGID_289_);}
	.st443{fill:url(#SVGID_290_);}
	.st444{fill:url(#SVGID_291_);}
	.st445{fill:url(#SVGID_292_);}
	.st446{fill:url(#SVGID_293_);}
	.st447{fill:url(#SVGID_294_);}
	.st448{fill:url(#SVGID_295_);}
	.st449{fill:url(#SVGID_296_);}
	.st450{fill:url(#SVGID_297_);}
	.st451{fill:url(#SVGID_298_);}
	.st452{fill:url(#SVGID_299_);}
	.st453{fill:url(#SVGID_300_);}
	.st454{fill:url(#SVGID_301_);}
	.st455{fill:url(#SVGID_302_);}
	.st456{fill:url(#SVGID_303_);}
	.st457{fill:url(#SVGID_304_);}
	.st458{fill:url(#SVGID_305_);}
	.st459{fill:url(#SVGID_306_);}
	.st460{fill:url(#SVGID_307_);}
	.st461{fill:url(#SVGID_308_);}
	.st462{fill:url(#SVGID_309_);}
	.st463{fill:url(#SVGID_310_);}
	.st464{opacity:0.8;clip-path:url(#SVGID_274_);}
	.st465{fill:url(#SVGID_311_);}
	.st466{opacity:0.2;clip-path:url(#SVGID_274_);fill:#72C4B8;}
	.st467{clip-path:url(#SVGID_274_);fill:url(#SVGID_312_);}
	.st468{fill:url(#SVGID_313_);}
	.st469{clip-path:url(#SVGID_274_);fill:#72C4B8;}
	.st470{clip-path:url(#SVGID_274_);fill:#26A69A;}
	.st471{clip-path:url(#SVGID_274_);fill:#959595;}
	.st472{clip-path:url(#SVGID_274_);fill:#040404;}
	.st473{clip-path:url(#SVGID_274_);fill:#030303;}
	.st474{clip-path:url(#SVGID_274_);fill:#838383;}
	.st475{fill:#FFFFFF;stroke:#26A69A;stroke-width:1.7853;stroke-miterlimit:10;}
	.st476{fill:#455A64;}
	.st477{fill:#1C313A;}
	.st478{fill:#000914;}
	.st479{fill:#64D8CB;}
	.st480{fill:#991B02;}
	.st481{fill:#995B02;}
	.st482{fill:#998E02;}
	.st483{fill:#66D2FD;}
	.st484{fill:#26847A;}
	.st485{fill:#006960;}
	.st486{fill:#2EC6DB;}
	.st487{fill:#08768D;}
	.st488{clip-path:url(#SVGID_314_);}
	.st489{fill:#4F83CC;}
	.st490{opacity:5.000000e-02;fill:url(#SVGID_316_);}
	.st491{opacity:5.000000e-02;fill:url(#SVGID_317_);}
	.st492{opacity:0.12;}
	.st493{fill:url(#SVGID_318_);}
	.st494{fill:url(#SVGID_319_);}
	.st495{fill:url(#SVGID_320_);}
	.st496{fill:url(#SVGID_321_);}
	.st497{fill:url(#SVGID_322_);}
	.st498{fill:url(#SVGID_323_);}
	.st499{fill:url(#SVGID_324_);}
	.st500{fill:url(#SVGID_325_);}
	.st501{fill:url(#SVGID_326_);}
	.st502{fill:url(#SVGID_327_);}
	.st503{fill:url(#SVGID_328_);}
	.st504{fill:url(#SVGID_329_);}
	.st505{fill:url(#SVGID_330_);}
	.st506{fill:url(#SVGID_331_);}
	.st507{fill:url(#SVGID_332_);}
	.st508{fill:url(#SVGID_333_);}
	.st509{fill:url(#SVGID_334_);}
	.st510{fill:url(#SVGID_335_);}
	.st511{fill:url(#SVGID_336_);}
	.st512{fill:url(#SVGID_337_);}
	.st513{fill:url(#SVGID_338_);}
	.st514{fill:url(#SVGID_339_);}
	.st515{fill:url(#SVGID_340_);}
	.st516{fill:url(#SVGID_341_);}
	.st517{fill:url(#SVGID_342_);}
	.st518{fill:url(#SVGID_343_);}
	.st519{fill:url(#SVGID_344_);}
	.st520{fill:url(#SVGID_345_);}
	.st521{fill:url(#SVGID_346_);}
	.st522{fill:url(#SVGID_347_);}
	.st523{fill:url(#SVGID_348_);}
	.st524{fill:url(#SVGID_349_);}
	.st525{fill:url(#SVGID_350_);}
	.st526{fill:url(#SVGID_351_);}
	.st527{fill:url(#SVGID_352_);}
	.st528{opacity:0.2;fill:#72C4B8;}
	.st529{fill:url(#SVGID_353_);}
	.st530{fill:url(#SVGID_354_);}
	.st531{fill:#72C4B8;}
	.st532{fill:#959595;}
	.st533{fill:#040404;}
	.st534{fill:#030303;}
	.st535{fill:#838383;}
	.st536{fill:#E8E5F9;}
	.st537{fill:#DBD2F9;}
	.st538{fill:#CEBEFB;}
	.st539{fill:#A4CDF7;}
	.st540{fill:#83B3E2;}
	.st541{fill:#71A3CC;}
	.st542{fill:#F7BFBF;}
	.st543{fill:#FFA7A4;}
	.st544{fill:#E89292;}
	.st545{clip-path:url(#SVGID_356_);}
	.st546{opacity:5.000000e-02;fill:url(#SVGID_357_);}
	.st547{opacity:5.000000e-02;fill:url(#SVGID_358_);}
	.st548{fill:url(#SVGID_359_);}
	.st549{fill:url(#SVGID_360_);}
	.st550{fill:url(#SVGID_361_);}
	.st551{fill:url(#SVGID_362_);}
	.st552{fill:url(#SVGID_363_);}
	.st553{fill:url(#SVGID_364_);}
	.st554{fill:url(#SVGID_365_);}
	.st555{fill:url(#SVGID_366_);}
	.st556{fill:url(#SVGID_367_);}
	.st557{fill:url(#SVGID_368_);}
	.st558{fill:url(#SVGID_369_);}
	.st559{fill:url(#SVGID_370_);}
	.st560{fill:url(#SVGID_371_);}
	.st561{fill:url(#SVGID_372_);}
	.st562{fill:url(#SVGID_373_);}
	.st563{fill:url(#SVGID_374_);}
	.st564{fill:url(#SVGID_375_);}
	.st565{fill:url(#SVGID_376_);}
	.st566{fill:url(#SVGID_377_);}
	.st567{fill:url(#SVGID_378_);}
	.st568{fill:url(#SVGID_379_);}
	.st569{fill:url(#SVGID_380_);}
	.st570{fill:url(#SVGID_381_);}
	.st571{fill:url(#SVGID_382_);}
	.st572{fill:url(#SVGID_383_);}
	.st573{fill:url(#SVGID_384_);}
	.st574{fill:url(#SVGID_385_);}
	.st575{fill:url(#SVGID_386_);}
	.st576{fill:url(#SVGID_387_);}
	.st577{fill:url(#SVGID_388_);}
	.st578{fill:url(#SVGID_389_);}
	.st579{fill:url(#SVGID_390_);}
	.st580{fill:url(#SVGID_391_);}
	.st581{fill:url(#SVGID_392_);}
	.st582{fill:url(#SVGID_393_);}
	.st583{fill:url(#SVGID_394_);}
	.st584{fill:url(#SVGID_395_);}
	.st585{fill:none;stroke:#26A69A;stroke-width:0.9298;stroke-miterlimit:10;}
	.st586{fill:url(#SVGID_396_);}
	.st587{fill:url(#SVGID_397_);}
	.st588{fill:url(#SVGID_398_);}
	.st589{fill:url(#SVGID_399_);}
	.st590{fill:url(#SVGID_400_);}
	.st591{fill:url(#SVGID_401_);}
	.st592{fill:url(#SVGID_402_);}
	.st593{fill:url(#SVGID_403_);}
	.st594{fill:url(#SVGID_404_);}
	.st595{opacity:0.7;fill:#231F20;}
	.st596{opacity:0.3;fill:#66D2FD;}
	.st597{opacity:0.3;fill:#ECF214;}
	.st598{opacity:0.3;fill:#FCB10B;}
	.st599{opacity:0.3;fill:#FF866E;}
	.st600{opacity:0.1;fill:#66D2FD;}
	.st601{opacity:0.6;fill:#66D2FD;}
	.st602{opacity:0.25;fill:#66D2FD;}
	.st603{fill:none;stroke:#66D2FD;stroke-miterlimit:10;}
	.st604{fill:none;stroke:#01579B;stroke-width:2;stroke-miterlimit:10;}
	.st605{fill:url(#SVGID_405_);}
	.st606{opacity:0.2;fill:#24EACE;}
	.st607{opacity:0.3;fill:none;stroke:#07859D;stroke-miterlimit:10;}
	.st608{fill:none;stroke:#FFFFFF;stroke-width:2;stroke-miterlimit:10;}
	.st609{opacity:0.2;fill:#F1F2F2;}
	.st610{opacity:0.5;fill:#F1F2F2;}
	.st611{fill:url(#SVGID_406_);}
	.st612{opacity:0.4;fill:none;stroke:#66D2FD;stroke-miterlimit:10;}
	.st613{fill:#F7F7F7;}
	.st614{fill:none;stroke:#07859D;stroke-width:2;stroke-miterlimit:10;}
	.st615{opacity:0.6;fill:#92BEF4;}
	.st616{opacity:0.25;fill:#92BEF4;}
	.st617{fill:url(#SVGID_407_);}
	.st618{opacity:0.4;fill:none;stroke:#92BEF4;stroke-miterlimit:10;}
	.st619{fill:none;stroke:#92BEF4;stroke-miterlimit:10;}
	.st620{fill:none;stroke:#66D2FD;stroke-width:2;stroke-miterlimit:10;}
	.st621{fill:none;stroke:#F28481;stroke-width:3;stroke-miterlimit:10;}
	.st622{display:none;}
	.st623{display:inline;opacity:0.5;}
	.st624{fill:none;stroke:#000000;stroke-width:31;stroke-miterlimit:10;}
	.st625{stroke:#000000;stroke-width:10;stroke-miterlimit:10;}
	.st626{fill:url(#SVGID_408_);}
</style>
<g id="background">
</g>
<g id="content">
	<linearGradient id="SVGID_1_" gradientUnits="userSpaceOnUse" x1="202.1384" y1="701.0947" x2="202.1384" y2="137.5858">
		<stop  offset="0" style="stop-color:#07859D"/>
		<stop  offset="1" style="stop-color:#26A69A"/>
	</linearGradient>
	<path style="fill:url(#SVGID_1_);" d="M380.2,600.3c-0.2-0.5-0.4-1-0.6-1.4c-1.4-3.3-3.1-6.5-5-9.5c-1.8-2.9-1.5-6.2,1.3-8.2
		c0.3-0.2,0.6-0.5,0.9-0.8c2-2.1,2.6-5.6,0.7-7.8c-1.7-1.9-4.3-3-3.6-6.2c0-0.1-0.1-0.2-0.1-0.2c-3.8-0.9-0.8-2.1-0.2-3.1
		c0.2-0.4,0.6-0.7,0.8-1.1c0.1-0.1,0.1-0.2,0.1-0.4c0.1-3.1,0.1-6.2,0.2-9.3c0.1-3.6-0.6-6.6-3.5-8.8c-0.5-0.4-1.1-0.7-1.7-1
		c-1.8-0.9-3.8-2.5-3.3-5.3c0.8-4.3,0.1-8.3-1.5-12.2c-0.5-1.1-1-2.3-1.6-3.4c-2.6-4.8-4.6-9.8-6.6-14.9c0-0.1,0-0.1-0.1-0.2
		c-1-2.6,0.1-4.7,3-6c2.3-1.1,2.9-2.9,2.5-5c-0.4-2.4-1.3-4.8-2-7.2c0-0.1-0.1-0.2-0.1-0.3c-0.6-1.7-1.7-2.7-3.8-2.4
		c-1.8,0.2-2.9-0.7-3.5-2.6c-1.3-4.4-2.5-8.8-4.1-13c0-0.1-0.1-0.3-0.1-0.4c-1.3-3.5-2.9-6.8-2.4-10.7c0.3-2.1-0.2-4.4-0.7-6.6
		c-0.1-0.4-0.2-0.8-0.2-1.2c-0.8-4.4-0.6-9.1-3.2-13.2c-0.2-0.3,0.1-1,0.3-1.5c0.6-1.2,0.9-2.5,1.1-3.7c0.7-4-0.2-8-0.9-12
		c-0.4-2.2-1-4.3-1.6-6.5c-0.7-2.3-1.5-4.6-2.3-6.9c-1.1-3.3-2.2-6.5-3.5-9.7c-0.3-0.6-0.6-1.3-0.9-1.9c-1.2-2.5-2.6-4.8-3.4-7.4
		c-1-3-2.8-5.1-5.1-6.7c-2.1-1.5-4.3-2.9-6.5-4.3c-1.7-1.1-3.3-2.1-5-3.1c-4.3-2.5-8.7-4.9-13.1-7.2c-2.5-1.3-5.1-2.3-7.7-3.3
		c-0.4-0.2-0.8-0.2-1.3-0.3c-4.4-1-8.8-2-13.2-2.9c-3-0.6-6.1-0.9-9.1-1.6c0,0,0,0-0.1,0c-1.6-0.4-3.1-1.3-4.9-2
		c2-2.7,3.6-5,5.3-7.1c2.3-2.8,3.4-6,4.4-9.3c0.4-1.3,0.7-2.5,1.1-3.8c1.5-4.8,2.6-9.7,2.9-14.7c0.1-1.4,0.1-2.8,0.1-4.3
		c-0.2-3.9-0.2-7.9,0.1-11.8c0.1-0.8,0.1-1.6,0.2-2.4c0.5-6.2,1.2-12.3,1.6-18.5c0.1-1.1,0.1-2.2,0.2-3.3c0.2-5,0.1-10.1-0.1-15.1
		c-0.1-2.2-0.2-4.3-0.3-6.5c-0.2-4-0.4-8-0.6-12c-0.3-6.2-0.7-12.3-1-18.5c-0.1-0.9-0.1-1.8-0.2-2.7c-0.3-5.3-0.6-10.5-1.5-15.7
		c-0.5-2.9-1.1-5.8-2.1-8.6c-1.1-3.2-2-6.6-2.9-9.8c-1-3.4-1.9-6.8-3.2-10.1c-1.1-2.9-2.5-5.6-3.9-8.3c-1.1-2.1-2.2-4.2-3.1-6.3
		c-2-4.7-4.7-8.8-8.1-12.2c-2.4-2.4-5.2-4.6-8.5-6.3c-4.4-2.3-8.8-4.6-14.1-4.2c-1.1,0.1-2.8-0.7-3.5-1.6
		c-4.5-5.5-10.7-6.8-17.2-6.4c-6.4,0.5-12.8,1.8-19.1,3.1c-6.6,1.4-12.6,4.7-17.6,9c-2.3,2-4.5,4.1-6.6,6.2
		c-3.2,3.3-6.2,6.8-9.1,10.3c-2.1,2.5-3.9,5.3-5.5,8.1c-1.1,1.9-2.2,3.7-3.3,5.6c-1.6,2.8-3,5.8-4.2,8.8c-0.5,1.3-1.1,2.7-1.6,4.1
		c-2,5.1-4,10.3-5.9,15.4c-0.4,1-0.7,2-1.1,3c-1.3,3.6-2.4,7.1-3.6,10.7c-0.8,2.6-1.6,5.2-2.4,7.7c-1.2,3.9-2.5,7.9-3.7,11.8
		c-0.7,2.2-1.5,4.4-2.2,6.7c-0.7,2.1-1.4,4.2-1.9,6.3c-1.1,4-2.4,8.1-3.2,12.2c-0.3,1.3-0.5,2.6-0.6,3.8c-0.6,4.8-0.3,9.7-0.1,14.6
		c0,0.5,0,0.9,0.1,1.4c0.1,3.4,0.3,7,1.4,10.3c0.7,2.3,1.6,4.5,2.5,6.8c1.4,3.5,2.9,7,3.9,10.6c1.3,4.5,4.8,5.9,8.4,7.9
		c0.9,0.5,1.8,1,2.6,1.6c-0.1,0.4-0.2,1.7-0.8,2.1c-2.5,1.8-5.2,3.3-7.8,4.9c-1.2,0.8-2.6,1.5-3.6,2.6c-1.9,2-3.4,4.4-5.4,6.2
		c-0.4,0.4-0.9,0.7-1.4,1.1c-2.5,2-5.3,3.7-7.9,5.7c-3,2.2-6.8,3.2-9.4,6.3c-1.5,1.7-3.4,3.5-5.5,4.2c-3.1,1.1-6.5,1.3-9.7,1.9
		c-0.7,0.1-1.4,0.2-2.1,0.4c-2.8,0.5-5.5,1-8.3,1.5c-2.2,0.4-4.5,0.3-6.5,1.1c-4.4,1.8-8.4,4.5-12.9,5.8c-5.1,1.5-9.5,3.7-14,6.5
		c-1.7,1.1-3.4,2.3-4.9,3.5c-2.8,2.3-5.3,5-7.6,8.1c-2.4,3.3-3.7,6.8-4.6,10.3c-0.4,1.7-0.7,3.5-1,5.2c-0.7,4.3-0.2,8.8-0.3,13.2
		c0,0.8-0.1,1.5-0.1,2.2c-0.5,4.9,1.6,9.2,2.5,13.8c0.1,0.4,0.5,0.7,0.7,1.1c0.4,0.5,0.7,0.9,1.1,1.4c1.9,2.6,3,5.4,1,8.9
		c-0.3,0.5-0.4,1.2-0.4,1.8c0.2,2.6,0.4,5.2,0.7,7.8c0.1,1.3,0.3,2.6,0.5,3.8c0.4,2.6,0.2,4.7-1.8,6.3c-2.5,1.9-1.9,4.4-1.6,6.8
		c0.1,0.5,0.2,1,0.4,1.6c0.1,0.4,0.2,0.8,0.3,1.2c0.8,5.1,1.4,10.2,2.3,15.2c0.1,0.7,0.3,1.3,0.4,2c1,5.5,2.3,10.9,3.1,16.4
		c0.1,0.7,0.2,1.4,0.3,2.1c0.9,6.2,1.8,12.3,2.9,18.5c0.4,2.3,0.9,4.5,1.4,6.8c0.8,3.8,1.3,7.7,1.5,11.6c0.2,2.9,0.3,5.8,0.4,8.7
		c0.1,3.2,0,6.5-0.2,9.7c-0.1,1.8-0.2,3.6-0.3,5.4c-0.1,3.2,0.6,4,3.7,5.3c1.6,0.7,4,1.3,3,4.3c-0.3,1,0.3,2.4,0.7,3.5c0,0,0,0,0,0
		c0.9,2.5,2.9,5.1,2.8,7.5c-0.2,3.3,2.2,4.7,3.5,6.7c1,1.6,2.3,3,3.7,4.3c1.6,1.5,3.3,2.9,4.9,4.4c1.6,1.5,2.6,3.7,5.4,3.5
		c0.3,0,0.7,0.3,0.8,0.5c0.4,0.7,0.7,1.5,1.1,2.3c-0.5,0.3-1.2,0.7-1.9,1.2c-1.4,1.1-2.7,2.5-4.3,3.4c-1.3,0.8-2.5,1.8-3.4,3.1
		c-1.8,2.4-2.6,5.5-2.2,8.5c0.3,1.9,0.1,3.9,0.3,5.8c0.1,1.3,0.1,2.8,0.1,4.2c0.1,1.7,0.3,3.4,1.1,4.6c2,3.3,4.6,5.9,3.1,10.1
		c-0.2,0.5,0.2,1.2,0.1,1.8c-0.1,0.7,0,1.3,0.2,1.9c0.8,2.8,3.8,4.2,4.9,6.8c0.1,0.2,0.6,0.3,1,0.4c2.5,0.3,4.2,2.1,3.7,4.3
		c-0.5,2.4-1.3,4.7-1.9,7c-0.1,0.4-0.2,0.8-0.3,1.3c-0.8,4.1-1.5,8.2-2.1,12.3c-0.1,0.4,0.9,0.9,1.2,1.2c0,1.3-0.2,2.5-0.4,3.6
		c-0.6,2.9-2,5.4-5,7.1c0.4,0.7,0.6,1.7,0.4,2.9h249.9c-0.6-2.5-1.3-5-1.8-7.5c-0.2-0.8-0.3-1.6-0.4-2.4c-0.2-1.5-0.3-2.9-0.2-4.4
		c0.1-1.3,0.7-3.1,1.7-3.6c2.8-1.7,5.9-2.9,8.9-4.1c3.8-1.5,7-3.5,9.5-6.3c1.6-1.8,2.8-3.8,3.8-6.2c0.7-1.8,2-2.6,3.9-2.7
		c5.1-0.4,10.2-0.9,15.2-1.4c5.2-0.5,8.8-3.9,11.4-7.8c0.1-0.1,0.1-0.2,0.2-0.3c2.5-4,3.1-8.9,3.5-13.7c0.1-1.6,0.2-3.2,0.3-4.7
		c0.2-3.5,0.4-7,0.7-10.5c0.1-0.8,0.6-1.9,1.2-2.2c1.8-0.9,1.5-2.1,0.9-3.5c-0.3-0.7-0.7-1.5-1-2.2c-0.8-1.8-1.5-3.5-2.3-5.3
		c-1-2.3-0.3-3.4,2.3-3.7c2.6-0.3,5.2-0.7,7.8-1.2c0.4-0.1,1-0.7,1.1-1.1C380,604.2,380.8,602,380.2,600.3z"/>
	<g>
		<g>
			<path class="st88" d="M195.2,312.2c0.7,6.8-3.4,7.4-9.8,6c-2.4-0.5-4.8-1.4-7.3-1.6c-1.5-0.2-3.1,0.4-4.6,0.9
				c-0.3,0.1-0.7,1.3-0.5,1.5c0.9,1,2,2.8,2.9,2.7c5.3-0.3,8.3,2.8,10.9,6.6c0.4,0.7,0.9,1.4,1.5,1.9c6,4.9,9.1,11.9,12.5,18.6
				c0.4,0.8,0.4,1.9,0.5,2.9c0.4,6.4,0.4,12.7-2.7,18.6c-0.8,1.5-1,3.3-1.3,4.9c-0.7,4.1-1.5,5-5,4.8c-3.7-0.2-5.6-2.1-5.6-5.8
				c0-2.8,0.1-5.5-0.1-8.3c-0.2-1.7-0.9-3.4-1.5-5.1c-0.2-0.6-0.8-1.2-1.3-1.6c-1.2-1-8.3-1-9.6-0.2c-2.4,1.6-3.9,5.7-3,8.7
				c2,6.5,4.4,12.9,6,19.4c1.4,5.7,3.6,11.7,0,17.5c-0.2,0.3-0.3,0.7-0.3,1c0.4,5.8-2.5,10.8-4.2,16.1c-0.8,2.6-0.9,5.4-0.9,8.2
				c-0.1,11.8,0.1,23.7-0.1,35.5c-0.2,10.1-1.2,20.2-1.5,30.4c-0.3,11.2-0.3,22.4-0.4,33.6c0,5.6,0.2,11.1-0.1,16.7
				c-0.4,8.3-1.3,16.6-1.8,24.9c-0.5,8.8-2.8,17.2-5,25.6c-0.2,0.7-0.3,1.4-0.3,2.1c0.2,3.8-1.6,6.7-4,9.3c-4.8,5.1-7.2,11.5-9.4,18
				c-0.6,1.9,1,2.7,2.7,2.6c2.5-0.2,5-0.5,7.5-0.9c7.9-1.1,15.7-2.4,23.6-3.3c7.7-0.9,15.4-1.4,23.1-2c7.9-0.7,15.8-1,23.6-2.1
				c9.5-1.3,18.8-3.5,28.2-4.9c10.4-1.6,20.2-5,29.9-8.8c2.9-1.1,5.7-2.4,8.7-2.9c3.1-0.5,6.4-0.5,9.4,0.2
				c5.5,1.2,11.1,2.7,16.3,4.8c5.8,2.4,11.8,1.6,17.6,2.4c3.4,0.5,6.8-0.2,8.9-2.6c2.3-2.6,4.8-2.1,7.4-2.1c2.8-0.1,5.6-0.1,8.4,0
				c1.8,0.1,3.3,0.8,3.2,3.1c0,0.9,0.7,1.8,1,2.7c0.8,2.6,2.8,5.9,1.9,7.7c-1.8,3.6-0.8,7-1.3,10.4c-0.9,5.5-1.3,11-2.3,16.4
				c-1.4,7.2-4.9,11.4-11.9,13.1c-4,1-8.1,1.2-12.2,1.9c-3.2,0.5-6.7-0.3-9.2,2.5c-0.2,0.2-0.7,0.1-1,0.2
				c-5.8,1.6-11.5,3.3-17.3,4.7c-5.4,1.3-10.8,2.3-16.2,3.5c-9.5,2.2-19,4.4-28.5,6.6c-0.7,0.2-1.4,0.3-2.1,0.4
				c-9.2,0.5-18.4,0.4-27.4,1.7c-4.6,0.7-8.5-1.4-12.9-0.7c-5.7,0.8-11.5,1.5-17.3,1.5c-7.5,0.1-15-0.2-22.5-0.8
				c-5.9-0.5-11.8-1.8-17.8-2.5c-3.4-0.4-6.8-0.1-10.2-0.3c-1.6-0.1-3.1-0.7-4.7-0.8c-6.4-0.4-12.8-0.8-19.2-0.8
				c-6.7,0-13-0.6-19.5-3c-4.4-1.6-8-4.6-12.4-6c-1.2-0.4-2.1-1.7-3-2.6c-1.9-2-4-3.7-7-3.1c-0.6,0.1-1.3,0.2-1.7,0.6
				c-2,2-4.3,3-7.2,3.2c-2.5,0.1-5.1,0.9-7.6,1c-3.3,0.2-5.8-1-7.9-3.8c-1.9-2.5-4.7-4.3-6.9-6.6c-0.8-0.9-1.3-2.3-1.4-3.5
				c-0.2-2.4,0.3-4.8,0.1-7.2c-0.1-1.4-0.8-3.1-1.8-3.9c-2.8-2.3-3.3-5.5-3.5-8.7c-0.2-2.6,0-5.2-0.2-7.8c-0.4-4.9,2.3-8.2,5.8-11
				c1.7-1.3,3.5-2.3,5.1-3.7c2-1.8,3.4-0.9,4.8,0.6c4.2,4.4,8.4,8.8,12.6,13.2c2.1,2.2,4.3,4.5,6.5,6.6c0.5,0.5,1.6,0.3,2.5,0.4
				c-0.1-0.8,0-1.8-0.4-2.3c-3.9-4.3-7.7-8.6-11.8-12.7c-3.1-3.1-4.3-6.8-3.1-10.6c3-9.8,4.2-19.9,6.4-29.8
				c1.4-6.4,2.9-12.7,3.7-19.2c1-7.7,5.2-13.9,8.8-20.2c5.7-9.8,11.6-19.4,15.2-30.3c0.7-2.2,1-4.6,1.7-6.9c0.9-2.8,2.4-5.5,3.1-8.3
				c2.9-11.6,5.6-23.3,8.4-35c2.3-9.6,4.7-19.1,7-28.6c1.5-6.6,3.8-13.3,4-19.9c0.2-8.6-1.2-17.3-2.1-25.9
				c-0.5-5.1-1.1-10.1-1.9-15.1c-1.2-7.6-2.4-15.2-3.8-22.7c-0.5-2.9,0.1-5.3,1.7-7.6c3.6-5.2,7.2-10.4,10.9-15.5
				c3.5-4.9,7.1-9.7,10.8-14.4c0.7-0.9,2-1.9,3.1-1.9c7.8,0,15.7-0.3,23.4,0.7c4.3,0.5,8.2,3.2,12.3,5
				C192.6,310.6,193.8,311.4,195.2,312.2z"/>
		</g>
	</g>
	<g>
		<path class="st340" d="M199,90c1-6.8,6.4-10.9,12.9-10c6.7,0.9,10.4,6.3,9.6,13.1c-0.9,6.5-6.1,10.9-12.9,10
			C202,102.2,198.1,96.5,199,90z M205.6,70l0.2-3.9c0.3-7.8,4.2-15.6,12.3-23c6.6-5.9,11-10.5,11.8-16.3c0.9-6.2-2.4-10.9-10.7-12.2
			c-5.2-0.7-11.3,0.1-15.4,2.4l-2.6-13.6c5.8-2.7,14.8-4.1,24.1-2.8c18.3,2.6,25.3,14.4,23.6,26.3c-1.5,10.7-9,17.1-16.4,23.5
			c-6.7,6-9.9,11.7-10.7,18.9l-0.3,3.1L205.6,70z"/>
	</g>
	<g>
		<path class="st106" d="M131.5,86.8l-1.7-2.7c-3.5-5.2-4.7-12.1-3-20.9c1.5-6.9,2.1-12.1-0.1-16.2c-2.4-4.5-6.7-6-12.8-2.9
			c-3.7,2-7.4,5.4-8.9,8.9l-8.2-7.7c2.5-4.5,7.7-9.7,14.4-13.3c13.2-7.1,23.3-2.6,27.9,5.9c4.1,7.7,2.3,15.5,0.5,23.1
			c-1.5,7.1-0.9,12.4,2,17.4l1.3,2.2L131.5,86.8z M136.7,103c-2.6-4.9-1-10.1,3.6-12.6c4.8-2.6,9.8-0.9,12.5,4
			c2.5,4.7,1.2,10-3.6,12.6C144.5,109.6,139.2,107.7,136.7,103z"/>
	</g>
</g>
<g id="screen">
</g>
<g id="modal">
</g>
<g id="grid" class="st622">
</g>
<g id="Layer_1">
</g>
</svg>
